ply
format ascii 1.0
comment VCGLIB generated
element vertex 9
property float x
property float y
property float z
property float nx
property float ny
property float nz
property uchar red
property uchar green
property uchar blue
element face 17
property list uchar int vertex_indices
end_header
-1.0 -0.54 -1.0 0 0 0 0 178 255
-1.0 -1.0 0.45 0 0 0 184 255 0
-1.0 1.0 -0.45 0 0 0 0 255 3
-1.0 1.0 1.0 0 0 0 0 255 118
0.54 -1.0 -1.0 0 0 0 0 0 255
1.0 -1.0 -0.45 0 0 0 0 46 255
1.0 -1.0 1.0 0 0 0 0 255 118
1.0 1.0 -1.0 0 0 0 255 166 0
1.0 1.0 1.0 0 0 0 255 0 0

3 3 2 8
3 6 5 8
3 0 2 1
3 5 4 1
3 5 7 8
3 7 5 4
3 6 5 8
3 1 5 6
3 4 0 1
3 8 2 3
3 3 6 8
3 3 2 1
3 1 6 3
3 8 2 7
3 7 4 8
3 7 2 0
3 0 4 7

