ply
format ascii 1.0
comment VCGLIB generated
element vertex 25
property float x
property float y
property float z
property float nx
property float ny
property float nz
property uchar red
property uchar green
property uchar blue
element face 48
property list uchar int vertex_indices
end_header
-1.0 -1.0 -1.0 0 0 0 0 148 255
-1.0 -1.0 -0.6 0 0 0 0 139 255
-1.0 -0.54 -1.0 0 0 0 0 134 255
-0.54 -1.0 -1.0 0 0 0 0 252 255
-1.0 -1.0 0.45 0 0 0 0 150 255
-1.0 -1.0 1.0 0 0 0 0 164 255
-1.0 -0.54 1.0 0 0 0 0 211 255
-0.36 -1.0 0.36 0 0 0 0 0 255
-0.54 -1.0 1.0 0 0 0 0 156 255
-1.0 0.54 -1.0 0 0 0 0 147 255
-1.0 0.36 -0.36 0 0 0 0 0 255
-1.0 1.0 -1.0 0 0 0 0 159 255
-1.0 1.0 -0.45 0 0 0 0 142 255
-0.45 0.45 -1.0 0 0 0 0 0 255
-0.54 1.0 -1.0 0 0 0 0 134 255
-1.0 1.0 1.0 0 0 0 84 255 0
0.54 -1.0 -1.0 0 0 0 0 147 255
0.36 -1.0 -0.36 0 0 0 0 0 255
0.45 -0.45 -1.0 0 0 0 0 0 255
1.0 -1.0 -1.0 0 0 0 0 159 255
1.0 -1.0 -0.45 0 0 0 0 142 255
1.0 -0.54 -1.0 0 0 0 0 134 255
1.0 -1.0 1.0 0 0 0 106 255 0
1.0 1.0 -1.0 0 0 0 129 255 0
1.0 1.0 1.0 0 0 0 255 0 0

3 4 5 6
3 4 7 8
3 4 8 5
3 9 10 12
3 9 12 11
3 9 11 14
3 9 14 13
3 16 19 20
3 16 20 17
3 16 18 21
3 16 21 19
3 3 16 17
3 3 18 16
3 7 22 8
3 13 14 23
3 2 10 9
3 2 9 13
3 18 23 21
3 1 7 4
3 10 15 12
3 17 20 22
3 2 1 0
3 22 7 17
3 7 3 17
3 3 1 0
3 3 7 1
3 23 13 18
3 13 3 18
3 3 2 0
3 3 13 2
3 15 6 24
3 8 22 24
3 8 6 5
3 8 24 6
3 15 12 24
3 14 23 24
3 12 11 14
3 14 24 12
3 11 23 14
3 22 20 24
3 21 23 24
3 20 19 21
3 21 24 20
3 19 23 21
3 15 6 10
3 6 4 10
3 10 4 1
3 1 2 10

