ply
format ascii 1.0
comment VCGLIB generated
element vertex 28
property float x
property float y
property float z
property float nx
property float ny
property float nz
property uchar red
property uchar green
property uchar blue
element face 52
property list uchar int vertex_indices
end_header
-1.0 -1.0 -1.0 0 0 0 0 177 255
-1.0 -1.0 -0.6 0 0 0 0 170 255
-1.0 -0.54 -1.0 0 0 0 0 153 255
-0.54 -1.0 -1.0 0 0 0 0 255 208
-1.0 -1.0 0.45 0 0 0 0 176 255
-1.0 -1.0 1.0 0 0 0 0 196 255
-1.0 -0.36 0.36 0 0 0 0 0 255
-1.0 -0.54 1.0 0 0 0 0 187 255
-0.36 -1.0 0.36 0 0 0 0 0 255
-0.54 -1.0 1.0 0 0 0 0 187 255
-1.0 0.54 -1.0 0 0 0 0 175 255
-1.0 0.36 -0.36 0 0 0 0 0 255
-1.0 1.0 -1.0 0 0 0 0 202 255
-1.0 1.0 -0.45 0 0 0 0 177 255
-0.45 0.45 -1.0 0 0 0 0 0 255
-0.54 1.0 -1.0 0 0 0 0 179 255
-0.36 1.0 -0.36 0 0 0 0 0 255
-1.0 1.0 1.0 0 0 0 237 255 0
0.54 -1.0 -1.0 0 0 0 0 175 255
0.36 -1.0 -0.36 0 0 0 0 0 255
0.45 -0.45 -1.0 0 0 0 0 0 255
1.0 -1.0 -1.0 0 0 0 0 202 255
1.0 -1.0 -0.45 0 0 0 0 177 255
1.0 -0.54 -1.0 0 0 0 0 179 255
1.0 -0.36 -0.36 0 0 0 0 0 255
1.0 -1.0 1.0 0 0 0 237 255 0
1.0 1.0 -1.0 0 0 0 252 255 0
1.0 1.0 1.0 0 0 0 255 0 0

3 4 5 7
3 4 7 6
3 4 8 9
3 4 9 5
3 10 11 13
3 10 13 12
3 12 16 15
3 12 13 16
3 10 12 15
3 10 15 14
3 21 24 22
3 21 23 24
3 18 21 22
3 18 22 19
3 18 20 23
3 18 23 21
3 3 18 19
3 3 20 18
3 8 25 9
3 15 16 26
3 14 15 26
3 2 11 10
3 2 10 14
3 23 26 24
3 20 26 23
3 6 7 17
3 1 4 6
3 1 8 4
3 11 17 13
3 13 17 16
3 22 24 25
3 19 22 25
3 24 27 25
3 24 26 27
3 16 27 26
3 16 17 27
3 17 6 11
3 6 2 11
3 2 1 0
3 2 6 1
3 25 8 19
3 8 3 19
3 3 1 0
3 3 8 1
3 26 14 20
3 14 3 20
3 3 2 0
3 3 14 2
3 17 7 27
3 9 25 27
3 9 7 5
3 9 27 7

