ply
format ascii 1.0
comment VCGLIB generated
element vertex 19
property float x
property float y
property float z
property float nx
property float ny
property float nz
property uchar red
property uchar green
property uchar blue
element face 38
property list uchar int vertex_indices
end_header
-1.0 -1.0 -1.0 0 0 0 0 88 255
-1.0 -1.0 -0.6 0 0 0 0 4 255
-1.0 -0.54 -1.0 0 0 0 0 223 255
-1.0 -1.0 0.45 0 0 0 0 128 255
-1.0 -1.0 1.0 0 0 0 0 77 255
-1.0 -0.54 1.0 0 0 0 0 101 255
-0.54 -1.0 1.0 0 0 0 0 101 255
-1.0 0.54 -1.0 0 0 0 0 0 255
-1.0 1.0 -1.0 0 0 0 0 72 255
-1.0 1.0 -0.45 0 0 0 0 195 255
-0.54 1.0 -1.0 0 0 0 0 190 255
-1.0 1.0 1.0 0 0 0 0 255 9
0.54 -1.0 -1.0 0 0 0 0 88 255
1.0 -1.0 -1.0 0 0 0 0 72 255
1.0 -1.0 -0.45 0 0 0 0 134 255
1.0 -0.54 -1.0 0 0 0 0 97 255
1.0 -1.0 1.0 0 0 0 0 255 9
1.0 1.0 -1.0 0 0 0 71 255 0
1.0 1.0 1.0 0 0 0 255 0 0

3 3 4 5
3 3 6 4
3 7 9 8
3 7 8 10
3 12 13 14
3 12 15 13
3 2 1 0
3 11 5 18
3 6 16 18
3 6 5 4
3 6 18 5
3 11 9 18
3 10 17 18
3 9 8 10
3 10 18 9
3 8 17 10
3 16 14 18
3 15 17 18
3 14 13 15
3 15 18 14
3 13 17 15
3 11 5 9
3 5 3 9
3 2 9 3
3 1 2 3
3 2 7 9
3 16 6 14
3 6 3 14
3 10 15 17
3 10 12 15
3 2 12 10
3 7 2 10
3 14 12 3
3 12 1 3
3 1 0 2
3 2 3 1
3 0 12 2
3 1 12 0

