ply
format ascii 1.0
comment VCGLIB generated
element vertex 22
property float x
property float y
property float z
property float nx
property float ny
property float nz
property uchar red
property uchar green
property uchar blue
element face 42
property list uchar int vertex_indices
end_header
-1.0 -1.0 -1.0 0 0 0 0 148 255
-1.0 -1.0 -0.6 0 0 0 0 80 255
-1.0 -0.54 -1.0 0 0 0 0 255 246
-0.54 -1.0 -1.0 0 0 0 0 134 255
-1.0 -1.0 0.45 0 0 0 0 200 255
-1.0 -1.0 1.0 0 0 0 0 164 255
-1.0 -0.54 1.0 0 0 0 0 185 255
-0.54 -1.0 1.0 0 0 0 0 211 255
-1.0 0.54 -1.0 0 0 0 0 90 255
-1.0 1.0 -1.0 0 0 0 0 159 255
-1.0 1.0 -0.45 0 0 0 0 255 239
-0.54 1.0 -1.0 0 0 0 0 205 255
-1.0 1.0 1.0 0 0 0 38 255 0
0.54 -1.0 -1.0 0 0 0 0 147 255
0.36 -1.0 -0.36 0 0 0 0 0 255
0.45 -0.45 -1.0 0 0 0 0 0 255
1.0 -1.0 -1.0 0 0 0 0 159 255
1.0 -1.0 -0.45 0 0 0 0 142 255
1.0 -0.54 -1.0 0 0 0 0 134 255
1.0 -1.0 1.0 0 0 0 84 255 0
1.0 1.0 -1.0 0 0 0 122 255 0
1.0 1.0 1.0 0 0 0 255 0 0

3 4 5 6
3 4 7 5
3 8 10 9
3 8 9 11
3 13 16 17
3 13 17 14
3 13 15 18
3 13 18 16
3 3 13 14
3 3 15 13
3 15 20 18
3 14 17 19
3 2 1 0
3 3 1 0
3 3 2 0
3 12 6 21
3 7 19 21
3 7 6 5
3 7 21 6
3 12 10 21
3 11 20 21
3 10 9 11
3 11 21 10
3 9 20 11
3 19 17 21
3 18 20 21
3 17 16 18
3 18 21 17
3 16 20 18
3 19 7 14
3 7 4 14
3 14 4 1
3 1 3 14
3 20 11 15
3 11 8 15
3 15 8 2
3 2 3 15
3 12 6 10
3 6 4 10
3 2 10 4
3 1 2 4
3 2 8 10

