ply
format ascii 1.0
comment VCGLIB generated
element vertex 12
property float x
property float y
property float z
property float nx
property float ny
property float nz
property uchar red
property uchar green
property uchar blue
element face 25
property list uchar int vertex_indices
end_header
-1.0 -1.0 -1.0 0 0 0 0 0 255
-1.0 -0.54 -1.0 0 0 0 0 166 255
-1.0 -1.0 0.45 0 0 0 0 255 136
-1.0 -0.54 1.0 0 0 0 0 183 255
-1.0 1.0 -0.45 0 0 0 0 255 40
-0.54 1.0 -1.0 0 0 0 0 229 255
-1.0 1.0 1.0 0 0 0 0 255 77
0.54 -1.0 -1.0 0 0 0 0 198 255
1.0 -1.0 -0.45 0 0 0 0 255 149
1.0 -1.0 1.0 0 0 0 56 255 0
1.0 1.0 -1.0 0 0 0 237 255 0
1.0 1.0 1.0 0 0 0 255 0 0

3 6 3 11
3 6 4 11
3 5 10 11
3 5 11 4
3 9 8 11
3 6 3 4
3 3 2 4
3 1 4 2
3 1 7 5
3 8 7 2
3 0 7 1
3 7 0 2
3 0 7 1
3 1 2 0
3 10 4 5
3 5 1 10
3 1 5 4
3 8 10 11
3 7 5 10
3 10 8 7
3 5 11 10
3 11 3 9
3 9 8 11
3 2 9 3
3 2 8 9

