ply
format ascii 1.0
comment VCGLIB generated
element vertex 16
property float x
property float y
property float z
property float nx
property float ny
property float nz
property uchar red
property uchar green
property uchar blue
element face 33
property list uchar int vertex_indices
end_header
-1.0 -1.0 -1.0 0 0 0 0 99 255
-1.0 -0.54 -1.0 0 0 0 0 220 255
-1.0 -1.0 0.45 0 0 0 0 81 255
-1.0 -1.0 1.0 0 0 0 0 0 255
-1.0 -0.54 1.0 0 0 0 0 25 255
-0.54 -1.0 1.0 0 0 0 0 25 255
-1.0 1.0 -1.0 0 0 0 0 49 255
-1.0 1.0 -0.45 0 0 0 0 139 255
-0.54 1.0 -1.0 0 0 0 0 138 255
-1.0 1.0 1.0 0 0 0 0 255 52
0.54 -1.0 -1.0 0 0 0 0 136 255
1.0 -1.0 -0.45 0 0 0 0 255 221
1.0 -0.54 -1.0 0 0 0 0 77 255
1.0 -1.0 1.0 0 0 0 0 255 52
1.0 1.0 -1.0 0 0 0 90 255 0
1.0 1.0 1.0 0 0 0 255 0 0

3 2 3 4
3 2 5 3
3 9 4 15
3 5 13 15
3 5 4 3
3 5 15 4
3 9 7 15
3 8 14 15
3 7 6 8
3 8 15 7
3 6 14 8
3 13 11 15
3 12 14 15
3 12 15 11
3 9 4 7
3 4 2 7
3 1 7 2
3 13 5 11
3 5 2 11
3 8 12 14
3 8 10 12
3 1 10 8
3 11 10 2
3 0 10 1
3 7 6 8
3 6 7 1
3 1 8 6
3 10 0 2
3 0 10 1
3 1 2 0
3 14 10 12
3 12 11 14
3 11 12 10

