ply
format ascii 1.0
comment VCGLIB generated
element vertex 6
property float x
property float y
property float z
property float nx
property float ny
property float nz
property uchar red
property uchar green
property uchar blue
element face 11
property list uchar int vertex_indices
end_header
-1.0 -1.0 0.45 0 0 0 98 255 0
-1.0 1.0 -0.45 0 0 0 255 0 0
1.0 -1.0 -0.45 0 0 0 0 255 54
1.0 -1.0 1.0 0 0 0 0 0 255
1.0 1.0 -1.0 0 0 0 0 255 78
1.0 1.0 1.0 0 0 0 255 150 0

3 3 2 5
3 2 4 5
3 3 2 5
3 0 2 3
3 5 1 4
3 5 2 4
3 2 5 0
3 4 1 2
3 0 2 1
3 5 0 3
3 0 5 1

