ply
format ascii 1.0
comment VCGLIB generated
element vertex 657
property float x
property float y
property float z
property float nx
property float ny
property float nz
property uchar red
property uchar green
property uchar blue
element face 1166
property list uchar int vertex_indices
end_header
-0.005124 -1.550808 0.0 0 0 0 0 0 255
0.071664 -1.546254 0.0 0 0 0 0 0 255
-0.023922 -1.466034 0.0 0 0 0 0 0 255
-0.099186 -1.487694 0.0 0 0 0 0 0 255
-0.003882 -1.630458 0.0 0 0 0 0 0 255
-1.02294 -0.724344 0.0 0 0 0 0 0 255
-1.102482 -0.781992 0.0 0 0 0 0 0 255
-1.014384 -0.802272 0.0 0 0 0 0 0 255
-0.937512 -0.794508 0.0 0 0 0 0 0 255
-0.86523 -0.825792 0.0 0 0 0 0 0 255
-0.856506 -0.744468 0.0 0 0 0 0 0 255
-0.759246 -0.76914 0.0 0 0 0 0 0 255
-1.19364 -0.78261 0.0 0 0 0 0 0 255
-1.141188 -0.716088 0.0 0 0 0 0 0 255
-1.231128 -0.521838 0.0 0 0 0 0 0 255
-1.259004 -0.5964 0.0 0 0 0 0 0 255
-1.12938 -0.620694 0.0 0 0 0 0 0 255
-1.202136 -0.66606 0.0 0 0 0 0 0 255
-1.109682 -0.514938 0.0 0 0 0 0 0 255
-1.180542 -0.45216 0.0 0 0 0 0 0 255
-1.029678 -0.599952 0.0 0 0 0 0 0 255
-0.943896 -0.709188 0.0 0 0 0 0 0 255
-0.948264 -0.562476 0.0 0 0 0 0 0 255
-1.102686 -0.421878 0.0 0 0 0 0 0 255
-1.037922 -0.470082 0.0 0 0 0 0 0 255
-0.938328 -0.455208 0.0 0 0 0 0 0 255
-1.014906 -0.382878 0.0 0 0 0 0 0 255
-0.857526 -0.658326 0.0 0 0 0 0 0 255
-0.782094 -0.693294 0.0 0 0 0 0 0 255
-0.841974 -0.577164 0.0 0 0 0 0 0 255
-0.763602 -0.56661 0.0 0 0 0 0 0 255
-0.887766 -0.512328 0.0 0 0 0 0 0 255
-0.826242 -0.460014 0.0 0 0 0 0 0 255
-0.773196 -0.39894 0.0 0 0 0 0 0 255
-0.7368 -0.489708 0.0 0 0 0 0 0 255
-0.860838 -0.367746 0.0 0 0 0 0 0 255
-0.723168 -0.636744 0.0 0 0 0 0 0 255
-1.035504 -0.275736 0.0 0 0 0 0 0 255
-0.94347 -0.323844 0.0 0 0 0 0 0 255
-1.136376 -0.339258 0.0 0 0 0 0 0 255
-0.939276 -0.244194 0.0 0 0 0 0 0 255
-0.874698 -0.289608 0.0 0 0 0 0 0 255
-1.048128 -0.191166 0.0 0 0 0 0 0 255
-0.985584 -0.113052 0.0 0 0 0 0 0 255
-0.907812 -0.167988 0.0 0 0 0 0 0 255
-0.797382 -0.310536 0.0 0 0 0 0 0 255
-0.83835 -0.216288 0.0 0 0 0 0 0 255
-0.718902 -0.133512 0.0 0 0 0 0 0 255
-0.839268 -0.128262 0.0 0 0 0 0 0 255
-0.908112 -0.010968 0.0 0 0 0 0 0 255
-0.910656 -0.09078 0.0 0 0 0 0 0 255
-0.809622 -0.05232 0.0 0 0 0 0 0 255
-0.81537 0.05871 0.0 0 0 0 0 0 255
-0.738552 -0.242856 0.0 0 0 0 0 0 255
-0.702828 -0.318744 0.0 0 0 0 0 0 255
-0.706284 -0.711702 0.0 0 0 0 0 0 255
-0.666762 -0.78306 0.0 0 0 0 0 0 255
-0.110142 -1.295352 0.0 0 0 0 0 0 255
-0.184014 -1.208958 0.0 0 0 0 0 0 255
-0.248538 -1.304508 0.0 0 0 0 0 0 255
-0.01932 -1.319292 0.0 0 0 0 0 0 255
-0.052278 -1.390428 0.0 0 0 0 0 0 255
0.066522 -1.382724 0.0 0 0 0 0 0 255
-0.153876 -1.372986 0.0 0 0 0 0 0 255
-0.10671 -1.184196 0.0 0 0 0 0 0 255
-0.023592 -1.204842 0.0 0 0 0 0 0 255
0.045528 -1.0839 0.0 0 0 0 0 0 255
-0.063414 -1.11963 0.0 0 0 0 0 0 255
-0.18675 -1.112268 0.0 0 0 0 0 0 255
-0.120018 -1.057182 0.0 0 0 0 0 0 255
-0.126714 -0.96636 0.0 0 0 0 0 0 255
-0.211734 -0.99708 0.0 0 0 0 0 0 255
0.001602 -1.000704 0.0 0 0 0 0 0 255
-0.171822 -0.896316 0.0 0 0 0 0 0 255
-0.095118 -0.89643 0.0 0 0 0 0 0 255
-0.119274 -0.815148 0.0 0 0 0 0 0 255
-0.019638 -0.86775 0.0 0 0 0 0 0 255
-0.030438 -0.763872 0.0 0 0 0 0 0 255
-0.226482 -0.786636 0.0 0 0 0 0 0 255
0.037596 -0.80748 0.0 0 0 0 0 0 255
-0.196896 -0.707934 0.0 0 0 0 0 0 255
0.061374 -1.305588 0.0 0 0 0 0 0 255
-0.639162 -0.67203 0.0 0 0 0 0 0 255
-0.649824 -0.526026 0.0 0 0 0 0 0 255
-0.582126 -0.574146 0.0 0 0 0 0 0 255
-0.529566 -0.637404 0.0 0 0 0 0 0 255
-0.670086 -0.450618 0.0 0 0 0 0 0 255
-0.578298 -0.481998 0.0 0 0 0 0 0 255
-0.611946 -0.367794 0.0 0 0 0 0 0 255
-0.475842 -0.540294 0.0 0 0 0 0 0 255
-0.555072 -0.72048 0.0 0 0 0 0 0 255
-0.457962 -0.758148 0.0 0 0 0 0 0 255
-0.420114 -0.650466 0.0 0 0 0 0 0 255
-0.441018 -0.432144 0.0 0 0 0 0 0 255
-0.541854 -0.40422 0.0 0 0 0 0 0 255
-0.42996 -0.33621 0.0 0 0 0 0 0 255
-0.373578 -0.393408 0.0 0 0 0 0 0 255
-0.399768 -0.528312 0.0 0 0 0 0 0 255
-0.661512 -0.193458 0.0 0 0 0 0 0 255
-0.625578 -0.09828 0.0 0 0 0 0 0 255
-0.580164 -0.193632 0.0 0 0 0 0 0 255
-0.596658 -0.279786 0.0 0 0 0 0 0 255
-0.728448 -0.034974 0.0 0 0 0 0 0 255
-0.648222 -0.02148 0.0 0 0 0 0 0 255
-0.531126 -0.071442 0.0 0 0 0 0 0 255
-0.520608 -0.265056 0.0 0 0 0 0 0 255
-0.396702 -0.1779 0.0 0 0 0 0 0 255
-0.43245 -0.248244 0.0 0 0 0 0 0 255
-0.33201 -0.243174 0.0 0 0 0 0 0 255
-0.479964 -0.168954 0.0 0 0 0 0 0 255
-0.460236 -0.028194 0.0 0 0 0 0 0 255
-0.395694 -0.072882 0.0 0 0 0 0 0 255
-0.568272 0.029238 0.0 0 0 0 0 0 255
-0.336438 -0.48441 0.0 0 0 0 0 0 255
-0.302562 -0.364218 0.0 0 0 0 0 0 255
-0.05574 -0.591162 0.0 0 0 0 0 0 255
-0.078582 -0.691134 0.0 0 0 0 0 0 255
0.06033 -0.675936 0.0 0 0 0 0 0 255
-0.21672 -0.319026 0.0 0 0 0 0 0 255
-0.320508 -0.15135 0.0 0 0 0 0 0 255
-0.199908 -0.084834 0.0 0 0 0 0 0 255
-0.28839 -0.081522 0.0 0 0 0 0 0 255
-0.246174 -0.188226 0.0 0 0 0 0 0 255
-0.34209 0.016344 0.0 0 0 0 0 0 255
-0.242076 -0.018042 0.0 0 0 0 0 0 255
-0.15618 -0.227166 0.0 0 0 0 0 0 255
-0.14628 -0.146256 0.0 0 0 0 0 0 255
-0.13797 -0.034854 0.0 0 0 0 0 0 255
-0.062844 -0.048948 0.0 0 0 0 0 0 255
-0.016092 0.060858 0.0 0 0 0 0 0 255
0.027336 -0.024474 0.0 0 0 0 0 0 255
-0.11919 0.083502 0.0 0 0 0 0 0 255
-0.229818 0.073002 0.0 0 0 0 0 0 255
-0.686364 0.053052 0.0 0 0 0 0 0 255
-0.75036 0.101634 0.0 0 0 0 0 0 255
-0.8535 0.131022 0.0 0 0 0 0 0 255
-0.775764 0.232824 0.0 0 0 0 0 0 255
-0.71475 0.282696 0.0 0 0 0 0 0 255
-0.753222 0.351342 0.0 0 0 0 0 0 255
-0.654018 0.383022 0.0 0 0 0 0 0 255
-0.752022 0.431052 0.0 0 0 0 0 0 255
-0.678162 0.2013 0.0 0 0 0 0 0 255
-0.65802 0.494646 0.0 0 0 0 0 0 255
-0.772482 0.512652 0.0 0 0 0 0 0 255
-0.614046 0.099792 0.0 0 0 0 0 0 255
-0.588282 0.211824 0.0 0 0 0 0 0 255
-0.522666 0.092298 0.0 0 0 0 0 0 255
-0.623946 0.30501 0.0 0 0 0 0 0 255
-0.519522 0.252714 0.0 0 0 0 0 0 255
-0.534672 0.334404 0.0 0 0 0 0 0 255
-0.575838 0.399474 0.0 0 0 0 0 0 255
-0.494388 0.166962 0.0 0 0 0 0 0 255
-0.456666 0.053472 0.0 0 0 0 0 0 255
-0.387588 0.085908 0.0 0 0 0 0 0 255
-0.368256 0.159684 0.0 0 0 0 0 0 255
-0.284604 0.136476 0.0 0 0 0 0 0 255
-0.389748 0.235134 0.0 0 0 0 0 0 255
-0.398706 0.365742 0.0 0 0 0 0 0 255
-0.456468 0.30882 0.0 0 0 0 0 0 255
-0.347502 0.309294 0.0 0 0 0 0 0 255
-0.487446 0.395436 0.0 0 0 0 0 0 255
-0.717324 0.573192 0.0 0 0 0 0 0 255
-0.538716 0.658062 0.0 0 0 0 0 0 255
-0.621096 0.63627 0.0 0 0 0 0 0 255
-0.597804 0.544374 0.0 0 0 0 0 0 255
-0.539736 0.467178 0.0 0 0 0 0 0 255
-0.68694 0.719544 0.0 0 0 0 0 0 255
-0.605928 0.72342 0.0 0 0 0 0 0 255
-0.646668 0.79059 0.0 0 0 0 0 0 255
-0.405384 0.471156 0.0 0 0 0 0 0 255
-0.31881 0.445572 0.0 0 0 0 0 0 255
-0.520872 0.554142 0.0 0 0 0 0 0 255
-0.521256 0.748818 0.0 0 0 0 0 0 255
-0.42654 0.658608 0.0 0 0 0 0 0 255
-0.448104 0.580446 0.0 0 0 0 0 0 255
-0.352902 0.537414 0.0 0 0 0 0 0 255
-0.445542 0.75795 0.0 0 0 0 0 0 255
-0.537882 0.82593 0.0 0 0 0 0 0 255
-0.304968 0.213612 0.0 0 0 0 0 0 255
-0.240576 0.272682 0.0 0 0 0 0 0 255
-0.176676 0.23112 0.0 0 0 0 0 0 255
-0.299928 0.36915 0.0 0 0 0 0 0 255
-0.223686 0.36093 0.0 0 0 0 0 0 255
-0.154644 0.32712 0.0 0 0 0 0 0 255
-0.20355 0.444798 0.0 0 0 0 0 0 255
-0.17556 0.136092 0.0 0 0 0 0 0 255
-0.075102 0.149244 0.0 0 0 0 0 0 255
-0.091488 0.232842 0.0 0 0 0 0 0 255
0.018018 0.176472 0.0 0 0 0 0 0 255
-0.055188 0.366294 0.0 0 0 0 0 0 255
0.012522 0.289176 0.0 0 0 0 0 0 255
0.07257 0.36453 0.0 0 0 0 0 0 255
-0.014172 0.432024 0.0 0 0 0 0 0 255
-0.100026 0.440268 0.0 0 0 0 0 0 255
-0.279156 0.513096 0.0 0 0 0 0 0 255
-0.20544 0.538908 0.0 0 0 0 0 0 255
-0.297318 0.594318 0.0 0 0 0 0 0 255
-0.34968 0.71985 0.0 0 0 0 0 0 255
-0.22074 0.678552 0.0 0 0 0 0 0 255
-0.154812 0.639036 0.0 0 0 0 0 0 255
-0.255672 0.790986 0.0 0 0 0 0 0 255
-0.125286 0.53694 0.0 0 0 0 0 0 255
-0.053094 0.508398 0.0 0 0 0 0 0 255
-0.026196 0.59712 0.0 0 0 0 0 0 255
0.02166 0.5265 0.0 0 0 0 0 0 255
-0.093354 0.73263 0.0 0 0 0 0 0 255
-0.074454 0.656688 0.0 0 0 0 0 0 255
-0.006714 0.69315 0.0 0 0 0 0 0 255
0.049014 0.635412 0.0 0 0 0 0 0 255
-0.086088 0.816888 0.0 0 0 0 0 0 255
0.018708 0.765888 0.0 0 0 0 0 0 255
-0.16911 0.809076 0.0 0 0 0 0 0 255
-0.72006 0.907626 0.0 0 0 0 0 0 255
-0.60669 0.865386 0.0 0 0 0 0 0 255
-0.639984 0.96423 0.0 0 0 0 0 0 255
-0.557652 0.945072 0.0 0 0 0 0 0 255
-0.617772 1.048482 0.0 0 0 0 0 0 255
-0.541674 1.041312 0.0 0 0 0 0 0 255
-0.4743 0.88932 0.0 0 0 0 0 0 255
-0.4836 0.965646 0.0 0 0 0 0 0 255
-0.399426 0.845322 0.0 0 0 0 0 0 255
-0.330264 0.811284 0.0 0 0 0 0 0 255
-0.378402 0.963918 0.0 0 0 0 0 0 255
-0.563064 1.12224 0.0 0 0 0 0 0 255
-0.485778 1.103562 0.0 0 0 0 0 0 255
-0.431856 1.03668 0.0 0 0 0 0 0 255
-0.406512 1.110876 0.0 0 0 0 0 0 255
-0.334086 1.084536 0.0 0 0 0 0 0 255
-0.658656 1.113402 0.0 0 0 0 0 0 255
-0.579366 1.210368 0.0 0 0 0 0 0 255
-0.458034 1.29804 0.0 0 0 0 0 0 255
-0.48498 1.18332 0.0 0 0 0 0 0 255
-0.39441 1.186632 0.0 0 0 0 0 0 255
-0.507138 1.390788 0.0 0 0 0 0 0 255
-0.606066 1.431246 0.0 0 0 0 0 0 255
-0.555918 1.331736 0.0 0 0 0 0 0 255
-0.515916 1.46799 0.0 0 0 0 0 0 255
-0.436074 1.41897 0.0 0 0 0 0 0 255
-0.379902 1.295334 0.0 0 0 0 0 0 255
-0.432366 1.50645 0.0 0 0 0 0 0 255
-0.333402 0.902052 0.0 0 0 0 0 0 255
-0.245118 0.90594 0.0 0 0 0 0 0 255
-0.17007 0.95556 0.0 0 0 0 0 0 255
-0.283068 1.006596 0.0 0 0 0 0 0 255
-0.265902 1.147842 0.0 0 0 0 0 0 255
-0.205746 1.032288 0.0 0 0 0 0 0 255
-0.10848 0.89553 0.0 0 0 0 0 0 255
0.004554 0.879588 0.0 0 0 0 0 0 255
-0.039528 0.94509 0.0 0 0 0 0 0 255
-0.100992 0.991704 0.0 0 0 0 0 0 255
-0.12477 1.097574 0.0 0 0 0 0 0 255
-0.056184 1.053438 0.0 0 0 0 0 0 255
-0.032898 1.136406 0.0 0 0 0 0 0 255
0.023682 1.034526 0.0 0 0 0 0 0 255
-0.130506 1.183104 0.0 0 0 0 0 0 255
-0.30174 1.33269 0.0 0 0 0 0 0 255
-0.278226 1.23675 0.0 0 0 0 0 0 255
-0.205314 1.199412 0.0 0 0 0 0 0 255
-0.159738 1.262412 0.0 0 0 0 0 0 255
-0.216882 1.326474 0.0 0 0 0 0 0 255
-0.349068 1.413114 0.0 0 0 0 0 0 255
-0.258222 1.419294 0.0 0 0 0 0 0 255
-0.179772 1.402578 0.0 0 0 0 0 0 255
-0.2778 1.505958 0.0 0 0 0 0 0 255
-0.06711 1.272612 0.0 0 0 0 0 0 255
-0.129282 1.33296 0.0 0 0 0 0 0 255
-0.047076 1.37226 0.0 0 0 0 0 0 255
-0.199578 1.481148 0.0 0 0 0 0 0 255
-0.109812 1.437882 0.0 0 0 0 0 0 255
-0.00354 1.449636 0.0 0 0 0 0 0 255
0.013884 1.284714 0.0 0 0 0 0 0 255
-0.141402 1.572504 0.0 0 0 0 0 0 255
-0.056508 1.512582 0.0 0 0 0 0 0 255
0.086286 1.38735 0.0 0 0 0 0 0 255
0.026718 1.209036 0.0 0 0 0 0 0 255
-0.62583 1.505892 0.0 0 0 0 0 0 255
-0.574614 1.563954 0.0 0 0 0 0 0 255
-0.511524 1.651182 0.0 0 0 0 0 0 255
-0.496224 1.573836 0.0 0 0 0 0 0 255
-0.410058 1.633014 0.0 0 0 0 0 0 255
-0.354114 1.515018 0.0 0 0 0 0 0 255
-0.485316 1.726176 0.0 0 0 0 0 0 255
-0.396864 1.719726 0.0 0 0 0 0 0 255
-0.442962 1.792902 0.0 0 0 0 0 0 255
-0.333648 1.649082 0.0 0 0 0 0 0 255
-0.34023 1.811388 0.0 0 0 0 0 0 255
-0.288414 1.583112 0.0 0 0 0 0 0 255
-0.207048 1.616892 0.0 0 0 0 0 0 255
-0.265614 1.69071 0.0 0 0 0 0 0 255
-0.266064 1.77585 0.0 0 0 0 0 0 255
-0.14484 1.70727 0.0 0 0 0 0 0 255
-0.271398 1.85319 0.0 0 0 0 0 0 255
-0.387114 1.922766 0.0 0 0 0 0 0 255
-0.07134 1.686732 0.0 0 0 0 0 0 255
-0.03213 1.621104 0.0 0 0 0 0 0 255
0.066582 1.511826 0.0 0 0 0 0 0 255
-0.020298 1.753116 0.0 0 0 0 0 0 255
0.034044 1.65906 0.0 0 0 0 0 0 255
-0.199056 1.822788 0.0 0 0 0 0 0 255
-0.102876 1.771092 0.0 0 0 0 0 0 255
-0.089778 1.87764 0.0 0 0 0 0 0 255
0.002082 1.843266 0.0 0 0 0 0 0 255
-0.305574 1.995786 0.0 0 0 0 0 0 255
-0.379776 2.053536 0.0 0 0 0 0 0 255
-0.257118 1.929786 0.0 0 0 0 0 0 255
-0.30438 2.080554 0.0 0 0 0 0 0 255
-0.226362 2.016642 0.0 0 0 0 0 0 255
-0.327546 2.156544 0.0 0 0 0 0 0 255
-0.245556 2.168352 0.0 0 0 0 0 0 255
-0.224328 2.094678 0.0 0 0 0 0 0 255
-0.147474 2.03883 0.0 0 0 0 0 0 255
-0.1563 1.956 0.0 0 0 0 0 0 255
-0.03606 1.951152 0.0 0 0 0 0 0 255
-0.070986 2.047032 0.0 0 0 0 0 0 255
-0.13725 2.122374 0.0 0 0 0 0 0 255
-0.05337 2.1687 0.0 0 0 0 0 0 255
0.02223 2.11764 0.0 0 0 0 0 0 255
-0.181194 2.210634 0.0 0 0 0 0 0 255
-0.011202 2.293476 0.0 0 0 0 0 0 255
0.014832 2.208972 0.0 0 0 0 0 0 255
-0.313494 2.239236 0.0 0 0 0 0 0 255
0.020748 2.016486 0.0 0 0 0 0 0 255
-0.198936 2.28909 0.0 0 0 0 0 0 255
-0.12312 2.264688 0.0 0 0 0 0 0 255
-0.164796 2.397096 0.0 0 0 0 0 0 255
-0.073362 2.34081 0.0 0 0 0 0 0 255
-0.025482 2.421426 0.0 0 0 0 0 0 255
-0.102336 2.45706 0.0 0 0 0 0 0 255
0.067326 2.347584 0.0 0 0 0 0 0 255
0.052704 -0.897936 0.0 0 0 0 0 0 255
0.103152 -1.475052 0.0 0 0 0 0 0 255
0.098124 -1.619538 0.0 0 0 0 0 0 255
0.18864 -1.530276 0.0 0 0 0 0 0 255
0.228168 -1.627086 0.0 0 0 0 0 0 255
0.32022 -1.54779 0.0 0 0 0 0 0 255
0.260178 -1.458738 0.0 0 0 0 0 0 255
0.383724 -1.495308 0.0 0 0 0 0 0 255
0.154158 -1.359024 0.0 0 0 0 0 0 255
0.223068 -1.271082 0.0 0 0 0 0 0 255
0.122406 -1.257516 0.0 0 0 0 0 0 255
0.179808 -1.453698 0.0 0 0 0 0 0 255
0.073488 -1.196856 0.0 0 0 0 0 0 255
0.19488 -1.195536 0.0 0 0 0 0 0 255
0.110172 -1.127652 0.0 0 0 0 0 0 255
0.257562 -1.365396 0.0 0 0 0 0 0 255
0.34473 -1.367826 0.0 0 0 0 0 0 255
0.304776 -1.278444 0.0 0 0 0 0 0 255
0.414096 -1.406904 0.0 0 0 0 0 0 255
0.404016 -1.305582 0.0 0 0 0 0 0 255
0.292296 -1.179 0.0 0 0 0 0 0 255
0.35865 -1.22073 0.0 0 0 0 0 0 255
0.295434 -1.090542 0.0 0 0 0 0 0 255
0.428688 -1.164042 0.0 0 0 0 0 0 255
0.085548 -0.967818 0.0 0 0 0 0 0 255
0.112812 -1.039776 0.0 0 0 0 0 0 255
0.200652 -0.952938 0.0 0 0 0 0 0 255
0.143208 -0.871866 0.0 0 0 0 0 0 255
0.095904 -0.747396 0.0 0 0 0 0 0 255
0.252336 -0.791574 0.0 0 0 0 0 0 255
0.172446 -0.757536 0.0 0 0 0 0 0 255
0.18042 -1.076646 0.0 0 0 0 0 0 255
0.242946 -1.019976 0.0 0 0 0 0 0 255
0.32079 -1.00251 0.0 0 0 0 0 0 255
0.410328 -1.075866 0.0 0 0 0 0 0 255
0.25686 -0.875166 0.0 0 0 0 0 0 255
0.337044 -0.90969 0.0 0 0 0 0 0 255
0.343896 -0.817026 0.0 0 0 0 0 0 255
0.442452 -0.884736 0.0 0 0 0 0 0 255
0.227556 -0.682092 0.0 0 0 0 0 0 255
0.409344 -0.978546 0.0 0 0 0 0 0 255
0.320346 -0.690816 0.0 0 0 0 0 0 255
0.49377 -1.222398 0.0 0 0 0 0 0 255
0.493254 -1.119042 0.0 0 0 0 0 0 255
0.517026 -1.034904 0.0 0 0 0 0 0 255
0.49032 -0.945468 0.0 0 0 0 0 0 255
0.423216 -0.81054 0.0 0 0 0 0 0 255
0.513678 -0.84681 0.0 0 0 0 0 0 255
0.544278 -0.766512 0.0 0 0 0 0 0 255
0.384252 -0.732756 0.0 0 0 0 0 0 255
0.492738 -0.687894 0.0 0 0 0 0 0 255
0.0261 -0.58437 0.0 0 0 0 0 0 255
0.103818 -0.57402 0.0 0 0 0 0 0 255
0.150276 -0.639774 0.0 0 0 0 0 0 255
0.209232 -0.557178 0.0 0 0 0 0 0 255
0.33282 -0.521886 0.0 0 0 0 0 0 255
0.285834 -0.602178 0.0 0 0 0 0 0 255
0.362976 -0.595302 0.0 0 0 0 0 0 255
0.08184 0.104022 0.0 0 0 0 0 0 255
0.435846 -0.621396 0.0 0 0 0 0 0 255
0.502926 -0.57261 0.0 0 0 0 0 0 255
0.416016 -0.526602 0.0 0 0 0 0 0 255
0.659064 -0.016338 0.0 0 0 0 0 0 255
0.631674 -0.095988 0.0 0 0 0 0 0 255
0.737748 -0.034788 0.0 0 0 0 0 0 255
0.576384 -0.012702 0.0 0 0 0 0 0 255
0.6459 0.07326 0.0 0 0 0 0 0 255
0.746202 0.058086 0.0 0 0 0 0 0 255
0.80727 0.00444 0.0 0 0 0 0 0 255
0.835614 -0.078276 0.0 0 0 0 0 0 255
0.903612 -0.03165 0.0 0 0 0 0 0 255
0.734358 -0.137364 0.0 0 0 0 0 0 255
0.835968 0.079302 0.0 0 0 0 0 0 255
0.934434 0.05787 0.0 0 0 0 0 0 255
0.97926 -0.00525 0.0 0 0 0 0 0 255
1.06053 -0.00168 0.0 0 0 0 0 0 255
1.020984 0.064416 0.0 0 0 0 0 0 255
1.142376 -0.0015 0.0 0 0 0 0 0 255
1.107546 0.109218 0.0 0 0 0 0 0 255
0.074022 0.2334 0.0 0 0 0 0 0 255
0.136638 0.037422 0.0 0 0 0 0 0 255
0.16533 0.127338 0.0 0 0 0 0 0 255
0.273792 0.068802 0.0 0 0 0 0 0 255
0.147306 0.20445 0.0 0 0 0 0 0 255
0.121056 0.295608 0.0 0 0 0 0 0 255
0.202308 0.2604 0.0 0 0 0 0 0 255
0.221394 0.179256 0.0 0 0 0 0 0 255
0.308508 0.151956 0.0 0 0 0 0 0 255
0.399972 0.248616 0.0 0 0 0 0 0 255
0.293652 0.232932 0.0 0 0 0 0 0 255
0.35406 0.056268 0.0 0 0 0 0 0 255
0.31311 0.317208 0.0 0 0 0 0 0 255
0.219594 0.365742 0.0 0 0 0 0 0 255
0.393564 0.335886 0.0 0 0 0 0 0 255
0.395178 0.124836 0.0 0 0 0 0 0 255
0.291936 0.401022 0.0 0 0 0 0 0 255
0.063738 0.452382 0.0 0 0 0 0 0 255
0.183792 0.436554 0.0 0 0 0 0 0 255
0.160932 0.6111 0.0 0 0 0 0 0 255
0.124668 0.522498 0.0 0 0 0 0 0 255
0.229968 0.556962 0.0 0 0 0 0 0 255
0.122814 0.6834 0.0 0 0 0 0 0 255
0.231216 0.644298 0.0 0 0 0 0 0 255
0.25644 0.48057 0.0 0 0 0 0 0 255
0.341814 0.461238 0.0 0 0 0 0 0 255
0.313968 0.602334 0.0 0 0 0 0 0 255
0.190518 0.724098 0.0 0 0 0 0 0 255
0.298128 0.684738 0.0 0 0 0 0 0 255
0.408426 0.565098 0.0 0 0 0 0 0 255
0.26664 0.75435 0.0 0 0 0 0 0 255
0.407562 0.692496 0.0 0 0 0 0 0 255
0.13464 0.780582 0.0 0 0 0 0 0 255
0.445614 0.46962 0.0 0 0 0 0 0 255
0.524076 0.21219 0.0 0 0 0 0 0 255
0.449208 0.186426 0.0 0 0 0 0 0 255
0.531168 0.108204 0.0 0 0 0 0 0 255
0.481116 0.275682 0.0 0 0 0 0 0 255
0.504864 0.35295 0.0 0 0 0 0 0 255
0.561558 0.290862 0.0 0 0 0 0 0 255
0.503064 0.0366 0.0 0 0 0 0 0 255
0.625044 0.242904 0.0 0 0 0 0 0 255
0.583776 0.164658 0.0 0 0 0 0 0 255
0.713958 0.141984 0.0 0 0 0 0 0 255
0.698202 0.220602 0.0 0 0 0 0 0 255
0.675846 0.333732 0.0 0 0 0 0 0 255
0.651042 0.416184 0.0 0 0 0 0 0 255
0.763878 0.368508 0.0 0 0 0 0 0 255
0.583968 0.3693 0.0 0 0 0 0 0 255
0.748794 0.282372 0.0 0 0 0 0 0 255
0.50568 0.559212 0.0 0 0 0 0 0 255
0.567318 0.62502 0.0 0 0 0 0 0 255
0.584274 0.525708 0.0 0 0 0 0 0 255
0.534336 0.45234 0.0 0 0 0 0 0 255
0.462654 0.63588 0.0 0 0 0 0 0 255
0.499656 0.719748 0.0 0 0 0 0 0 255
0.575754 0.752652 0.0 0 0 0 0 0 255
0.481236 0.793716 0.0 0 0 0 0 0 255
0.661338 0.619278 0.0 0 0 0 0 0 255
0.669432 0.495558 0.0 0 0 0 0 0 255
0.757968 0.446286 0.0 0 0 0 0 0 255
0.681996 0.780438 0.0 0 0 0 0 0 255
0.645666 0.705936 0.0 0 0 0 0 0 255
0.742128 0.619518 0.0 0 0 0 0 0 255
0.736092 0.718926 0.0 0 0 0 0 0 255
0.756618 0.539826 0.0 0 0 0 0 0 255
0.791094 0.80427 0.0 0 0 0 0 0 255
0.346866 0.754404 0.0 0 0 0 0 0 255
0.798702 0.220698 0.0 0 0 0 0 0 255
0.099318 0.863316 0.0 0 0 0 0 0 255
0.146064 0.928122 0.0 0 0 0 0 0 255
0.220578 0.82557 0.0 0 0 0 0 0 255
0.074502 0.97692 0.0 0 0 0 0 0 255
0.100926 1.051194 0.0 0 0 0 0 0 255
0.178788 1.00317 0.0 0 0 0 0 0 255
0.071382 1.128516 0.0 0 0 0 0 0 255
0.291918 0.867852 0.0 0 0 0 0 0 255
0.359976 0.908748 0.0 0 0 0 0 0 255
0.393636 0.818112 0.0 0 0 0 0 0 255
0.247056 0.945924 0.0 0 0 0 0 0 255
0.292554 1.008642 0.0 0 0 0 0 0 255
0.34737 1.066218 0.0 0 0 0 0 0 255
0.398634 1.000692 0.0 0 0 0 0 0 255
0.178074 1.083498 0.0 0 0 0 0 0 255
0.265932 1.081164 0.0 0 0 0 0 0 255
0.143694 1.187976 0.0 0 0 0 0 0 255
0.216918 1.275372 0.0 0 0 0 0 0 255
0.127272 1.280832 0.0 0 0 0 0 0 255
0.221742 1.354866 0.0 0 0 0 0 0 255
0.13854 1.443168 0.0 0 0 0 0 0 255
0.229758 1.158312 0.0 0 0 0 0 0 255
0.326142 1.19904 0.0 0 0 0 0 0 255
0.366696 1.267698 0.0 0 0 0 0 0 255
0.2943 1.29249 0.0 0 0 0 0 0 255
0.37893 1.143018 0.0 0 0 0 0 0 255
0.35202 1.343652 0.0 0 0 0 0 0 255
0.298944 1.418406 0.0 0 0 0 0 0 255
0.398304 1.414812 0.0 0 0 0 0 0 255
0.216216 1.500744 0.0 0 0 0 0 0 255
0.475614 0.917664 0.0 0 0 0 0 0 255
0.56043 0.841236 0.0 0 0 0 0 0 255
0.524706 0.981744 0.0 0 0 0 0 0 255
0.59586 0.935694 0.0 0 0 0 0 0 255
0.45702 1.064034 0.0 0 0 0 0 0 255
0.537198 1.092072 0.0 0 0 0 0 0 255
0.600426 1.039878 0.0 0 0 0 0 0 255
0.454992 1.149294 0.0 0 0 0 0 0 255
0.660246 0.858702 0.0 0 0 0 0 0 255
0.738156 0.861288 0.0 0 0 0 0 0 255
0.667344 1.000656 0.0 0 0 0 0 0 255
0.747726 1.041258 0.0 0 0 0 0 0 255
0.656796 1.112118 0.0 0 0 0 0 0 255
0.707346 0.932352 0.0 0 0 0 0 0 255
0.737604 1.117356 0.0 0 0 0 0 0 255
0.612978 1.180872 0.0 0 0 0 0 0 255
0.52086 1.319988 0.0 0 0 0 0 0 255
0.451404 1.285422 0.0 0 0 0 0 0 255
0.528318 1.192434 0.0 0 0 0 0 0 255
0.468282 1.38252 0.0 0 0 0 0 0 255
0.5034 1.456974 0.0 0 0 0 0 0 255
0.602082 1.399512 0.0 0 0 0 0 0 255
0.314934 1.524558 0.0 0 0 0 0 0 255
0.597258 1.26279 0.0 0 0 0 0 0 255
0.767796 1.31196 0.0 0 0 0 0 0 255
0.661842 1.317072 0.0 0 0 0 0 0 255
0.715446 1.194762 0.0 0 0 0 0 0 255
0.724902 1.380924 0.0 0 0 0 0 0 255
0.680172 1.45206 0.0 0 0 0 0 0 255
0.578454 1.496754 0.0 0 0 0 0 0 255
0.792444 1.179384 0.0 0 0 0 0 0 255
0.808722 0.91416 0.0 0 0 0 0 0 255
0.440076 1.524846 0.0 0 0 0 0 0 255
0.81528 0.665742 0.0 0 0 0 0 0 255
0.858366 0.16338 0.0 0 0 0 0 0 255
0.871998 0.292248 0.0 0 0 0 0 0 255
0.935514 0.176958 0.0 0 0 0 0 0 255
0.835182 0.398106 0.0 0 0 0 0 0 255
1.036272 0.163374 0.0 0 0 0 0 0 255
1.07595 0.250794 0.0 0 0 0 0 0 255
1.147068 0.21018 0.0 0 0 0 0 0 255
0.998064 0.232518 0.0 0 0 0 0 0 255
0.937356 0.33219 0.0 0 0 0 0 0 255
1.070982 0.343992 0.0 0 0 0 0 0 255
1.159548 0.315198 0.0 0 0 0 0 0 255
1.113462 0.41022 0.0 0 0 0 0 0 255
0.984804 0.409578 0.0 0 0 0 0 0 255
0.849744 0.492288 0.0 0 0 0 0 0 255
0.936012 0.474708 0.0 0 0 0 0 0 255
0.904386 0.568476 0.0 0 0 0 0 0 255
0.834228 0.740922 0.0 0 0 0 0 0 255
0.823344 0.586638 0.0 0 0 0 0 0 255
0.939324 0.661554 0.0 0 0 0 0 0 255
0.991428 0.563064 0.0 0 0 0 0 0 255
1.011312 0.48804 0.0 0 0 0 0 0 255
1.07973 0.579252 0.0 0 0 0 0 0 255
1.087764 0.490476 0.0 0 0 0 0 0 255
1.164774 0.599142 0.0 0 0 0 0 0 255
1.08543 0.65583 0.0 0 0 0 0 0 255
1.016472 0.726942 0.0 0 0 0 0 0 255
1.084956 0.770154 0.0 0 0 0 0 0 255
1.190022 0.47913 0.0 0 0 0 0 0 255
0.931266 0.743022 0.0 0 0 0 0 0 255
1.20624 0.101412 0.0 0 0 0 0 0 255
1.310028 0.127098 0.0 0 0 0 0 0 255
1.243422 0.216174 0.0 0 0 0 0 0 255
1.330884 0.200856 0.0 0 0 0 0 0 255
1.191138 0.389286 0.0 0 0 0 0 0 255
1.333926 0.312804 0.0 0 0 0 0 0 255
1.236366 0.310254 0.0 0 0 0 0 0 255
1.397586 0.24693 0.0 0 0 0 0 0 255
1.452672 0.369174 0.0 0 0 0 0 0 255
1.527378 0.409626 0.0 0 0 0 0 0 255
1.413822 0.480426 0.0 0 0 0 0 0 255
1.264284 0.436452 0.0 0 0 0 0 0 255
1.35903 0.386226 0.0 0 0 0 0 0 255
1.26447 0.646638 0.0 0 0 0 0 0 255
1.25058 0.559272 0.0 0 0 0 0 0 255
1.326648 0.564762 0.0 0 0 0 0 0 255
1.152408 0.733764 0.0 0 0 0 0 0 255
1.281288 0.726726 0.0 0 0 0 0 0 255
1.370874 0.654462 0.0 0 0 0 0 0 255
1.339344 0.460452 0.0 0 0 0 0 0 255
1.409742 0.582372 0.0 0 0 0 0 0 255
1.439478 0.708738 0.0 0 0 0 0 0 255
1.505994 0.666486 0.0 0 0 0 0 0 255
1.485414 0.569652 0.0 0 0 0 0 0 255
1.556676 0.510258 0.0 0 0 0 0 0 255
0.869736 0.812664 0.0 0 0 0 0 0 255
0.899064 0.897438 0.0 0 0 0 0 0 255
0.943368 0.832446 0.0 0 0 0 0 0 255
0.817944 1.001136 0.0 0 0 0 0 0 255
0.850794 1.086792 0.0 0 0 0 0 0 255
0.920766 0.97338 0.0 0 0 0 0 0 255
1.018584 0.809442 0.0 0 0 0 0 0 255
0.819198 1.253382 0.0 0 0 0 0 0 255
0.093636 1.592856 0.0 0 0 0 0 0 255
0.123306 1.691802 0.0 0 0 0 0 0 255
0.177384 1.629168 0.0 0 0 0 0 0 255
0.146022 1.530648 0.0 0 0 0 0 0 255
0.059652 1.894122 0.0 0 0 0 0 0 255
0.060678 1.75986 0.0 0 0 0 0 0 255
0.13365 1.787346 0.0 0 0 0 0 0 255
0.23724 1.722462 0.0 0 0 0 0 0 255
0.290442 1.59948 0.0 0 0 0 0 0 255
0.326592 1.669134 0.0 0 0 0 0 0 255
0.3789 1.601928 0.0 0 0 0 0 0 255
0.246924 1.82064 0.0 0 0 0 0 0 255
0.335166 1.76526 0.0 0 0 0 0 0 255
0.31329 1.890042 0.0 0 0 0 0 0 255
0.417822 1.871574 0.0 0 0 0 0 0 255
0.404184 1.727562 0.0 0 0 0 0 0 255
0.17769 1.865022 0.0 0 0 0 0 0 255
0.136044 1.933962 0.0 0 0 0 0 0 255
0.190656 1.990308 0.0 0 0 0 0 0 255
0.113886 2.024292 0.0 0 0 0 0 0 255
0.091998 2.189598 0.0 0 0 0 0 0 255
0.124416 2.101956 0.0 0 0 0 0 0 255
0.226566 2.066856 0.0 0 0 0 0 0 255
0.202122 2.14662 0.0 0 0 0 0 0 255
0.267576 1.965612 0.0 0 0 0 0 0 255
0.347262 1.968366 0.0 0 0 0 0 0 255
0.37326 2.040504 0.0 0 0 0 0 0 255
0.302334 2.097786 0.0 0 0 0 0 0 255
0.36342 2.144286 0.0 0 0 0 0 0 255
0.438288 2.120688 0.0 0 0 0 0 0 255
0.278136 2.211984 0.0 0 0 0 0 0 255
0.147972 2.268186 0.0 0 0 0 0 0 255
0.423636 1.959648 0.0 0 0 0 0 0 255
0.450888 1.666926 0.0 0 0 0 0 0 255
0.516456 1.54863 0.0 0 0 0 0 0 255
0.541434 1.621158 0.0 0 0 0 0 0 255
0.626208 1.560594 0.0 0 0 0 0 0 255
0.467898 1.77573 0.0 0 0 0 0 0 255
0.52209 1.69512 0.0 0 0 0 0 0 255
0.563562 1.761534 0.0 0 0 0 0 0 255
0.63651 1.711164 0.0 0 0 0 0 0 255
0.649782 1.636008 0.0 0 0 0 0 0 255
0.52017 1.892094 0.0 0 0 0 0 0 255
0.550746 1.97385 0.0 0 0 0 0 0 255
0.490224 2.02617 0.0 0 0 0 0 0 255
0.062322 2.269626 0.0 0 0 0 0 0 255
0.162936 2.439402 0.0 0 0 0 0 0 255
0.149718 2.345292 0.0 0 0 0 0 0 255
0.237558 2.42118 0.0 0 0 0 0 0 255
0.061068 2.428974 0.0 0 0 0 0 0 255
0.227292 2.269254 0.0 0 0 0 0 0 255
0.253734 2.345292 0.0 0 0 0 0 0 255
0.3126 2.285088 0.0 0 0 0 0 0 255
0.386052 2.21757 0.0 0 0 0 0 0 255

3 0 1 2
3 3 0 2
3 0 4 1
3 5 6 7
3 8 9 10
3 11 10 9
3 5 7 8
3 12 6 13
3 14 15 16
3 13 17 12
3 15 17 16
3 18 19 14
3 16 17 13
3 16 20 18
3 20 16 5
3 5 21 20
3 5 8 21
3 16 13 5
3 20 21 22
3 23 19 18
3 23 18 24
3 24 22 25
3 24 18 20
3 20 22 24
3 26 23 24
3 21 27 22
3 18 14 16
3 27 10 28
3 22 27 29
3 29 28 30
3 28 29 27
3 28 10 11
3 29 31 22
3 25 31 32
3 25 22 31
3 33 32 34
3 32 31 29
3 34 32 30
3 25 32 35
3 29 30 32
3 26 24 25
3 30 28 36
3 27 21 10
3 6 5 13
3 33 35 32
3 37 26 38
3 37 39 26
3 38 40 37
3 40 38 41
3 25 38 26
3 37 40 42
3 43 42 44
3 44 42 40
3 41 35 45
3 46 40 41
3 47 48 46
3 45 46 41
3 35 33 45
3 46 44 40
3 49 50 51
3 48 51 50
3 48 44 46
3 47 51 48
3 48 50 44
3 50 43 44
3 52 49 51
3 53 46 45
3 41 38 35
3 25 35 38
3 45 33 54
3 23 26 39
3 10 21 8
3 55 11 56
3 57 58 59
3 60 61 62
3 63 3 61
3 63 61 57
3 64 58 57
3 64 57 65
3 66 67 65
3 60 65 57
3 57 61 60
3 64 65 67
3 61 2 62
3 57 59 63
3 68 58 64
3 69 70 71
3 69 68 67
3 67 72 69
3 66 72 67
3 68 64 67
3 69 72 70
3 73 70 74
3 73 71 70
3 75 74 76
3 74 75 73
3 74 70 72
3 75 76 77
3 72 76 74
3 73 75 78
3 76 79 77
3 71 68 69
3 78 75 80
3 65 60 81
3 61 3 2
3 36 55 82
3 36 28 55
3 36 82 83
3 84 82 85
3 56 82 55
3 83 82 84
3 86 54 33
3 86 34 83
3 83 87 86
3 87 83 84
3 30 83 34
3 88 86 87
3 84 89 87
3 30 36 83
3 89 84 85
3 85 90 91
3 91 92 85
3 56 90 82
3 85 92 89
3 87 93 94
3 87 89 93
3 95 93 96
3 97 93 89
3 89 92 97
3 94 93 95
3 85 82 90
3 88 87 94
3 53 54 98
3 53 45 54
3 99 98 100
3 54 101 98
3 54 86 88
3 53 98 47
3 102 47 99
3 102 51 47
3 103 99 104
3 99 103 102
3 47 98 99
3 52 51 102
3 101 54 88
3 47 46 53
3 101 105 100
3 88 94 101
3 106 107 108
3 95 107 105
3 105 101 94
3 105 107 109
3 100 104 99
3 104 100 109
3 110 109 111
3 109 100 105
3 111 109 106
3 109 110 104
3 107 106 109
3 103 104 112
3 108 107 95
3 101 100 98
3 94 95 105
3 110 112 104
3 113 93 97
3 34 86 33
3 113 114 96
3 96 93 113
3 115 116 117
3 116 80 75
3 77 116 75
3 108 114 118
3 106 108 119
3 120 121 122
3 118 122 108
3 108 122 119
3 111 119 121
3 111 106 119
3 111 121 123
3 121 119 122
3 121 120 124
3 110 111 123
3 122 118 125
3 95 114 108
3 126 122 125
3 120 126 127
3 120 122 126
3 126 128 127
3 129 128 130
3 127 128 131
3 120 127 124
3 124 127 132
3 95 96 114
3 133 102 103
3 116 77 117
3 11 55 28
3 123 121 124
3 52 134 135
3 134 52 133
3 136 135 134
3 137 138 136
3 138 139 140
3 141 136 134
3 140 142 143
3 141 137 136
3 134 144 141
3 141 144 145
3 112 144 133
3 102 133 52
3 146 145 144
3 139 137 147
3 137 141 147
3 147 148 149
3 145 148 147
3 141 145 147
3 150 147 149
3 146 144 112
3 134 133 144
3 151 146 152
3 152 146 112
3 151 152 153
3 154 153 155
3 152 123 153
3 151 153 154
3 148 151 156
3 148 145 151
3 157 158 159
3 156 158 148
3 151 154 156
3 148 158 149
3 158 156 159
3 151 145 146
3 110 152 112
3 149 158 160
3 142 139 150
3 142 161 143
3 162 163 164
3 142 165 164
3 147 150 139
3 142 164 161
3 166 161 163
3 163 167 166
3 162 167 163
3 161 164 163
3 168 166 167
3 165 142 150
3 140 139 142
3 165 160 169
3 160 165 150
3 170 169 157
3 157 169 160
3 150 149 160
3 165 169 171
3 162 172 167
3 172 162 173
3 174 173 162
3 174 171 169
3 175 173 174
3 174 162 171
3 164 171 162
3 176 172 173
3 175 174 169
3 171 164 165
3 157 160 158
3 177 167 172
3 154 178 156
3 178 159 156
3 154 155 178
3 179 178 180
3 132 155 123
3 124 132 123
3 155 180 178
3 181 170 157
3 181 159 179
3 179 182 181
3 183 182 179
3 159 178 179
3 184 181 182
3 185 155 132
3 157 159 181
3 185 131 186
3 131 185 132
3 187 186 188
3 129 186 131
3 127 131 132
3 185 186 187
3 180 183 179
3 183 180 187
3 187 189 183
3 190 189 187
3 180 185 187
3 182 183 184
3 189 191 192
3 185 180 155
3 128 129 131
3 189 193 183
3 175 170 194
3 175 169 170
3 194 184 195
3 184 194 170
3 181 184 170
3 175 194 196
3 197 196 198
3 197 173 196
3 198 195 199
3 195 198 196
3 196 194 195
3 200 197 198
3 184 201 195
3 196 173 175
3 201 193 202
3 201 199 195
3 203 202 204
3 192 202 193
3 184 183 193
3 201 202 203
3 199 205 198
3 205 199 206
3 206 203 207
3 206 199 201
3 208 207 203
3 206 207 205
3 201 203 206
3 209 205 210
3 192 204 202
3 201 184 193
3 192 193 189
3 176 173 197
3 188 186 129
3 123 155 153
3 103 112 133
3 205 211 198
3 212 168 213
3 212 213 214
3 177 215 213
3 213 168 177
3 214 213 215
3 216 214 215
3 215 217 216
3 218 219 215
3 218 177 176
3 176 220 218
3 220 176 221
3 168 167 177
3 219 218 222
3 216 217 223
3 224 217 225
3 219 225 217
3 222 225 219
3 215 219 217
3 224 225 226
3 225 227 226
3 215 177 218
3 172 176 177
3 224 223 217
3 228 223 229
3 230 229 231
3 223 224 231
3 226 232 231
3 227 232 226
3 228 216 223
3 231 232 230
3 233 234 235
3 234 233 236
3 233 230 237
3 230 233 235
3 238 237 230
3 233 237 236
3 229 230 235
3 239 236 237
3 230 232 238
3 231 229 223
3 226 231 224
3 218 220 222
3 240 221 241
3 240 222 220
3 200 241 221
3 242 243 241
3 176 197 221
3 240 241 243
3 232 227 244
3 227 222 243
3 243 245 227
3 243 222 240
3 243 242 245
3 244 227 245
3 241 200 211
3 240 220 221
3 246 242 241
3 246 211 209
3 246 247 248
3 209 247 246
3 200 198 211
3 246 248 249
3 249 245 242
3 245 249 250
3 251 252 250
3 251 249 248
3 253 252 251
3 251 250 249
3 242 246 249
3 244 245 250
3 251 248 253
3 246 241 211
3 197 200 221
3 254 250 252
3 255 238 256
3 232 256 238
3 244 257 256
3 244 250 257
3 244 256 232
3 258 259 256
3 260 255 261
3 255 260 238
3 261 259 262
3 259 261 255
3 255 256 259
3 263 260 261
3 256 257 258
3 238 260 237
3 258 254 264
3 254 258 257
3 265 264 266
3 264 265 258
3 254 252 264
3 265 262 259
3 267 262 268
3 267 261 262
3 268 266 269
3 268 262 265
3 270 266 264
3 267 268 271
3 265 266 268
3 272 268 269
3 266 273 269
3 259 258 265
3 250 254 257
3 239 237 260
3 274 264 252
3 227 225 222
3 209 211 205
3 275 234 236
3 210 205 207
3 138 137 139
3 152 110 123
3 261 267 263
3 275 236 276
3 277 278 279
3 239 279 278
3 279 239 280
3 276 236 278
3 277 279 281
3 282 283 281
3 281 279 282
3 279 284 282
3 278 236 239
3 282 285 283
3 280 286 284
3 286 280 263
3 263 287 286
3 263 267 287
3 239 260 280
3 286 287 288
3 288 289 282
3 282 284 288
3 290 289 288
3 289 285 282
3 284 286 288
3 291 285 289
3 288 287 290
3 283 285 292
3 271 293 290
3 293 271 294
3 272 294 271
3 295 294 272
3 267 271 287
3 296 293 297
3 298 290 299
3 298 289 290
3 298 299 300
3 299 290 293
3 293 296 299
3 301 300 299
3 297 293 294
3 290 287 271
3 268 272 271
3 291 289 298
3 292 302 303
3 302 292 304
3 291 304 292
3 291 298 304
3 292 285 291
3 305 302 306
3 307 303 305
3 305 308 307
3 309 308 305
3 303 302 305
3 306 302 304
3 310 306 311
3 306 304 311
3 300 312 311
3 301 312 300
3 311 304 298
3 313 311 312
3 309 310 314
3 310 309 306
3 314 313 315
3 313 314 310
3 316 315 313
3 314 317 308
3 310 311 313
3 314 308 309
3 318 315 319
3 306 309 305
3 298 300 311
3 308 320 307
3 312 321 313
3 284 279 280
3 263 280 260
3 315 317 314
3 320 317 322
3 322 323 324
3 317 315 323
3 325 318 326
3 318 325 323
3 315 318 323
3 324 323 325
3 327 324 325
3 325 326 327
3 323 322 317
3 299 296 301
3 308 317 320
3 326 318 328
3 295 272 269
3 329 76 72
3 330 2 1
3 4 331 1
3 1 331 332
3 332 333 334
3 332 331 333
3 332 334 335
3 1 332 330
3 336 335 334
3 62 330 337
3 62 2 330
3 338 339 337
3 340 337 330
3 332 340 330
3 62 337 81
3 341 66 65
3 341 81 339
3 339 342 341
3 338 342 339
3 81 337 339
3 343 341 342
3 337 340 344
3 65 81 341
3 344 335 345
3 344 338 337
3 344 345 346
3 347 348 345
3 335 336 345
3 346 345 348
3 338 349 342
3 349 338 346
3 346 350 349
3 350 346 348
3 338 344 346
3 351 349 352
3 350 352 349
3 344 340 335
3 335 340 332
3 351 342 349
3 353 329 72
3 72 354 353
3 343 354 66
3 355 353 354
3 66 341 343
3 356 353 355
3 79 329 356
3 79 76 329
3 79 356 357
3 358 359 356
3 329 353 356
3 357 356 359
3 360 354 343
3 79 357 77
3 360 361 355
3 361 360 351
3 351 362 361
3 363 362 351
3 343 342 360
3 361 362 355
3 364 356 355
3 356 364 358
3 364 365 366
3 364 355 362
3 367 366 365
3 364 366 358
3 362 365 364
3 368 359 358
3 365 362 369
3 360 355 354
3 342 351 360
3 366 370 358
3 371 350 348
3 60 62 81
3 345 336 347
3 352 372 363
3 372 352 371
3 352 350 371
3 352 363 351
3 369 363 373
3 363 369 362
3 373 374 369
3 372 373 363
3 369 374 367
3 375 367 376
3 375 366 367
3 376 377 375
3 367 374 376
3 378 366 375
3 367 365 369
3 377 379 375
3 380 117 381
3 380 115 117
3 117 382 381
3 382 117 357
3 77 357 117
3 383 382 368
3 382 357 359
3 384 385 386
3 370 385 368
3 368 358 370
3 383 368 385
3 383 385 384
3 383 381 382
3 359 368 382
3 386 385 370
3 387 129 130
3 370 388 386
3 388 370 378
3 389 390 388
3 379 388 378
3 375 379 378
3 386 388 390
3 388 379 389
3 391 392 393
3 392 391 394
3 395 394 391
3 386 390 384
3 378 370 366
3 72 66 354
3 391 393 396
3 397 393 398
3 398 399 397
3 393 400 398
3 401 397 399
3 400 393 392
3 402 399 403
3 404 405 403
3 406 407 404
3 396 393 397
3 408 188 387
3 129 387 188
3 409 410 387
3 410 409 411
3 130 409 387
3 412 387 410
3 190 408 413
3 408 190 188
3 413 412 414
3 412 413 408
3 408 387 412
3 191 190 413
3 410 415 412
3 190 187 188
3 415 411 416
3 411 415 410
3 417 418 416
3 419 416 411
3 415 416 418
3 414 418 420
3 418 414 415
3 421 414 420
3 417 422 420
3 417 420 418
3 413 414 421
3 416 419 423
3 415 414 412
3 422 424 420
3 425 191 426
3 204 192 425
3 427 428 429
3 426 428 425
3 191 421 426
3 425 428 204
3 430 207 208
3 204 428 208
3 430 427 431
3 427 430 208
3 428 427 208
3 430 210 207
3 428 426 429
3 192 191 425
3 432 429 426
3 426 424 432
3 424 433 432
3 433 424 422
3 421 420 424
3 432 433 434
3 430 431 435
3 427 429 431
3 431 434 436
3 434 431 429
3 437 434 433
3 431 436 435
3 429 432 434
3 438 435 436
3 434 439 436
3 421 424 426
3 191 413 421
3 430 435 440
3 441 433 422
3 203 204 208
3 442 443 444
3 423 444 443
3 423 443 417
3 445 446 422
3 417 443 445
3 447 445 442
3 445 447 446
3 443 442 445
3 446 441 422
3 444 423 448
3 445 422 417
3 449 442 450
3 450 444 395
3 395 451 450
3 451 395 396
3 448 394 444
3 450 451 452
3 447 449 453
3 447 442 449
3 454 453 455
3 452 453 449
3 449 450 452
3 446 447 456
3 457 453 452
3 450 442 444
3 395 444 394
3 456 447 453
3 437 441 458
3 437 433 441
3 459 458 460
3 461 458 441
3 446 461 441
3 437 458 462
3 439 462 463
3 462 439 437
3 463 459 464
3 459 463 462
3 462 458 459
3 465 439 463
3 458 461 460
3 439 434 437
3 466 459 460
3 461 454 460
3 454 467 460
3 467 454 468
3 456 453 454
3 460 467 466
3 469 464 470
3 464 459 470
3 466 471 472
3 473 471 466
3 474 469 472
3 466 472 470
3 466 470 459
3 469 470 472
3 466 467 473
3 461 456 454
3 446 456 461
3 436 439 475
3 452 451 476
3 417 416 423
3 465 463 464
3 247 210 477
3 247 209 210
3 478 477 479
3 440 477 210
3 430 440 210
3 247 477 480
3 253 480 481
3 253 248 480
3 482 480 478
3 480 482 481
3 480 477 478
3 253 481 483
3 477 440 479
3 252 253 483
3 479 438 484
3 479 440 435
3 485 484 486
3 475 484 438
3 438 436 475
3 479 484 487
3 482 487 488
3 482 478 487
3 489 488 490
3 485 488 487
3 487 484 485
3 481 482 491
3 484 475 486
3 487 478 479
3 438 479 435
3 492 482 488
3 274 483 493
3 274 252 483
3 494 495 493
3 491 493 483
3 483 481 491
3 274 493 495
3 273 295 269
3 273 270 495
3 273 496 497
3 495 496 273
3 270 274 495
3 273 497 295
3 493 491 498
3 270 264 274
3 498 492 499
3 492 498 491
3 500 501 499
3 492 502 499
3 491 482 492
3 498 499 494
3 494 496 495
3 496 494 501
3 501 503 504
3 500 503 501
3 504 503 505
3 501 504 496
3 494 499 501
3 497 496 506
3 489 502 492
3 498 494 493
3 488 489 492
3 504 506 496
3 490 488 485
3 270 273 266
3 507 490 485
3 507 486 465
3 465 508 507
3 465 464 508
3 475 439 486
3 509 507 510
3 511 502 489
3 511 490 509
3 509 512 511
3 513 512 509
3 490 507 509
3 511 512 514
3 510 507 508
3 511 489 490
3 515 469 516
3 515 510 508
3 517 518 519
3 516 520 515
3 516 469 474
3 515 520 510
3 510 513 509
3 513 510 517
3 518 521 519
3 517 519 513
3 510 520 517
3 513 519 512
3 518 517 520
3 508 464 515
3 439 465 486
3 512 519 522
3 500 502 514
3 500 499 502
3 523 524 525
3 514 524 500
3 511 514 502
3 526 503 524
3 505 526 527
3 503 526 505
3 528 526 523
3 526 528 527
3 524 523 526
3 504 505 529
3 524 514 525
3 524 503 500
3 530 525 522
3 514 512 525
3 531 532 533
3 533 522 519
3 522 525 512
3 530 522 533
3 528 523 530
3 528 530 532
3 534 535 528
3 531 534 532
3 534 528 532
3 530 533 532
3 527 528 536
3 533 521 537
3 530 523 525
3 533 519 521
3 535 536 528
3 538 520 516
3 486 507 485
3 515 464 469
3 505 527 539
3 540 472 471
3 191 189 190
3 401 541 451
3 396 397 401
3 542 541 543
3 402 541 401
3 395 391 396
3 451 541 476
3 455 468 454
3 455 457 542
3 476 542 457
3 542 476 541
3 452 476 457
3 544 455 542
3 541 402 543
3 457 455 453
3 543 405 545
3 405 543 402
3 546 545 547
3 407 545 405
3 404 407 405
3 543 545 548
3 549 548 550
3 549 542 548
3 551 552 550
3 546 550 548
3 548 545 546
3 544 542 549
3 551 550 546
3 548 542 543
3 403 405 402
3 553 549 550
3 468 544 554
3 544 468 455
3 554 555 556
3 555 554 544
3 544 553 555
3 468 554 473
3 557 472 540
3 471 558 540
3 558 556 540
3 558 473 554
3 554 556 558
3 540 556 559
3 555 560 556
3 473 467 468
3 561 560 555
3 561 553 552
3 562 563 564
3 552 563 561
3 544 549 553
3 561 563 562
3 559 560 565
3 559 556 560
3 559 565 566
3 565 560 562
3 564 565 562
3 567 566 565
3 560 561 562
3 540 559 557
3 568 563 552
3 555 553 561
3 550 552 553
3 569 559 566
3 547 545 407
3 473 558 471
3 407 406 570
3 570 571 572
3 572 571 573
3 551 574 552
3 551 547 572
3 575 576 572
3 572 576 551
3 547 570 572
3 574 551 576
3 572 573 575
3 570 547 407
3 575 577 578
3 575 573 577
3 579 580 578
3 576 575 581
3 578 582 575
3 568 574 581
3 564 563 568
3 583 584 585
3 581 584 568
3 576 581 574
3 568 584 564
3 586 564 583
3 586 565 564
3 583 587 586
3 588 587 583
3 564 584 583
3 589 584 581
3 552 574 568
3 585 589 580
3 589 585 584
3 582 580 589
3 582 578 580
3 589 581 582
3 585 580 590
3 591 590 592
3 593 590 580
3 590 591 588
3 588 585 590
3 580 594 593
3 588 583 585
3 575 582 581
3 551 546 547
3 401 399 402
3 567 565 586
3 474 557 595
3 474 472 557
3 474 595 538
3 596 595 597
3 557 569 595
3 538 595 596
3 520 598 518
3 520 538 598
3 599 518 598
3 600 598 538
3 538 596 600
3 516 474 538
3 569 597 595
3 597 569 601
3 601 569 566
3 567 601 566
3 557 559 569
3 602 531 533
3 521 599 537
3 533 537 602
3 521 518 599
3 593 592 590
3 396 401 451
3 294 603 297
3 294 295 603
3 604 603 605
3 606 603 295
3 497 606 295
3 297 603 604
3 607 301 608
3 301 296 608
3 604 609 608
3 610 609 604
3 608 297 604
3 609 607 608
3 605 603 606
3 296 297 608
3 605 506 611
3 506 605 606
3 612 611 613
3 529 611 506
3 504 529 506
3 605 611 610
3 614 609 610
3 614 610 615
3 612 615 610
3 616 615 617
3 610 611 612
3 614 615 616
3 618 615 612
3 610 604 605
3 497 506 606
3 619 609 614
3 321 607 620
3 321 312 607
3 621 622 620
3 619 620 607
3 607 609 619
3 321 620 622
3 316 623 319
3 623 316 624
3 622 624 316
3 625 624 622
3 316 321 622
3 623 624 626
3 620 619 621
3 316 313 321
3 625 621 627
3 621 619 627
3 616 628 627
3 617 628 616
3 619 616 627
3 629 627 628
3 626 625 630
3 626 624 625
3 630 629 631
3 630 625 627
3 631 629 632
3 626 630 633
3 627 629 630
3 634 623 626
3 629 628 635
3 625 622 621
3 619 614 616
3 630 631 633
3 613 611 529
3 315 316 319
3 636 613 539
3 539 613 529
3 636 539 637
3 638 637 639
3 527 637 539
3 636 637 638
3 618 636 640
3 618 612 636
3 640 641 642
3 641 640 636
3 636 638 641
3 640 617 615
3 638 643 641
3 640 615 618
3 639 644 638
3 536 535 639
3 644 643 638
3 640 642 645
3 641 643 642
3 639 637 536
3 505 539 529
3 635 628 617
3 635 617 645
3 645 646 635
3 640 645 617
3 635 646 647
3 632 629 647
3 629 635 647
3 636 612 613
3 536 637 527
3 648 328 318
3 319 623 648
3 648 634 328
3 649 650 651
3 634 648 623
3 328 634 650
3 328 650 652
3 652 326 328
3 650 649 652
3 650 634 653
3 654 651 650
3 654 653 655
3 633 655 653
3 655 633 656
3 634 626 653
3 650 653 654
3 633 653 626
3 648 318 319
3 633 631 656
3 607 312 301
3 247 480 248
3 580 579 594

