ply
format ascii 1.0
comment VCGLIB generated
element vertex 262
property float x
property float y
property float z
property float nx
property float ny
property float nz
property uchar red
property uchar green
property uchar blue
element face 551
property list uchar int vertex_indices
end_header
-0.023922 -1.466034 0.0 0 0 0 0 0 255
-0.937512 -0.794508 0.0 0 0 0 0 0 255
-0.759246 -0.76914 0.0 0 0 0 0 0 255
-1.141188 -0.716088 0.0 0 0 0 0 0 255
-1.259004 -0.5964 0.0 0 0 0 0 0 255
-1.12938 -0.620694 0.0 0 0 0 0 0 255
-0.943896 -0.709188 0.0 0 0 0 0 0 255
-1.037922 -0.470082 0.0 0 0 0 0 0 255
-0.938328 -0.455208 0.0 0 0 0 0 0 255
-0.857526 -0.658326 0.0 0 0 0 0 0 255
-0.763602 -0.56661 0.0 0 0 0 0 0 255
-0.887766 -0.512328 0.0 0 0 0 0 0 255
-0.773196 -0.39894 0.0 0 0 0 0 0 255
-0.94347 -0.323844 0.0 0 0 0 0 0 255
-1.136376 -0.339258 0.0 0 0 0 0 0 255
-0.907812 -0.167988 0.0 0 0 0 0 0 255
-0.83835 -0.216288 0.0 0 0 0 0 0 255
-0.910656 -0.09078 0.0 0 0 0 0 0 255
-0.809622 -0.05232 0.0 0 0 0 0 0 255
-0.738552 -0.242856 0.0 0 0 0 0 0 255
-0.184014 -1.208958 0.0 0 0 0 0 0 255
-0.248538 -1.304508 0.0 0 0 0 255 0 0
-0.01932 -1.319292 0.0 0 0 0 0 0 255
-0.153876 -1.372986 0.0 0 0 0 0 0 255
-0.023592 -1.204842 0.0 0 0 0 0 0 255
-0.063414 -1.11963 0.0 0 0 0 0 0 255
0.001602 -1.000704 0.0 0 0 0 0 0 255
-0.171822 -0.896316 0.0 0 0 0 0 0 255
-0.095118 -0.89643 0.0 0 0 0 0 0 255
-0.030438 -0.763872 0.0 0 0 0 0 0 255
-0.639162 -0.67203 0.0 0 0 0 0 0 255
-0.582126 -0.574146 0.0 0 0 0 0 0 255
-0.670086 -0.450618 0.0 0 0 0 0 0 255
-0.475842 -0.540294 0.0 0 0 0 0 0 255
-0.457962 -0.758148 0.0 0 0 0 0 0 255
-0.541854 -0.40422 0.0 0 0 0 0 0 255
-0.42996 -0.33621 0.0 0 0 0 0 0 255
-0.661512 -0.193458 0.0 0 0 0 0 0 255
-0.531126 -0.071442 0.0 0 0 0 0 0 255
-0.43245 -0.248244 0.0 0 0 0 0 0 255
-0.479964 -0.168954 0.0 0 0 0 0 0 255
-0.395694 -0.072882 0.0 0 0 0 0 0 255
-0.568272 0.029238 0.0 0 0 0 0 0 255
-0.336438 -0.48441 0.0 0 0 0 0 0 255
-0.21672 -0.319026 0.0 0 0 0 0 0 255
-0.28839 -0.081522 0.0 0 0 0 0 0 255
-0.246174 -0.188226 0.0 0 0 0 0 0 255
-0.34209 0.016344 0.0 0 0 0 0 0 255
-0.13797 -0.034854 0.0 0 0 0 0 0 255
0.027336 -0.024474 0.0 0 0 0 0 0 255
-0.686364 0.053052 0.0 0 0 0 0 0 255
-0.775764 0.232824 0.0 0 0 0 0 0 255
-0.654018 0.383022 0.0 0 0 0 0 0 255
-0.678162 0.2013 0.0 0 0 0 0 0 255
-0.65802 0.494646 0.0 0 0 0 0 0 255
-0.519522 0.252714 0.0 0 0 0 0 0 255
-0.494388 0.166962 0.0 0 0 0 0 0 255
-0.368256 0.159684 0.0 0 0 0 0 0 255
-0.347502 0.309294 0.0 0 0 0 0 0 255
-0.487446 0.395436 0.0 0 0 0 0 0 255
-0.68694 0.719544 0.0 0 0 0 0 0 255
-0.605928 0.72342 0.0 0 0 0 0 0 255
-0.31881 0.445572 0.0 0 0 0 0 0 255
-0.520872 0.554142 0.0 0 0 0 0 0 255
-0.521256 0.748818 0.0 0 0 0 0 0 255
-0.176676 0.23112 0.0 0 0 0 0 0 255
-0.299928 0.36915 0.0 0 0 0 0 0 255
-0.154644 0.32712 0.0 0 0 0 0 0 255
-0.17556 0.136092 0.0 0 0 0 0 0 255
-0.091488 0.232842 0.0 0 0 0 0 0 255
0.018018 0.176472 0.0 0 0 0 0 0 255
0.07257 0.36453 0.0 0 0 0 0 0 255
-0.014172 0.432024 0.0 0 0 0 0 0 255
-0.279156 0.513096 0.0 0 0 0 0 0 255
-0.20544 0.538908 0.0 0 0 0 0 0 255
-0.297318 0.594318 0.0 0 0 0 0 0 255
-0.34968 0.71985 0.0 0 0 0 0 0 255
-0.026196 0.59712 0.0 0 0 0 0 0 255
0.02166 0.5265 0.0 0 0 0 0 0 255
-0.093354 0.73263 0.0 0 0 0 0 0 255
-0.16911 0.809076 0.0 0 0 0 0 0 255
-0.557652 0.945072 0.0 0 0 0 0 0 255
-0.617772 1.048482 0.0 0 0 0 0 0 255
-0.4743 0.88932 0.0 0 0 0 0 0 255
-0.330264 0.811284 0.0 0 0 0 0 0 255
-0.485778 1.103562 0.0 0 0 0 0 0 255
-0.334086 1.084536 0.0 0 0 0 0 0 255
-0.48498 1.18332 0.0 0 0 0 0 0 255
-0.555918 1.331736 0.0 0 0 0 0 0 255
-0.515916 1.46799 0.0 0 0 0 0 0 255
-0.379902 1.295334 0.0 0 0 0 0 0 255
-0.333402 0.902052 0.0 0 0 0 0 0 255
-0.17007 0.95556 0.0 0 0 0 0 0 255
0.004554 0.879588 0.0 0 0 0 0 0 255
-0.100992 0.991704 0.0 0 0 0 0 0 255
-0.056184 1.053438 0.0 0 0 0 0 0 255
-0.130506 1.183104 0.0 0 0 0 0 0 255
-0.205314 1.199412 0.0 0 0 0 0 0 255
-0.349068 1.413114 0.0 0 0 0 0 0 255
-0.258222 1.419294 0.0 0 0 0 0 0 255
-0.129282 1.33296 0.0 0 0 0 0 0 255
-0.199578 1.481148 0.0 0 0 0 0 0 255
-0.00354 1.449636 0.0 0 0 0 0 0 255
-0.056508 1.512582 0.0 0 0 0 0 0 255
0.086286 1.38735 0.0 0 0 0 0 0 255
0.026718 1.209036 0.0 0 0 0 0 0 255
-0.496224 1.573836 0.0 0 0 0 0 0 255
-0.410058 1.633014 0.0 0 0 0 0 0 255
-0.333648 1.649082 0.0 0 0 0 0 0 255
-0.207048 1.616892 0.0 0 0 0 0 0 255
-0.265614 1.69071 0.0 0 0 0 0 0 255
-0.266064 1.77585 0.0 0 0 0 0 0 255
-0.387114 1.922766 0.0 0 0 0 0 0 255
-0.07134 1.686732 0.0 0 0 0 0 0 255
0.034044 1.65906 0.0 0 0 0 0 0 255
-0.102876 1.771092 0.0 0 0 0 0 0 255
0.002082 1.843266 0.0 0 0 0 0 0 255
-0.257118 1.929786 0.0 0 0 0 0 0 255
-0.245556 2.168352 0.0 0 0 0 0 0 255
-0.147474 2.03883 0.0 0 0 0 0 0 255
-0.1563 1.956 0.0 0 0 0 0 0 255
-0.03606 1.951152 0.0 0 0 0 0 0 255
0.02223 2.11764 0.0 0 0 0 0 0 255
0.014832 2.208972 0.0 0 0 0 0 0 255
-0.313494 2.239236 0.0 0 0 0 0 0 255
-0.12312 2.264688 0.0 0 0 0 0 0 255
-0.073362 2.34081 0.0 0 0 0 0 0 255
0.067326 2.347584 0.0 0 0 0 0 0 255
0.052704 -0.897936 0.0 0 0 0 0 0 255
0.103152 -1.475052 0.0 0 0 0 0 0 255
0.18864 -1.530276 0.0 0 0 0 0 0 255
0.228168 -1.627086 0.0 0 0 0 0 0 255
0.154158 -1.359024 0.0 0 0 0 0 0 255
0.073488 -1.196856 0.0 0 0 0 0 0 255
0.19488 -1.195536 0.0 0 0 0 0 0 255
0.257562 -1.365396 0.0 0 0 0 0 0 255
0.414096 -1.406904 0.0 0 0 0 0 0 255
0.292296 -1.179 0.0 0 0 0 0 0 255
0.428688 -1.164042 0.0 0 0 0 0 0 255
0.200652 -0.952938 0.0 0 0 0 0 0 255
0.172446 -0.757536 0.0 0 0 0 0 0 255
0.18042 -1.076646 0.0 0 0 0 0 0 255
0.343896 -0.817026 0.0 0 0 0 0 0 255
0.409344 -0.978546 0.0 0 0 0 0 0 255
0.517026 -1.034904 0.0 0 0 0 0 0 255
0.384252 -0.732756 0.0 0 0 0 0 0 255
0.492738 -0.687894 0.0 0 0 0 0 0 255
0.0261 -0.58437 0.0 0 0 0 0 0 255
0.150276 -0.639774 0.0 0 0 0 0 0 255
0.285834 -0.602178 0.0 0 0 0 0 0 255
0.502926 -0.57261 0.0 0 0 0 255 0 0
0.416016 -0.526602 0.0 0 0 0 0 0 255
0.737748 -0.034788 0.0 0 0 0 0 0 255
0.576384 -0.012702 0.0 0 0 0 0 0 255
0.746202 0.058086 0.0 0 0 0 0 0 255
0.835968 0.079302 0.0 0 0 0 0 0 255
0.97926 -0.00525 0.0 0 0 0 0 0 255
1.107546 0.109218 0.0 0 0 0 0 0 255
0.074022 0.2334 0.0 0 0 0 0 0 255
0.16533 0.127338 0.0 0 0 0 0 0 255
0.202308 0.2604 0.0 0 0 0 0 0 255
0.308508 0.151956 0.0 0 0 0 0 0 255
0.293652 0.232932 0.0 0 0 0 0 0 255
0.393564 0.335886 0.0 0 0 0 0 0 255
0.395178 0.124836 0.0 0 0 0 0 0 255
0.124668 0.522498 0.0 0 0 0 0 0 255
0.122814 0.6834 0.0 0 0 0 0 0 255
0.25644 0.48057 0.0 0 0 0 0 0 255
0.341814 0.461238 0.0 0 0 0 0 0 255
0.298128 0.684738 0.0 0 0 0 0 0 255
0.407562 0.692496 0.0 0 0 0 0 0 255
0.13464 0.780582 0.0 0 0 0 0 0 255
0.445614 0.46962 0.0 0 0 0 0 0 255
0.531168 0.108204 0.0 0 0 0 0 0 255
0.561558 0.290862 0.0 0 0 0 0 0 255
0.583776 0.164658 0.0 0 0 0 0 0 255
0.651042 0.416184 0.0 0 0 0 0 0 255
0.583968 0.3693 0.0 0 0 0 0 0 255
0.748794 0.282372 0.0 0 0 0 0 0 255
0.50568 0.559212 0.0 0 0 0 0 0 255
0.575754 0.752652 0.0 0 0 0 0 0 255
0.661338 0.619278 0.0 0 0 0 0 0 255
0.645666 0.705936 0.0 0 0 0 0 0 255
0.736092 0.718926 0.0 0 0 0 0 0 255
0.756618 0.539826 0.0 0 0 0 0 0 255
0.220578 0.82557 0.0 0 0 0 0 0 255
0.178788 1.00317 0.0 0 0 0 0 0 255
0.071382 1.128516 0.0 0 0 0 0 0 255
0.393636 0.818112 0.0 0 0 0 0 0 255
0.247056 0.945924 0.0 0 0 0 0 0 255
0.398634 1.000692 0.0 0 0 0 0 0 255
0.178074 1.083498 0.0 0 0 0 0 0 255
0.216918 1.275372 0.0 0 0 0 0 0 255
0.13854 1.443168 0.0 0 0 0 0 0 255
0.229758 1.158312 0.0 0 0 0 0 0 255
0.37893 1.143018 0.0 0 0 0 0 0 255
0.298944 1.418406 0.0 0 0 0 0 0 255
0.398304 1.414812 0.0 0 0 0 0 0 255
0.216216 1.500744 0.0 0 0 0 0 0 255
0.59586 0.935694 0.0 0 0 0 0 0 255
0.45702 1.064034 0.0 0 0 0 0 0 255
0.738156 0.861288 0.0 0 0 0 0 0 255
0.747726 1.041258 0.0 0 0 0 0 0 255
0.656796 1.112118 0.0 0 0 0 0 0 255
0.707346 0.932352 0.0 0 0 0 0 0 255
0.451404 1.285422 0.0 0 0 0 0 0 255
0.528318 1.192434 0.0 0 0 0 0 0 255
0.602082 1.399512 0.0 0 0 0 0 0 255
0.661842 1.317072 0.0 0 0 0 0 0 255
0.578454 1.496754 0.0 0 0 0 0 0 255
0.81528 0.665742 0.0 0 0 0 0 0 255
0.858366 0.16338 0.0 0 0 0 0 0 255
0.835182 0.398106 0.0 0 0 0 0 0 255
0.998064 0.232518 0.0 0 0 0 0 0 255
0.937356 0.33219 0.0 0 0 0 0 0 255
1.159548 0.315198 0.0 0 0 0 0 0 255
1.113462 0.41022 0.0 0 0 0 0 0 255
0.936012 0.474708 0.0 0 0 0 0 0 255
1.07973 0.579252 0.0 0 0 0 0 0 255
1.164774 0.599142 0.0 0 0 0 0 0 255
1.08543 0.65583 0.0 0 0 0 0 0 255
0.931266 0.743022 0.0 0 0 0 0 0 255
1.243422 0.216174 0.0 0 0 0 0 0 255
1.333926 0.312804 0.0 0 0 0 0 0 255
1.397586 0.24693 0.0 0 0 0 0 0 255
1.413822 0.480426 0.0 0 0 0 0 0 255
1.264284 0.436452 0.0 0 0 0 0 0 255
1.326648 0.564762 0.0 0 0 0 0 0 255
1.152408 0.733764 0.0 0 0 0 0 0 255
1.370874 0.654462 0.0 0 0 0 0 0 255
1.439478 0.708738 0.0 0 0 0 255 0 0
1.485414 0.569652 0.0 0 0 0 0 0 255
0.899064 0.897438 0.0 0 0 0 0 0 255
0.850794 1.086792 0.0 0 0 0 0 0 255
1.018584 0.809442 0.0 0 0 0 0 0 255
0.819198 1.253382 0.0 0 0 0 0 0 255
0.177384 1.629168 0.0 0 0 0 0 0 255
0.23724 1.722462 0.0 0 0 0 0 0 255
0.3789 1.601928 0.0 0 0 0 0 0 255
0.335166 1.76526 0.0 0 0 0 0 0 255
0.404184 1.727562 0.0 0 0 0 0 0 255
0.17769 1.865022 0.0 0 0 0 0 0 255
0.136044 1.933962 0.0 0 0 0 0 0 255
0.113886 2.024292 0.0 0 0 0 0 0 255
0.124416 2.101956 0.0 0 0 0 0 0 255
0.202122 2.14662 0.0 0 0 0 0 0 255
0.267576 1.965612 0.0 0 0 0 0 0 255
0.347262 1.968366 0.0 0 0 0 0 0 255
0.302334 2.097786 0.0 0 0 0 0 0 255
0.36342 2.144286 0.0 0 0 0 0 0 255
0.147972 2.268186 0.0 0 0 0 0 0 255
0.423636 1.959648 0.0 0 0 0 0 0 255
0.516456 1.54863 0.0 0 0 0 0 0 255
0.626208 1.560594 0.0 0 0 0 0 0 255
0.467898 1.77573 0.0 0 0 0 0 0 255
0.52209 1.69512 0.0 0 0 0 0 0 255
0.63651 1.711164 0.0 0 0 0 0 0 255
0.490224 2.02617 0.0 0 0 0 0 0 255
0.237558 2.42118 0.0 0 0 0 0 0 255
0.061068 2.428974 0.0 0 0 0 0 0 255
0.227292 2.269254 0.0 0 0 0 0 0 255
0.386052 2.21757 0.0 0 0 0 0 0 255

3 41 45 47
3 67 65 69
3 65 68 69
3 75 73 74
3 172 168 163
3 181 183 182
3 219 220 218
3 228 220 219
3 243 244 122
3 254 239 240
3 253 252 209
3 250 245 260
3 23 20 21
3 133 25 24
3 38 40 41
3 77 78 166
3 87 90 88
3 105 95 187
3 105 96 95
3 100 97 96
3 103 109 101
3 102 104 193
3 121 115 116
3 121 120 115
3 119 120 121
3 125 123 126
3 132 135 134
3 134 137 141
3 137 134 138
3 152 155 154
3 71 158 160
3 72 165 78
3 72 71 165
3 164 153 173
3 181 210 183
3 181 184 210
3 195 190 200
3 187 191 194
3 196 198 193
3 192 196 193
3 195 206 205
3 206 195 200
3 223 222 224
3 216 215 226
3 226 225 227
3 231 227 225
3 231 229 227
3 121 116 242
3 241 237 239
3 242 241 246
3 245 250 244
3 123 122 244
3 247 248 246
3 247 246 251
3 245 248 249
3 260 245 249
3 255 252 253
3 256 254 255
3 4 3 5
3 7 11 8
3 11 6 9
3 6 5 3
3 5 6 7
3 6 11 7
3 9 1 2
3 1 9 6
3 7 13 14
3 13 7 8
3 15 13 16
3 8 12 13
3 8 11 12
3 17 15 18
3 15 16 18
3 37 18 19
3 16 19 18
3 22 129 132
3 22 133 24
3 134 141 133
3 23 22 20
3 24 20 22
3 24 25 20
3 28 29 27
3 31 32 10
3 10 32 12
3 12 11 10
3 38 40 42
3 37 40 38
3 36 43 44
3 44 46 45
3 46 48 45
3 44 48 46
3 48 44 49
3 53 56 55
3 47 68 57
3 57 55 56
3 55 58 59
3 55 57 58
3 60 61 64
3 61 63 64
3 52 59 54
3 62 58 66
3 66 73 62
3 59 58 62
3 66 73 62
3 62 58 66
3 65 67 66
3 85 82 81
3 92 91 80
3 91 84 80
3 84 91 76
3 84 76 80
3 86 87 85
3 90 87 86
3 92 93 94
3 93 80 79
3 93 92 80
3 98 90 99
3 109 113 115
3 110 109 115
3 111 117 112
3 111 108 110
3 110 117 111
3 103 114 113
3 113 109 103
3 117 120 119
3 259 126 127
3 125 127 126
3 125 124 118
3 130 135 132
3 130 129 131
3 129 130 132
3 135 137 134
3 138 144 143
3 150 151 146
3 159 161 162
3 162 160 159
3 70 158 69
3 158 71 69
3 72 69 71
3 72 67 69
3 166 78 165
3 78 167 165
3 168 169 167
3 164 162 161
3 177 172 163
3 152 154 153
3 154 175 153
3 175 173 153
3 176 177 178
3 188 170 180
3 182 201 180
3 199 201 204
3 183 201 182
3 188 169 170
3 189 186 185
3 193 104 192
3 187 192 105
3 192 187 194
3 200 190 199
3 205 208 207
3 208 205 206
3 238 197 252
3 238 196 197
3 235 253 208
3 253 209 207
3 207 208 253
3 232 204 201
3 232 202 204
3 155 211 154
3 178 211 214
3 212 178 214
3 215 216 213
3 212 217 184
3 228 234 220
3 221 220 234
3 218 216 219
3 222 223 215
3 226 215 223
3 226 223 225
3 230 229 231
3 114 116 113
3 116 115 113
3 119 121 122
3 121 242 243
3 243 122 121
3 196 238 198
3 238 236 198
3 239 237 238
3 240 239 238
3 237 236 238
3 239 246 241
3 239 247 246
3 251 239 254
3 251 247 239
3 245 244 243
3 246 248 245
3 246 243 242
3 246 245 243
3 250 123 244
3 123 127 126
3 123 250 127
3 248 247 249
3 249 247 251
3 251 257 249
3 253 256 255
3 251 254 257
3 256 257 254
3 258 250 260
3 127 258 259
3 127 250 258
3 261 260 249
3 260 261 258
3 4 3 5
3 3 1 6
3 6 5 3
3 10 11 9
3 11 10 8
3 8 9 11
3 5 7 4
3 14 4 7
3 17 14 15
3 13 15 14
3 13 12 16
3 19 16 12
3 32 31 35
3 33 35 31
3 10 30 31
3 2 10 9
3 2 30 10
3 22 132 133
3 134 133 132
3 129 22 0
3 23 22 24
3 22 129 24
3 23 0 22
3 25 133 26
3 26 128 25
3 133 141 26
3 139 26 141
3 139 128 26
3 27 25 28
3 25 27 20
3 25 26 28
3 28 128 29
3 128 28 26
3 33 31 34
3 31 2 30
3 30 34 31
3 2 34 30
3 36 39 35
3 37 39 40
3 39 37 35
3 32 19 12
3 37 19 35
3 19 32 35
3 34 33 35
3 33 43 36
3 36 35 33
3 33 34 43
3 41 39 46
3 41 46 45
3 46 39 44
3 36 39 35
3 35 44 36
3 39 41 40
3 40 35 39
3 36 44 39
3 147 27 29
3 29 148 147
3 148 29 140
3 18 37 50
3 38 42 50
3 50 17 18
3 18 17 37
3 37 38 50
3 17 18 51
3 51 18 50
3 50 53 51
3 56 42 47
3 57 53 56
3 56 47 57
3 47 42 41
3 38 41 42
3 42 50 38
3 50 42 53
3 42 56 53
3 52 54 51
3 60 51 54
3 60 54 61
3 54 59 63
3 63 61 54
3 51 53 52
3 52 54 51
3 53 55 52
3 59 52 55
3 59 54 52
3 64 63 76
3 63 75 76
3 62 75 63
3 59 62 63
3 62 73 75
3 81 83 91
3 83 84 91
3 81 64 83
3 64 76 84
3 84 83 64
3 57 65 58
3 65 57 68
3 65 66 58
3 45 48 47
3 68 48 49
3 48 45 49
3 68 47 48
3 73 66 74
3 67 66 65
3 66 67 74
3 77 72 78
3 67 65 72
3 67 72 74
3 72 77 74
3 93 79 171
3 166 79 77
3 166 171 79
3 82 81 83
3 81 64 83
3 82 60 81
3 61 81 60
3 61 64 81
3 88 82 87
3 85 87 82
3 106 88 89
3 92 80 79
3 79 77 92
3 80 75 79
3 92 76 80
3 74 79 75
3 76 75 80
3 79 74 77
3 91 86 83
3 85 83 86
3 85 81 83
3 92 94 96
3 86 91 92
3 97 92 96
3 95 96 94
3 92 97 86
3 90 97 99
3 97 90 86
3 97 100 99
3 102 103 100
3 103 101 100
3 101 98 99
3 99 100 101
3 98 100 99
3 106 88 89
3 89 98 106
3 88 90 89
3 98 89 90
3 98 107 106
3 98 99 101
3 101 108 98
3 108 101 109
3 108 110 107
3 110 108 109
3 108 107 98
3 117 115 120
3 115 111 110
3 115 117 111
3 106 108 107
3 107 112 106
3 107 108 111
3 111 112 107
3 198 236 193
3 114 102 193
3 114 193 236
3 114 103 102
3 117 118 112
3 117 119 118
3 118 124 112
3 120 122 119
3 119 118 120
3 122 125 119
3 125 122 123
3 125 118 119
3 259 124 126
3 126 125 259
3 125 126 124
3 130 129 131
3 129 23 0
3 0 131 129
3 135 130 136
3 131 136 130
3 148 149 147
3 151 147 149
3 29 128 140
3 140 128 139
3 139 142 140
3 136 137 135
3 137 138 144
3 138 136 144
3 137 136 138
3 139 141 143
3 143 142 139
3 143 137 138
3 143 141 137
3 144 146 143
3 146 145 142
3 142 143 146
3 142 146 145
3 145 140 142
3 146 151 145
3 140 149 148
3 151 149 145
3 151 148 149
3 149 140 145
3 155 152 156
3 152 155 153
3 69 68 70
3 70 159 69
3 68 49 70
3 49 68 48
3 49 159 70
3 49 164 159
3 161 159 164
3 160 158 159
3 70 159 158
3 165 71 167
3 167 168 165
3 71 160 167
3 163 167 160
3 162 163 160
3 163 168 167
3 172 177 179
3 176 181 179
3 176 179 177
3 176 184 181
3 177 174 176
3 176 163 177
3 164 163 162
3 163 174 177
3 174 173 175
3 175 176 174
3 173 174 164
3 174 163 164
3 170 179 180
3 168 170 169
3 170 180 169
3 179 182 180
3 181 182 179
3 179 172 181
3 168 172 170
3 172 179 170
3 185 169 170
3 169 167 170
3 185 171 169
3 165 169 166
3 171 166 169
3 169 165 167
3 94 93 95
3 186 93 171
3 93 186 95
3 187 186 191
3 185 191 186
3 185 186 171
3 186 187 95
3 169 188 185
3 185 171 169
3 188 189 185
3 186 185 189
3 190 186 189
3 190 189 188
3 185 186 171
3 195 194 190
3 194 191 190
3 191 186 189
3 189 190 191
3 192 104 105
3 104 100 105
3 104 102 100
3 100 96 105
3 194 195 192
3 205 196 192
3 192 195 205
3 205 197 196
3 180 199 188
3 199 190 188
3 188 182 180
3 201 180 182
3 201 199 180
3 199 203 200
3 203 206 200
3 202 199 204
3 202 203 199
3 206 203 208
3 203 235 208
3 203 202 233
3 233 235 203
3 203 206 202
3 209 252 197
3 197 207 209
3 205 197 196
3 197 252 196
3 205 207 197
3 209 252 238
3 252 255 238
3 209 255 252
3 255 254 240
3 240 238 255
3 202 232 233
3 154 178 175
3 178 174 175
3 177 178 212
3 211 212 178
3 211 178 154
3 178 177 174
3 156 211 155
3 156 213 211
3 157 214 213
3 213 156 157
3 214 211 213
3 215 157 222
3 157 215 213
3 176 212 184
3 212 176 178
3 232 221 234
3 183 210 221
3 221 232 201
3 201 183 221
3 218 217 216
3 214 213 216
3 217 212 214
3 214 216 217
3 212 213 214
3 210 217 221
3 218 220 221
3 217 210 184
3 217 218 221
3 156 224 157
3 222 157 224
3 228 219 229
3 219 227 229
3 228 216 219
3 226 219 216
3 226 229 227
3 226 227 219
3 225 224 231
3 224 225 223
3 114 241 116
3 241 242 116
3 237 114 236
3 237 241 114

