ply
format ascii 1.0
comment VCGLIB generated
element vertex 459
property float x
property float y
property float z
property float nx
property float ny
property float nz
property uchar red
property uchar green
property uchar blue
element face 830
property list uchar int vertex_indices
end_header
0.071664 -1.546254 0.0 0 0 0 0 0 255
-0.023922 -1.466034 0.0 0 0 0 0 0 255
-0.003882 -1.630458 0.0 0 0 0 0 0 255
-1.102482 -0.781992 0.0 0 0 0 0 0 255
-0.937512 -0.794508 0.0 0 0 0 0 0 255
-0.759246 -0.76914 0.0 0 0 0 0 0 255
-1.141188 -0.716088 0.0 0 0 0 0 0 255
-1.259004 -0.5964 0.0 0 0 0 0 0 255
-1.12938 -0.620694 0.0 0 0 0 0 0 255
-1.109682 -0.514938 0.0 0 0 0 0 0 255
-0.943896 -0.709188 0.0 0 0 0 0 0 255
-1.037922 -0.470082 0.0 0 0 0 0 0 255
-0.938328 -0.455208 0.0 0 0 0 0 0 255
-0.857526 -0.658326 0.0 0 0 0 0 0 255
-0.841974 -0.577164 0.0 0 0 0 0 0 255
-0.763602 -0.56661 0.0 0 0 0 0 0 255
-0.887766 -0.512328 0.0 0 0 0 0 0 255
-0.773196 -0.39894 0.0 0 0 0 0 0 255
-0.7368 -0.489708 0.0 0 0 0 0 0 255
-0.723168 -0.636744 0.0 0 0 0 0 0 255
-0.94347 -0.323844 0.0 0 0 0 0 0 255
-1.136376 -0.339258 0.0 0 0 0 0 0 255
-1.048128 -0.191166 0.0 0 0 0 0 0 255
-0.907812 -0.167988 0.0 0 0 0 0 0 255
-0.797382 -0.310536 0.0 0 0 0 0 0 255
-0.83835 -0.216288 0.0 0 0 0 0 0 255
-0.910656 -0.09078 0.0 0 0 0 0 0 255
-0.809622 -0.05232 0.0 0 0 0 0 0 255
-0.81537 0.05871 0.0 0 0 0 0 0 255
-0.738552 -0.242856 0.0 0 0 0 0 0 255
-0.184014 -1.208958 0.0 0 0 0 0 0 255
-0.248538 -1.304508 0.0 0 0 0 255 0 0
-0.01932 -1.319292 0.0 0 0 0 0 0 255
-0.052278 -1.390428 0.0 0 0 0 0 0 255
-0.153876 -1.372986 0.0 0 0 0 0 0 255
-0.023592 -1.204842 0.0 0 0 0 0 0 255
-0.063414 -1.11963 0.0 0 0 0 0 0 255
-0.120018 -1.057182 0.0 0 0 0 0 0 255
0.001602 -1.000704 0.0 0 0 0 0 0 255
-0.171822 -0.896316 0.0 0 0 0 0 0 255
-0.095118 -0.89643 0.0 0 0 0 0 0 255
-0.019638 -0.86775 0.0 0 0 0 0 0 255
-0.030438 -0.763872 0.0 0 0 0 0 0 255
-0.226482 -0.786636 0.0 0 0 0 0 0 255
-0.196896 -0.707934 0.0 0 0 0 0 0 255
-0.639162 -0.67203 0.0 0 0 0 0 0 255
-0.582126 -0.574146 0.0 0 0 0 0 0 255
-0.670086 -0.450618 0.0 0 0 0 0 0 255
-0.578298 -0.481998 0.0 0 0 0 0 0 255
-0.475842 -0.540294 0.0 0 0 0 0 0 255
-0.555072 -0.72048 0.0 0 0 0 0 0 255
-0.457962 -0.758148 0.0 0 0 0 255 0 0
-0.420114 -0.650466 0.0 0 0 0 0 0 255
-0.541854 -0.40422 0.0 0 0 0 0 0 255
-0.42996 -0.33621 0.0 0 0 0 0 0 255
-0.373578 -0.393408 0.0 0 0 0 0 0 255
-0.399768 -0.528312 0.0 0 0 0 0 0 255
-0.661512 -0.193458 0.0 0 0 0 0 0 255
-0.625578 -0.09828 0.0 0 0 0 0 0 255
-0.596658 -0.279786 0.0 0 0 0 0 0 255
-0.728448 -0.034974 0.0 0 0 0 0 0 255
-0.531126 -0.071442 0.0 0 0 0 0 0 255
-0.520608 -0.265056 0.0 0 0 0 0 0 255
-0.43245 -0.248244 0.0 0 0 0 0 0 255
-0.33201 -0.243174 0.0 0 0 0 0 0 255
-0.479964 -0.168954 0.0 0 0 0 0 0 255
-0.395694 -0.072882 0.0 0 0 0 0 0 255
-0.568272 0.029238 0.0 0 0 0 0 0 255
-0.336438 -0.48441 0.0 0 0 0 0 0 255
-0.078582 -0.691134 0.0 0 0 0 0 0 255
0.06033 -0.675936 0.0 0 0 0 0 0 255
-0.21672 -0.319026 0.0 0 0 0 0 0 255
-0.320508 -0.15135 0.0 0 0 0 0 0 255
-0.28839 -0.081522 0.0 0 0 0 0 0 255
-0.246174 -0.188226 0.0 0 0 0 0 0 255
-0.34209 0.016344 0.0 0 0 0 0 0 255
-0.242076 -0.018042 0.0 0 0 0 0 0 255
-0.14628 -0.146256 0.0 0 0 0 0 0 255
-0.13797 -0.034854 0.0 0 0 0 0 0 255
-0.016092 0.060858 0.0 0 0 0 0 0 255
0.027336 -0.024474 0.0 0 0 0 0 0 255
-0.11919 0.083502 0.0 0 0 0 0 0 255
-0.686364 0.053052 0.0 0 0 0 0 0 255
-0.8535 0.131022 0.0 0 0 0 255 0 0
-0.775764 0.232824 0.0 0 0 0 0 0 255
-0.753222 0.351342 0.0 0 0 0 0 0 255
-0.654018 0.383022 0.0 0 0 0 0 0 255
-0.678162 0.2013 0.0 0 0 0 0 0 255
-0.65802 0.494646 0.0 0 0 0 0 0 255
-0.772482 0.512652 0.0 0 0 0 0 0 255
-0.614046 0.099792 0.0 0 0 0 0 0 255
-0.522666 0.092298 0.0 0 0 0 0 0 255
-0.623946 0.30501 0.0 0 0 0 0 0 255
-0.519522 0.252714 0.0 0 0 0 0 0 255
-0.575838 0.399474 0.0 0 0 0 0 0 255
-0.494388 0.166962 0.0 0 0 0 0 0 255
-0.456666 0.053472 0.0 0 0 0 0 0 255
-0.368256 0.159684 0.0 0 0 0 0 0 255
-0.284604 0.136476 0.0 0 0 0 0 0 255
-0.456468 0.30882 0.0 0 0 0 0 0 255
-0.347502 0.309294 0.0 0 0 0 0 0 255
-0.487446 0.395436 0.0 0 0 0 0 0 255
-0.621096 0.63627 0.0 0 0 0 0 0 255
-0.597804 0.544374 0.0 0 0 0 0 0 255
-0.68694 0.719544 0.0 0 0 0 0 0 255
-0.605928 0.72342 0.0 0 0 0 0 0 255
-0.405384 0.471156 0.0 0 0 0 0 0 255
-0.31881 0.445572 0.0 0 0 0 0 0 255
-0.520872 0.554142 0.0 0 0 0 0 0 255
-0.521256 0.748818 0.0 0 0 0 0 0 255
-0.42654 0.658608 0.0 0 0 0 0 0 255
-0.448104 0.580446 0.0 0 0 0 0 0 255
-0.537882 0.82593 0.0 0 0 0 0 0 255
-0.304968 0.213612 0.0 0 0 0 0 0 255
-0.176676 0.23112 0.0 0 0 0 0 0 255
-0.299928 0.36915 0.0 0 0 0 0 0 255
-0.223686 0.36093 0.0 0 0 0 0 0 255
-0.154644 0.32712 0.0 0 0 0 0 0 255
-0.17556 0.136092 0.0 0 0 0 0 0 255
-0.091488 0.232842 0.0 0 0 0 0 0 255
0.018018 0.176472 0.0 0 0 0 0 0 255
0.012522 0.289176 0.0 0 0 0 0 0 255
0.07257 0.36453 0.0 0 0 0 0 0 255
-0.014172 0.432024 0.0 0 0 0 0 0 255
-0.100026 0.440268 0.0 0 0 0 0 0 255
-0.279156 0.513096 0.0 0 0 0 0 0 255
-0.20544 0.538908 0.0 0 0 0 0 0 255
-0.297318 0.594318 0.0 0 0 0 0 0 255
-0.34968 0.71985 0.0 0 0 0 0 0 255
-0.154812 0.639036 0.0 0 0 0 0 0 255
-0.255672 0.790986 0.0 0 0 0 0 0 255
-0.125286 0.53694 0.0 0 0 0 0 0 255
-0.026196 0.59712 0.0 0 0 0 0 0 255
0.02166 0.5265 0.0 0 0 0 0 0 255
-0.093354 0.73263 0.0 0 0 0 0 0 255
-0.006714 0.69315 0.0 0 0 0 0 0 255
0.018708 0.765888 0.0 0 0 0 0 0 255
-0.16911 0.809076 0.0 0 0 0 0 0 255
-0.72006 0.907626 0.0 0 0 0 0 0 255
-0.60669 0.865386 0.0 0 0 0 0 0 255
-0.557652 0.945072 0.0 0 0 0 0 0 255
-0.617772 1.048482 0.0 0 0 0 0 0 255
-0.4743 0.88932 0.0 0 0 0 0 0 255
-0.4836 0.965646 0.0 0 0 0 0 0 255
-0.399426 0.845322 0.0 0 0 0 0 0 255
-0.330264 0.811284 0.0 0 0 0 0 0 255
-0.563064 1.12224 0.0 0 0 0 0 0 255
-0.485778 1.103562 0.0 0 0 0 0 0 255
-0.431856 1.03668 0.0 0 0 0 0 0 255
-0.334086 1.084536 0.0 0 0 0 0 0 255
-0.579366 1.210368 0.0 0 0 0 0 0 255
-0.48498 1.18332 0.0 0 0 0 0 0 255
-0.39441 1.186632 0.0 0 0 0 0 0 255
-0.507138 1.390788 0.0 0 0 0 0 0 255
-0.555918 1.331736 0.0 0 0 0 0 0 255
-0.515916 1.46799 0.0 0 0 0 0 0 255
-0.436074 1.41897 0.0 0 0 0 0 0 255
-0.379902 1.295334 0.0 0 0 0 0 0 255
-0.333402 0.902052 0.0 0 0 0 0 0 255
-0.17007 0.95556 0.0 0 0 0 0 0 255
-0.283068 1.006596 0.0 0 0 0 0 0 255
-0.205746 1.032288 0.0 0 0 0 0 0 255
-0.10848 0.89553 0.0 0 0 0 0 0 255
0.004554 0.879588 0.0 0 0 0 0 0 255
-0.100992 0.991704 0.0 0 0 0 0 0 255
-0.12477 1.097574 0.0 0 0 0 0 0 255
-0.056184 1.053438 0.0 0 0 0 0 0 255
0.023682 1.034526 0.0 0 0 0 0 0 255
-0.130506 1.183104 0.0 0 0 0 0 0 255
-0.278226 1.23675 0.0 0 0 0 0 0 255
-0.205314 1.199412 0.0 0 0 0 0 0 255
-0.216882 1.326474 0.0 0 0 0 0 0 255
-0.349068 1.413114 0.0 0 0 0 0 0 255
-0.258222 1.419294 0.0 0 0 0 0 0 255
-0.06711 1.272612 0.0 0 0 0 0 0 255
-0.129282 1.33296 0.0 0 0 0 0 0 255
-0.199578 1.481148 0.0 0 0 0 0 0 255
-0.109812 1.437882 0.0 0 0 0 0 0 255
-0.00354 1.449636 0.0 0 0 0 0 0 255
0.013884 1.284714 0.0 0 0 0 0 0 255
-0.056508 1.512582 0.0 0 0 0 0 0 255
0.086286 1.38735 0.0 0 0 0 0 0 255
0.026718 1.209036 0.0 0 0 0 0 0 255
-0.62583 1.505892 0.0 0 0 0 0 0 255
-0.496224 1.573836 0.0 0 0 0 0 0 255
-0.410058 1.633014 0.0 0 0 0 0 0 255
-0.354114 1.515018 0.0 0 0 0 0 0 255
-0.485316 1.726176 0.0 0 0 0 0 0 255
-0.442962 1.792902 0.0 0 0 0 0 0 255
-0.333648 1.649082 0.0 0 0 0 0 0 255
-0.34023 1.811388 0.0 0 0 0 0 0 255
-0.288414 1.583112 0.0 0 0 0 0 0 255
-0.207048 1.616892 0.0 0 0 0 0 0 255
-0.265614 1.69071 0.0 0 0 0 0 0 255
-0.266064 1.77585 0.0 0 0 0 0 0 255
-0.14484 1.70727 0.0 0 0 0 0 0 255
-0.387114 1.922766 0.0 0 0 0 0 0 255
-0.07134 1.686732 0.0 0 0 0 0 0 255
-0.03213 1.621104 0.0 0 0 0 0 0 255
0.034044 1.65906 0.0 0 0 0 0 0 255
-0.199056 1.822788 0.0 0 0 0 0 0 255
-0.102876 1.771092 0.0 0 0 0 0 0 255
0.002082 1.843266 0.0 0 0 0 0 0 255
-0.379776 2.053536 0.0 0 0 0 0 0 255
-0.257118 1.929786 0.0 0 0 0 0 0 255
-0.30438 2.080554 0.0 0 0 0 0 0 255
-0.226362 2.016642 0.0 0 0 0 0 0 255
-0.245556 2.168352 0.0 0 0 0 0 0 255
-0.147474 2.03883 0.0 0 0 0 0 0 255
-0.1563 1.956 0.0 0 0 0 0 0 255
-0.03606 1.951152 0.0 0 0 0 0 0 255
-0.13725 2.122374 0.0 0 0 0 0 0 255
-0.05337 2.1687 0.0 0 0 0 0 0 255
0.02223 2.11764 0.0 0 0 0 0 0 255
0.014832 2.208972 0.0 0 0 0 0 0 255
-0.313494 2.239236 0.0 0 0 0 0 0 255
0.020748 2.016486 0.0 0 0 0 0 0 255
-0.198936 2.28909 0.0 0 0 0 0 0 255
-0.12312 2.264688 0.0 0 0 0 0 0 255
-0.073362 2.34081 0.0 0 0 0 0 0 255
-0.025482 2.421426 0.0 0 0 0 0 0 255
-0.102336 2.45706 0.0 0 0 0 0 0 255
0.067326 2.347584 0.0 0 0 0 0 0 255
0.052704 -0.897936 0.0 0 0 0 0 0 255
0.103152 -1.475052 0.0 0 0 0 0 0 255
0.18864 -1.530276 0.0 0 0 0 0 0 255
0.228168 -1.627086 0.0 0 0 0 0 0 255
0.260178 -1.458738 0.0 0 0 0 0 0 255
0.383724 -1.495308 0.0 0 0 0 0 0 255
0.154158 -1.359024 0.0 0 0 0 0 0 255
0.122406 -1.257516 0.0 0 0 0 0 0 255
0.073488 -1.196856 0.0 0 0 0 0 0 255
0.19488 -1.195536 0.0 0 0 0 0 0 255
0.257562 -1.365396 0.0 0 0 0 0 0 255
0.304776 -1.278444 0.0 0 0 0 0 0 255
0.414096 -1.406904 0.0 0 0 0 0 0 255
0.404016 -1.305582 0.0 0 0 0 0 0 255
0.292296 -1.179 0.0 0 0 0 0 0 255
0.428688 -1.164042 0.0 0 0 0 0 0 255
0.112812 -1.039776 0.0 0 0 0 0 0 255
0.200652 -0.952938 0.0 0 0 0 0 0 255
0.143208 -0.871866 0.0 0 0 0 0 0 255
0.095904 -0.747396 0.0 0 0 0 0 0 255
0.172446 -0.757536 0.0 0 0 0 0 0 255
0.18042 -1.076646 0.0 0 0 0 0 0 255
0.242946 -1.019976 0.0 0 0 0 0 0 255
0.32079 -1.00251 0.0 0 0 0 0 0 255
0.410328 -1.075866 0.0 0 0 0 0 0 255
0.25686 -0.875166 0.0 0 0 0 0 0 255
0.343896 -0.817026 0.0 0 0 0 0 0 255
0.442452 -0.884736 0.0 0 0 0 0 0 255
0.227556 -0.682092 0.0 0 0 0 0 0 255
0.409344 -0.978546 0.0 0 0 0 0 0 255
0.320346 -0.690816 0.0 0 0 0 0 0 255
0.49377 -1.222398 0.0 0 0 0 0 0 255
0.517026 -1.034904 0.0 0 0 0 0 0 255
0.513678 -0.84681 0.0 0 0 0 0 0 255
0.544278 -0.766512 0.0 0 0 0 0 0 255
0.384252 -0.732756 0.0 0 0 0 0 0 255
0.492738 -0.687894 0.0 0 0 0 0 0 255
0.0261 -0.58437 0.0 0 0 0 0 0 255
0.150276 -0.639774 0.0 0 0 0 0 0 255
0.209232 -0.557178 0.0 0 0 0 0 0 255
0.285834 -0.602178 0.0 0 0 0 0 0 255
0.362976 -0.595302 0.0 0 0 0 0 0 255
0.502926 -0.57261 0.0 0 0 0 0 0 255
0.416016 -0.526602 0.0 0 0 0 0 0 255
0.631674 -0.095988 0.0 0 0 0 0 0 255
0.737748 -0.034788 0.0 0 0 0 0 0 255
0.576384 -0.012702 0.0 0 0 0 0 0 255
0.6459 0.07326 0.0 0 0 0 0 0 255
0.746202 0.058086 0.0 0 0 0 0 0 255
0.835614 -0.078276 0.0 0 0 0 0 0 255
0.903612 -0.03165 0.0 0 0 0 0 0 255
0.835968 0.079302 0.0 0 0 0 0 0 255
0.97926 -0.00525 0.0 0 0 0 0 0 255
1.020984 0.064416 0.0 0 0 0 0 0 255
1.142376 -0.0015 0.0 0 0 0 0 0 255
1.107546 0.109218 0.0 0 0 0 0 0 255
0.074022 0.2334 0.0 0 0 0 0 0 255
0.136638 0.037422 0.0 0 0 0 0 0 255
0.16533 0.127338 0.0 0 0 0 0 0 255
0.147306 0.20445 0.0 0 0 0 0 0 255
0.202308 0.2604 0.0 0 0 0 0 0 255
0.221394 0.179256 0.0 0 0 0 0 0 255
0.308508 0.151956 0.0 0 0 0 0 0 255
0.293652 0.232932 0.0 0 0 0 0 0 255
0.35406 0.056268 0.0 0 0 0 0 0 255
0.31311 0.317208 0.0 0 0 0 0 0 255
0.219594 0.365742 0.0 0 0 0 0 0 255
0.393564 0.335886 0.0 0 0 0 0 0 255
0.395178 0.124836 0.0 0 0 0 0 0 255
0.183792 0.436554 0.0 0 0 0 0 0 255
0.160932 0.6111 0.0 0 0 0 0 0 255
0.124668 0.522498 0.0 0 0 0 0 0 255
0.122814 0.6834 0.0 0 0 0 0 0 255
0.231216 0.644298 0.0 0 0 0 0 0 255
0.25644 0.48057 0.0 0 0 0 0 0 255
0.341814 0.461238 0.0 0 0 0 0 0 255
0.313968 0.602334 0.0 0 0 0 0 0 255
0.298128 0.684738 0.0 0 0 0 0 0 255
0.26664 0.75435 0.0 0 0 0 0 0 255
0.407562 0.692496 0.0 0 0 0 0 0 255
0.13464 0.780582 0.0 0 0 0 0 0 255
0.445614 0.46962 0.0 0 0 0 0 0 255
0.449208 0.186426 0.0 0 0 0 0 0 255
0.531168 0.108204 0.0 0 0 0 0 0 255
0.481116 0.275682 0.0 0 0 0 0 0 255
0.561558 0.290862 0.0 0 0 0 0 0 255
0.625044 0.242904 0.0 0 0 0 0 0 255
0.583776 0.164658 0.0 0 0 0 0 0 255
0.698202 0.220602 0.0 0 0 0 0 0 255
0.651042 0.416184 0.0 0 0 0 0 0 255
0.763878 0.368508 0.0 0 0 0 0 0 255
0.583968 0.3693 0.0 0 0 0 0 0 255
0.748794 0.282372 0.0 0 0 0 0 0 255
0.50568 0.559212 0.0 0 0 0 0 0 255
0.584274 0.525708 0.0 0 0 0 0 0 255
0.534336 0.45234 0.0 0 0 0 0 0 255
0.462654 0.63588 0.0 0 0 0 0 0 255
0.499656 0.719748 0.0 0 0 0 0 0 255
0.575754 0.752652 0.0 0 0 0 0 0 255
0.661338 0.619278 0.0 0 0 0 0 0 255
0.757968 0.446286 0.0 0 0 0 0 0 255
0.645666 0.705936 0.0 0 0 0 0 0 255
0.736092 0.718926 0.0 0 0 0 0 0 255
0.756618 0.539826 0.0 0 0 0 0 0 255
0.791094 0.80427 0.0 0 0 0 0 0 255
0.798702 0.220698 0.0 0 0 0 0 0 255
0.146064 0.928122 0.0 0 0 0 0 0 255
0.220578 0.82557 0.0 0 0 0 0 0 255
0.074502 0.97692 0.0 0 0 0 0 0 255
0.178788 1.00317 0.0 0 0 0 0 0 255
0.071382 1.128516 0.0 0 0 0 0 0 255
0.291918 0.867852 0.0 0 0 0 0 0 255
0.393636 0.818112 0.0 0 0 0 0 0 255
0.247056 0.945924 0.0 0 0 0 0 0 255
0.292554 1.008642 0.0 0 0 0 0 0 255
0.398634 1.000692 0.0 0 0 0 0 0 255
0.178074 1.083498 0.0 0 0 0 0 0 255
0.265932 1.081164 0.0 0 0 0 0 0 255
0.216918 1.275372 0.0 0 0 0 0 0 255
0.127272 1.280832 0.0 0 0 0 0 0 255
0.13854 1.443168 0.0 0 0 0 0 0 255
0.229758 1.158312 0.0 0 0 0 0 0 255
0.366696 1.267698 0.0 0 0 0 0 0 255
0.2943 1.29249 0.0 0 0 0 0 0 255
0.37893 1.143018 0.0 0 0 0 0 0 255
0.298944 1.418406 0.0 0 0 0 0 0 255
0.398304 1.414812 0.0 0 0 0 0 0 255
0.216216 1.500744 0.0 0 0 0 0 0 255
0.475614 0.917664 0.0 0 0 0 0 0 255
0.56043 0.841236 0.0 0 0 0 0 0 255
0.59586 0.935694 0.0 0 0 0 0 0 255
0.45702 1.064034 0.0 0 0 0 0 0 255
0.537198 1.092072 0.0 0 0 0 0 0 255
0.600426 1.039878 0.0 0 0 0 0 0 255
0.660246 0.858702 0.0 0 0 0 0 0 255
0.738156 0.861288 0.0 0 0 0 0 0 255
0.747726 1.041258 0.0 0 0 0 0 0 255
0.656796 1.112118 0.0 0 0 0 0 0 255
0.707346 0.932352 0.0 0 0 0 0 0 255
0.451404 1.285422 0.0 0 0 0 0 0 255
0.528318 1.192434 0.0 0 0 0 0 0 255
0.468282 1.38252 0.0 0 0 0 0 0 255
0.602082 1.399512 0.0 0 0 0 0 0 255
0.597258 1.26279 0.0 0 0 0 0 0 255
0.661842 1.317072 0.0 0 0 0 0 0 255
0.715446 1.194762 0.0 0 0 0 0 0 255
0.724902 1.380924 0.0 0 0 0 0 0 255
0.578454 1.496754 0.0 0 0 0 0 0 255
0.792444 1.179384 0.0 0 0 0 0 0 255
0.440076 1.524846 0.0 0 0 0 0 0 255
0.81528 0.665742 0.0 0 0 0 0 0 255
0.858366 0.16338 0.0 0 0 0 0 0 255
0.935514 0.176958 0.0 0 0 0 0 0 255
0.835182 0.398106 0.0 0 0 0 0 0 255
1.07595 0.250794 0.0 0 0 0 0 0 255
1.147068 0.21018 0.0 0 0 0 0 0 255
0.998064 0.232518 0.0 0 0 0 0 0 255
0.937356 0.33219 0.0 0 0 0 0 0 255
1.159548 0.315198 0.0 0 0 0 0 0 255
1.113462 0.41022 0.0 0 0 0 0 0 255
0.984804 0.409578 0.0 0 0 0 0 0 255
0.936012 0.474708 0.0 0 0 0 0 0 255
0.904386 0.568476 0.0 0 0 0 0 0 255
0.823344 0.586638 0.0 0 0 0 0 0 255
0.939324 0.661554 0.0 0 0 0 0 0 255
1.011312 0.48804 0.0 0 0 0 0 0 255
1.07973 0.579252 0.0 0 0 0 0 0 255
1.164774 0.599142 0.0 0 0 0 0 0 255
1.08543 0.65583 0.0 0 0 0 0 0 255
1.084956 0.770154 0.0 0 0 0 0 0 255
1.190022 0.47913 0.0 0 0 0 0 0 255
0.931266 0.743022 0.0 0 0 0 0 0 255
1.310028 0.127098 0.0 0 0 0 0 0 255
1.243422 0.216174 0.0 0 0 0 0 0 255
1.333926 0.312804 0.0 0 0 0 0 0 255
1.236366 0.310254 0.0 0 0 0 0 0 255
1.397586 0.24693 0.0 0 0 0 0 0 255
1.527378 0.409626 0.0 0 0 0 0 0 255
1.413822 0.480426 0.0 0 0 0 0 0 255
1.264284 0.436452 0.0 0 0 0 0 0 255
1.35903 0.386226 0.0 0 0 0 0 0 255
1.25058 0.559272 0.0 0 0 0 0 0 255
1.326648 0.564762 0.0 0 0 0 0 0 255
1.152408 0.733764 0.0 0 0 0 0 0 255
1.281288 0.726726 0.0 0 0 0 0 0 255
1.370874 0.654462 0.0 0 0 0 0 0 255
1.439478 0.708738 0.0 0 0 0 255 0 0
1.505994 0.666486 0.0 0 0 0 0 0 255
1.485414 0.569652 0.0 0 0 0 0 0 255
0.869736 0.812664 0.0 0 0 0 0 0 255
0.899064 0.897438 0.0 0 0 0 0 0 255
0.817944 1.001136 0.0 0 0 0 0 0 255
0.850794 1.086792 0.0 0 0 0 0 0 255
0.920766 0.97338 0.0 0 0 0 255 0 0
1.018584 0.809442 0.0 0 0 0 0 0 255
0.819198 1.253382 0.0 0 0 0 0 0 255
0.093636 1.592856 0.0 0 0 0 0 0 255
0.177384 1.629168 0.0 0 0 0 0 0 255
0.146022 1.530648 0.0 0 0 0 0 0 255
0.060678 1.75986 0.0 0 0 0 0 0 255
0.13365 1.787346 0.0 0 0 0 0 0 255
0.23724 1.722462 0.0 0 0 0 0 0 255
0.290442 1.59948 0.0 0 0 0 0 0 255
0.3789 1.601928 0.0 0 0 0 0 0 255
0.335166 1.76526 0.0 0 0 0 0 0 255
0.31329 1.890042 0.0 0 0 0 0 0 255
0.404184 1.727562 0.0 0 0 0 0 0 255
0.17769 1.865022 0.0 0 0 0 0 0 255
0.136044 1.933962 0.0 0 0 0 0 0 255
0.113886 2.024292 0.0 0 0 0 0 0 255
0.124416 2.101956 0.0 0 0 0 0 0 255
0.226566 2.066856 0.0 0 0 0 0 0 255
0.202122 2.14662 0.0 0 0 0 0 0 255
0.267576 1.965612 0.0 0 0 0 0 0 255
0.347262 1.968366 0.0 0 0 0 0 0 255
0.302334 2.097786 0.0 0 0 0 0 0 255
0.36342 2.144286 0.0 0 0 0 0 0 255
0.438288 2.120688 0.0 0 0 0 0 0 255
0.147972 2.268186 0.0 0 0 0 0 0 255
0.423636 1.959648 0.0 0 0 0 0 0 255
0.450888 1.666926 0.0 0 0 0 0 0 255
0.516456 1.54863 0.0 0 0 0 0 0 255
0.626208 1.560594 0.0 0 0 0 0 0 255
0.467898 1.77573 0.0 0 0 0 0 0 255
0.52209 1.69512 0.0 0 0 0 0 0 255
0.63651 1.711164 0.0 0 0 0 0 0 255
0.649782 1.636008 0.0 0 0 0 0 0 255
0.52017 1.892094 0.0 0 0 0 0 0 255
0.490224 2.02617 0.0 0 0 0 0 0 255
0.062322 2.269626 0.0 0 0 0 0 0 255
0.149718 2.345292 0.0 0 0 0 0 0 255
0.237558 2.42118 0.0 0 0 0 0 0 255
0.061068 2.428974 0.0 0 0 0 0 0 255
0.227292 2.269254 0.0 0 0 0 0 0 255
0.3126 2.285088 0.0 0 0 0 0 0 255
0.386052 2.21757 0.0 0 0 0 255 0 0

3 29 25 24
3 36 38 37
3 38 41 40
3 46 49 48
3 49 52 56
3 28 27 60
3 54 63 62
3 62 59 53
3 62 63 65
3 64 63 54
3 53 54 62
3 18 47 17
3 71 74 64
3 64 74 72
3 66 72 73
3 66 73 75
3 73 72 74
3 69 42 70
3 75 73 76
3 67 90 82
3 60 82 28
3 91 90 67
3 95 91 96
3 96 91 67
3 88 86 94
3 92 94 86
3 102 105 104
3 111 108 106
3 112 105 109
3 97 98 113
3 98 114 113
3 117 114 119
3 114 118 119
3 118 114 98
3 128 110 127
3 127 125 126
3 131 129 126
3 112 140 139
3 142 143 140
3 140 112 142
3 146 147 151
3 153 156 155
3 151 150 146
3 160 161 149
3 160 159 161
3 158 144 145
3 164 161 159
3 161 164 165
3 166 165 164
3 159 162 164
3 128 130 145
3 152 169 157
3 157 172 156
3 180 177 178
3 165 168 170
3 136 134 135
3 186 191 189
3 191 192 193
3 195 194 193
3 189 191 193
3 193 192 195
3 188 190 196
3 200 195 201
3 200 194 195
3 201 195 197
3 199 197 198
3 208 206 209
3 206 204 209
3 209 204 200
3 189 185 186
3 219 220 221
3 223 41 38
3 224 1 0
3 0 225 224
3 230 232 231
3 242 241 243
3 244 245 240
3 245 246 240
3 248 241 240
3 248 240 246
3 244 240 239
3 252 247 255
3 247 252 246
3 261 70 242
3 42 242 70
3 262 261 251
3 261 242 243
3 253 263 251
3 262 251 263
3 243 251 261
3 264 263 253
3 258 253 249
3 279 121 120
3 281 284 282
3 121 119 120
3 284 285 286
3 283 286 288
3 286 283 284
3 289 283 288
3 285 287 291
3 284 283 282
3 122 289 292
3 295 293 296
3 295 136 135
3 297 298 299
3 296 299 300
3 299 302 300
3 304 298 290
3 291 306 305
3 310 306 270
3 309 310 311
3 270 306 269
3 318 316 304
3 302 319 320
3 316 318 317
3 318 312 317
3 322 325 324
3 318 314 312
3 295 303 136
3 332 331 329
3 330 301 334
3 330 334 336
3 332 336 337
3 332 329 336
3 336 329 330
3 340 332 337
3 181 179 342
3 179 182 342
3 179 174 182
3 340 344 339
3 339 332 340
3 353 351 352
3 357 353 352
3 358 361 357
3 357 361 353
3 356 360 355
3 352 321 357
3 365 366 367
3 369 365 367
3 366 368 367
3 313 323 312
3 311 328 315
3 376 323 313
3 376 383 384
3 386 385 373
3 373 385 387
3 388 383 382
3 376 380 383
3 390 391 389
3 384 383 388
3 381 378 396
3 397 398 396
3 396 398 381
3 398 397 402
3 402 404 393
3 393 404 390
3 406 391 390
3 397 403 402
3 381 377 378
3 392 391 406
3 361 414 359
3 415 359 414
3 368 371 418
3 198 419 199
3 420 419 421
3 420 350 425
3 350 420 421
3 420 425 424
3 343 350 421
3 216 431 432
3 432 433 213
3 434 433 432
3 213 216 432
3 428 437 436
3 430 428 436
3 435 434 438
3 435 433 434
3 438 434 436
3 212 213 214
3 443 426 372
3 443 372 444
3 429 443 446
3 447 446 443
3 446 427 429
3 445 444 370
3 452 441 222
3 222 441 453
3 222 453 455
3 455 220 222
3 453 441 456
3 441 435 456
3 0 1 2
3 3 10 6
3 8 9 7
3 15 13 19
3 13 15 14
3 14 16 12
3 14 15 16
3 17 16 18
3 15 18 16
3 26 22 23
3 57 58 60
3 28 26 27
3 29 59 57
3 24 17 29
3 33 32 34
3 34 30 31
3 231 36 35
3 40 37 38
3 69 44 42
3 44 43 42
3 40 42 43
3 39 40 43
3 40 41 42
3 41 242 42
3 242 223 241
3 242 41 223
3 45 46 19
3 46 15 19
3 47 18 46
3 48 47 46
3 18 15 46
3 49 46 52
3 50 51 52
3 50 46 45
3 50 52 46
3 48 49 53
3 49 55 53
3 55 49 56
3 68 55 56
3 55 54 53
3 61 58 65
3 57 62 65
3 57 65 58
3 57 59 62
3 60 58 82
3 67 58 61
3 67 82 58
3 63 72 65
3 72 63 64
3 72 66 65
3 75 96 66
3 96 61 66
3 96 67 61
3 61 65 66
3 64 55 71
3 54 68 55
3 55 64 54
3 68 71 55
3 69 70 260
3 78 76 77
3 73 77 76
3 73 74 77
3 71 77 74
3 77 80 78
3 79 78 80
3 79 81 78
3 75 76 98
3 76 118 98
3 76 78 81
3 81 118 76
3 83 28 84
3 28 87 84
3 87 28 82
3 82 90 87
3 86 85 92
3 85 84 87
3 87 92 85
3 89 85 88
3 86 88 85
3 93 90 95
3 90 91 95
3 87 93 92
3 87 90 93
3 92 93 94
3 101 93 99
3 101 94 93
3 97 75 98
3 96 97 95
3 96 75 97
3 93 95 99
3 95 97 99
3 100 97 113
3 100 99 97
3 107 106 115
3 106 100 115
3 100 106 101
3 101 99 100
3 88 102 89
3 88 103 102
3 102 104 89
3 110 108 111
3 110 109 108
3 102 108 109
3 105 102 109
3 102 103 108
3 88 94 103
3 94 108 103
3 108 94 101
3 101 106 108
3 104 139 138
3 105 112 139
3 139 104 105
3 111 106 127
3 127 110 111
3 125 106 107
3 125 127 106
3 109 144 112
3 144 142 112
3 144 128 145
3 145 142 144
3 110 128 109
3 128 144 109
3 116 115 100
3 114 117 116
3 113 116 100
3 113 114 116
3 107 116 125
3 115 117 116
3 116 107 115
3 125 116 126
3 126 124 131
3 117 124 116
3 124 126 116
3 120 81 79
3 119 118 81
3 81 120 119
3 119 121 117
3 121 123 117
3 121 122 123
3 123 124 117
3 130 128 127
3 129 137 130
3 129 130 127
3 129 126 134
3 126 129 127
3 129 134 137
3 131 133 132
3 133 124 123
3 133 131 124
3 134 132 135
3 132 129 131
3 132 134 129
3 295 133 293
3 133 294 293
3 132 295 135
3 132 133 295
3 137 134 162
3 134 136 163
3 163 162 134
3 139 140 138
3 141 138 140
3 140 143 141
3 143 147 141
3 143 148 147
3 147 146 141
3 144 158 142
3 158 143 142
3 148 158 160
3 149 148 160
3 148 143 158
3 152 148 149
3 147 152 151
3 147 148 152
3 150 141 146
3 156 153 157
3 153 154 157
3 151 157 154
3 150 151 154
3 151 152 157
3 153 183 154
3 183 153 155
3 155 186 184
3 186 185 184
3 186 156 172
3 186 155 156
3 158 159 160
3 137 162 159
3 130 159 158
3 145 130 158
3 130 137 159
3 165 170 161
3 170 149 161
3 149 170 169
3 169 152 149
3 163 164 162
3 167 166 164
3 163 331 167
3 167 164 163
3 165 166 168
3 182 174 168
3 182 166 333
3 167 333 166
3 182 168 166
3 172 171 173
3 171 157 169
3 171 172 157
3 174 175 168
3 175 170 168
3 171 169 170
3 170 175 171
3 175 177 171
3 177 176 173
3 173 171 177
3 192 191 176
3 191 186 176
3 186 172 173
3 173 176 186
3 177 175 178
3 179 181 178
3 174 178 175
3 174 179 178
3 177 180 176
3 180 192 176
3 192 197 195
3 197 192 198
3 192 180 198
3 184 183 155
3 184 185 187
3 187 185 188
3 185 189 188
3 190 193 194
3 193 190 189
3 190 188 189
3 194 204 190
3 194 200 204
3 204 196 190
3 343 421 178
3 178 181 343
3 178 419 180
3 198 180 419
3 178 421 419
3 199 422 197
3 201 422 202
3 201 197 422
3 201 209 200
3 210 201 202
3 210 209 201
3 203 204 205
3 203 196 204
3 204 206 205
3 205 215 203
3 215 205 207
3 211 206 208
3 206 207 205
3 206 211 207
3 208 209 210
3 213 211 208
3 213 208 216
3 210 216 208
3 211 213 212
3 212 218 211
3 218 207 211
3 217 215 207
3 207 218 217
3 220 219 222
3 219 452 222
3 214 218 212
3 219 220 218
3 218 214 219
3 214 452 219
3 221 217 219
3 218 219 217
3 225 0 226
3 2 226 0
3 226 227 225
3 227 226 228
3 237 232 234
3 232 233 234
3 232 230 229
3 229 233 232
3 225 227 224
3 227 233 229
3 229 224 227
3 234 233 236
3 233 235 236
3 227 235 233
3 227 228 235
3 236 238 234
3 238 236 254
3 238 237 234
3 232 237 244
3 237 245 244
3 246 237 247
3 237 232 238
3 238 247 237
3 246 245 237
3 241 223 240
3 223 38 239
3 239 240 223
3 253 251 249
3 251 243 249
3 243 241 248
3 248 249 243
3 248 252 249
3 252 248 246
3 252 250 249
3 247 238 255
3 254 255 238
3 255 250 252
3 250 255 256
3 259 258 257
3 258 256 257
3 250 258 249
3 250 256 258
3 262 260 261
3 70 261 260
3 266 263 264
3 263 266 262
3 279 120 282
3 120 281 282
3 280 79 80
3 79 280 120
3 280 281 120
3 265 264 259
3 264 258 259
3 264 265 266
3 264 253 258
3 270 268 271
3 268 269 267
3 268 270 269
3 274 272 273
3 268 274 271
3 268 272 274
3 272 268 267
3 374 274 375
3 274 276 375
3 274 273 275
3 275 276 274
3 278 276 277
3 275 277 276
3 280 287 281
3 285 281 287
3 285 284 281
3 279 282 283
3 122 121 279
3 122 283 289
3 122 279 283
3 290 288 286
3 305 307 290
3 305 285 291
3 285 305 286
3 305 290 286
3 292 289 297
3 289 298 297
3 298 289 288
3 288 290 298
3 294 122 292
3 123 294 133
3 123 122 294
3 293 297 296
3 297 299 296
3 294 292 297
3 297 293 294
3 330 303 301
3 296 300 301
3 295 301 303
3 295 296 301
3 298 304 299
3 319 302 299
3 319 304 316
3 319 299 304
3 306 310 305
3 310 307 305
3 310 309 308
3 308 307 310
3 318 307 314
3 307 308 314
3 318 304 290
3 290 307 318
3 291 269 306
3 374 328 274
3 328 271 274
3 271 311 270
3 310 270 311
3 271 328 311
3 312 314 309
3 315 313 312
3 315 309 311
3 308 309 314
3 309 315 312
3 320 324 321
3 320 322 324
3 316 322 320
3 319 316 320
3 316 317 322
3 321 352 320
3 352 335 320
3 335 352 351
3 335 302 320
3 312 326 317
3 326 312 323
3 326 322 317
3 327 358 325
3 357 324 325
3 357 325 358
3 357 321 324
3 386 373 326
3 322 373 325
3 322 326 373
3 300 302 301
3 301 302 335
3 335 334 301
3 330 329 303
3 163 136 303
3 163 329 331
3 163 303 329
3 333 167 339
3 331 339 167
3 331 332 339
3 337 334 338
3 335 351 338
3 334 337 336
3 334 335 338
3 347 338 354
3 337 347 340
3 337 338 347
3 341 342 344
3 342 333 344
3 333 342 182
3 333 339 344
3 343 181 342
3 348 350 343
3 348 341 346
3 342 341 343
3 341 348 343
3 341 344 346
3 344 345 346
3 347 344 340
3 347 345 344
3 348 346 349
3 346 345 349
3 349 345 362
3 362 364 349
3 353 356 351
3 354 338 351
3 354 356 355
3 354 351 356
3 345 347 362
3 347 363 362
3 363 354 355
3 363 347 354
3 356 359 360
3 361 356 353
3 361 359 356
3 359 368 360
3 359 415 371
3 371 368 359
3 366 360 368
3 360 363 355
3 360 366 363
3 363 366 362
3 366 365 364
3 364 362 366
3 444 372 370
3 372 364 370
3 364 372 349
3 364 365 370
3 349 372 348
3 372 426 348
3 425 348 426
3 425 350 348
3 367 418 369
3 418 367 368
3 370 369 445
3 369 370 365
3 416 414 413
3 414 358 413
3 327 413 358
3 361 358 414
3 413 327 412
3 374 375 328
3 380 375 379
3 375 380 328
3 315 376 313
3 380 376 328
3 376 315 328
3 278 379 276
3 379 375 276
3 377 278 378
3 377 379 278
3 380 377 383
3 377 382 383
3 377 380 379
3 377 381 382
3 326 323 386
3 384 385 386
3 376 386 323
3 376 384 386
3 325 373 327
3 373 412 327
3 373 387 394
3 394 412 373
3 391 387 389
3 387 385 389
3 385 384 388
3 388 389 385
3 389 393 390
3 389 388 382
3 382 393 389
3 391 394 387
3 394 392 417
3 394 391 392
3 395 278 277
3 278 396 378
3 278 395 396
3 395 399 396
3 397 396 399
3 402 381 398
3 382 402 393
3 382 381 402
3 401 403 400
3 403 397 399
3 399 400 403
3 406 390 407
3 405 408 407
3 407 390 404
3 404 405 407
3 401 402 403
3 402 405 404
3 402 401 405
3 409 408 410
3 408 411 410
3 411 405 401
3 411 408 405
3 400 411 401
3 412 417 413
3 417 412 394
3 424 423 420
3 199 419 420
3 422 420 423
3 422 199 420
3 216 210 431
3 210 202 431
3 423 431 202
3 422 423 202
3 423 430 431
3 443 429 426
3 429 425 426
3 425 427 424
3 425 429 427
3 424 430 423
3 430 427 428
3 430 424 427
3 437 428 442
3 428 446 442
3 446 428 427
3 446 450 442
3 431 434 432
3 431 430 436
3 436 434 431
3 435 441 433
3 214 213 433
3 452 433 441
3 452 214 433
3 437 438 436
3 440 439 438
3 440 442 451
3 437 436 442
3 442 440 437
3 440 438 437
3 458 457 439
3 435 438 439
3 456 439 457
3 456 435 439
3 449 447 445
3 447 444 445
3 449 448 447
3 447 443 444
3 448 446 447
3 446 448 450
3 450 451 442
3 455 453 454
3 457 454 456
3 453 456 454
3 34 1 33
3 1 34 2
3 3 4 10
3 3 8 6
3 6 7 3
3 7 6 8
3 14 16 13
3 11 16 12
3 16 10 13
3 10 8 6
3 11 9 8
3 8 10 11
3 10 16 11
3 9 21 7
3 21 9 11
3 13 4 5
3 4 13 10
3 11 20 21
3 20 11 12
3 20 22 21
3 23 20 25
3 23 22 20
3 20 24 25
3 12 17 20
3 12 16 17
3 17 24 20
3 26 23 27
3 23 25 27
3 57 27 29
3 25 29 27
3 27 57 60
3 59 47 53
3 47 48 53
3 17 59 29
3 17 47 59
3 50 45 5
3 5 45 19
3 19 13 5
3 1 224 33
3 32 224 229
3 224 32 33
3 32 231 35
3 35 33 32
3 231 32 230
3 32 229 230
3 232 244 231
3 239 36 231
3 239 231 244
3 239 38 36
3 34 32 30
3 36 37 30
3 35 30 32
3 35 36 30
3 39 37 40
3 37 39 30

