ply
format ascii 1.0
comment VCGLIB generated
element vertex 591
property float x
property float y
property float z
property float nx
property float ny
property float nz
property uchar red
property uchar green
property uchar blue
element face 1059
property list uchar int vertex_indices
end_header
0.071664 -1.546254 0.0 0 0 0 0 0 255
-0.023922 -1.466034 0.0 0 0 0 0 0 255
-0.099186 -1.487694 0.0 0 0 0 0 0 255
-0.003882 -1.630458 0.0 0 0 0 0 0 255
-1.102482 -0.781992 0.0 0 0 0 0 0 255
-1.014384 -0.802272 0.0 0 0 0 0 0 255
-0.937512 -0.794508 0.0 0 0 0 0 0 255
-0.856506 -0.744468 0.0 0 0 0 0 0 255
-0.759246 -0.76914 0.0 0 0 0 0 0 255
-1.141188 -0.716088 0.0 0 0 0 0 0 255
-1.259004 -0.5964 0.0 0 0 0 0 0 255
-1.12938 -0.620694 0.0 0 0 0 0 0 255
-1.202136 -0.66606 0.0 0 0 0 0 0 255
-1.109682 -0.514938 0.0 0 0 0 0 0 255
-1.180542 -0.45216 0.0 0 0 0 0 0 255
-1.029678 -0.599952 0.0 0 0 0 0 0 255
-0.943896 -0.709188 0.0 0 0 0 0 0 255
-1.037922 -0.470082 0.0 0 0 0 0 0 255
-0.938328 -0.455208 0.0 0 0 0 0 0 255
-1.014906 -0.382878 0.0 0 0 0 0 0 255
-0.857526 -0.658326 0.0 0 0 0 0 0 255
-0.841974 -0.577164 0.0 0 0 0 0 0 255
-0.763602 -0.56661 0.0 0 0 0 0 0 255
-0.887766 -0.512328 0.0 0 0 0 0 0 255
-0.773196 -0.39894 0.0 0 0 0 0 0 255
-0.7368 -0.489708 0.0 0 0 0 0 0 255
-0.860838 -0.367746 0.0 0 0 0 0 0 255
-0.723168 -0.636744 0.0 0 0 0 0 0 255
-0.94347 -0.323844 0.0 0 0 0 0 0 255
-1.136376 -0.339258 0.0 0 0 0 0 0 255
-0.939276 -0.244194 0.0 0 0 0 0 0 255
-1.048128 -0.191166 0.0 0 0 0 0 0 255
-0.907812 -0.167988 0.0 0 0 0 0 0 255
-0.797382 -0.310536 0.0 0 0 0 0 0 255
-0.83835 -0.216288 0.0 0 0 0 0 0 255
-0.839268 -0.128262 0.0 0 0 0 0 0 255
-0.910656 -0.09078 0.0 0 0 0 0 0 255
-0.809622 -0.05232 0.0 0 0 0 0 0 255
-0.81537 0.05871 0.0 0 0 0 0 0 255
-0.738552 -0.242856 0.0 0 0 0 0 0 255
-0.706284 -0.711702 0.0 0 0 0 0 0 255
-0.184014 -1.208958 0.0 0 0 0 0 0 255
-0.248538 -1.304508 0.0 0 0 0 255 0 0
-0.01932 -1.319292 0.0 0 0 0 0 0 255
-0.052278 -1.390428 0.0 0 0 0 0 0 255
-0.153876 -1.372986 0.0 0 0 0 0 0 255
-0.10671 -1.184196 0.0 0 0 0 0 0 255
-0.023592 -1.204842 0.0 0 0 0 0 0 255
-0.063414 -1.11963 0.0 0 0 0 0 0 255
-0.120018 -1.057182 0.0 0 0 0 0 0 255
-0.211734 -0.99708 0.0 0 0 0 0 0 255
0.001602 -1.000704 0.0 0 0 0 0 0 255
-0.171822 -0.896316 0.0 0 0 0 0 0 255
-0.095118 -0.89643 0.0 0 0 0 0 0 255
-0.019638 -0.86775 0.0 0 0 0 0 0 255
-0.030438 -0.763872 0.0 0 0 0 0 0 255
-0.226482 -0.786636 0.0 0 0 0 0 0 255
-0.196896 -0.707934 0.0 0 0 0 0 0 255
0.061374 -1.305588 0.0 0 0 0 0 0 255
-0.639162 -0.67203 0.0 0 0 0 0 0 255
-0.582126 -0.574146 0.0 0 0 0 0 0 255
-0.670086 -0.450618 0.0 0 0 0 0 0 255
-0.578298 -0.481998 0.0 0 0 0 0 0 255
-0.611946 -0.367794 0.0 0 0 0 0 0 255
-0.475842 -0.540294 0.0 0 0 0 0 0 255
-0.555072 -0.72048 0.0 0 0 0 0 0 255
-0.457962 -0.758148 0.0 0 0 0 255 0 0
-0.420114 -0.650466 0.0 0 0 0 0 0 255
-0.541854 -0.40422 0.0 0 0 0 0 0 255
-0.42996 -0.33621 0.0 0 0 0 0 0 255
-0.373578 -0.393408 0.0 0 0 0 0 0 255
-0.399768 -0.528312 0.0 0 0 0 0 0 255
-0.661512 -0.193458 0.0 0 0 0 0 0 255
-0.625578 -0.09828 0.0 0 0 0 0 0 255
-0.596658 -0.279786 0.0 0 0 0 0 0 255
-0.728448 -0.034974 0.0 0 0 0 0 0 255
-0.531126 -0.071442 0.0 0 0 0 0 0 255
-0.520608 -0.265056 0.0 0 0 0 0 0 255
-0.43245 -0.248244 0.0 0 0 0 0 0 255
-0.33201 -0.243174 0.0 0 0 0 0 0 255
-0.479964 -0.168954 0.0 0 0 0 0 0 255
-0.395694 -0.072882 0.0 0 0 0 0 0 255
-0.568272 0.029238 0.0 0 0 0 0 0 255
-0.336438 -0.48441 0.0 0 0 0 0 0 255
-0.078582 -0.691134 0.0 0 0 0 0 0 255
0.06033 -0.675936 0.0 0 0 0 0 0 255
-0.21672 -0.319026 0.0 0 0 0 0 0 255
-0.320508 -0.15135 0.0 0 0 0 0 0 255
-0.28839 -0.081522 0.0 0 0 0 0 0 255
-0.246174 -0.188226 0.0 0 0 0 0 0 255
-0.34209 0.016344 0.0 0 0 0 0 0 255
-0.242076 -0.018042 0.0 0 0 0 0 0 255
-0.14628 -0.146256 0.0 0 0 0 0 0 255
-0.13797 -0.034854 0.0 0 0 0 0 0 255
-0.016092 0.060858 0.0 0 0 0 0 0 255
0.027336 -0.024474 0.0 0 0 0 0 0 255
-0.11919 0.083502 0.0 0 0 0 0 0 255
-0.686364 0.053052 0.0 0 0 0 0 0 255
-0.8535 0.131022 0.0 0 0 0 255 0 0
-0.775764 0.232824 0.0 0 0 0 0 0 255
-0.753222 0.351342 0.0 0 0 0 0 0 255
-0.654018 0.383022 0.0 0 0 0 0 0 255
-0.678162 0.2013 0.0 0 0 0 0 0 255
-0.65802 0.494646 0.0 0 0 0 0 0 255
-0.772482 0.512652 0.0 0 0 0 0 0 255
-0.614046 0.099792 0.0 0 0 0 0 0 255
-0.522666 0.092298 0.0 0 0 0 0 0 255
-0.623946 0.30501 0.0 0 0 0 0 0 255
-0.519522 0.252714 0.0 0 0 0 0 0 255
-0.575838 0.399474 0.0 0 0 0 0 0 255
-0.494388 0.166962 0.0 0 0 0 0 0 255
-0.456666 0.053472 0.0 0 0 0 0 0 255
-0.368256 0.159684 0.0 0 0 0 0 0 255
-0.284604 0.136476 0.0 0 0 0 0 0 255
-0.456468 0.30882 0.0 0 0 0 0 0 255
-0.347502 0.309294 0.0 0 0 0 0 0 255
-0.487446 0.395436 0.0 0 0 0 0 0 255
-0.621096 0.63627 0.0 0 0 0 0 0 255
-0.597804 0.544374 0.0 0 0 0 0 0 255
-0.68694 0.719544 0.0 0 0 0 0 0 255
-0.605928 0.72342 0.0 0 0 0 0 0 255
-0.405384 0.471156 0.0 0 0 0 0 0 255
-0.31881 0.445572 0.0 0 0 0 0 0 255
-0.520872 0.554142 0.0 0 0 0 0 0 255
-0.521256 0.748818 0.0 0 0 0 0 0 255
-0.42654 0.658608 0.0 0 0 0 0 0 255
-0.448104 0.580446 0.0 0 0 0 0 0 255
-0.537882 0.82593 0.0 0 0 0 0 0 255
-0.304968 0.213612 0.0 0 0 0 0 0 255
-0.176676 0.23112 0.0 0 0 0 0 0 255
-0.299928 0.36915 0.0 0 0 0 0 0 255
-0.223686 0.36093 0.0 0 0 0 0 0 255
-0.154644 0.32712 0.0 0 0 0 0 0 255
-0.17556 0.136092 0.0 0 0 0 0 0 255
-0.091488 0.232842 0.0 0 0 0 0 0 255
0.018018 0.176472 0.0 0 0 0 0 0 255
0.012522 0.289176 0.0 0 0 0 0 0 255
0.07257 0.36453 0.0 0 0 0 0 0 255
-0.014172 0.432024 0.0 0 0 0 0 0 255
-0.100026 0.440268 0.0 0 0 0 0 0 255
-0.279156 0.513096 0.0 0 0 0 0 0 255
-0.20544 0.538908 0.0 0 0 0 0 0 255
-0.297318 0.594318 0.0 0 0 0 0 0 255
-0.34968 0.71985 0.0 0 0 0 0 0 255
-0.154812 0.639036 0.0 0 0 0 0 0 255
-0.255672 0.790986 0.0 0 0 0 0 0 255
-0.125286 0.53694 0.0 0 0 0 0 0 255
-0.026196 0.59712 0.0 0 0 0 0 0 255
0.02166 0.5265 0.0 0 0 0 0 0 255
-0.093354 0.73263 0.0 0 0 0 0 0 255
-0.006714 0.69315 0.0 0 0 0 0 0 255
0.018708 0.765888 0.0 0 0 0 0 0 255
-0.16911 0.809076 0.0 0 0 0 0 0 255
-0.72006 0.907626 0.0 0 0 0 0 0 255
-0.60669 0.865386 0.0 0 0 0 0 0 255
-0.557652 0.945072 0.0 0 0 0 0 0 255
-0.617772 1.048482 0.0 0 0 0 0 0 255
-0.4743 0.88932 0.0 0 0 0 0 0 255
-0.4836 0.965646 0.0 0 0 0 0 0 255
-0.399426 0.845322 0.0 0 0 0 0 0 255
-0.330264 0.811284 0.0 0 0 0 0 0 255
-0.563064 1.12224 0.0 0 0 0 0 0 255
-0.485778 1.103562 0.0 0 0 0 0 0 255
-0.431856 1.03668 0.0 0 0 0 0 0 255
-0.334086 1.084536 0.0 0 0 0 0 0 255
-0.579366 1.210368 0.0 0 0 0 0 0 255
-0.48498 1.18332 0.0 0 0 0 0 0 255
-0.39441 1.186632 0.0 0 0 0 0 0 255
-0.507138 1.390788 0.0 0 0 0 0 0 255
-0.555918 1.331736 0.0 0 0 0 0 0 255
-0.515916 1.46799 0.0 0 0 0 0 0 255
-0.436074 1.41897 0.0 0 0 0 0 0 255
-0.379902 1.295334 0.0 0 0 0 0 0 255
-0.432366 1.50645 0.0 0 0 0 0 0 255
-0.333402 0.902052 0.0 0 0 0 0 0 255
-0.245118 0.90594 0.0 0 0 0 0 0 255
-0.17007 0.95556 0.0 0 0 0 0 0 255
-0.283068 1.006596 0.0 0 0 0 0 0 255
-0.265902 1.147842 0.0 0 0 0 0 0 255
-0.205746 1.032288 0.0 0 0 0 0 0 255
-0.10848 0.89553 0.0 0 0 0 0 0 255
0.004554 0.879588 0.0 0 0 0 0 0 255
-0.039528 0.94509 0.0 0 0 0 0 0 255
-0.100992 0.991704 0.0 0 0 0 0 0 255
-0.12477 1.097574 0.0 0 0 0 0 0 255
-0.056184 1.053438 0.0 0 0 0 0 0 255
-0.032898 1.136406 0.0 0 0 0 0 0 255
0.023682 1.034526 0.0 0 0 0 0 0 255
-0.130506 1.183104 0.0 0 0 0 0 0 255
-0.30174 1.33269 0.0 0 0 0 0 0 255
-0.278226 1.23675 0.0 0 0 0 0 0 255
-0.205314 1.199412 0.0 0 0 0 0 0 255
-0.159738 1.262412 0.0 0 0 0 0 0 255
-0.216882 1.326474 0.0 0 0 0 0 0 255
-0.349068 1.413114 0.0 0 0 0 0 0 255
-0.258222 1.419294 0.0 0 0 0 0 0 255
-0.179772 1.402578 0.0 0 0 0 0 0 255
-0.2778 1.505958 0.0 0 0 0 0 0 255
-0.06711 1.272612 0.0 0 0 0 0 0 255
-0.129282 1.33296 0.0 0 0 0 0 0 255
-0.047076 1.37226 0.0 0 0 0 0 0 255
-0.199578 1.481148 0.0 0 0 0 0 0 255
-0.109812 1.437882 0.0 0 0 0 0 0 255
-0.00354 1.449636 0.0 0 0 0 0 0 255
0.013884 1.284714 0.0 0 0 0 0 0 255
-0.141402 1.572504 0.0 0 0 0 0 0 255
-0.056508 1.512582 0.0 0 0 0 0 0 255
0.086286 1.38735 0.0 0 0 0 0 0 255
0.026718 1.209036 0.0 0 0 0 0 0 255
-0.62583 1.505892 0.0 0 0 0 0 0 255
-0.574614 1.563954 0.0 0 0 0 0 0 255
-0.511524 1.651182 0.0 0 0 0 0 0 255
-0.496224 1.573836 0.0 0 0 0 0 0 255
-0.410058 1.633014 0.0 0 0 0 0 0 255
-0.354114 1.515018 0.0 0 0 0 0 0 255
-0.485316 1.726176 0.0 0 0 0 0 0 255
-0.396864 1.719726 0.0 0 0 0 0 0 255
-0.442962 1.792902 0.0 0 0 0 0 0 255
-0.333648 1.649082 0.0 0 0 0 0 0 255
-0.34023 1.811388 0.0 0 0 0 0 0 255
-0.288414 1.583112 0.0 0 0 0 0 0 255
-0.207048 1.616892 0.0 0 0 0 0 0 255
-0.265614 1.69071 0.0 0 0 0 0 0 255
-0.266064 1.77585 0.0 0 0 0 0 0 255
-0.14484 1.70727 0.0 0 0 0 0 0 255
-0.271398 1.85319 0.0 0 0 0 0 0 255
-0.387114 1.922766 0.0 0 0 0 0 0 255
-0.07134 1.686732 0.0 0 0 0 0 0 255
-0.03213 1.621104 0.0 0 0 0 0 0 255
0.066582 1.511826 0.0 0 0 0 0 0 255
-0.020298 1.753116 0.0 0 0 0 0 0 255
0.034044 1.65906 0.0 0 0 0 0 0 255
-0.199056 1.822788 0.0 0 0 0 0 0 255
-0.102876 1.771092 0.0 0 0 0 0 0 255
-0.089778 1.87764 0.0 0 0 0 0 0 255
0.002082 1.843266 0.0 0 0 0 0 0 255
-0.305574 1.995786 0.0 0 0 0 0 0 255
-0.379776 2.053536 0.0 0 0 0 0 0 255
-0.257118 1.929786 0.0 0 0 0 0 0 255
-0.30438 2.080554 0.0 0 0 0 0 0 255
-0.226362 2.016642 0.0 0 0 0 0 0 255
-0.327546 2.156544 0.0 0 0 0 0 0 255
-0.245556 2.168352 0.0 0 0 0 0 0 255
-0.224328 2.094678 0.0 0 0 0 0 0 255
-0.147474 2.03883 0.0 0 0 0 0 0 255
-0.1563 1.956 0.0 0 0 0 0 0 255
-0.03606 1.951152 0.0 0 0 0 0 0 255
-0.070986 2.047032 0.0 0 0 0 0 0 255
-0.13725 2.122374 0.0 0 0 0 0 0 255
-0.05337 2.1687 0.0 0 0 0 0 0 255
0.02223 2.11764 0.0 0 0 0 0 0 255
-0.181194 2.210634 0.0 0 0 0 0 0 255
-0.011202 2.293476 0.0 0 0 0 0 0 255
0.014832 2.208972 0.0 0 0 0 0 0 255
-0.313494 2.239236 0.0 0 0 0 0 0 255
0.020748 2.016486 0.0 0 0 0 0 0 255
-0.198936 2.28909 0.0 0 0 0 0 0 255
-0.12312 2.264688 0.0 0 0 0 0 0 255
-0.164796 2.397096 0.0 0 0 0 0 0 255
-0.073362 2.34081 0.0 0 0 0 0 0 255
-0.025482 2.421426 0.0 0 0 0 0 0 255
-0.102336 2.45706 0.0 0 0 0 0 0 255
0.067326 2.347584 0.0 0 0 0 0 0 255
0.052704 -0.897936 0.0 0 0 0 0 0 255
0.103152 -1.475052 0.0 0 0 0 0 0 255
0.098124 -1.619538 0.0 0 0 0 0 0 255
0.18864 -1.530276 0.0 0 0 0 0 0 255
0.228168 -1.627086 0.0 0 0 0 0 0 255
0.32022 -1.54779 0.0 0 0 0 0 0 255
0.260178 -1.458738 0.0 0 0 0 0 0 255
0.383724 -1.495308 0.0 0 0 0 0 0 255
0.154158 -1.359024 0.0 0 0 0 0 0 255
0.223068 -1.271082 0.0 0 0 0 0 0 255
0.122406 -1.257516 0.0 0 0 0 0 0 255
0.179808 -1.453698 0.0 0 0 0 0 0 255
0.073488 -1.196856 0.0 0 0 0 0 0 255
0.19488 -1.195536 0.0 0 0 0 0 0 255
0.110172 -1.127652 0.0 0 0 0 0 0 255
0.257562 -1.365396 0.0 0 0 0 0 0 255
0.34473 -1.367826 0.0 0 0 0 0 0 255
0.304776 -1.278444 0.0 0 0 0 0 0 255
0.414096 -1.406904 0.0 0 0 0 0 0 255
0.404016 -1.305582 0.0 0 0 0 0 0 255
0.292296 -1.179 0.0 0 0 0 0 0 255
0.35865 -1.22073 0.0 0 0 0 0 0 255
0.295434 -1.090542 0.0 0 0 0 0 0 255
0.428688 -1.164042 0.0 0 0 0 0 0 255
0.085548 -0.967818 0.0 0 0 0 0 0 255
0.112812 -1.039776 0.0 0 0 0 0 0 255
0.200652 -0.952938 0.0 0 0 0 0 0 255
0.143208 -0.871866 0.0 0 0 0 0 0 255
0.095904 -0.747396 0.0 0 0 0 0 0 255
0.252336 -0.791574 0.0 0 0 0 0 0 255
0.172446 -0.757536 0.0 0 0 0 0 0 255
0.18042 -1.076646 0.0 0 0 0 0 0 255
0.242946 -1.019976 0.0 0 0 0 0 0 255
0.32079 -1.00251 0.0 0 0 0 0 0 255
0.410328 -1.075866 0.0 0 0 0 0 0 255
0.25686 -0.875166 0.0 0 0 0 0 0 255
0.337044 -0.90969 0.0 0 0 0 0 0 255
0.343896 -0.817026 0.0 0 0 0 0 0 255
0.442452 -0.884736 0.0 0 0 0 0 0 255
0.227556 -0.682092 0.0 0 0 0 0 0 255
0.409344 -0.978546 0.0 0 0 0 0 0 255
0.320346 -0.690816 0.0 0 0 0 0 0 255
0.49377 -1.222398 0.0 0 0 0 0 0 255
0.493254 -1.119042 0.0 0 0 0 0 0 255
0.517026 -1.034904 0.0 0 0 0 0 0 255
0.49032 -0.945468 0.0 0 0 0 0 0 255
0.423216 -0.81054 0.0 0 0 0 0 0 255
0.513678 -0.84681 0.0 0 0 0 0 0 255
0.544278 -0.766512 0.0 0 0 0 0 0 255
0.384252 -0.732756 0.0 0 0 0 0 0 255
0.492738 -0.687894 0.0 0 0 0 0 0 255
0.0261 -0.58437 0.0 0 0 0 0 0 255
0.103818 -0.57402 0.0 0 0 0 0 0 255
0.150276 -0.639774 0.0 0 0 0 0 0 255
0.209232 -0.557178 0.0 0 0 0 0 0 255
0.33282 -0.521886 0.0 0 0 0 0 0 255
0.285834 -0.602178 0.0 0 0 0 0 0 255
0.362976 -0.595302 0.0 0 0 0 0 0 255
0.08184 0.104022 0.0 0 0 0 0 0 255
0.435846 -0.621396 0.0 0 0 0 0 0 255
0.502926 -0.57261 0.0 0 0 0 0 0 255
0.416016 -0.526602 0.0 0 0 0 0 0 255
0.659064 -0.016338 0.0 0 0 0 0 0 255
0.631674 -0.095988 0.0 0 0 0 0 0 255
0.737748 -0.034788 0.0 0 0 0 0 0 255
0.576384 -0.012702 0.0 0 0 0 0 0 255
0.6459 0.07326 0.0 0 0 0 0 0 255
0.746202 0.058086 0.0 0 0 0 0 0 255
0.80727 0.00444 0.0 0 0 0 0 0 255
0.835614 -0.078276 0.0 0 0 0 0 0 255
0.903612 -0.03165 0.0 0 0 0 0 0 255
0.734358 -0.137364 0.0 0 0 0 0 0 255
0.835968 0.079302 0.0 0 0 0 0 0 255
0.934434 0.05787 0.0 0 0 0 0 0 255
0.97926 -0.00525 0.0 0 0 0 0 0 255
1.06053 -0.00168 0.0 0 0 0 0 0 255
1.020984 0.064416 0.0 0 0 0 0 0 255
1.142376 -0.0015 0.0 0 0 0 0 0 255
1.107546 0.109218 0.0 0 0 0 0 0 255
0.074022 0.2334 0.0 0 0 0 0 0 255
0.136638 0.037422 0.0 0 0 0 0 0 255
0.16533 0.127338 0.0 0 0 0 0 0 255
0.273792 0.068802 0.0 0 0 0 0 0 255
0.147306 0.20445 0.0 0 0 0 0 0 255
0.121056 0.295608 0.0 0 0 0 0 0 255
0.202308 0.2604 0.0 0 0 0 0 0 255
0.221394 0.179256 0.0 0 0 0 0 0 255
0.308508 0.151956 0.0 0 0 0 0 0 255
0.399972 0.248616 0.0 0 0 0 0 0 255
0.293652 0.232932 0.0 0 0 0 0 0 255
0.35406 0.056268 0.0 0 0 0 0 0 255
0.31311 0.317208 0.0 0 0 0 0 0 255
0.219594 0.365742 0.0 0 0 0 0 0 255
0.393564 0.335886 0.0 0 0 0 0 0 255
0.395178 0.124836 0.0 0 0 0 0 0 255
0.291936 0.401022 0.0 0 0 0 0 0 255
0.063738 0.452382 0.0 0 0 0 0 0 255
0.183792 0.436554 0.0 0 0 0 0 0 255
0.160932 0.6111 0.0 0 0 0 0 0 255
0.124668 0.522498 0.0 0 0 0 0 0 255
0.229968 0.556962 0.0 0 0 0 0 0 255
0.122814 0.6834 0.0 0 0 0 0 0 255
0.231216 0.644298 0.0 0 0 0 0 0 255
0.25644 0.48057 0.0 0 0 0 0 0 255
0.341814 0.461238 0.0 0 0 0 0 0 255
0.313968 0.602334 0.0 0 0 0 0 0 255
0.190518 0.724098 0.0 0 0 0 0 0 255
0.298128 0.684738 0.0 0 0 0 0 0 255
0.408426 0.565098 0.0 0 0 0 0 0 255
0.26664 0.75435 0.0 0 0 0 0 0 255
0.407562 0.692496 0.0 0 0 0 0 0 255
0.13464 0.780582 0.0 0 0 0 0 0 255
0.445614 0.46962 0.0 0 0 0 0 0 255
0.524076 0.21219 0.0 0 0 0 0 0 255
0.449208 0.186426 0.0 0 0 0 0 0 255
0.531168 0.108204 0.0 0 0 0 0 0 255
0.481116 0.275682 0.0 0 0 0 0 0 255
0.504864 0.35295 0.0 0 0 0 0 0 255
0.561558 0.290862 0.0 0 0 0 0 0 255
0.503064 0.0366 0.0 0 0 0 0 0 255
0.625044 0.242904 0.0 0 0 0 0 0 255
0.583776 0.164658 0.0 0 0 0 0 0 255
0.713958 0.141984 0.0 0 0 0 0 0 255
0.698202 0.220602 0.0 0 0 0 0 0 255
0.675846 0.333732 0.0 0 0 0 0 0 255
0.651042 0.416184 0.0 0 0 0 0 0 255
0.763878 0.368508 0.0 0 0 0 0 0 255
0.583968 0.3693 0.0 0 0 0 0 0 255
0.748794 0.282372 0.0 0 0 0 0 0 255
0.50568 0.559212 0.0 0 0 0 0 0 255
0.567318 0.62502 0.0 0 0 0 0 0 255
0.584274 0.525708 0.0 0 0 0 0 0 255
0.534336 0.45234 0.0 0 0 0 0 0 255
0.462654 0.63588 0.0 0 0 0 0 0 255
0.499656 0.719748 0.0 0 0 0 0 0 255
0.575754 0.752652 0.0 0 0 0 0 0 255
0.481236 0.793716 0.0 0 0 0 0 0 255
0.661338 0.619278 0.0 0 0 0 0 0 255
0.669432 0.495558 0.0 0 0 0 0 0 255
0.757968 0.446286 0.0 0 0 0 0 0 255
0.681996 0.780438 0.0 0 0 0 0 0 255
0.645666 0.705936 0.0 0 0 0 0 0 255
0.742128 0.619518 0.0 0 0 0 0 0 255
0.736092 0.718926 0.0 0 0 0 0 0 255
0.756618 0.539826 0.0 0 0 0 0 0 255
0.791094 0.80427 0.0 0 0 0 0 0 255
0.346866 0.754404 0.0 0 0 0 0 0 255
0.798702 0.220698 0.0 0 0 0 0 0 255
0.099318 0.863316 0.0 0 0 0 0 0 255
0.146064 0.928122 0.0 0 0 0 0 0 255
0.220578 0.82557 0.0 0 0 0 0 0 255
0.074502 0.97692 0.0 0 0 0 0 0 255
0.100926 1.051194 0.0 0 0 0 0 0 255
0.178788 1.00317 0.0 0 0 0 0 0 255
0.071382 1.128516 0.0 0 0 0 0 0 255
0.291918 0.867852 0.0 0 0 0 0 0 255
0.359976 0.908748 0.0 0 0 0 0 0 255
0.393636 0.818112 0.0 0 0 0 0 0 255
0.247056 0.945924 0.0 0 0 0 0 0 255
0.292554 1.008642 0.0 0 0 0 0 0 255
0.34737 1.066218 0.0 0 0 0 0 0 255
0.398634 1.000692 0.0 0 0 0 0 0 255
0.178074 1.083498 0.0 0 0 0 0 0 255
0.265932 1.081164 0.0 0 0 0 0 0 255
0.143694 1.187976 0.0 0 0 0 0 0 255
0.216918 1.275372 0.0 0 0 0 0 0 255
0.127272 1.280832 0.0 0 0 0 0 0 255
0.221742 1.354866 0.0 0 0 0 0 0 255
0.13854 1.443168 0.0 0 0 0 0 0 255
0.229758 1.158312 0.0 0 0 0 0 0 255
0.326142 1.19904 0.0 0 0 0 0 0 255
0.366696 1.267698 0.0 0 0 0 0 0 255
0.2943 1.29249 0.0 0 0 0 0 0 255
0.37893 1.143018 0.0 0 0 0 0 0 255
0.35202 1.343652 0.0 0 0 0 0 0 255
0.298944 1.418406 0.0 0 0 0 0 0 255
0.398304 1.414812 0.0 0 0 0 0 0 255
0.216216 1.500744 0.0 0 0 0 0 0 255
0.475614 0.917664 0.0 0 0 0 0 0 255
0.56043 0.841236 0.0 0 0 0 0 0 255
0.524706 0.981744 0.0 0 0 0 0 0 255
0.59586 0.935694 0.0 0 0 0 0 0 255
0.45702 1.064034 0.0 0 0 0 0 0 255
0.537198 1.092072 0.0 0 0 0 0 0 255
0.600426 1.039878 0.0 0 0 0 0 0 255
0.454992 1.149294 0.0 0 0 0 0 0 255
0.660246 0.858702 0.0 0 0 0 0 0 255
0.738156 0.861288 0.0 0 0 0 0 0 255
0.667344 1.000656 0.0 0 0 0 0 0 255
0.747726 1.041258 0.0 0 0 0 0 0 255
0.656796 1.112118 0.0 0 0 0 0 0 255
0.707346 0.932352 0.0 0 0 0 0 0 255
0.737604 1.117356 0.0 0 0 0 0 0 255
0.612978 1.180872 0.0 0 0 0 0 0 255
0.52086 1.319988 0.0 0 0 0 0 0 255
0.451404 1.285422 0.0 0 0 0 0 0 255
0.528318 1.192434 0.0 0 0 0 0 0 255
0.468282 1.38252 0.0 0 0 0 0 0 255
0.5034 1.456974 0.0 0 0 0 0 0 255
0.602082 1.399512 0.0 0 0 0 0 0 255
0.314934 1.524558 0.0 0 0 0 0 0 255
0.597258 1.26279 0.0 0 0 0 0 0 255
0.767796 1.31196 0.0 0 0 0 0 0 255
0.661842 1.317072 0.0 0 0 0 0 0 255
0.715446 1.194762 0.0 0 0 0 0 0 255
0.724902 1.380924 0.0 0 0 0 0 0 255
0.680172 1.45206 0.0 0 0 0 0 0 255
0.578454 1.496754 0.0 0 0 0 0 0 255
0.792444 1.179384 0.0 0 0 0 0 0 255
0.808722 0.91416 0.0 0 0 0 0 0 255
0.440076 1.524846 0.0 0 0 0 0 0 255
0.81528 0.665742 0.0 0 0 0 0 0 255
0.858366 0.16338 0.0 0 0 0 0 0 255
0.871998 0.292248 0.0 0 0 0 0 0 255
0.935514 0.176958 0.0 0 0 0 0 0 255
0.835182 0.398106 0.0 0 0 0 0 0 255
1.036272 0.163374 0.0 0 0 0 0 0 255
1.07595 0.250794 0.0 0 0 0 0 0 255
1.147068 0.21018 0.0 0 0 0 0 0 255
0.998064 0.232518 0.0 0 0 0 0 0 255
0.937356 0.33219 0.0 0 0 0 0 0 255
1.070982 0.343992 0.0 0 0 0 0 0 255
1.159548 0.315198 0.0 0 0 0 0 0 255
1.113462 0.41022 0.0 0 0 0 0 0 255
0.984804 0.409578 0.0 0 0 0 0 0 255
0.849744 0.492288 0.0 0 0 0 0 0 255
0.936012 0.474708 0.0 0 0 0 0 0 255
0.904386 0.568476 0.0 0 0 0 0 0 255
0.834228 0.740922 0.0 0 0 0 0 0 255
0.823344 0.586638 0.0 0 0 0 0 0 255
0.939324 0.661554 0.0 0 0 0 0 0 255
0.991428 0.563064 0.0 0 0 0 0 0 255
1.011312 0.48804 0.0 0 0 0 0 0 255
1.07973 0.579252 0.0 0 0 0 0 0 255
1.087764 0.490476 0.0 0 0 0 0 0 255
1.164774 0.599142 0.0 0 0 0 0 0 255
1.08543 0.65583 0.0 0 0 0 0 0 255
1.016472 0.726942 0.0 0 0 0 0 0 255
1.084956 0.770154 0.0 0 0 0 0 0 255
1.190022 0.47913 0.0 0 0 0 0 0 255
0.931266 0.743022 0.0 0 0 0 0 0 255
1.20624 0.101412 0.0 0 0 0 0 0 255
1.310028 0.127098 0.0 0 0 0 0 0 255
1.243422 0.216174 0.0 0 0 0 0 0 255
1.330884 0.200856 0.0 0 0 0 0 0 255
1.191138 0.389286 0.0 0 0 0 0 0 255
1.333926 0.312804 0.0 0 0 0 0 0 255
1.236366 0.310254 0.0 0 0 0 0 0 255
1.397586 0.24693 0.0 0 0 0 0 0 255
1.452672 0.369174 0.0 0 0 0 0 0 255
1.527378 0.409626 0.0 0 0 0 0 0 255
1.413822 0.480426 0.0 0 0 0 0 0 255
1.264284 0.436452 0.0 0 0 0 0 0 255
1.35903 0.386226 0.0 0 0 0 0 0 255
1.26447 0.646638 0.0 0 0 0 0 0 255
1.25058 0.559272 0.0 0 0 0 0 0 255
1.326648 0.564762 0.0 0 0 0 0 0 255
1.152408 0.733764 0.0 0 0 0 0 0 255
1.281288 0.726726 0.0 0 0 0 0 0 255
1.370874 0.654462 0.0 0 0 0 0 0 255
1.339344 0.460452 0.0 0 0 0 0 0 255
1.409742 0.582372 0.0 0 0 0 0 0 255
1.439478 0.708738 0.0 0 0 0 0 0 255
1.505994 0.666486 0.0 0 0 0 0 0 255
1.485414 0.569652 0.0 0 0 0 0 0 255
1.556676 0.510258 0.0 0 0 0 0 0 255
0.869736 0.812664 0.0 0 0 0 0 0 255
0.899064 0.897438 0.0 0 0 0 0 0 255
0.943368 0.832446 0.0 0 0 0 0 0 255
0.817944 1.001136 0.0 0 0 0 0 0 255
0.850794 1.086792 0.0 0 0 0 0 0 255
0.920766 0.97338 0.0 0 0 0 0 0 255
1.018584 0.809442 0.0 0 0 0 0 0 255
0.819198 1.253382 0.0 0 0 0 0 0 255
0.093636 1.592856 0.0 0 0 0 0 0 255
0.123306 1.691802 0.0 0 0 0 0 0 255
0.177384 1.629168 0.0 0 0 0 0 0 255
0.146022 1.530648 0.0 0 0 0 0 0 255
0.059652 1.894122 0.0 0 0 0 0 0 255
0.060678 1.75986 0.0 0 0 0 0 0 255
0.13365 1.787346 0.0 0 0 0 0 0 255
0.23724 1.722462 0.0 0 0 0 0 0 255
0.290442 1.59948 0.0 0 0 0 0 0 255
0.326592 1.669134 0.0 0 0 0 0 0 255
0.3789 1.601928 0.0 0 0 0 0 0 255
0.246924 1.82064 0.0 0 0 0 0 0 255
0.335166 1.76526 0.0 0 0 0 0 0 255
0.31329 1.890042 0.0 0 0 0 0 0 255
0.417822 1.871574 0.0 0 0 0 0 0 255
0.404184 1.727562 0.0 0 0 0 0 0 255
0.17769 1.865022 0.0 0 0 0 0 0 255
0.136044 1.933962 0.0 0 0 0 0 0 255
0.190656 1.990308 0.0 0 0 0 0 0 255
0.113886 2.024292 0.0 0 0 0 0 0 255
0.091998 2.189598 0.0 0 0 0 0 0 255
0.124416 2.101956 0.0 0 0 0 0 0 255
0.226566 2.066856 0.0 0 0 0 0 0 255
0.202122 2.14662 0.0 0 0 0 0 0 255
0.267576 1.965612 0.0 0 0 0 0 0 255
0.347262 1.968366 0.0 0 0 0 0 0 255
0.37326 2.040504 0.0 0 0 0 0 0 255
0.302334 2.097786 0.0 0 0 0 0 0 255
0.36342 2.144286 0.0 0 0 0 0 0 255
0.438288 2.120688 0.0 0 0 0 0 0 255
0.278136 2.211984 0.0 0 0 0 0 0 255
0.147972 2.268186 0.0 0 0 0 0 0 255
0.423636 1.959648 0.0 0 0 0 0 0 255
0.450888 1.666926 0.0 0 0 0 0 0 255
0.516456 1.54863 0.0 0 0 0 0 0 255
0.541434 1.621158 0.0 0 0 0 0 0 255
0.626208 1.560594 0.0 0 0 0 0 0 255
0.467898 1.77573 0.0 0 0 0 0 0 255
0.52209 1.69512 0.0 0 0 0 0 0 255
0.563562 1.761534 0.0 0 0 0 0 0 255
0.63651 1.711164 0.0 0 0 0 0 0 255
0.649782 1.636008 0.0 0 0 0 0 0 255
0.52017 1.892094 0.0 0 0 0 0 0 255
0.550746 1.97385 0.0 0 0 0 0 0 255
0.490224 2.02617 0.0 0 0 0 0 0 255
0.062322 2.269626 0.0 0 0 0 0 0 255
0.162936 2.439402 0.0 0 0 0 0 0 255
0.149718 2.345292 0.0 0 0 0 0 0 255
0.237558 2.42118 0.0 0 0 0 0 0 255
0.061068 2.428974 0.0 0 0 0 0 0 255
0.227292 2.269254 0.0 0 0 0 0 0 255
0.253734 2.345292 0.0 0 0 0 0 0 255
0.3126 2.285088 0.0 0 0 0 0 0 255
0.386052 2.21757 0.0 0 0 0 0 0 255

3 10 12 11
3 11 12 9
3 11 15 13
3 17 13 15
3 19 17 18
3 20 16 7
3 18 28 19
3 32 31 30
3 26 24 33
3 34 32 30
3 35 37 36
3 35 32 34
3 35 36 32
3 39 34 33
3 18 26 28
3 7 16 6
3 45 2 44
3 46 47 48
3 48 51 49
3 51 54 53
3 47 43 58
3 44 2 1
3 27 40 59
3 63 61 62
3 60 64 62
3 64 67 71
3 63 62 68
3 38 37 75
3 63 68 74
3 69 78 77
3 77 74 68
3 77 78 80
3 79 78 69
3 68 69 77
3 25 61 24
3 86 89 79
3 79 89 87
3 81 87 88
3 81 88 90
3 88 87 89
3 84 55 85
3 90 88 91
3 82 105 97
3 75 97 38
3 106 105 82
3 110 106 111
3 111 106 82
3 103 101 109
3 107 109 101
3 117 120 119
3 126 123 121
3 127 120 124
3 112 113 128
3 113 129 128
3 132 129 134
3 129 133 134
3 133 129 113
3 143 125 142
3 142 140 141
3 146 144 141
3 127 155 154
3 157 158 155
3 155 127 157
3 161 162 166
3 168 171 170
3 173 170 171
3 166 165 161
3 174 160 175
3 145 175 160
3 176 177 175
3 174 175 177
3 167 164 178
3 177 179 164
3 177 176 179
3 178 164 179
3 175 145 152
3 174 159 160
3 180 176 175
3 180 181 182
3 180 182 183
3 183 179 176
3 179 183 184
3 185 186 184
3 185 183 182
3 187 186 185
3 185 184 183
3 176 180 183
3 178 179 184
3 185 182 187
3 180 175 152
3 143 145 160
3 188 184 186
3 189 172 190
3 167 190 172
3 178 191 190
3 178 184 191
3 178 190 167
3 192 193 190
3 194 189 195
3 189 194 172
3 195 193 196
3 193 195 189
3 189 190 193
3 197 194 195
3 190 191 192
3 172 194 171
3 192 188 198
3 188 192 191
3 199 198 200
3 198 199 192
3 188 186 198
3 199 196 193
3 201 196 202
3 201 195 196
3 202 200 203
3 202 196 199
3 204 200 198
3 201 202 205
3 199 200 202
3 206 202 203
3 200 207 203
3 193 192 199
3 184 188 191
3 173 171 194
3 208 198 186
3 151 149 150
3 195 201 197
3 209 170 210
3 211 212 213
3 173 213 212
3 213 173 214
3 210 170 212
3 211 213 215
3 216 217 215
3 215 213 216
3 213 218 216
3 212 170 173
3 216 219 217
3 214 220 218
3 220 214 197
3 197 221 220
3 197 201 221
3 173 194 214
3 220 221 222
3 222 223 216
3 216 218 222
3 224 223 222
3 223 219 216
3 218 220 222
3 225 219 223
3 222 221 224
3 217 219 226
3 205 227 224
3 227 205 228
3 206 228 205
3 229 228 206
3 201 205 221
3 230 227 231
3 232 224 233
3 232 223 224
3 232 233 234
3 233 224 227
3 227 230 233
3 235 234 233
3 231 227 228
3 224 221 205
3 202 206 205
3 225 223 232
3 226 236 237
3 236 226 238
3 225 238 226
3 225 232 238
3 226 219 225
3 239 236 240
3 241 237 239
3 239 242 241
3 243 242 239
3 237 236 239
3 240 236 238
3 244 240 245
3 240 238 245
3 234 246 245
3 235 246 234
3 245 238 232
3 247 245 246
3 243 244 248
3 244 243 240
3 248 247 249
3 247 248 244
3 250 249 247
3 248 251 242
3 244 245 247
3 248 242 243
3 252 249 253
3 240 243 239
3 232 234 245
3 242 254 241
3 246 255 247
3 218 213 214
3 197 214 194
3 249 251 248
3 254 251 256
3 256 257 258
3 251 249 257
3 259 252 260
3 252 259 257
3 249 252 257
3 258 257 259
3 261 258 259
3 259 260 261
3 257 256 251
3 233 230 235
3 242 251 254
3 260 252 262
3 229 206 203
3 263 54 51
3 264 1 0
3 3 265 0
3 0 265 266
3 266 267 268
3 266 265 267
3 266 268 269
3 0 266 264
3 270 269 268
3 272 273 271
3 274 271 264
3 266 274 264
3 275 58 273
3 273 276 275
3 272 276 273
3 58 271 273
3 277 275 276
3 271 274 278
3 47 58 275
3 278 269 279
3 278 272 271
3 278 279 280
3 281 282 279
3 269 270 279
3 280 279 282
3 272 283 276
3 283 272 280
3 280 284 283
3 284 280 282
3 272 278 280
3 285 283 286
3 284 286 283
3 278 274 269
3 269 274 266
3 285 276 283
3 287 263 51
3 51 288 287
3 289 287 288
3 290 287 289
3 292 293 290
3 263 287 290
3 291 290 293
3 294 288 277
3 294 295 289
3 295 294 285
3 285 296 295
3 297 296 285
3 277 276 294
3 295 296 289
3 298 290 289
3 290 298 292
3 298 299 300
3 298 289 296
3 301 300 299
3 298 300 292
3 296 299 298
3 302 293 292
3 299 296 303
3 294 289 288
3 276 285 294
3 300 304 292
3 305 284 282
3 279 270 281
3 286 306 297
3 306 286 305
3 286 284 305
3 286 297 285
3 303 297 307
3 297 303 296
3 307 308 303
3 306 307 297
3 303 308 301
3 309 301 310
3 309 300 301
3 310 311 309
3 301 308 310
3 312 300 309
3 301 299 303
3 311 313 309
3 314 85 315
3 85 316 315
3 316 85 291
3 55 291 85
3 317 316 302
3 316 291 293
3 318 319 320
3 304 319 302
3 302 292 304
3 317 302 319
3 317 319 318
3 317 315 316
3 293 302 316
3 320 319 304
3 321 94 95
3 304 322 320
3 322 304 312
3 323 324 322
3 313 322 312
3 309 313 312
3 320 322 324
3 322 313 323
3 325 326 327
3 326 325 328
3 329 328 325
3 320 324 318
3 312 304 300
3 325 327 330
3 331 327 332
3 332 333 331
3 327 334 332
3 335 331 333
3 334 327 326
3 336 333 337
3 338 339 337
3 340 341 338
3 330 327 331
3 342 135 321
3 94 321 135
3 343 344 321
3 344 343 345
3 95 343 321
3 346 321 344
3 136 342 347
3 342 136 135
3 347 346 348
3 346 347 342
3 342 321 346
3 137 136 347
3 344 349 346
3 136 134 135
3 349 345 350
3 345 349 344
3 351 352 350
3 353 350 345
3 349 350 352
3 348 352 354
3 352 348 349
3 355 348 354
3 351 356 354
3 351 354 352
3 347 348 355
3 350 353 357
3 349 348 346
3 356 358 354
3 359 137 360
3 148 138 359
3 361 362 363
3 360 362 359
3 137 355 360
3 359 362 148
3 364 361 365
3 364 151 150
3 362 360 363
3 138 137 359
3 366 363 360
3 360 358 366
3 358 367 366
3 367 358 356
3 355 354 358
3 366 367 368
3 364 365 369
3 361 363 365
3 365 368 370
3 368 365 363
3 371 368 367
3 365 370 369
3 363 366 368
3 372 369 370
3 368 373 370
3 355 358 360
3 137 347 355
3 364 369 374
3 375 367 356
3 376 377 378
3 357 378 377
3 357 377 351
3 379 380 356
3 351 377 379
3 381 379 376
3 379 381 380
3 377 376 379
3 380 375 356
3 378 357 382
3 379 356 351
3 383 376 384
3 384 378 329
3 329 385 384
3 385 329 330
3 382 328 378
3 384 385 386
3 381 383 387
3 381 376 383
3 388 387 389
3 386 387 383
3 383 384 386
3 380 381 390
3 391 387 386
3 384 376 378
3 329 378 328
3 390 381 387
3 371 375 392
3 371 367 375
3 393 392 394
3 395 392 375
3 380 395 375
3 371 392 396
3 373 396 397
3 396 373 371
3 397 393 398
3 393 397 396
3 396 392 393
3 399 373 397
3 392 395 394
3 373 368 371
3 400 393 394
3 395 388 394
3 388 401 394
3 401 388 402
3 390 387 388
3 394 401 400
3 403 398 404
3 398 393 404
3 400 405 406
3 407 405 400
3 408 403 406
3 400 406 404
3 400 404 393
3 403 404 406
3 400 401 407
3 395 390 388
3 380 390 395
3 370 373 409
3 386 385 410
3 351 350 357
3 399 397 398
3 181 151 411
3 412 411 413
3 374 411 151
3 364 374 151
3 181 411 414
3 187 414 415
3 187 182 414
3 416 414 412
3 414 416 415
3 414 411 412
3 187 415 417
3 411 374 413
3 186 187 417
3 413 372 418
3 413 374 369
3 419 418 420
3 409 418 372
3 372 370 409
3 413 418 421
3 416 421 422
3 416 412 421
3 423 422 424
3 419 422 421
3 421 418 419
3 415 416 425
3 418 409 420
3 421 412 413
3 372 413 369
3 426 416 422
3 208 417 427
3 208 186 417
3 428 429 427
3 425 427 417
3 417 415 425
3 208 427 429
3 207 229 203
3 207 204 429
3 207 430 431
3 429 430 207
3 204 208 429
3 207 431 229
3 427 425 432
3 204 198 208
3 432 426 433
3 426 432 425
3 434 435 433
3 426 436 433
3 425 416 426
3 432 433 428
3 428 430 429
3 430 428 435
3 435 437 438
3 434 437 435
3 438 437 439
3 435 438 430
3 428 433 435
3 431 430 440
3 423 436 426
3 432 428 427
3 422 423 426
3 438 440 430
3 424 422 419
3 204 207 200
3 441 424 419
3 441 420 399
3 399 442 441
3 399 398 442
3 409 373 420
3 443 441 444
3 445 436 423
3 445 424 443
3 443 446 445
3 447 446 443
3 424 441 443
3 445 446 448
3 444 441 442
3 445 423 424
3 449 403 450
3 449 444 442
3 451 452 453
3 450 454 449
3 450 403 408
3 449 454 444
3 444 447 443
3 447 444 451
3 452 455 453
3 451 453 447
3 444 454 451
3 447 453 446
3 452 451 454
3 442 398 449
3 373 399 420
3 446 453 456
3 434 436 448
3 434 433 436
3 457 458 459
3 448 458 434
3 445 448 436
3 460 437 458
3 439 460 461
3 437 460 439
3 462 460 457
3 460 462 461
3 458 457 460
3 438 439 463
3 458 448 459
3 458 437 434
3 464 459 456
3 448 446 459
3 465 466 467
3 467 456 453
3 456 459 446
3 464 456 467
3 462 457 464
3 462 464 466
3 468 469 462
3 465 468 466
3 468 462 466
3 464 467 466
3 461 462 470
3 467 455 471
3 464 457 459
3 467 453 455
3 469 470 462
3 472 454 450
3 420 441 419
3 449 398 403
3 439 461 473
3 474 406 405
3 335 475 385
3 330 331 335
3 476 475 477
3 336 475 335
3 329 325 330
3 385 475 410
3 389 402 388
3 389 391 476
3 410 476 391
3 476 410 475
3 386 410 391
3 478 389 476
3 475 336 477
3 391 389 387
3 477 339 479
3 339 477 336
3 480 479 481
3 341 479 339
3 338 341 339
3 477 479 482
3 483 482 484
3 483 476 482
3 485 486 484
3 480 484 482
3 482 479 480
3 478 476 483
3 485 484 480
3 482 476 477
3 337 339 336
3 487 483 484
3 402 478 488
3 478 402 389
3 488 489 490
3 489 488 478
3 478 487 489
3 402 488 407
3 491 406 474
3 405 492 474
3 492 490 474
3 492 407 488
3 488 490 492
3 474 490 493
3 489 494 490
3 407 401 402
3 495 494 489
3 495 487 486
3 496 497 498
3 486 497 495
3 478 483 487
3 495 497 496
3 493 494 499
3 493 490 494
3 493 499 500
3 499 494 496
3 498 499 496
3 501 500 499
3 494 495 496
3 474 493 491
3 502 497 486
3 489 487 495
3 484 486 487
3 503 493 500
3 481 479 341
3 407 492 405
3 341 340 504
3 504 505 506
3 506 505 507
3 485 508 486
3 485 481 506
3 509 510 506
3 506 510 485
3 481 504 506
3 508 485 510
3 506 507 509
3 504 481 341
3 509 511 512
3 509 507 511
3 513 514 512
3 510 509 515
3 512 516 509
3 502 508 515
3 498 497 502
3 517 518 519
3 515 518 502
3 510 515 508
3 502 518 498
3 520 498 517
3 520 499 498
3 517 521 520
3 522 521 517
3 498 518 517
3 523 518 515
3 486 508 502
3 519 523 514
3 523 519 518
3 516 514 523
3 516 512 514
3 523 515 516
3 519 514 524
3 525 524 526
3 527 524 514
3 524 525 522
3 522 519 524
3 514 528 527
3 522 517 519
3 509 516 515
3 485 480 481
3 335 333 336
3 501 499 520
3 408 491 529
3 408 406 491
3 408 529 472
3 530 529 531
3 491 503 529
3 472 529 530
3 454 532 452
3 454 472 532
3 533 452 532
3 534 532 472
3 472 530 534
3 450 408 472
3 503 531 529
3 531 503 535
3 535 503 500
3 501 535 500
3 491 493 503
3 536 465 467
3 455 533 471
3 467 471 536
3 455 452 533
3 527 526 524
3 330 335 385
3 228 537 231
3 228 229 537
3 538 537 539
3 540 537 229
3 431 540 229
3 231 537 538
3 541 235 542
3 235 230 542
3 538 543 542
3 544 543 538
3 542 231 538
3 543 541 542
3 539 537 540
3 230 231 542
3 539 440 545
3 440 539 540
3 546 545 547
3 463 545 440
3 438 463 440
3 539 545 544
3 548 543 544
3 548 544 549
3 546 549 544
3 550 549 551
3 544 545 546
3 548 549 550
3 552 549 546
3 544 538 539
3 431 440 540
3 553 543 548
3 255 541 554
3 255 246 541
3 555 556 554
3 553 554 541
3 541 543 553
3 255 554 556
3 250 557 253
3 557 250 558
3 556 558 250
3 559 558 556
3 250 255 556
3 557 558 560
3 554 553 555
3 250 247 255
3 559 555 561
3 555 553 561
3 550 562 561
3 551 562 550
3 553 550 561
3 563 561 562
3 560 559 564
3 560 558 559
3 564 563 565
3 564 559 561
3 565 563 566
3 560 564 567
3 561 563 564
3 568 557 560
3 563 562 569
3 559 556 555
3 553 548 550
3 564 565 567
3 547 545 463
3 249 250 253
3 570 547 473
3 473 547 463
3 570 473 571
3 572 571 573
3 461 571 473
3 570 571 572
3 552 570 574
3 552 546 570
3 574 575 576
3 575 574 570
3 570 572 575
3 574 551 549
3 572 577 575
3 574 549 552
3 573 578 572
3 470 469 573
3 578 577 572
3 574 576 579
3 575 577 576
3 573 571 470
3 439 473 463
3 569 562 551
3 569 551 579
3 579 580 569
3 574 579 551
3 569 580 581
3 566 563 581
3 563 569 581
3 570 546 547
3 470 571 461
3 582 262 252
3 253 557 582
3 582 568 262
3 583 584 585
3 568 582 557
3 262 568 584
3 262 584 586
3 586 260 262
3 584 583 586
3 584 568 587
3 588 585 584
3 588 587 589
3 567 589 587
3 589 567 590
3 568 560 587
3 584 587 588
3 567 587 560
3 582 252 253
3 567 565 590
3 541 246 235
3 181 414 182
3 514 513 528
3 2 3 1
3 0 1 3
3 9 16 15
3 5 6 16
3 4 16 9
3 11 9 15
3 16 4 5
3 8 7 6
3 4 9 12
3 14 10 13
3 11 13 10
3 23 15 21
3 15 20 21
3 15 23 18
3 17 15 18
3 15 16 20
3 14 17 29
3 14 13 17
3 17 19 29
3 7 8 20
3 8 40 20
3 22 20 27
3 40 27 20
3 20 22 21
3 21 23 18
3 23 26 18
3 21 22 23
3 24 23 25
3 22 25 23
3 23 24 26
3 19 31 29
3 31 28 30
3 31 19 28
3 33 28 26
3 33 34 30
3 30 28 33
3 36 31 32
3 37 35 75
3 35 72 75
3 39 72 35
3 34 39 35
3 72 73 75
3 38 36 37
3 39 74 72
3 39 63 74
3 24 63 39
3 33 24 39
3 24 61 63
3 8 65 40
3 59 40 65
3 44 43 45
3 43 46 45
3 41 45 46
3 47 46 43
3 45 41 42
3 58 43 44
3 264 271 58
3 1 58 44
3 1 264 58
3 288 51 277
3 51 48 277
3 275 48 47
3 275 277 48
3 50 41 49
3 46 49 41
3 46 48 49
3 50 53 52
3 53 49 51
3 53 50 49
3 84 57 55
3 57 56 55
3 53 55 56
3 52 53 56
3 53 54 55
3 54 291 55
3 291 263 290
3 291 54 263
3 59 60 27
3 60 22 27
3 61 25 60
3 62 61 60
3 25 22 60
3 64 60 67
3 65 66 67
3 65 60 59
3 65 67 60
3 62 64 68
3 64 70 68
3 70 64 71
3 83 70 71
3 70 69 68
3 76 73 80
3 72 77 80
3 72 80 73
3 72 74 77
3 75 73 97
3 82 73 76
3 82 97 73
3 78 87 80
3 87 78 79
3 87 81 80
3 90 111 81
3 111 76 81
3 111 82 76
3 76 80 81
3 79 70 86
3 69 83 70
3 70 79 69
3 83 86 70
3 84 85 314
3 93 91 92
3 88 92 91
3 88 89 92
3 86 92 89
3 92 95 93
3 94 93 95
3 94 96 93
3 90 91 113
3 91 133 113
3 91 93 96
3 96 133 91
3 98 38 99
3 38 102 99
3 102 38 97
3 97 105 102
3 101 100 107
3 100 99 102
3 102 107 100
3 104 100 103
3 101 103 100
3 108 105 110
3 105 106 110
3 102 108 107
3 102 105 108
3 107 108 109
3 116 108 114
3 116 109 108
3 112 90 113
3 111 112 110
3 111 90 112
3 108 110 114
3 110 112 114
3 115 112 128
3 115 114 112
3 122 121 130
3 121 115 130
3 115 121 116
3 116 114 115
3 103 117 104
3 103 118 117
3 117 119 104
3 125 123 126
3 125 124 123
3 117 123 124
3 120 117 124
3 117 118 123
3 103 109 118
3 109 123 118
3 123 109 116
3 116 121 123
3 119 154 153
3 120 127 154
3 154 119 120
3 126 121 142
3 142 125 126
3 140 121 122
3 140 142 121
3 124 159 127
3 159 157 127
3 159 143 160
3 160 157 159
3 125 143 124
3 143 159 124
3 131 130 115
3 129 132 131
3 128 131 115
3 128 129 131
3 122 131 140
3 130 132 131
3 131 122 130
3 140 131 141
3 141 139 146
3 132 139 131
3 139 141 131
3 135 96 94
3 134 133 96
3 96 135 134
3 134 136 132
3 136 138 132
3 136 137 138
3 138 139 132
3 145 143 142
3 144 152 145
3 144 145 142
3 144 141 149
3 141 144 142
3 144 149 152
3 146 148 147
3 148 139 138
3 148 146 139
3 149 147 150
3 147 144 146
3 147 149 144
3 364 148 361
3 148 362 361
3 147 364 150
3 147 148 364
3 152 149 180
3 149 151 181
3 181 180 149
3 154 155 153
3 156 153 155
3 155 158 156
3 158 162 156
3 158 163 162
3 162 161 156
3 159 174 157
3 174 158 157
3 163 174 177
3 164 163 177
3 163 158 174
3 167 163 164
3 162 167 166
3 162 163 167
3 165 156 161
3 171 168 172
3 168 169 172
3 166 172 169
3 165 166 169
3 166 167 172
3 168 209 169
3 209 168 170

