ply
format ascii 1.0
comment VCGLIB generated
element vertex 525
property float x
property float y
property float z
property float nx
property float ny
property float nz
property uchar red
property uchar green
property uchar blue
element face 943
property list uchar int vertex_indices
end_header
0.071664 -1.546254 0.0 0 0 0 0 0 255
-0.023922 -1.466034 0.0 0 0 0 0 0 255
-0.099186 -1.487694 0.0 0 0 0 0 0 255
-0.003882 -1.630458 0.0 0 0 0 0 0 255
-1.102482 -0.781992 0.0 0 0 0 0 0 255
-1.014384 -0.802272 0.0 0 0 0 0 0 255
-0.937512 -0.794508 0.0 0 0 0 0 0 255
-0.856506 -0.744468 0.0 0 0 0 0 0 255
-0.759246 -0.76914 0.0 0 0 0 0 0 255
-1.141188 -0.716088 0.0 0 0 0 0 0 255
-1.259004 -0.5964 0.0 0 0 0 0 0 255
-1.12938 -0.620694 0.0 0 0 0 0 0 255
-1.202136 -0.66606 0.0 0 0 0 0 0 255
-1.109682 -0.514938 0.0 0 0 0 0 0 255
-1.180542 -0.45216 0.0 0 0 0 0 0 255
-1.029678 -0.599952 0.0 0 0 0 0 0 255
-0.943896 -0.709188 0.0 0 0 0 0 0 255
-1.037922 -0.470082 0.0 0 0 0 0 0 255
-0.938328 -0.455208 0.0 0 0 0 0 0 255
-1.014906 -0.382878 0.0 0 0 0 0 0 255
-0.857526 -0.658326 0.0 0 0 0 0 0 255
-0.841974 -0.577164 0.0 0 0 0 0 0 255
-0.763602 -0.56661 0.0 0 0 0 0 0 255
-0.887766 -0.512328 0.0 0 0 0 0 0 255
-0.773196 -0.39894 0.0 0 0 0 0 0 255
-0.7368 -0.489708 0.0 0 0 0 0 0 255
-0.860838 -0.367746 0.0 0 0 0 0 0 255
-0.723168 -0.636744 0.0 0 0 0 0 0 255
-0.94347 -0.323844 0.0 0 0 0 0 0 255
-1.136376 -0.339258 0.0 0 0 0 0 0 255
-0.939276 -0.244194 0.0 0 0 0 0 0 255
-1.048128 -0.191166 0.0 0 0 0 0 0 255
-0.907812 -0.167988 0.0 0 0 0 0 0 255
-0.797382 -0.310536 0.0 0 0 0 0 0 255
-0.83835 -0.216288 0.0 0 0 0 0 0 255
-0.839268 -0.128262 0.0 0 0 0 0 0 255
-0.910656 -0.09078 0.0 0 0 0 0 0 255
-0.809622 -0.05232 0.0 0 0 0 0 0 255
-0.81537 0.05871 0.0 0 0 0 0 0 255
-0.738552 -0.242856 0.0 0 0 0 0 0 255
-0.706284 -0.711702 0.0 0 0 0 0 0 255
-0.184014 -1.208958 0.0 0 0 0 0 0 255
-0.248538 -1.304508 0.0 0 0 0 255 0 0
-0.01932 -1.319292 0.0 0 0 0 0 0 255
-0.052278 -1.390428 0.0 0 0 0 0 0 255
-0.153876 -1.372986 0.0 0 0 0 0 0 255
-0.10671 -1.184196 0.0 0 0 0 0 0 255
-0.023592 -1.204842 0.0 0 0 0 0 0 255
-0.063414 -1.11963 0.0 0 0 0 0 0 255
-0.120018 -1.057182 0.0 0 0 0 0 0 255
-0.211734 -0.99708 0.0 0 0 0 0 0 255
0.001602 -1.000704 0.0 0 0 0 0 0 255
-0.171822 -0.896316 0.0 0 0 0 0 0 255
-0.095118 -0.89643 0.0 0 0 0 0 0 255
-0.019638 -0.86775 0.0 0 0 0 0 0 255
-0.030438 -0.763872 0.0 0 0 0 0 0 255
-0.226482 -0.786636 0.0 0 0 0 0 0 255
-0.196896 -0.707934 0.0 0 0 0 0 0 255
0.061374 -1.305588 0.0 0 0 0 0 0 255
-0.639162 -0.67203 0.0 0 0 0 0 0 255
-0.582126 -0.574146 0.0 0 0 0 0 0 255
-0.670086 -0.450618 0.0 0 0 0 0 0 255
-0.578298 -0.481998 0.0 0 0 0 0 0 255
-0.611946 -0.367794 0.0 0 0 0 0 0 255
-0.475842 -0.540294 0.0 0 0 0 0 0 255
-0.555072 -0.72048 0.0 0 0 0 0 0 255
-0.457962 -0.758148 0.0 0 0 0 255 0 0
-0.420114 -0.650466 0.0 0 0 0 0 0 255
-0.541854 -0.40422 0.0 0 0 0 0 0 255
-0.42996 -0.33621 0.0 0 0 0 0 0 255
-0.373578 -0.393408 0.0 0 0 0 0 0 255
-0.399768 -0.528312 0.0 0 0 0 0 0 255
-0.661512 -0.193458 0.0 0 0 0 0 0 255
-0.625578 -0.09828 0.0 0 0 0 0 0 255
-0.596658 -0.279786 0.0 0 0 0 0 0 255
-0.728448 -0.034974 0.0 0 0 0 0 0 255
-0.531126 -0.071442 0.0 0 0 0 0 0 255
-0.520608 -0.265056 0.0 0 0 0 0 0 255
-0.43245 -0.248244 0.0 0 0 0 0 0 255
-0.33201 -0.243174 0.0 0 0 0 0 0 255
-0.479964 -0.168954 0.0 0 0 0 0 0 255
-0.395694 -0.072882 0.0 0 0 0 0 0 255
-0.568272 0.029238 0.0 0 0 0 0 0 255
-0.336438 -0.48441 0.0 0 0 0 0 0 255
-0.078582 -0.691134 0.0 0 0 0 0 0 255
0.06033 -0.675936 0.0 0 0 0 0 0 255
-0.21672 -0.319026 0.0 0 0 0 0 0 255
-0.320508 -0.15135 0.0 0 0 0 0 0 255
-0.28839 -0.081522 0.0 0 0 0 0 0 255
-0.246174 -0.188226 0.0 0 0 0 0 0 255
-0.34209 0.016344 0.0 0 0 0 0 0 255
-0.242076 -0.018042 0.0 0 0 0 0 0 255
-0.14628 -0.146256 0.0 0 0 0 0 0 255
-0.13797 -0.034854 0.0 0 0 0 0 0 255
-0.016092 0.060858 0.0 0 0 0 0 0 255
0.027336 -0.024474 0.0 0 0 0 0 0 255
-0.11919 0.083502 0.0 0 0 0 0 0 255
-0.686364 0.053052 0.0 0 0 0 0 0 255
-0.8535 0.131022 0.0 0 0 0 255 0 0
-0.775764 0.232824 0.0 0 0 0 0 0 255
-0.753222 0.351342 0.0 0 0 0 0 0 255
-0.654018 0.383022 0.0 0 0 0 0 0 255
-0.678162 0.2013 0.0 0 0 0 0 0 255
-0.65802 0.494646 0.0 0 0 0 0 0 255
-0.772482 0.512652 0.0 0 0 0 0 0 255
-0.614046 0.099792 0.0 0 0 0 0 0 255
-0.522666 0.092298 0.0 0 0 0 0 0 255
-0.623946 0.30501 0.0 0 0 0 0 0 255
-0.519522 0.252714 0.0 0 0 0 0 0 255
-0.575838 0.399474 0.0 0 0 0 0 0 255
-0.494388 0.166962 0.0 0 0 0 0 0 255
-0.456666 0.053472 0.0 0 0 0 0 0 255
-0.368256 0.159684 0.0 0 0 0 0 0 255
-0.284604 0.136476 0.0 0 0 0 0 0 255
-0.456468 0.30882 0.0 0 0 0 0 0 255
-0.347502 0.309294 0.0 0 0 0 0 0 255
-0.487446 0.395436 0.0 0 0 0 0 0 255
-0.621096 0.63627 0.0 0 0 0 0 0 255
-0.597804 0.544374 0.0 0 0 0 0 0 255
-0.68694 0.719544 0.0 0 0 0 0 0 255
-0.605928 0.72342 0.0 0 0 0 0 0 255
-0.405384 0.471156 0.0 0 0 0 0 0 255
-0.31881 0.445572 0.0 0 0 0 0 0 255
-0.520872 0.554142 0.0 0 0 0 0 0 255
-0.521256 0.748818 0.0 0 0 0 0 0 255
-0.42654 0.658608 0.0 0 0 0 0 0 255
-0.448104 0.580446 0.0 0 0 0 0 0 255
-0.537882 0.82593 0.0 0 0 0 0 0 255
-0.304968 0.213612 0.0 0 0 0 0 0 255
-0.176676 0.23112 0.0 0 0 0 0 0 255
-0.299928 0.36915 0.0 0 0 0 0 0 255
-0.223686 0.36093 0.0 0 0 0 0 0 255
-0.154644 0.32712 0.0 0 0 0 0 0 255
-0.17556 0.136092 0.0 0 0 0 0 0 255
-0.091488 0.232842 0.0 0 0 0 0 0 255
0.018018 0.176472 0.0 0 0 0 0 0 255
0.012522 0.289176 0.0 0 0 0 0 0 255
0.07257 0.36453 0.0 0 0 0 0 0 255
-0.014172 0.432024 0.0 0 0 0 0 0 255
-0.100026 0.440268 0.0 0 0 0 0 0 255
-0.279156 0.513096 0.0 0 0 0 0 0 255
-0.20544 0.538908 0.0 0 0 0 0 0 255
-0.297318 0.594318 0.0 0 0 0 0 0 255
-0.34968 0.71985 0.0 0 0 0 0 0 255
-0.154812 0.639036 0.0 0 0 0 0 0 255
-0.255672 0.790986 0.0 0 0 0 0 0 255
-0.125286 0.53694 0.0 0 0 0 0 0 255
-0.026196 0.59712 0.0 0 0 0 0 0 255
0.02166 0.5265 0.0 0 0 0 0 0 255
-0.093354 0.73263 0.0 0 0 0 0 0 255
-0.006714 0.69315 0.0 0 0 0 0 0 255
0.018708 0.765888 0.0 0 0 0 0 0 255
-0.16911 0.809076 0.0 0 0 0 0 0 255
-0.72006 0.907626 0.0 0 0 0 0 0 255
-0.60669 0.865386 0.0 0 0 0 0 0 255
-0.557652 0.945072 0.0 0 0 0 0 0 255
-0.617772 1.048482 0.0 0 0 0 0 0 255
-0.4743 0.88932 0.0 0 0 0 0 0 255
-0.4836 0.965646 0.0 0 0 0 0 0 255
-0.399426 0.845322 0.0 0 0 0 0 0 255
-0.330264 0.811284 0.0 0 0 0 0 0 255
-0.563064 1.12224 0.0 0 0 0 0 0 255
-0.485778 1.103562 0.0 0 0 0 0 0 255
-0.431856 1.03668 0.0 0 0 0 0 0 255
-0.334086 1.084536 0.0 0 0 0 0 0 255
-0.579366 1.210368 0.0 0 0 0 0 0 255
-0.48498 1.18332 0.0 0 0 0 0 0 255
-0.39441 1.186632 0.0 0 0 0 0 0 255
-0.507138 1.390788 0.0 0 0 0 0 0 255
-0.555918 1.331736 0.0 0 0 0 0 0 255
-0.515916 1.46799 0.0 0 0 0 0 0 255
-0.436074 1.41897 0.0 0 0 0 0 0 255
-0.379902 1.295334 0.0 0 0 0 0 0 255
-0.333402 0.902052 0.0 0 0 0 0 0 255
-0.17007 0.95556 0.0 0 0 0 0 0 255
-0.283068 1.006596 0.0 0 0 0 0 0 255
-0.205746 1.032288 0.0 0 0 0 0 0 255
-0.10848 0.89553 0.0 0 0 0 0 0 255
0.004554 0.879588 0.0 0 0 0 0 0 255
-0.100992 0.991704 0.0 0 0 0 0 0 255
-0.12477 1.097574 0.0 0 0 0 0 0 255
-0.056184 1.053438 0.0 0 0 0 0 0 255
0.023682 1.034526 0.0 0 0 0 0 0 255
-0.130506 1.183104 0.0 0 0 0 0 0 255
-0.278226 1.23675 0.0 0 0 0 0 0 255
-0.205314 1.199412 0.0 0 0 0 0 0 255
-0.216882 1.326474 0.0 0 0 0 0 0 255
-0.349068 1.413114 0.0 0 0 0 0 0 255
-0.258222 1.419294 0.0 0 0 0 0 0 255
-0.06711 1.272612 0.0 0 0 0 0 0 255
-0.129282 1.33296 0.0 0 0 0 0 0 255
-0.199578 1.481148 0.0 0 0 0 0 0 255
-0.109812 1.437882 0.0 0 0 0 0 0 255
-0.00354 1.449636 0.0 0 0 0 0 0 255
0.013884 1.284714 0.0 0 0 0 0 0 255
-0.056508 1.512582 0.0 0 0 0 0 0 255
0.086286 1.38735 0.0 0 0 0 0 0 255
0.026718 1.209036 0.0 0 0 0 0 0 255
-0.62583 1.505892 0.0 0 0 0 0 0 255
-0.496224 1.573836 0.0 0 0 0 0 0 255
-0.410058 1.633014 0.0 0 0 0 0 0 255
-0.354114 1.515018 0.0 0 0 0 0 0 255
-0.485316 1.726176 0.0 0 0 0 0 0 255
-0.442962 1.792902 0.0 0 0 0 0 0 255
-0.333648 1.649082 0.0 0 0 0 0 0 255
-0.34023 1.811388 0.0 0 0 0 0 0 255
-0.288414 1.583112 0.0 0 0 0 0 0 255
-0.207048 1.616892 0.0 0 0 0 0 0 255
-0.265614 1.69071 0.0 0 0 0 0 0 255
-0.266064 1.77585 0.0 0 0 0 0 0 255
-0.14484 1.70727 0.0 0 0 0 0 0 255
-0.387114 1.922766 0.0 0 0 0 0 0 255
-0.07134 1.686732 0.0 0 0 0 0 0 255
-0.03213 1.621104 0.0 0 0 0 0 0 255
0.034044 1.65906 0.0 0 0 0 0 0 255
-0.199056 1.822788 0.0 0 0 0 0 0 255
-0.102876 1.771092 0.0 0 0 0 0 0 255
0.002082 1.843266 0.0 0 0 0 0 0 255
-0.379776 2.053536 0.0 0 0 0 0 0 255
-0.257118 1.929786 0.0 0 0 0 0 0 255
-0.30438 2.080554 0.0 0 0 0 0 0 255
-0.226362 2.016642 0.0 0 0 0 0 0 255
-0.245556 2.168352 0.0 0 0 0 0 0 255
-0.147474 2.03883 0.0 0 0 0 0 0 255
-0.1563 1.956 0.0 0 0 0 0 0 255
-0.03606 1.951152 0.0 0 0 0 0 0 255
-0.13725 2.122374 0.0 0 0 0 0 0 255
-0.05337 2.1687 0.0 0 0 0 0 0 255
0.02223 2.11764 0.0 0 0 0 0 0 255
0.014832 2.208972 0.0 0 0 0 0 0 255
-0.313494 2.239236 0.0 0 0 0 0 0 255
0.020748 2.016486 0.0 0 0 0 0 0 255
-0.198936 2.28909 0.0 0 0 0 0 0 255
-0.12312 2.264688 0.0 0 0 0 0 0 255
-0.073362 2.34081 0.0 0 0 0 0 0 255
-0.025482 2.421426 0.0 0 0 0 0 0 255
-0.102336 2.45706 0.0 0 0 0 0 0 255
0.067326 2.347584 0.0 0 0 0 0 0 255
0.052704 -0.897936 0.0 0 0 0 0 0 255
0.103152 -1.475052 0.0 0 0 0 0 0 255
0.18864 -1.530276 0.0 0 0 0 0 0 255
0.228168 -1.627086 0.0 0 0 0 0 0 255
0.260178 -1.458738 0.0 0 0 0 0 0 255
0.383724 -1.495308 0.0 0 0 0 0 0 255
0.154158 -1.359024 0.0 0 0 0 0 0 255
0.122406 -1.257516 0.0 0 0 0 0 0 255
0.073488 -1.196856 0.0 0 0 0 0 0 255
0.19488 -1.195536 0.0 0 0 0 0 0 255
0.110172 -1.127652 0.0 0 0 0 0 0 255
0.257562 -1.365396 0.0 0 0 0 0 0 255
0.304776 -1.278444 0.0 0 0 0 0 0 255
0.414096 -1.406904 0.0 0 0 0 0 0 255
0.404016 -1.305582 0.0 0 0 0 0 0 255
0.292296 -1.179 0.0 0 0 0 0 0 255
0.428688 -1.164042 0.0 0 0 0 0 0 255
0.112812 -1.039776 0.0 0 0 0 0 0 255
0.200652 -0.952938 0.0 0 0 0 0 0 255
0.143208 -0.871866 0.0 0 0 0 0 0 255
0.095904 -0.747396 0.0 0 0 0 0 0 255
0.172446 -0.757536 0.0 0 0 0 0 0 255
0.18042 -1.076646 0.0 0 0 0 0 0 255
0.242946 -1.019976 0.0 0 0 0 0 0 255
0.32079 -1.00251 0.0 0 0 0 0 0 255
0.410328 -1.075866 0.0 0 0 0 0 0 255
0.25686 -0.875166 0.0 0 0 0 0 0 255
0.343896 -0.817026 0.0 0 0 0 0 0 255
0.442452 -0.884736 0.0 0 0 0 0 0 255
0.227556 -0.682092 0.0 0 0 0 0 0 255
0.409344 -0.978546 0.0 0 0 0 0 0 255
0.320346 -0.690816 0.0 0 0 0 0 0 255
0.49377 -1.222398 0.0 0 0 0 0 0 255
0.517026 -1.034904 0.0 0 0 0 0 0 255
0.513678 -0.84681 0.0 0 0 0 0 0 255
0.544278 -0.766512 0.0 0 0 0 0 0 255
0.384252 -0.732756 0.0 0 0 0 0 0 255
0.492738 -0.687894 0.0 0 0 0 0 0 255
0.0261 -0.58437 0.0 0 0 0 0 0 255
0.150276 -0.639774 0.0 0 0 0 0 0 255
0.209232 -0.557178 0.0 0 0 0 0 0 255
0.285834 -0.602178 0.0 0 0 0 0 0 255
0.362976 -0.595302 0.0 0 0 0 0 0 255
0.502926 -0.57261 0.0 0 0 0 0 0 255
0.416016 -0.526602 0.0 0 0 0 0 0 255
0.631674 -0.095988 0.0 0 0 0 0 0 255
0.737748 -0.034788 0.0 0 0 0 0 0 255
0.576384 -0.012702 0.0 0 0 0 0 0 255
0.6459 0.07326 0.0 0 0 0 0 0 255
0.746202 0.058086 0.0 0 0 0 0 0 255
0.835614 -0.078276 0.0 0 0 0 0 0 255
0.903612 -0.03165 0.0 0 0 0 0 0 255
0.835968 0.079302 0.0 0 0 0 0 0 255
0.97926 -0.00525 0.0 0 0 0 0 0 255
1.020984 0.064416 0.0 0 0 0 0 0 255
1.142376 -0.0015 0.0 0 0 0 0 0 255
1.107546 0.109218 0.0 0 0 0 0 0 255
0.074022 0.2334 0.0 0 0 0 0 0 255
0.136638 0.037422 0.0 0 0 0 0 0 255
0.16533 0.127338 0.0 0 0 0 0 0 255
0.147306 0.20445 0.0 0 0 0 0 0 255
0.202308 0.2604 0.0 0 0 0 0 0 255
0.221394 0.179256 0.0 0 0 0 0 0 255
0.308508 0.151956 0.0 0 0 0 0 0 255
0.293652 0.232932 0.0 0 0 0 0 0 255
0.35406 0.056268 0.0 0 0 0 0 0 255
0.31311 0.317208 0.0 0 0 0 0 0 255
0.219594 0.365742 0.0 0 0 0 0 0 255
0.393564 0.335886 0.0 0 0 0 0 0 255
0.395178 0.124836 0.0 0 0 0 0 0 255
0.183792 0.436554 0.0 0 0 0 0 0 255
0.160932 0.6111 0.0 0 0 0 0 0 255
0.124668 0.522498 0.0 0 0 0 0 0 255
0.122814 0.6834 0.0 0 0 0 0 0 255
0.231216 0.644298 0.0 0 0 0 0 0 255
0.25644 0.48057 0.0 0 0 0 0 0 255
0.341814 0.461238 0.0 0 0 0 0 0 255
0.313968 0.602334 0.0 0 0 0 0 0 255
0.298128 0.684738 0.0 0 0 0 0 0 255
0.26664 0.75435 0.0 0 0 0 0 0 255
0.407562 0.692496 0.0 0 0 0 0 0 255
0.13464 0.780582 0.0 0 0 0 0 0 255
0.445614 0.46962 0.0 0 0 0 0 0 255
0.449208 0.186426 0.0 0 0 0 0 0 255
0.531168 0.108204 0.0 0 0 0 0 0 255
0.481116 0.275682 0.0 0 0 0 0 0 255
0.561558 0.290862 0.0 0 0 0 0 0 255
0.625044 0.242904 0.0 0 0 0 0 0 255
0.583776 0.164658 0.0 0 0 0 0 0 255
0.698202 0.220602 0.0 0 0 0 0 0 255
0.651042 0.416184 0.0 0 0 0 0 0 255
0.763878 0.368508 0.0 0 0 0 0 0 255
0.583968 0.3693 0.0 0 0 0 0 0 255
0.748794 0.282372 0.0 0 0 0 0 0 255
0.50568 0.559212 0.0 0 0 0 0 0 255
0.584274 0.525708 0.0 0 0 0 0 0 255
0.534336 0.45234 0.0 0 0 0 0 0 255
0.462654 0.63588 0.0 0 0 0 0 0 255
0.499656 0.719748 0.0 0 0 0 0 0 255
0.575754 0.752652 0.0 0 0 0 0 0 255
0.661338 0.619278 0.0 0 0 0 0 0 255
0.757968 0.446286 0.0 0 0 0 0 0 255
0.645666 0.705936 0.0 0 0 0 0 0 255
0.736092 0.718926 0.0 0 0 0 0 0 255
0.756618 0.539826 0.0 0 0 0 0 0 255
0.791094 0.80427 0.0 0 0 0 0 0 255
0.798702 0.220698 0.0 0 0 0 0 0 255
0.099318 0.863316 0.0 0 0 0 0 0 255
0.146064 0.928122 0.0 0 0 0 0 0 255
0.220578 0.82557 0.0 0 0 0 0 0 255
0.074502 0.97692 0.0 0 0 0 0 0 255
0.100926 1.051194 0.0 0 0 0 0 0 255
0.178788 1.00317 0.0 0 0 0 0 0 255
0.071382 1.128516 0.0 0 0 0 0 0 255
0.291918 0.867852 0.0 0 0 0 0 0 255
0.359976 0.908748 0.0 0 0 0 0 0 255
0.393636 0.818112 0.0 0 0 0 0 0 255
0.247056 0.945924 0.0 0 0 0 0 0 255
0.292554 1.008642 0.0 0 0 0 0 0 255
0.34737 1.066218 0.0 0 0 0 0 0 255
0.398634 1.000692 0.0 0 0 0 0 0 255
0.178074 1.083498 0.0 0 0 0 0 0 255
0.265932 1.081164 0.0 0 0 0 0 0 255
0.143694 1.187976 0.0 0 0 0 0 0 255
0.216918 1.275372 0.0 0 0 0 0 0 255
0.127272 1.280832 0.0 0 0 0 0 0 255
0.221742 1.354866 0.0 0 0 0 0 0 255
0.13854 1.443168 0.0 0 0 0 0 0 255
0.229758 1.158312 0.0 0 0 0 0 0 255
0.326142 1.19904 0.0 0 0 0 0 0 255
0.366696 1.267698 0.0 0 0 0 0 0 255
0.2943 1.29249 0.0 0 0 0 0 0 255
0.37893 1.143018 0.0 0 0 0 0 0 255
0.35202 1.343652 0.0 0 0 0 0 0 255
0.298944 1.418406 0.0 0 0 0 0 0 255
0.398304 1.414812 0.0 0 0 0 0 0 255
0.216216 1.500744 0.0 0 0 0 0 0 255
0.475614 0.917664 0.0 0 0 0 0 0 255
0.56043 0.841236 0.0 0 0 0 0 0 255
0.524706 0.981744 0.0 0 0 0 0 0 255
0.59586 0.935694 0.0 0 0 0 0 0 255
0.45702 1.064034 0.0 0 0 0 0 0 255
0.537198 1.092072 0.0 0 0 0 0 0 255
0.600426 1.039878 0.0 0 0 0 0 0 255
0.454992 1.149294 0.0 0 0 0 0 0 255
0.660246 0.858702 0.0 0 0 0 0 0 255
0.738156 0.861288 0.0 0 0 0 0 0 255
0.667344 1.000656 0.0 0 0 0 0 0 255
0.747726 1.041258 0.0 0 0 0 0 0 255
0.656796 1.112118 0.0 0 0 0 0 0 255
0.707346 0.932352 0.0 0 0 0 0 0 255
0.737604 1.117356 0.0 0 0 0 0 0 255
0.612978 1.180872 0.0 0 0 0 0 0 255
0.52086 1.319988 0.0 0 0 0 0 0 255
0.451404 1.285422 0.0 0 0 0 0 0 255
0.528318 1.192434 0.0 0 0 0 0 0 255
0.468282 1.38252 0.0 0 0 0 0 0 255
0.5034 1.456974 0.0 0 0 0 0 0 255
0.602082 1.399512 0.0 0 0 0 0 0 255
0.314934 1.524558 0.0 0 0 0 0 0 255
0.597258 1.26279 0.0 0 0 0 0 0 255
0.767796 1.31196 0.0 0 0 0 0 0 255
0.661842 1.317072 0.0 0 0 0 0 0 255
0.715446 1.194762 0.0 0 0 0 0 0 255
0.724902 1.380924 0.0 0 0 0 0 0 255
0.680172 1.45206 0.0 0 0 0 0 0 255
0.578454 1.496754 0.0 0 0 0 0 0 255
0.792444 1.179384 0.0 0 0 0 0 0 255
0.808722 0.91416 0.0 0 0 0 0 0 255
0.440076 1.524846 0.0 0 0 0 0 0 255
0.81528 0.665742 0.0 0 0 0 0 0 255
0.858366 0.16338 0.0 0 0 0 0 0 255
0.871998 0.292248 0.0 0 0 0 0 0 255
0.935514 0.176958 0.0 0 0 0 0 0 255
0.835182 0.398106 0.0 0 0 0 0 0 255
1.036272 0.163374 0.0 0 0 0 0 0 255
1.07595 0.250794 0.0 0 0 0 0 0 255
1.147068 0.21018 0.0 0 0 0 0 0 255
0.998064 0.232518 0.0 0 0 0 0 0 255
0.937356 0.33219 0.0 0 0 0 0 0 255
1.070982 0.343992 0.0 0 0 0 0 0 255
1.159548 0.315198 0.0 0 0 0 0 0 255
1.113462 0.41022 0.0 0 0 0 0 0 255
0.984804 0.409578 0.0 0 0 0 0 0 255
0.849744 0.492288 0.0 0 0 0 0 0 255
0.936012 0.474708 0.0 0 0 0 0 0 255
0.904386 0.568476 0.0 0 0 0 0 0 255
0.834228 0.740922 0.0 0 0 0 0 0 255
0.823344 0.586638 0.0 0 0 0 0 0 255
0.939324 0.661554 0.0 0 0 0 0 0 255
0.991428 0.563064 0.0 0 0 0 0 0 255
1.011312 0.48804 0.0 0 0 0 0 0 255
1.07973 0.579252 0.0 0 0 0 0 0 255
1.087764 0.490476 0.0 0 0 0 0 0 255
1.164774 0.599142 0.0 0 0 0 0 0 255
1.08543 0.65583 0.0 0 0 0 0 0 255
1.016472 0.726942 0.0 0 0 0 0 0 255
1.084956 0.770154 0.0 0 0 0 0 0 255
1.190022 0.47913 0.0 0 0 0 0 0 255
0.931266 0.743022 0.0 0 0 0 0 0 255
1.20624 0.101412 0.0 0 0 0 0 0 255
1.310028 0.127098 0.0 0 0 0 0 0 255
1.243422 0.216174 0.0 0 0 0 0 0 255
1.330884 0.200856 0.0 0 0 0 0 0 255
1.191138 0.389286 0.0 0 0 0 0 0 255
1.333926 0.312804 0.0 0 0 0 0 0 255
1.236366 0.310254 0.0 0 0 0 0 0 255
1.397586 0.24693 0.0 0 0 0 0 0 255
1.452672 0.369174 0.0 0 0 0 0 0 255
1.527378 0.409626 0.0 0 0 0 0 0 255
1.413822 0.480426 0.0 0 0 0 0 0 255
1.264284 0.436452 0.0 0 0 0 0 0 255
1.35903 0.386226 0.0 0 0 0 0 0 255
1.26447 0.646638 0.0 0 0 0 0 0 255
1.25058 0.559272 0.0 0 0 0 0 0 255
1.326648 0.564762 0.0 0 0 0 0 0 255
1.152408 0.733764 0.0 0 0 0 0 0 255
1.281288 0.726726 0.0 0 0 0 0 0 255
1.370874 0.654462 0.0 0 0 0 0 0 255
1.339344 0.460452 0.0 0 0 0 0 0 255
1.409742 0.582372 0.0 0 0 0 0 0 255
1.439478 0.708738 0.0 0 0 0 0 0 255
1.505994 0.666486 0.0 0 0 0 0 0 255
1.485414 0.569652 0.0 0 0 0 0 0 255
1.556676 0.510258 0.0 0 0 0 0 0 255
0.869736 0.812664 0.0 0 0 0 0 0 255
0.899064 0.897438 0.0 0 0 0 0 0 255
0.943368 0.832446 0.0 0 0 0 0 0 255
0.817944 1.001136 0.0 0 0 0 0 0 255
0.850794 1.086792 0.0 0 0 0 0 0 255
0.920766 0.97338 0.0 0 0 0 0 0 255
1.018584 0.809442 0.0 0 0 0 0 0 255
0.819198 1.253382 0.0 0 0 0 0 0 255
0.093636 1.592856 0.0 0 0 0 0 0 255
0.123306 1.691802 0.0 0 0 0 0 0 255
0.177384 1.629168 0.0 0 0 0 0 0 255
0.146022 1.530648 0.0 0 0 0 0 0 255
0.059652 1.894122 0.0 0 0 0 0 0 255
0.060678 1.75986 0.0 0 0 0 0 0 255
0.13365 1.787346 0.0 0 0 0 0 0 255
0.23724 1.722462 0.0 0 0 0 0 0 255
0.290442 1.59948 0.0 0 0 0 0 0 255
0.326592 1.669134 0.0 0 0 0 0 0 255
0.3789 1.601928 0.0 0 0 0 0 0 255
0.246924 1.82064 0.0 0 0 0 0 0 255
0.335166 1.76526 0.0 0 0 0 0 0 255
0.31329 1.890042 0.0 0 0 0 0 0 255
0.417822 1.871574 0.0 0 0 0 0 0 255
0.404184 1.727562 0.0 0 0 0 0 0 255
0.17769 1.865022 0.0 0 0 0 0 0 255
0.136044 1.933962 0.0 0 0 0 0 0 255
0.190656 1.990308 0.0 0 0 0 0 0 255
0.113886 2.024292 0.0 0 0 0 0 0 255
0.091998 2.189598 0.0 0 0 0 0 0 255
0.124416 2.101956 0.0 0 0 0 0 0 255
0.226566 2.066856 0.0 0 0 0 0 0 255
0.202122 2.14662 0.0 0 0 0 0 0 255
0.267576 1.965612 0.0 0 0 0 0 0 255
0.347262 1.968366 0.0 0 0 0 0 0 255
0.37326 2.040504 0.0 0 0 0 0 0 255
0.302334 2.097786 0.0 0 0 0 0 0 255
0.36342 2.144286 0.0 0 0 0 0 0 255
0.438288 2.120688 0.0 0 0 0 0 0 255
0.278136 2.211984 0.0 0 0 0 0 0 255
0.147972 2.268186 0.0 0 0 0 0 0 255
0.423636 1.959648 0.0 0 0 0 0 0 255
0.450888 1.666926 0.0 0 0 0 0 0 255
0.516456 1.54863 0.0 0 0 0 0 0 255
0.541434 1.621158 0.0 0 0 0 0 0 255
0.626208 1.560594 0.0 0 0 0 0 0 255
0.467898 1.77573 0.0 0 0 0 0 0 255
0.52209 1.69512 0.0 0 0 0 0 0 255
0.563562 1.761534 0.0 0 0 0 0 0 255
0.63651 1.711164 0.0 0 0 0 0 0 255
0.649782 1.636008 0.0 0 0 0 0 0 255
0.52017 1.892094 0.0 0 0 0 0 0 255
0.550746 1.97385 0.0 0 0 0 0 0 255
0.490224 2.02617 0.0 0 0 0 0 0 255
0.062322 2.269626 0.0 0 0 0 0 0 255
0.162936 2.439402 0.0 0 0 0 0 0 255
0.149718 2.345292 0.0 0 0 0 0 0 255
0.237558 2.42118 0.0 0 0 0 0 0 255
0.061068 2.428974 0.0 0 0 0 0 0 255
0.227292 2.269254 0.0 0 0 0 0 0 255
0.253734 2.345292 0.0 0 0 0 0 0 255
0.3126 2.285088 0.0 0 0 0 0 0 255
0.386052 2.21757 0.0 0 0 0 0 0 255

3 10 12 11
3 11 12 9
3 11 15 13
3 17 13 15
3 19 17 18
3 20 16 7
3 18 28 19
3 32 31 30
3 26 24 33
3 34 32 30
3 35 37 36
3 35 32 34
3 35 36 32
3 39 34 33
3 18 26 28
3 7 16 6
3 45 2 44
3 46 47 48
3 48 51 49
3 51 54 53
3 47 43 58
3 44 2 1
3 27 40 59
3 63 61 62
3 60 64 62
3 64 67 71
3 63 62 68
3 38 37 75
3 63 68 74
3 69 78 77
3 77 74 68
3 77 78 80
3 79 78 69
3 68 69 77
3 25 61 24
3 86 89 79
3 79 89 87
3 81 87 88
3 81 88 90
3 88 87 89
3 84 55 85
3 90 88 91
3 82 105 97
3 75 97 38
3 106 105 82
3 110 106 111
3 111 106 82
3 103 101 109
3 107 109 101
3 117 120 119
3 126 123 121
3 127 120 124
3 112 113 128
3 113 129 128
3 132 129 134
3 129 133 134
3 133 129 113
3 143 125 142
3 142 140 141
3 146 144 141
3 127 155 154
3 157 158 155
3 155 127 157
3 161 162 166
3 168 171 170
3 166 165 161
3 175 176 164
3 175 174 176
3 173 159 160
3 179 176 174
3 176 179 180
3 181 180 179
3 174 177 179
3 143 145 160
3 167 184 172
3 172 187 171
3 195 192 193
3 180 183 185
3 151 149 150
3 201 206 204
3 206 207 208
3 210 209 208
3 204 206 208
3 208 207 210
3 203 205 211
3 215 210 216
3 215 209 210
3 216 210 212
3 214 212 213
3 223 221 224
3 221 219 224
3 224 219 215
3 204 200 201
3 234 235 236
3 238 54 51
3 239 1 0
3 0 240 239
3 246 58 245
3 245 247 246
3 58 244 245
3 248 246 247
3 47 58 246
3 258 257 259
3 260 255 248
3 260 261 256
3 248 247 260
3 261 262 256
3 264 257 256
3 264 256 262
3 260 256 255
3 268 263 271
3 263 268 262
3 277 85 258
3 55 258 85
3 278 277 267
3 277 258 259
3 269 279 267
3 278 267 279
3 259 267 277
3 280 279 269
3 274 269 265
3 295 136 135
3 297 300 298
3 136 134 135
3 300 301 302
3 299 302 304
3 302 299 300
3 305 299 304
3 301 303 307
3 300 299 298
3 137 305 308
3 311 309 312
3 311 151 150
3 313 314 315
3 312 315 316
3 315 318 316
3 320 314 306
3 307 322 321
3 326 322 286
3 325 326 327
3 286 322 285
3 334 332 320
3 318 335 336
3 332 334 333
3 334 328 333
3 338 341 340
3 334 330 328
3 178 151 345
3 346 345 347
3 319 345 151
3 311 319 151
3 178 345 348
3 182 348 349
3 350 348 346
3 348 350 349
3 348 345 346
3 182 349 351
3 345 319 347
3 347 317 352
3 353 352 354
3 347 352 355
3 350 355 356
3 350 346 355
3 357 356 358
3 353 356 355
3 355 352 353
3 349 350 359
3 355 346 347
3 360 350 356
3 197 351 361
3 362 363 361
3 359 361 351
3 351 349 359
3 197 361 363
3 196 194 363
3 196 364 365
3 363 364 196
3 194 197 363
3 361 359 366
3 194 189 197
3 366 360 367
3 360 366 359
3 368 369 367
3 360 370 367
3 359 350 360
3 366 367 362
3 362 364 363
3 364 362 369
3 369 371 372
3 368 371 369
3 372 371 373
3 369 372 364
3 362 367 369
3 365 364 374
3 357 370 360
3 366 362 361
3 356 357 360
3 372 374 364
3 358 356 353
3 375 358 353
3 377 375 378
3 379 370 357
3 379 358 377
3 377 380 379
3 381 380 377
3 358 375 377
3 379 380 382
3 378 375 376
3 379 357 358
3 383 378 376
3 385 386 387
3 384 388 383
3 383 388 378
3 378 381 377
3 381 378 385
3 386 389 387
3 385 387 381
3 378 388 385
3 381 387 380
3 386 385 388
3 376 337 383
3 380 387 390
3 368 370 382
3 368 367 370
3 391 392 393
3 382 392 368
3 379 382 370
3 394 371 392
3 373 394 395
3 371 394 373
3 396 394 391
3 394 396 395
3 392 391 394
3 372 373 397
3 392 382 393
3 392 371 368
3 398 393 390
3 382 380 393
3 399 400 401
3 401 390 387
3 390 393 380
3 398 390 401
3 396 391 398
3 396 398 400
3 402 403 396
3 399 402 400
3 402 396 400
3 398 401 400
3 395 396 404
3 401 389 405
3 398 391 393
3 401 387 389
3 403 404 396
3 406 388 384
3 354 375 353
3 373 395 407
3 410 409 411
3 329 339 328
3 329 331 410
3 344 410 331
3 410 344 409
3 327 344 331
3 412 329 410
3 411 292 413
3 414 413 415
3 294 413 292
3 411 413 416
3 417 416 418
3 417 410 416
3 419 420 418
3 414 418 416
3 416 413 414
3 412 410 417
3 419 418 414
3 416 410 411
3 421 417 418
3 339 412 422
3 412 339 329
3 422 423 424
3 423 422 412
3 412 421 423
3 339 422 342
3 425 341 408
3 426 424 408
3 426 342 422
3 422 424 426
3 408 424 427
3 423 428 424
3 429 428 423
3 429 421 420
3 430 431 432
3 420 431 429
3 412 417 421
3 429 431 430
3 427 428 433
3 427 424 428
3 427 433 434
3 433 428 430
3 432 433 430
3 435 434 433
3 428 429 430
3 408 427 425
3 436 431 420
3 423 421 429
3 418 420 421
3 437 427 434
3 415 413 294
3 294 293 438
3 438 439 440
3 440 439 441
3 419 442 420
3 419 415 440
3 443 444 440
3 440 444 419
3 415 438 440
3 442 419 444
3 440 441 443
3 438 415 294
3 443 445 446
3 443 441 445
3 447 448 446
3 444 443 449
3 446 450 443
3 436 442 449
3 432 431 436
3 451 452 453
3 449 452 436
3 444 449 442
3 436 452 432
3 454 432 451
3 454 433 432
3 451 455 454
3 456 455 451
3 432 452 451
3 457 452 449
3 420 442 436
3 453 457 448
3 457 453 452
3 450 448 457
3 450 446 448
3 457 449 450
3 453 448 458
3 459 458 460
3 461 458 448
3 458 459 456
3 456 453 458
3 448 462 461
3 456 451 453
3 443 450 449
3 419 414 415
3 435 433 454
3 343 425 463
3 343 341 425
3 343 463 406
3 464 463 465
3 425 437 463
3 406 463 464
3 388 466 386
3 388 406 466
3 467 386 466
3 468 466 406
3 406 464 468
3 384 343 406
3 437 465 463
3 465 437 469
3 469 437 434
3 435 469 434
3 425 427 437
3 470 399 401
3 389 467 405
3 401 405 470
3 389 386 467
3 461 460 458
3 213 471 214
3 472 471 473
3 214 471 472
3 475 217 476
3 472 477 476
3 478 477 472
3 476 214 472
3 477 475 476
3 473 471 474
3 473 374 479
3 374 473 474
3 480 479 481
3 397 479 374
3 372 397 374
3 473 479 478
3 482 477 478
3 482 478 483
3 480 483 478
3 484 483 485
3 478 479 480
3 482 483 484
3 486 483 480
3 478 472 473
3 365 374 474
3 487 477 482
3 231 475 488
3 231 225 475
3 489 490 488
3 487 488 475
3 475 477 487
3 231 488 490
3 228 491 229
3 491 228 492
3 490 492 228
3 493 492 490
3 228 231 490
3 491 492 494
3 488 487 489
3 493 489 495
3 489 487 495
3 484 496 495
3 485 496 484
3 487 484 495
3 497 495 496
3 494 493 498
3 494 492 493
3 498 497 499
3 498 493 495
3 499 497 500
3 494 498 501
3 495 497 498
3 502 491 494
3 497 496 503
3 493 490 489
3 487 482 484
3 498 499 501
3 481 479 397
3 227 228 229
3 504 481 407
3 407 481 397
3 504 407 505
3 506 505 507
3 395 505 407
3 504 505 506
3 486 504 508
3 486 480 504
3 508 509 510
3 509 508 504
3 504 506 509
3 508 485 483
3 506 511 509
3 508 483 486
3 507 512 506
3 404 403 507
3 512 511 506
3 508 510 513
3 509 511 510
3 507 505 404
3 373 407 397
3 503 496 485
3 503 485 513
3 513 514 503
3 508 513 485
3 503 514 515
3 500 497 515
3 497 503 515
3 504 480 481
3 404 505 395
3 229 491 516
3 516 502 237
3 517 518 519
3 502 516 491
3 237 502 518
3 237 518 520
3 520 235 237
3 518 517 520
3 518 502 521
3 522 519 518
3 522 521 523
3 501 523 521
3 523 501 524
3 502 494 521
3 518 521 522
3 501 521 494
3 501 499 524
3 475 225 217
3 448 447 462
3 2 3 1
3 0 1 3
3 9 16 15
3 5 6 16
3 4 16 9
3 11 9 15
3 16 4 5
3 8 7 6
3 4 9 12
3 14 10 13
3 11 13 10
3 23 15 21
3 15 20 21
3 15 23 18
3 17 15 18
3 15 16 20
3 14 17 29
3 14 13 17
3 17 19 29
3 7 8 20
3 8 40 20
3 22 20 27
3 40 27 20
3 20 22 21
3 21 23 18
3 23 26 18
3 21 22 23
3 24 23 25
3 22 25 23
3 23 24 26
3 19 31 29
3 31 28 30
3 31 19 28
3 33 28 26
3 33 34 30
3 30 28 33
3 36 31 32
3 37 35 75
3 35 72 75
3 39 72 35
3 34 39 35
3 72 73 75
3 38 36 37
3 39 74 72
3 39 63 74
3 24 63 39
3 33 24 39
3 24 61 63
3 8 65 40
3 59 40 65
3 44 43 45
3 43 46 45
3 41 45 46
3 47 46 43
3 45 41 42
3 58 43 44
3 239 244 58
3 1 58 44
3 1 239 58
3 255 51 248
3 51 48 248
3 246 48 47
3 246 248 48
3 50 41 49
3 46 49 41
3 46 48 49
3 50 53 52
3 53 49 51
3 53 50 49
3 84 57 55
3 57 56 55
3 53 55 56
3 52 53 56
3 53 54 55
3 54 258 55
3 258 238 257
3 258 54 238
3 59 60 27
3 60 22 27
3 61 25 60
3 62 61 60
3 25 22 60
3 64 60 67
3 65 66 67
3 65 60 59
3 65 67 60
3 62 64 68
3 64 70 68
3 70 64 71
3 83 70 71
3 70 69 68
3 76 73 80
3 72 77 80
3 72 80 73
3 72 74 77
3 75 73 97
3 82 73 76
3 82 97 73
3 78 87 80
3 87 78 79
3 87 81 80
3 90 111 81
3 111 76 81
3 111 82 76
3 76 80 81
3 79 70 86
3 69 83 70
3 70 79 69
3 83 86 70
3 84 85 276
3 93 91 92
3 88 92 91
3 88 89 92
3 86 92 89
3 92 95 93
3 94 93 95
3 94 96 93
3 90 91 113
3 91 133 113
3 91 93 96
3 96 133 91
3 98 38 99
3 38 102 99
3 102 38 97
3 97 105 102
3 101 100 107
3 100 99 102
3 102 107 100
3 104 100 103
3 101 103 100
3 108 105 110
3 105 106 110
3 102 108 107
3 102 105 108
3 107 108 109
3 116 108 114
3 116 109 108
3 112 90 113
3 111 112 110
3 111 90 112
3 108 110 114
3 110 112 114
3 115 112 128
3 115 114 112
3 122 121 130
3 121 115 130
3 115 121 116
3 116 114 115
3 103 117 104
3 103 118 117
3 117 119 104
3 125 123 126
3 125 124 123
3 117 123 124
3 120 117 124
3 117 118 123
3 103 109 118
3 109 123 118
3 123 109 116
3 116 121 123
3 119 154 153
3 120 127 154
3 154 119 120
3 126 121 142
3 142 125 126
3 140 121 122
3 140 142 121
3 124 159 127
3 159 157 127
3 159 143 160
3 160 157 159
3 125 143 124
3 143 159 124
3 131 130 115
3 129 132 131
3 128 131 115
3 128 129 131
3 122 131 140
3 130 132 131
3 131 122 130
3 140 131 141
3 141 139 146
3 132 139 131
3 139 141 131
3 135 96 94
3 134 133 96
3 96 135 134
3 134 136 132
3 136 138 132
3 136 137 138
3 138 139 132
3 145 143 142
3 144 152 145
3 144 145 142
3 144 141 149
3 141 144 142
3 144 149 152
3 146 148 147
3 148 139 138
3 148 146 139
3 149 147 150
3 147 144 146
3 147 149 144
3 311 148 309
3 148 310 309
3 147 311 150
3 147 148 311
3 152 149 177
3 149 151 178
3 178 177 149
3 154 155 153
3 156 153 155
3 155 158 156
3 158 162 156
3 158 163 162
3 162 161 156
3 159 173 157
3 173 158 157
3 163 173 175
3 164 163 175
3 163 158 173
3 167 163 164
3 162 167 166
3 162 163 167
3 165 156 161
3 171 168 172
3 168 169 172
3 166 172 169
3 165 166 169
3 166 167 172
3 168 198 169
3 198 168 170
3 170 201 199
3 201 200 199
3 201 171 187
3 201 170 171
3 173 174 175
3 152 177 174
3 145 174 173
3 160 145 173
3 145 152 174
3 180 185 176
3 185 164 176
3 164 185 184
3 184 167 164
3 178 179 177
3 182 181 179
3 178 348 182
3 182 179 178
3 180 181 183
3 197 189 183
3 197 181 351
3 182 351 181
3 197 183 181
3 187 186 188
3 186 172 184
3 186 187 172
3 189 190 183
3 190 185 183
3 186 184 185
3 185 190 186
3 190 192 186
3 192 191 188
3 188 186 192
3 207 206 191
3 206 201 191
3 201 187 188
3 188 191 201
3 192 190 193
3 194 196 193
3 189 193 190
3 189 194 193
3 192 195 191
3 195 207 191
3 207 212 210
3 212 207 213
3 207 195 213
3 199 198 170
3 199 200 202
3 202 200 203
3 200 204 203
3 205 208 209
3 208 205 204
3 205 203 204
3 209 219 205
3 209 215 219
3 219 211 205
3 365 474 193
3 193 196 365
3 193 471 195
3 213 195 471
3 193 474 471
3 214 476 212
3 216 476 217
3 216 212 476
3 216 224 215
3 225 216 217
3 225 224 216
3 218 219 220
3 218 211 219
3 219 221 220
3 220 230 218
3 230 220 222
3 226 221 223
3 221 222 220
3 221 226 222
3 223 224 225
3 228 226 223
3 228 223 231
3 225 231 223
3 226 228 227
3 227 233 226
3 233 222 226
3 232 230 222
3 222 233 232
3 235 234 237
3 234 516 237
3 229 233 227
3 234 235 233
3 233 229 234
3 229 516 234
3 236 232 234
3 233 234 232
3 240 0 241
3 3 241 0
3 241 242 240
3 242 241 243
3 253 247 250
3 247 249 250
3 247 245 244
3 244 249 247
3 240 242 239
3 242 249 244
3 244 239 242
3 250 249 252
3 249 251 252
3 242 251 249
3 242 243 251
3 252 254 250
3 254 252 270
3 254 253 250
3 247 253 260
3 253 261 260
3 262 253 263
3 253 247 254
3 254 263 253
3 262 261 253
3 257 238 256
3 238 51 255
3 255 256 238
3 269 267 265
3 267 259 265
3 259 257 264
3 264 265 259
3 264 268 265
3 268 264 262
3 268 266 265
3 263 254 271
3 270 271 254
3 271 266 268
3 266 271 272
3 275 274 273
3 274 272 273
3 266 274 265
3 266 272 274
3 278 276 277
3 85 277 276
3 282 279 280
3 279 282 278
3 295 135 298
3 135 297 298
3 296 94 95
3 94 296 135
3 296 297 135
3 281 280 275
3 280 274 275
3 280 281 282
3 280 269 274
3 286 284 287
3 284 285 283
3 284 286 285
3 290 288 289
3 284 290 287
3 284 288 290
3 288 284 283
3 409 290 411
3 290 292 411
3 290 289 291
3 291 292 290
3 294 292 293
3 291 293 292
3 296 303 297
3 301 297 303
3 301 300 297
3 295 298 299
3 137 136 295
3 137 299 305
3 137 295 299
3 306 304 302
3 321 323 306
3 321 301 307
3 301 321 302
3 321 306 302
3 308 305 313
3 305 314 313
3 314 305 304
3 304 306 314
3 310 137 308
3 138 310 148
3 138 137 310
3 309 313 312
3 313 315 312
3 310 308 313
3 313 309 310
3 347 319 317
3 312 316 317
3 311 317 319
3 311 312 317
3 314 320 315
3 335 318 315
3 335 320 332
3 335 315 320
3 322 326 321
3 326 323 321
3 326 325 324
3 324 323 326
3 334 323 330
3 323 324 330
3 334 320 306
3 306 323 334
3 307 285 322
3 409 344 290
3 344 287 290
3 287 327 286
3 326 286 327
3 287 344 327
3 328 330 325
3 331 329 328
3 331 325 327
3 324 325 330
3 325 331 328
3 336 340 337
3 336 338 340
3 332 338 336
3 335 332 336
3 332 333 338
3 337 376 336
3 376 354 336
3 354 376 375
3 354 318 336
3 328 342 333
3 342 328 339
3 342 338 333
3 343 384 341
3 383 340 341
3 383 341 384
3 383 337 340
3 426 408 342
3 338 408 341
3 338 342 408
3 316 318 317
3 317 318 354
3 354 352 317

