ply
format ascii 1.0
comment VCGLIB generated
element vertex 131
property float x
property float y
property float z
property float nx
property float ny
property float nz
property uchar red
property uchar green
property uchar blue
element face 314
property list uchar int vertex_indices
end_header
-0.759246 -0.76914 0.0 0 0 0 0 0 255
-1.12938 -0.620694 0.0 0 0 0 0 0 255
-1.037922 -0.470082 0.0 0 0 0 0 0 255
-0.857526 -0.658326 0.0 0 0 0 0 0 255
-0.763602 -0.56661 0.0 0 0 0 0 0 255
-0.887766 -0.512328 0.0 0 0 0 0 0 255
-1.136376 -0.339258 0.0 0 0 0 0 0 255
-0.83835 -0.216288 0.0 0 0 0 0 0 255
-0.910656 -0.09078 0.0 0 0 0 0 0 255
-0.01932 -1.319292 0.0 0 0 0 0 0 255
-0.153876 -1.372986 0.0 0 0 0 0 0 255
-0.063414 -1.11963 0.0 0 0 0 0 0 255
-0.095118 -0.89643 0.0 0 0 0 0 0 255
-0.670086 -0.450618 0.0 0 0 0 0 0 255
-0.457962 -0.758148 0.0 0 0 0 0 0 255
-0.541854 -0.40422 0.0 0 0 0 0 0 255
-0.42996 -0.33621 0.0 0 0 0 0 0 255
-0.661512 -0.193458 0.0 0 0 0 0 0 255
-0.395694 -0.072882 0.0 0 0 0 0 0 255
-0.568272 0.029238 0.0 0 0 0 0 0 255
-0.246174 -0.188226 0.0 0 0 0 0 0 255
-0.13797 -0.034854 0.0 0 0 0 0 0 255
0.027336 -0.024474 0.0 0 0 0 0 0 255
-0.678162 0.2013 0.0 0 0 0 0 0 255
-0.65802 0.494646 0.0 0 0 0 0 0 255
-0.368256 0.159684 0.0 0 0 0 0 0 255
-0.487446 0.395436 0.0 0 0 0 0 0 255
-0.520872 0.554142 0.0 0 0 0 0 0 255
-0.521256 0.748818 0.0 0 0 0 0 0 255
-0.176676 0.23112 0.0 0 0 0 0 0 255
-0.299928 0.36915 0.0 0 0 0 0 0 255
-0.091488 0.232842 0.0 0 0 0 0 0 255
0.07257 0.36453 0.0 0 0 0 0 0 255
-0.20544 0.538908 0.0 0 0 0 0 0 255
-0.026196 0.59712 0.0 0 0 0 0 0 255
-0.16911 0.809076 0.0 0 0 0 0 0 255
-0.617772 1.048482 0.0 0 0 0 0 0 255
-0.4743 0.88932 0.0 0 0 0 0 0 255
-0.334086 1.084536 0.0 0 0 0 0 0 255
-0.379902 1.295334 0.0 0 0 0 0 0 255
-0.333402 0.902052 0.0 0 0 0 0 0 255
-0.17007 0.95556 0.0 0 0 0 0 0 255
-0.056184 1.053438 0.0 0 0 0 0 0 255
-0.129282 1.33296 0.0 0 0 0 0 0 255
-0.00354 1.449636 0.0 0 0 0 0 0 255
0.026718 1.209036 0.0 0 0 0 0 0 255
-0.496224 1.573836 0.0 0 0 0 0 0 255
-0.410058 1.633014 0.0 0 0 0 0 0 255
-0.333648 1.649082 0.0 0 0 0 0 0 255
-0.207048 1.616892 0.0 0 0 0 0 0 255
0.034044 1.65906 0.0 0 0 0 0 0 255
-0.102876 1.771092 0.0 0 0 0 0 0 255
-0.257118 1.929786 0.0 0 0 0 0 0 255
-0.1563 1.956 0.0 0 0 0 0 0 255
0.02223 2.11764 0.0 0 0 0 0 0 255
-0.313494 2.239236 0.0 0 0 0 0 0 255
-0.12312 2.264688 0.0 0 0 0 0 0 255
0.18864 -1.530276 0.0 0 0 0 0 0 255
0.228168 -1.627086 0.0 0 0 0 0 0 255
0.073488 -1.196856 0.0 0 0 0 0 0 255
0.257562 -1.365396 0.0 0 0 0 0 0 255
0.292296 -1.179 0.0 0 0 0 0 0 255
0.200652 -0.952938 0.0 0 0 0 0 0 255
0.172446 -0.757536 0.0 0 0 0 0 0 255
0.18042 -1.076646 0.0 0 0 0 0 0 255
0.517026 -1.034904 0.0 0 0 0 0 0 255
0.384252 -0.732756 0.0 0 0 0 0 0 255
0.492738 -0.687894 0.0 0 0 0 0 0 255
0.0261 -0.58437 0.0 0 0 0 0 0 255
0.150276 -0.639774 0.0 0 0 0 0 0 255
0.502926 -0.57261 0.0 0 0 0 0 0 255
0.576384 -0.012702 0.0 0 0 0 0 0 255
0.746202 0.058086 0.0 0 0 0 0 0 255
0.97926 -0.00525 0.0 0 0 0 0 0 255
1.107546 0.109218 0.0 0 0 0 0 0 255
0.16533 0.127338 0.0 0 0 0 0 0 255
0.202308 0.2604 0.0 0 0 0 0 0 255
0.395178 0.124836 0.0 0 0 0 0 0 255
0.122814 0.6834 0.0 0 0 0 0 0 255
0.25644 0.48057 0.0 0 0 0 0 0 255
0.341814 0.461238 0.0 0 0 0 0 0 255
0.407562 0.692496 0.0 0 0 0 0 0 255
0.13464 0.780582 0.0 0 0 0 0 0 255
0.445614 0.46962 0.0 0 0 0 0 0 255
0.561558 0.290862 0.0 0 0 0 0 0 255
0.651042 0.416184 0.0 0 0 0 0 0 255
0.748794 0.282372 0.0 0 0 0 0 0 255
0.661338 0.619278 0.0 0 0 0 0 0 255
0.645666 0.705936 0.0 0 0 0 0 0 255
0.178788 1.00317 0.0 0 0 0 0 0 255
0.393636 0.818112 0.0 0 0 0 0 0 255
0.398634 1.000692 0.0 0 0 0 0 0 255
0.178074 1.083498 0.0 0 0 0 0 0 255
0.216918 1.275372 0.0 0 0 0 0 0 255
0.298944 1.418406 0.0 0 0 0 0 0 255
0.216216 1.500744 0.0 0 0 0 0 0 255
0.59586 0.935694 0.0 0 0 0 0 0 255
0.45702 1.064034 0.0 0 0 0 0 0 255
0.738156 0.861288 0.0 0 0 0 0 0 255
0.451404 1.285422 0.0 0 0 0 0 0 255
0.528318 1.192434 0.0 0 0 0 0 0 255
0.661842 1.317072 0.0 0 0 0 0 0 255
0.578454 1.496754 0.0 0 0 0 0 0 255
0.81528 0.665742 0.0 0 0 0 0 0 255
0.835182 0.398106 0.0 0 0 0 0 0 255
0.998064 0.232518 0.0 0 0 0 0 0 255
1.113462 0.41022 0.0 0 0 0 0 0 255
1.07973 0.579252 0.0 0 0 0 0 0 255
1.164774 0.599142 0.0 0 0 0 0 0 255
1.08543 0.65583 0.0 0 0 0 0 0 255
0.931266 0.743022 0.0 0 0 0 0 0 255
1.243422 0.216174 0.0 0 0 0 0 0 255
1.333926 0.312804 0.0 0 0 0 0 0 255
1.413822 0.480426 0.0 0 0 0 0 0 255
1.370874 0.654462 0.0 0 0 0 0 0 255
1.439478 0.708738 0.0 0 0 0 255 0 0
0.899064 0.897438 0.0 0 0 0 0 0 255
0.850794 1.086792 0.0 0 0 0 0 0 255
0.819198 1.253382 0.0 0 0 0 0 0 255
0.3789 1.601928 0.0 0 0 0 0 0 255
0.404184 1.727562 0.0 0 0 0 0 0 255
0.17769 1.865022 0.0 0 0 0 0 0 255
0.113886 2.024292 0.0 0 0 0 0 0 255
0.267576 1.965612 0.0 0 0 0 0 0 255
0.347262 1.968366 0.0 0 0 0 0 0 255
0.36342 2.144286 0.0 0 0 0 0 0 255
0.147972 2.268186 0.0 0 0 0 0 0 255
0.516456 1.54863 0.0 0 0 0 0 0 255
0.63651 1.711164 0.0 0 0 0 0 0 255
0.061068 2.428974 0.0 0 0 0 0 0 255
0.227292 2.269254 0.0 0 0 0 0 0 255

3 108 109 107
3 41 40 35
3 97 91 96
3 101 99 100
3 107 106 108
3 94 119 95
3 4 5 3
3 0 4 3
3 24 26 27
3 40 38 37
3 38 40 41
3 52 51 53
3 46 48 47
3 22 77 75
3 32 76 79
3 80 83 81
3 99 94 93
3 96 91 90
3 102 127 119
3 105 73 74
3 104 85 86
3 110 116 98
3 107 109 110
3 49 50 51
3 102 128 127
3 102 118 128
3 2 3 5
3 3 4 5
3 6 1 2
3 59 9 60
3 9 59 11
3 11 59 64
3 13 15 17
3 34 35 33
3 49 48 47
3 52 46 47
3 55 46 52
3 58 60 57
3 60 61 57
3 64 61 62
3 63 69 68
3 69 63 66
3 71 73 72
3 31 29 21
3 80 79 76
3 80 83 79
3 87 83 85
3 87 81 83
3 42 92 45
3 92 42 89
3 81 79 80
3 79 81 78
3 89 91 92
3 97 100 99
3 97 96 100
3 102 127 99
3 127 119 94
3 94 99 127
3 111 106 105
3 105 74 111
3 103 88 87
3 103 110 98
3 98 88 103
3 110 103 107
3 73 111 74
3 74 113 73
3 111 113 74
3 113 111 112
3 122 121 123
3 52 122 53
3 122 54 53
3 123 121 124
3 121 120 124
3 126 54 122
3 102 127 119
3 127 120 119
3 102 128 127
3 123 124 125
3 56 129 55
3 125 129 130
3 130 126 125
3 126 130 129
3 5 2 1
3 5 3 0
3 5 1 3
3 2 7 6
3 7 8 6
3 59 61 64
3 61 59 60
3 11 64 12
3 62 12 64
3 14 4 0
3 20 18 16
3 17 15 16
3 9 12 11
3 8 19 23
3 17 8 7
3 17 19 8
3 19 25 23
3 25 26 23
3 26 24 23
3 37 40 41
3 40 35 41
3 37 28 40
3 21 20 22
3 18 16 20
3 20 21 18
3 22 20 14
3 16 18 15
3 78 33 34
3 28 24 27
3 38 39 36
3 50 49 44
3 94 95 93
3 95 44 93
3 44 43 45
3 45 93 44
3 47 49 48
3 48 52 47
3 48 49 51
3 51 52 48
3 59 10 9
3 9 60 59
3 10 57 9
3 60 57 58
3 57 10 58
3 60 9 57
3 67 63 66
3 66 65 67
3 62 66 63
3 62 65 66
3 69 70 68
3 66 67 70
3 70 69 66
3 19 18 25
3 18 21 25
3 19 20 18
3 29 21 22
3 20 22 21
3 20 21 18
3 21 29 25
3 22 75 31
3 31 21 22
3 32 75 76
3 32 31 75
3 76 77 80
3 84 83 80
3 77 76 75
3 77 84 80
3 72 84 71
3 84 77 71
3 84 86 85
3 85 77 84
3 84 72 86
3 84 85 83
3 85 86 104
3 104 83 85
3 85 84 86
3 82 35 34
3 82 34 78
3 35 42 41
3 42 89 92
3 82 78 89
3 89 42 82
3 42 35 82
3 45 43 42
3 43 38 42
3 38 43 39
3 38 41 42
3 80 81 90
3 81 88 90
3 80 87 81
3 96 88 98
3 87 98 88
3 87 88 81
3 88 96 90
3 90 82 81
3 82 78 81
3 81 91 90
3 89 90 91
3 89 92 82
3 92 89 91
3 89 82 90
3 99 93 97
3 93 92 97
3 91 92 89
3 45 89 92
3 45 92 93
3 92 91 97
3 101 100 118
3 100 117 118
3 117 98 116
3 116 118 117
3 98 117 96
3 117 100 96
3 102 101 118
3 99 102 127
3 99 118 101
3 99 101 102
3 71 73 72
3 72 86 71
3 105 72 73
3 105 86 72
3 116 110 109
3 109 114 116
3 110 106 109
3 114 108 106
3 108 109 106
3 114 109 108
3 74 106 105
3 105 86 74
3 106 104 105
3 106 107 104
3 104 86 105
3 87 104 103
3 104 87 85
3 104 107 103
3 111 112 106
3 113 108 106
3 106 112 113
3 113 114 108
3 112 114 73
3 113 115 114
3 114 112 113
3 53 51 122
3 121 51 50
3 121 122 51
3 54 56 53
3 55 53 56
3 55 52 53
3 95 50 44
3 119 121 50
3 119 50 95
3 95 44 94
3 94 119 95
3 119 120 121
3 125 123 124
3 125 122 123
3 122 125 130
3 130 126 122
3 123 124 125
3 124 128 125
3 123 120 124
3 120 127 128
3 128 124 120
3 127 120 119
3 120 123 119
3 129 56 126
3 54 56 55
3 56 129 55
3 54 126 56
3 0 6 3
3 3 1 0
3 1 2 6
3 2 3 6
3 1 3 2
3 2 4 5
3 5 7 2
3 4 13 5
3 13 17 7
3 7 5 13
3 65 60 58
3 60 64 58
3 61 64 60
3 65 61 60
3 61 65 62
3 62 64 61
3 68 63 69
3 68 12 63
3 62 12 11
3 62 63 12
3 18 17 16
3 17 18 19
3 9 11 10
3 11 9 12
3 12 10 11
3 23 24 8
3 24 28 36
3 36 8 24
3 24 23 28
3 29 30 25
3 26 25 30
3 41 40 35
3 28 35 40
3 35 28 33
3 33 27 30
3 26 30 27
3 33 28 27
3 13 16 20
3 16 14 20
3 15 14 16
3 13 15 16
3 14 13 4
3 14 15 13
3 80 78 79
3 79 32 80
3 34 79 78
3 34 32 79
3 32 33 31
3 33 29 31
3 33 32 34
3 33 30 29
3 28 37 36
3 36 24 28
3 28 40 37
3 24 40 28
3 38 37 40
3 38 36 37
3 36 39 46
3 39 47 46
3 39 48 47
3 49 43 44
3 43 49 39
3 49 48 39

