ply
format ascii 1.0
comment VCGLIB generated
element vertex 197
property float x
property float y
property float z
property float nx
property float ny
property float nz
property uchar red
property uchar green
property uchar blue
element face 445
property list uchar int vertex_indices
end_header
-0.759246 -0.76914 0.0 0 0 0 0 0 255
-1.141188 -0.716088 0.0 0 0 0 0 0 255
-1.12938 -0.620694 0.0 0 0 0 0 0 255
-0.943896 -0.709188 0.0 0 0 0 0 0 255
-1.037922 -0.470082 0.0 0 0 0 0 0 255
-0.857526 -0.658326 0.0 0 0 0 0 0 255
-0.763602 -0.56661 0.0 0 0 0 0 0 255
-0.887766 -0.512328 0.0 0 0 0 0 0 255
-0.773196 -0.39894 0.0 0 0 0 0 0 255
-0.94347 -0.323844 0.0 0 0 0 0 0 255
-1.136376 -0.339258 0.0 0 0 0 0 0 255
-0.83835 -0.216288 0.0 0 0 0 0 0 255
-0.910656 -0.09078 0.0 0 0 0 0 0 255
-0.809622 -0.05232 0.0 0 0 0 0 0 255
-0.184014 -1.208958 0.0 0 0 0 0 0 255
-0.248538 -1.304508 0.0 0 0 0 255 0 0
-0.01932 -1.319292 0.0 0 0 0 0 0 255
-0.153876 -1.372986 0.0 0 0 0 0 0 255
-0.063414 -1.11963 0.0 0 0 0 0 0 255
-0.095118 -0.89643 0.0 0 0 0 0 0 255
-0.030438 -0.763872 0.0 0 0 0 0 0 255
-0.582126 -0.574146 0.0 0 0 0 0 0 255
-0.670086 -0.450618 0.0 0 0 0 0 0 255
-0.475842 -0.540294 0.0 0 0 0 0 0 255
-0.457962 -0.758148 0.0 0 0 0 0 0 255
-0.541854 -0.40422 0.0 0 0 0 0 0 255
-0.42996 -0.33621 0.0 0 0 0 0 0 255
-0.661512 -0.193458 0.0 0 0 0 0 0 255
-0.531126 -0.071442 0.0 0 0 0 0 0 255
-0.479964 -0.168954 0.0 0 0 0 0 0 255
-0.395694 -0.072882 0.0 0 0 0 0 0 255
-0.568272 0.029238 0.0 0 0 0 0 0 255
-0.21672 -0.319026 0.0 0 0 0 0 0 255
-0.246174 -0.188226 0.0 0 0 0 0 0 255
-0.34209 0.016344 0.0 0 0 0 0 0 255
-0.13797 -0.034854 0.0 0 0 0 0 0 255
0.027336 -0.024474 0.0 0 0 0 0 0 255
-0.775764 0.232824 0.0 0 0 0 0 0 255
-0.678162 0.2013 0.0 0 0 0 0 0 255
-0.65802 0.494646 0.0 0 0 0 0 0 255
-0.519522 0.252714 0.0 0 0 0 0 0 255
-0.368256 0.159684 0.0 0 0 0 0 0 255
-0.347502 0.309294 0.0 0 0 0 0 0 255
-0.487446 0.395436 0.0 0 0 0 0 0 255
-0.605928 0.72342 0.0 0 0 0 0 0 255
-0.520872 0.554142 0.0 0 0 0 0 0 255
-0.521256 0.748818 0.0 0 0 0 0 0 255
-0.176676 0.23112 0.0 0 0 0 0 0 255
-0.299928 0.36915 0.0 0 0 0 0 0 255
-0.154644 0.32712 0.0 0 0 0 0 0 255
-0.091488 0.232842 0.0 0 0 0 0 0 255
0.018018 0.176472 0.0 0 0 0 0 0 255
0.07257 0.36453 0.0 0 0 0 0 0 255
-0.279156 0.513096 0.0 0 0 0 0 0 255
-0.20544 0.538908 0.0 0 0 0 0 0 255
-0.297318 0.594318 0.0 0 0 0 0 0 255
-0.34968 0.71985 0.0 0 0 0 0 0 255
-0.026196 0.59712 0.0 0 0 0 0 0 255
0.02166 0.5265 0.0 0 0 0 0 0 255
-0.16911 0.809076 0.0 0 0 0 0 0 255
-0.557652 0.945072 0.0 0 0 0 0 0 255
-0.617772 1.048482 0.0 0 0 0 0 0 255
-0.4743 0.88932 0.0 0 0 0 0 0 255
-0.485778 1.103562 0.0 0 0 0 0 0 255
-0.334086 1.084536 0.0 0 0 0 0 0 255
-0.555918 1.331736 0.0 0 0 0 0 0 255
-0.379902 1.295334 0.0 0 0 0 0 0 255
-0.333402 0.902052 0.0 0 0 0 0 0 255
-0.17007 0.95556 0.0 0 0 0 0 0 255
0.004554 0.879588 0.0 0 0 0 0 0 255
-0.056184 1.053438 0.0 0 0 0 0 0 255
-0.130506 1.183104 0.0 0 0 0 0 0 255
-0.349068 1.413114 0.0 0 0 0 0 0 255
-0.258222 1.419294 0.0 0 0 0 0 0 255
-0.129282 1.33296 0.0 0 0 0 0 0 255
-0.00354 1.449636 0.0 0 0 0 0 0 255
-0.056508 1.512582 0.0 0 0 0 0 0 255
0.086286 1.38735 0.0 0 0 0 0 0 255
0.026718 1.209036 0.0 0 0 0 0 0 255
-0.496224 1.573836 0.0 0 0 0 0 0 255
-0.410058 1.633014 0.0 0 0 0 0 0 255
-0.333648 1.649082 0.0 0 0 0 0 0 255
-0.207048 1.616892 0.0 0 0 0 0 0 255
-0.266064 1.77585 0.0 0 0 0 0 0 255
0.034044 1.65906 0.0 0 0 0 0 0 255
-0.102876 1.771092 0.0 0 0 0 0 0 255
0.002082 1.843266 0.0 0 0 0 0 0 255
-0.257118 1.929786 0.0 0 0 0 0 0 255
-0.245556 2.168352 0.0 0 0 0 0 0 255
-0.1563 1.956 0.0 0 0 0 0 0 255
0.02223 2.11764 0.0 0 0 0 0 0 255
0.014832 2.208972 0.0 0 0 0 0 0 255
-0.313494 2.239236 0.0 0 0 0 0 0 255
-0.12312 2.264688 0.0 0 0 0 0 0 255
-0.073362 2.34081 0.0 0 0 0 0 0 255
0.052704 -0.897936 0.0 0 0 0 0 0 255
0.103152 -1.475052 0.0 0 0 0 0 0 255
0.18864 -1.530276 0.0 0 0 0 0 0 255
0.228168 -1.627086 0.0 0 0 0 0 0 255
0.073488 -1.196856 0.0 0 0 0 0 0 255
0.19488 -1.195536 0.0 0 0 0 0 0 255
0.257562 -1.365396 0.0 0 0 0 0 0 255
0.292296 -1.179 0.0 0 0 0 0 0 255
0.428688 -1.164042 0.0 0 0 0 0 0 255
0.200652 -0.952938 0.0 0 0 0 0 0 255
0.172446 -0.757536 0.0 0 0 0 0 0 255
0.18042 -1.076646 0.0 0 0 0 0 0 255
0.343896 -0.817026 0.0 0 0 0 0 0 255
0.517026 -1.034904 0.0 0 0 0 0 0 255
0.384252 -0.732756 0.0 0 0 0 0 0 255
0.492738 -0.687894 0.0 0 0 0 0 0 255
0.0261 -0.58437 0.0 0 0 0 0 0 255
0.150276 -0.639774 0.0 0 0 0 0 0 255
0.502926 -0.57261 0.0 0 0 0 255 0 0
0.416016 -0.526602 0.0 0 0 0 0 0 255
0.576384 -0.012702 0.0 0 0 0 0 0 255
0.746202 0.058086 0.0 0 0 0 0 0 255
0.835968 0.079302 0.0 0 0 0 0 0 255
0.97926 -0.00525 0.0 0 0 0 0 0 255
1.107546 0.109218 0.0 0 0 0 0 0 255
0.16533 0.127338 0.0 0 0 0 0 0 255
0.202308 0.2604 0.0 0 0 0 0 0 255
0.293652 0.232932 0.0 0 0 0 0 0 255
0.395178 0.124836 0.0 0 0 0 0 0 255
0.124668 0.522498 0.0 0 0 0 0 0 255
0.122814 0.6834 0.0 0 0 0 0 0 255
0.25644 0.48057 0.0 0 0 0 0 0 255
0.341814 0.461238 0.0 0 0 0 0 0 255
0.407562 0.692496 0.0 0 0 0 0 0 255
0.13464 0.780582 0.0 0 0 0 0 0 255
0.445614 0.46962 0.0 0 0 0 0 0 255
0.561558 0.290862 0.0 0 0 0 0 0 255
0.583776 0.164658 0.0 0 0 0 0 0 255
0.651042 0.416184 0.0 0 0 0 0 0 255
0.583968 0.3693 0.0 0 0 0 0 0 255
0.748794 0.282372 0.0 0 0 0 0 0 255
0.575754 0.752652 0.0 0 0 0 0 0 255
0.661338 0.619278 0.0 0 0 0 0 0 255
0.645666 0.705936 0.0 0 0 0 0 0 255
0.756618 0.539826 0.0 0 0 0 0 0 255
0.220578 0.82557 0.0 0 0 0 0 0 255
0.178788 1.00317 0.0 0 0 0 0 0 255
0.393636 0.818112 0.0 0 0 0 0 0 255
0.398634 1.000692 0.0 0 0 0 0 0 255
0.178074 1.083498 0.0 0 0 0 0 0 255
0.216918 1.275372 0.0 0 0 0 0 0 255
0.229758 1.158312 0.0 0 0 0 0 0 255
0.298944 1.418406 0.0 0 0 0 0 0 255
0.216216 1.500744 0.0 0 0 0 0 0 255
0.59586 0.935694 0.0 0 0 0 0 0 255
0.45702 1.064034 0.0 0 0 0 0 0 255
0.738156 0.861288 0.0 0 0 0 0 0 255
0.747726 1.041258 0.0 0 0 0 0 0 255
0.451404 1.285422 0.0 0 0 0 0 0 255
0.528318 1.192434 0.0 0 0 0 0 0 255
0.602082 1.399512 0.0 0 0 0 0 0 255
0.661842 1.317072 0.0 0 0 0 0 0 255
0.578454 1.496754 0.0 0 0 0 0 0 255
0.81528 0.665742 0.0 0 0 0 0 0 255
0.835182 0.398106 0.0 0 0 0 0 0 255
0.998064 0.232518 0.0 0 0 0 0 0 255
0.937356 0.33219 0.0 0 0 0 0 0 255
1.113462 0.41022 0.0 0 0 0 0 0 255
1.07973 0.579252 0.0 0 0 0 0 0 255
1.164774 0.599142 0.0 0 0 0 0 0 255
1.08543 0.65583 0.0 0 0 0 0 0 255
0.931266 0.743022 0.0 0 0 0 0 0 255
1.243422 0.216174 0.0 0 0 0 0 0 255
1.333926 0.312804 0.0 0 0 0 0 0 255
1.413822 0.480426 0.0 0 0 0 0 0 255
1.264284 0.436452 0.0 0 0 0 0 0 255
1.152408 0.733764 0.0 0 0 0 0 0 255
1.370874 0.654462 0.0 0 0 0 0 0 255
1.439478 0.708738 0.0 0 0 0 255 0 0
1.485414 0.569652 0.0 0 0 0 0 0 255
0.899064 0.897438 0.0 0 0 0 0 0 255
0.850794 1.086792 0.0 0 0 0 0 0 255
0.819198 1.253382 0.0 0 0 0 0 0 255
0.177384 1.629168 0.0 0 0 0 0 0 255
0.3789 1.601928 0.0 0 0 0 0 0 255
0.404184 1.727562 0.0 0 0 0 0 0 255
0.17769 1.865022 0.0 0 0 0 0 0 255
0.113886 2.024292 0.0 0 0 0 0 0 255
0.124416 2.101956 0.0 0 0 0 0 0 255
0.267576 1.965612 0.0 0 0 0 0 0 255
0.347262 1.968366 0.0 0 0 0 0 0 255
0.302334 2.097786 0.0 0 0 0 0 0 255
0.36342 2.144286 0.0 0 0 0 0 0 255
0.147972 2.268186 0.0 0 0 0 0 0 255
0.423636 1.959648 0.0 0 0 0 0 0 255
0.516456 1.54863 0.0 0 0 0 0 0 255
0.467898 1.77573 0.0 0 0 0 0 0 255
0.52209 1.69512 0.0 0 0 0 0 0 255
0.63651 1.711164 0.0 0 0 0 0 0 255
0.237558 2.42118 0.0 0 0 0 0 0 255
0.061068 2.428974 0.0 0 0 0 0 0 255
0.227292 2.269254 0.0 0 0 0 0 0 255

3 49 47 50
3 55 53 54
3 164 165 163
3 171 165 164
3 182 183 90
3 17 14 15
3 28 29 30
3 57 58 125
3 78 71 70
3 93 91 94
3 100 102 106
3 102 100 103
3 137 139 158
3 91 90 183
3 185 186 184
3 185 184 189
3 193 191 192
3 7 3 5
3 3 2 1
3 2 3 4
3 3 7 4
3 4 9 10
3 100 106 99
3 17 16 14
3 21 22 6
3 6 22 8
3 8 7 6
3 28 29 31
3 27 29 28
3 32 35 33
3 35 32 36
3 40 42 43
3 40 41 42
3 44 45 46
3 47 49 48
3 63 61 60
3 68 67 59
3 69 68 59
3 72 66 73
3 93 92 88
3 97 96 98
3 101 102 100
3 113 114 110
3 122 121 120
3 125 58 124
3 58 126 124
3 116 132 115
3 133 134 135
3 142 128 136
3 138 151 136
3 150 143 149
3 153 156 155
3 156 153 154
3 159 135 161
3 163 162 164
3 170 168 169
3 173 172 174
3 147 179 148
3 179 178 148
3 188 91 183
3 186 185 187
3 187 185 189
3 194 188 196
3 3 2 1
3 6 7 5
3 9 8 11
3 22 21 25
3 23 25 21
3 0 6 5
3 19 95 20
3 23 21 24
3 24 23 25
3 26 25 23
3 25 32 26
3 20 112 111
3 112 20 105
3 13 12 27
3 12 13 37
3 34 31 30
3 28 30 31
3 39 43 45
3 45 44 39
3 46 45 56
3 45 55 56
3 60 62 67
3 60 46 62
3 41 47 42
3 47 48 42
3 53 48 54
3 49 48 47
3 48 49 54
3 61 60 62
3 60 46 62
3 44 46 60
3 68 56 59
3 56 55 59
3 67 64 62
3 63 62 64
3 63 60 62
3 64 67 68
3 75 76 74
3 72 74 73
3 72 80 79
3 81 80 72
3 87 85 89
3 85 87 83
3 79 81 80
3 80 81 83
3 84 76 75
3 93 90 91
3 195 92 94
3 94 93 195
3 93 94 92
3 97 96 98
3 20 95 105
3 105 95 104
3 104 107 105
3 102 103 108
3 110 109 107
3 107 110 109
3 109 105 107
3 110 114 109
3 51 120 50
3 36 120 51
3 36 123 120
3 124 52 126
3 126 127 124
3 52 121 126
3 133 139 137
3 134 131 133
3 132 133 131
3 127 130 128
3 141 69 129
3 69 141 70
3 140 144 141
3 140 141 129
3 140 141 129
3 146 144 143
3 145 77 78
3 77 74 78
3 77 75 74
3 74 71 78
3 153 147 145
3 136 149 142
3 149 143 142
3 142 138 136
3 151 136 138
3 151 149 136
3 157 190 179
3 190 192 179
3 157 192 190
3 192 191 180
3 180 179 192
3 152 175 176
3 116 135 132
3 135 131 132
3 134 135 159
3 135 134 131
3 119 161 160
3 160 118 119
3 133 159 139
3 159 133 135
3 166 175 151
3 161 160 162
3 159 160 161
3 163 165 166
3 171 164 172
3 171 162 164
3 170 164 162
3 84 181 86
3 82 84 85
3 84 82 76
3 84 86 85
3 86 89 85
3 89 86 182
3 191 185 180
3 179 191 180
3 185 191 189
3 184 183 182
3 184 186 183
3 196 183 186
3 186 184 187
3 187 196 186
3 196 188 183
3 177 155 156
3 177 157 155
3 157 193 190
3 190 155 157
3 192 190 193
3 157 177 193
3 187 191 189
3 189 193 187
3 193 189 191
3 194 195 188
3 195 91 188
3 91 94 93
3 91 195 94
3 187 194 196
3 1 0 3
3 3 5 1
3 5 3 0
3 4 5 7
3 7 9 4
3 5 6 7
3 7 6 8
3 8 9 7
3 1 4 2
3 2 10 1
3 10 2 4
3 12 11 13
3 9 12 10
3 9 11 12
3 100 99 101
3 99 16 101
3 101 16 96
3 96 97 101
3 96 16 17
3 16 14 17
3 96 99 16
3 16 99 18
3 18 14 16
3 104 95 106
3 95 18 106
3 95 19 18
3 18 99 106
3 21 0 24
3 0 21 6
3 13 11 27
3 11 8 27
3 22 27 8
3 22 25 27
3 24 32 23
3 26 23 32
3 32 33 26
3 26 25 32
3 33 29 26
3 25 29 27
3 30 27 29
3 30 29 33
3 29 25 26
3 111 19 20
3 20 18 111
3 19 14 18
3 18 20 19
3 13 38 37
3 13 31 38
3 27 31 13
3 13 37 12
3 12 27 13
3 27 28 31
3 41 31 34
3 31 40 38
3 31 41 40
3 38 39 37
3 40 43 39
3 39 38 40
3 45 53 55
3 43 48 53
3 43 53 45
3 43 42 48
3 62 56 67
3 62 46 56
3 56 59 67
3 32 33 30
3 33 34 30
3 35 32 36
3 35 34 33
3 36 34 35
3 35 33 32
3 52 49 50
3 58 52 124
3 49 47 50
3 49 58 54
3 54 47 49
3 58 124 57
3 57 54 58
3 49 52 58
3 39 44 61
3 61 37 39
3 39 46 44
3 37 46 39
3 44 46 60
3 60 61 44
3 65 63 66
3 64 63 61
3 63 65 61
3 64 66 63
3 129 69 125
3 59 69 68
3 69 57 125
3 57 59 54
3 59 68 55
3 55 54 59
3 57 69 59
3 73 66 74
3 66 71 74
3 71 66 64
3 64 68 71
3 65 72 79
3 72 65 66
3 82 73 76
3 73 74 76
3 81 72 73
3 73 82 81
3 72 74 73
3 82 81 80
3 81 83 80
3 82 83 81
3 85 87 83
3 83 82 85
3 87 80 83
3 145 147 77
3 77 75 145
3 147 148 77
3 75 178 84
3 148 147 178
3 178 75 148
3 75 77 148
3 80 83 87
3 87 79 80
3 87 88 92
3 92 79 87
3 17 96 16
3 96 17 98
3 98 16 96
3 98 101 97
3 101 102 97
3 98 103 101
3 102 103 108
3 103 98 108
3 102 101 103
3 107 104 108
3 108 110 107
3 102 103 104
3 106 102 104
3 103 108 104
3 105 112 111
3 112 109 114
3 114 111 112
3 112 105 109
3 117 116 118
3 115 118 116
3 41 34 47
3 34 35 47
3 50 35 51
3 36 51 35
3 50 47 35
3 120 123 122
3 52 51 121
3 51 52 50
3 51 120 121
3 133 134 131
3 134 133 130
3 130 131 134
3 131 130 122
3 122 130 127
3 122 121 123
3 127 126 121
3 121 122 127
3 127 130 126
3 122 123 131
3 115 132 123
3 131 123 132
3 137 136 128
3 137 138 136
3 137 130 133
3 134 133 130
3 137 128 130
3 70 144 78
3 146 145 78
3 146 144 141
3 144 70 141
3 146 78 144
3 71 68 70
3 69 70 68
3 124 126 125
3 128 126 127
3 126 128 125
3 140 125 128
3 128 136 142
3 142 140 128
3 128 127 136
3 140 129 125
3 143 140 142
3 141 143 144
3 141 140 143
3 146 153 145
3 150 154 153
3 146 143 150
3 150 153 146
3 149 151 152
3 175 152 151
3 150 149 154
3 152 156 154
3 177 152 176
3 149 176 152
3 149 152 154
3 152 177 156
3 153 155 157
3 157 190 153
3 190 179 147
3 147 153 190
3 118 117 116
3 117 135 116
3 118 160 117
3 135 161 159
3 161 135 160
3 135 117 160
3 168 170 167
3 170 162 167
3 167 162 160
3 160 119 167
3 166 171 175
3 171 166 165
3 158 138 137
3 158 166 151
3 151 138 158
3 166 158 163
3 158 139 163
3 161 163 159
3 139 159 163
3 163 161 162
3 164 170 172
3 172 170 169
3 169 174 172
3 118 167 119
3 119 169 118
3 167 169 119
3 168 174 169
3 169 167 168
3 174 118 169
3 85 181 86
3 86 182 85
3 182 181 184
3 182 86 181
3 87 182 89
3 89 88 87
3 182 90 89
3 90 93 88
3 88 89 90
3 184 181 185
3 181 180 185
3 180 178 179
3 84 178 181
3 178 180 181

