ply
format ascii 1.0
comment VCGLIB generated
element vertex 328
property float x
property float y
property float z
property float nx
property float ny
property float nz
property uchar red
property uchar green
property uchar blue
element face 643
property list uchar int vertex_indices
end_header
-0.023922 -1.466034 0.0 0 0 0 0 0 255
-0.003882 -1.630458 0.0 0 0 0 0 0 255
-0.937512 -0.794508 0.0 0 0 0 0 0 255
-0.759246 -0.76914 0.0 0 0 0 0 0 255
-1.141188 -0.716088 0.0 0 0 0 0 0 255
-1.259004 -0.5964 0.0 0 0 0 0 0 255
-1.12938 -0.620694 0.0 0 0 0 0 0 255
-0.943896 -0.709188 0.0 0 0 0 0 0 255
-1.037922 -0.470082 0.0 0 0 0 0 0 255
-0.938328 -0.455208 0.0 0 0 0 0 0 255
-0.857526 -0.658326 0.0 0 0 0 0 0 255
-0.763602 -0.56661 0.0 0 0 0 0 0 255
-0.887766 -0.512328 0.0 0 0 0 0 0 255
-0.773196 -0.39894 0.0 0 0 0 0 0 255
-0.94347 -0.323844 0.0 0 0 0 0 0 255
-1.136376 -0.339258 0.0 0 0 0 0 0 255
-0.907812 -0.167988 0.0 0 0 0 0 0 255
-0.83835 -0.216288 0.0 0 0 0 0 0 255
-0.910656 -0.09078 0.0 0 0 0 0 0 255
-0.809622 -0.05232 0.0 0 0 0 0 0 255
-0.738552 -0.242856 0.0 0 0 0 0 0 255
-0.184014 -1.208958 0.0 0 0 0 0 0 255
-0.248538 -1.304508 0.0 0 0 0 255 0 0
-0.01932 -1.319292 0.0 0 0 0 0 0 255
-0.153876 -1.372986 0.0 0 0 0 0 0 255
-0.023592 -1.204842 0.0 0 0 0 0 0 255
-0.063414 -1.11963 0.0 0 0 0 0 0 255
0.001602 -1.000704 0.0 0 0 0 0 0 255
-0.171822 -0.896316 0.0 0 0 0 0 0 255
-0.095118 -0.89643 0.0 0 0 0 0 0 255
-0.030438 -0.763872 0.0 0 0 0 0 0 255
-0.639162 -0.67203 0.0 0 0 0 0 0 255
-0.582126 -0.574146 0.0 0 0 0 0 0 255
-0.670086 -0.450618 0.0 0 0 0 0 0 255
-0.475842 -0.540294 0.0 0 0 0 0 0 255
-0.457962 -0.758148 0.0 0 0 0 0 0 255
-0.541854 -0.40422 0.0 0 0 0 0 0 255
-0.42996 -0.33621 0.0 0 0 0 0 0 255
-0.661512 -0.193458 0.0 0 0 0 0 0 255
-0.531126 -0.071442 0.0 0 0 0 0 0 255
-0.43245 -0.248244 0.0 0 0 0 0 0 255
-0.479964 -0.168954 0.0 0 0 0 0 0 255
-0.395694 -0.072882 0.0 0 0 0 0 0 255
-0.568272 0.029238 0.0 0 0 0 0 0 255
-0.336438 -0.48441 0.0 0 0 0 0 0 255
-0.21672 -0.319026 0.0 0 0 0 0 0 255
-0.28839 -0.081522 0.0 0 0 0 0 0 255
-0.246174 -0.188226 0.0 0 0 0 0 0 255
-0.34209 0.016344 0.0 0 0 0 0 0 255
-0.242076 -0.018042 0.0 0 0 0 0 0 255
-0.13797 -0.034854 0.0 0 0 0 0 0 255
-0.016092 0.060858 0.0 0 0 0 0 0 255
0.027336 -0.024474 0.0 0 0 0 0 0 255
-0.686364 0.053052 0.0 0 0 0 0 0 255
-0.8535 0.131022 0.0 0 0 0 0 0 255
-0.775764 0.232824 0.0 0 0 0 0 0 255
-0.654018 0.383022 0.0 0 0 0 0 0 255
-0.678162 0.2013 0.0 0 0 0 0 0 255
-0.65802 0.494646 0.0 0 0 0 0 0 255
-0.772482 0.512652 0.0 0 0 0 0 0 255
-0.522666 0.092298 0.0 0 0 0 0 0 255
-0.623946 0.30501 0.0 0 0 0 0 0 255
-0.519522 0.252714 0.0 0 0 0 0 0 255
-0.494388 0.166962 0.0 0 0 0 0 0 255
-0.368256 0.159684 0.0 0 0 0 0 0 255
-0.347502 0.309294 0.0 0 0 0 0 0 255
-0.487446 0.395436 0.0 0 0 0 0 0 255
-0.597804 0.544374 0.0 0 0 0 0 0 255
-0.68694 0.719544 0.0 0 0 0 0 0 255
-0.605928 0.72342 0.0 0 0 0 0 0 255
-0.31881 0.445572 0.0 0 0 0 0 0 255
-0.520872 0.554142 0.0 0 0 0 0 0 255
-0.521256 0.748818 0.0 0 0 0 0 0 255
-0.448104 0.580446 0.0 0 0 0 0 0 255
-0.304968 0.213612 0.0 0 0 0 0 0 255
-0.176676 0.23112 0.0 0 0 0 0 0 255
-0.299928 0.36915 0.0 0 0 0 0 0 255
-0.154644 0.32712 0.0 0 0 0 0 0 255
-0.17556 0.136092 0.0 0 0 0 0 0 255
-0.091488 0.232842 0.0 0 0 0 0 0 255
0.018018 0.176472 0.0 0 0 0 0 0 255
0.07257 0.36453 0.0 0 0 0 0 0 255
-0.014172 0.432024 0.0 0 0 0 0 0 255
-0.100026 0.440268 0.0 0 0 0 0 0 255
-0.279156 0.513096 0.0 0 0 0 0 0 255
-0.20544 0.538908 0.0 0 0 0 0 0 255
-0.297318 0.594318 0.0 0 0 0 0 0 255
-0.34968 0.71985 0.0 0 0 0 0 0 255
-0.154812 0.639036 0.0 0 0 0 0 0 255
-0.026196 0.59712 0.0 0 0 0 0 0 255
0.02166 0.5265 0.0 0 0 0 0 0 255
-0.093354 0.73263 0.0 0 0 0 0 0 255
0.018708 0.765888 0.0 0 0 0 0 0 255
-0.16911 0.809076 0.0 0 0 0 0 0 255
-0.60669 0.865386 0.0 0 0 0 0 0 255
-0.557652 0.945072 0.0 0 0 0 0 0 255
-0.617772 1.048482 0.0 0 0 0 0 0 255
-0.4743 0.88932 0.0 0 0 0 0 0 255
-0.399426 0.845322 0.0 0 0 0 0 0 255
-0.330264 0.811284 0.0 0 0 0 0 0 255
-0.485778 1.103562 0.0 0 0 0 0 0 255
-0.431856 1.03668 0.0 0 0 0 0 0 255
-0.334086 1.084536 0.0 0 0 0 0 0 255
-0.579366 1.210368 0.0 0 0 0 0 0 255
-0.48498 1.18332 0.0 0 0 0 0 0 255
-0.555918 1.331736 0.0 0 0 0 0 0 255
-0.515916 1.46799 0.0 0 0 0 0 0 255
-0.436074 1.41897 0.0 0 0 0 0 0 255
-0.379902 1.295334 0.0 0 0 0 0 0 255
-0.333402 0.902052 0.0 0 0 0 0 0 255
-0.17007 0.95556 0.0 0 0 0 0 0 255
-0.205746 1.032288 0.0 0 0 0 0 0 255
0.004554 0.879588 0.0 0 0 0 0 0 255
-0.100992 0.991704 0.0 0 0 0 0 0 255
-0.056184 1.053438 0.0 0 0 0 0 0 255
-0.130506 1.183104 0.0 0 0 0 0 0 255
-0.278226 1.23675 0.0 0 0 0 0 0 255
-0.205314 1.199412 0.0 0 0 0 0 0 255
-0.349068 1.413114 0.0 0 0 0 0 0 255
-0.258222 1.419294 0.0 0 0 0 0 0 255
-0.129282 1.33296 0.0 0 0 0 0 0 255
-0.199578 1.481148 0.0 0 0 0 0 0 255
-0.109812 1.437882 0.0 0 0 0 0 0 255
-0.00354 1.449636 0.0 0 0 0 0 0 255
0.013884 1.284714 0.0 0 0 0 0 0 255
-0.056508 1.512582 0.0 0 0 0 0 0 255
0.086286 1.38735 0.0 0 0 0 0 0 255
0.026718 1.209036 0.0 0 0 0 0 0 255
-0.62583 1.505892 0.0 0 0 0 0 0 255
-0.496224 1.573836 0.0 0 0 0 0 0 255
-0.410058 1.633014 0.0 0 0 0 0 0 255
-0.442962 1.792902 0.0 0 0 0 0 0 255
-0.333648 1.649082 0.0 0 0 0 0 0 255
-0.288414 1.583112 0.0 0 0 0 0 0 255
-0.207048 1.616892 0.0 0 0 0 0 0 255
-0.265614 1.69071 0.0 0 0 0 0 0 255
-0.266064 1.77585 0.0 0 0 0 0 0 255
-0.387114 1.922766 0.0 0 0 0 0 0 255
-0.07134 1.686732 0.0 0 0 0 0 0 255
0.034044 1.65906 0.0 0 0 0 0 0 255
-0.199056 1.822788 0.0 0 0 0 0 0 255
-0.102876 1.771092 0.0 0 0 0 0 0 255
0.002082 1.843266 0.0 0 0 0 0 0 255
-0.257118 1.929786 0.0 0 0 0 0 0 255
-0.30438 2.080554 0.0 0 0 0 0 0 255
-0.245556 2.168352 0.0 0 0 0 0 0 255
-0.147474 2.03883 0.0 0 0 0 0 0 255
-0.1563 1.956 0.0 0 0 0 0 0 255
-0.03606 1.951152 0.0 0 0 0 0 0 255
-0.13725 2.122374 0.0 0 0 0 0 0 255
0.02223 2.11764 0.0 0 0 0 0 0 255
0.014832 2.208972 0.0 0 0 0 0 0 255
-0.313494 2.239236 0.0 0 0 0 0 0 255
-0.12312 2.264688 0.0 0 0 0 0 0 255
-0.073362 2.34081 0.0 0 0 0 0 0 255
-0.102336 2.45706 0.0 0 0 0 0 0 255
0.067326 2.347584 0.0 0 0 0 0 0 255
0.052704 -0.897936 0.0 0 0 0 0 0 255
0.103152 -1.475052 0.0 0 0 0 0 0 255
0.18864 -1.530276 0.0 0 0 0 0 0 255
0.228168 -1.627086 0.0 0 0 0 0 0 255
0.383724 -1.495308 0.0 0 0 0 0 0 255
0.154158 -1.359024 0.0 0 0 0 0 0 255
0.073488 -1.196856 0.0 0 0 0 0 0 255
0.19488 -1.195536 0.0 0 0 0 0 0 255
0.257562 -1.365396 0.0 0 0 0 0 0 255
0.414096 -1.406904 0.0 0 0 0 0 0 255
0.404016 -1.305582 0.0 0 0 0 0 0 255
0.292296 -1.179 0.0 0 0 0 0 0 255
0.428688 -1.164042 0.0 0 0 0 0 0 255
0.200652 -0.952938 0.0 0 0 0 0 0 255
0.143208 -0.871866 0.0 0 0 0 0 0 255
0.172446 -0.757536 0.0 0 0 0 0 0 255
0.18042 -1.076646 0.0 0 0 0 0 0 255
0.32079 -1.00251 0.0 0 0 0 0 0 255
0.343896 -0.817026 0.0 0 0 0 0 0 255
0.409344 -0.978546 0.0 0 0 0 0 0 255
0.320346 -0.690816 0.0 0 0 0 0 0 255
0.517026 -1.034904 0.0 0 0 0 0 0 255
0.513678 -0.84681 0.0 0 0 0 0 0 255
0.384252 -0.732756 0.0 0 0 0 0 0 255
0.492738 -0.687894 0.0 0 0 0 0 0 255
0.0261 -0.58437 0.0 0 0 0 0 0 255
0.150276 -0.639774 0.0 0 0 0 0 0 255
0.209232 -0.557178 0.0 0 0 0 0 0 255
0.285834 -0.602178 0.0 0 0 0 0 0 255
0.502926 -0.57261 0.0 0 0 0 255 0 0
0.416016 -0.526602 0.0 0 0 0 0 0 255
0.737748 -0.034788 0.0 0 0 0 0 0 255
0.576384 -0.012702 0.0 0 0 0 0 0 255
0.746202 0.058086 0.0 0 0 0 0 0 255
0.835614 -0.078276 0.0 0 0 0 0 0 255
0.835968 0.079302 0.0 0 0 0 0 0 255
0.97926 -0.00525 0.0 0 0 0 0 0 255
1.142376 -0.0015 0.0 0 0 0 0 0 255
1.107546 0.109218 0.0 0 0 0 0 0 255
0.074022 0.2334 0.0 0 0 0 0 0 255
0.16533 0.127338 0.0 0 0 0 0 0 255
0.147306 0.20445 0.0 0 0 0 0 0 255
0.202308 0.2604 0.0 0 0 0 0 0 255
0.308508 0.151956 0.0 0 0 0 0 0 255
0.293652 0.232932 0.0 0 0 0 0 0 255
0.35406 0.056268 0.0 0 0 0 0 0 255
0.219594 0.365742 0.0 0 0 0 0 0 255
0.393564 0.335886 0.0 0 0 0 0 0 255
0.395178 0.124836 0.0 0 0 0 0 0 255
0.124668 0.522498 0.0 0 0 0 0 0 255
0.122814 0.6834 0.0 0 0 0 0 0 255
0.231216 0.644298 0.0 0 0 0 0 0 255
0.25644 0.48057 0.0 0 0 0 0 0 255
0.341814 0.461238 0.0 0 0 0 0 0 255
0.298128 0.684738 0.0 0 0 0 0 0 255
0.407562 0.692496 0.0 0 0 0 0 0 255
0.13464 0.780582 0.0 0 0 0 0 0 255
0.445614 0.46962 0.0 0 0 0 0 0 255
0.531168 0.108204 0.0 0 0 0 0 0 255
0.481116 0.275682 0.0 0 0 0 0 0 255
0.561558 0.290862 0.0 0 0 0 0 0 255
0.583776 0.164658 0.0 0 0 0 0 0 255
0.698202 0.220602 0.0 0 0 0 0 0 255
0.651042 0.416184 0.0 0 0 0 0 0 255
0.583968 0.3693 0.0 0 0 0 0 0 255
0.748794 0.282372 0.0 0 0 0 0 0 255
0.50568 0.559212 0.0 0 0 0 0 0 255
0.584274 0.525708 0.0 0 0 0 0 0 255
0.462654 0.63588 0.0 0 0 0 0 0 255
0.575754 0.752652 0.0 0 0 0 0 0 255
0.661338 0.619278 0.0 0 0 0 0 0 255
0.757968 0.446286 0.0 0 0 0 0 0 255
0.645666 0.705936 0.0 0 0 0 0 0 255
0.736092 0.718926 0.0 0 0 0 0 0 255
0.756618 0.539826 0.0 0 0 0 0 0 255
0.220578 0.82557 0.0 0 0 0 0 0 255
0.074502 0.97692 0.0 0 0 0 0 0 255
0.178788 1.00317 0.0 0 0 0 0 0 255
0.071382 1.128516 0.0 0 0 0 0 0 255
0.291918 0.867852 0.0 0 0 0 0 0 255
0.393636 0.818112 0.0 0 0 0 0 0 255
0.247056 0.945924 0.0 0 0 0 0 0 255
0.398634 1.000692 0.0 0 0 0 0 0 255
0.178074 1.083498 0.0 0 0 0 0 0 255
0.265932 1.081164 0.0 0 0 0 0 0 255
0.216918 1.275372 0.0 0 0 0 0 0 255
0.13854 1.443168 0.0 0 0 0 0 0 255
0.229758 1.158312 0.0 0 0 0 0 0 255
0.366696 1.267698 0.0 0 0 0 0 0 255
0.37893 1.143018 0.0 0 0 0 0 0 255
0.298944 1.418406 0.0 0 0 0 0 0 255
0.398304 1.414812 0.0 0 0 0 0 0 255
0.216216 1.500744 0.0 0 0 0 0 0 255
0.56043 0.841236 0.0 0 0 0 0 0 255
0.59586 0.935694 0.0 0 0 0 0 0 255
0.45702 1.064034 0.0 0 0 0 0 0 255
0.600426 1.039878 0.0 0 0 0 0 0 255
0.738156 0.861288 0.0 0 0 0 0 0 255
0.747726 1.041258 0.0 0 0 0 0 0 255
0.656796 1.112118 0.0 0 0 0 0 0 255
0.707346 0.932352 0.0 0 0 0 0 0 255
0.451404 1.285422 0.0 0 0 0 0 0 255
0.528318 1.192434 0.0 0 0 0 0 0 255
0.468282 1.38252 0.0 0 0 0 0 0 255
0.602082 1.399512 0.0 0 0 0 0 0 255
0.661842 1.317072 0.0 0 0 0 0 0 255
0.715446 1.194762 0.0 0 0 0 0 0 255
0.578454 1.496754 0.0 0 0 0 0 0 255
0.81528 0.665742 0.0 0 0 0 0 0 255
0.858366 0.16338 0.0 0 0 0 0 0 255
0.935514 0.176958 0.0 0 0 0 0 0 255
0.835182 0.398106 0.0 0 0 0 0 0 255
1.147068 0.21018 0.0 0 0 0 0 0 255
0.998064 0.232518 0.0 0 0 0 0 0 255
0.937356 0.33219 0.0 0 0 0 0 0 255
1.159548 0.315198 0.0 0 0 0 0 0 255
1.113462 0.41022 0.0 0 0 0 0 0 255
0.984804 0.409578 0.0 0 0 0 0 0 255
0.936012 0.474708 0.0 0 0 0 0 0 255
0.904386 0.568476 0.0 0 0 0 0 0 255
1.07973 0.579252 0.0 0 0 0 0 0 255
1.164774 0.599142 0.0 0 0 0 0 0 255
1.08543 0.65583 0.0 0 0 0 0 0 255
0.931266 0.743022 0.0 0 0 0 0 0 255
1.243422 0.216174 0.0 0 0 0 0 0 255
1.333926 0.312804 0.0 0 0 0 0 0 255
1.397586 0.24693 0.0 0 0 0 0 0 255
1.527378 0.409626 0.0 0 0 0 0 0 255
1.413822 0.480426 0.0 0 0 0 0 0 255
1.264284 0.436452 0.0 0 0 0 0 0 255
1.25058 0.559272 0.0 0 0 0 0 0 255
1.326648 0.564762 0.0 0 0 0 0 0 255
1.152408 0.733764 0.0 0 0 0 0 0 255
1.370874 0.654462 0.0 0 0 0 0 0 255
1.439478 0.708738 0.0 0 0 0 255 0 0
1.485414 0.569652 0.0 0 0 0 0 0 255
0.869736 0.812664 0.0 0 0 0 0 0 255
0.899064 0.897438 0.0 0 0 0 0 0 255
0.850794 1.086792 0.0 0 0 0 0 0 255
0.920766 0.97338 0.0 0 0 0 0 0 255
1.018584 0.809442 0.0 0 0 0 0 0 255
0.819198 1.253382 0.0 0 0 0 0 0 255
0.093636 1.592856 0.0 0 0 0 0 0 255
0.177384 1.629168 0.0 0 0 0 0 0 255
0.13365 1.787346 0.0 0 0 0 0 0 255
0.23724 1.722462 0.0 0 0 0 0 0 255
0.3789 1.601928 0.0 0 0 0 0 0 255
0.335166 1.76526 0.0 0 0 0 0 0 255
0.404184 1.727562 0.0 0 0 0 0 0 255
0.17769 1.865022 0.0 0 0 0 0 0 255
0.136044 1.933962 0.0 0 0 0 0 0 255
0.113886 2.024292 0.0 0 0 0 0 0 255
0.124416 2.101956 0.0 0 0 0 0 0 255
0.202122 2.14662 0.0 0 0 0 0 0 255
0.267576 1.965612 0.0 0 0 0 0 0 255
0.347262 1.968366 0.0 0 0 0 0 0 255
0.302334 2.097786 0.0 0 0 0 0 0 255
0.36342 2.144286 0.0 0 0 0 0 0 255
0.147972 2.268186 0.0 0 0 0 0 0 255
0.423636 1.959648 0.0 0 0 0 0 0 255
0.450888 1.666926 0.0 0 0 0 0 0 255
0.516456 1.54863 0.0 0 0 0 0 0 255
0.626208 1.560594 0.0 0 0 0 0 0 255
0.467898 1.77573 0.0 0 0 0 0 0 255
0.52209 1.69512 0.0 0 0 0 0 0 255
0.63651 1.711164 0.0 0 0 0 0 0 255
0.490224 2.02617 0.0 0 0 0 0 0 255
0.237558 2.42118 0.0 0 0 0 0 0 255
0.061068 2.428974 0.0 0 0 0 0 0 255
0.227292 2.269254 0.0 0 0 0 0 0 255
0.386052 2.21757 0.0 0 0 0 0 0 255

3 42 46 48
3 48 46 49
3 77 75 79
3 75 78 79
3 86 84 85
3 109 98 99
3 113 111 110
3 108 118 107
3 125 122 123
3 133 134 135
3 132 133 135
3 147 143 140
3 180 177 175
3 200 202 205
3 214 210 204
3 227 230 229
3 207 213 92
3 232 236 238
3 241 244 240
3 240 234 241
3 268 274 275
3 268 271 274
3 278 279 277
3 272 269 281
3 289 279 278
3 308 309 150
3 305 317 320
3 321 320 317
3 320 304 305
3 319 318 264
3 315 310 326
3 24 21 22
3 163 26 25
3 39 41 42
3 51 50 52
3 57 62 61
3 65 64 74
3 94 68 69
3 98 87 99
3 99 97 98
3 87 98 72
3 82 83 77
3 88 85 91
3 85 88 86
3 88 91 93
3 90 83 82
3 89 91 88
3 89 90 207
3 91 92 112
3 98 109 97
3 104 108 105
3 103 104 105
3 117 102 111
3 102 117 116
3 127 114 235
3 127 115 114
3 120 117 115
3 122 121 119
3 134 133 121
3 122 120 123
3 124 126 123
3 122 125 121
3 125 134 121
3 129 128 106
3 130 132 131
3 136 140 143
3 123 126 243
3 123 299 125
3 141 147 140
3 148 141 142
3 148 147 141
3 152 144 145
3 146 147 148
3 150 149 146
3 153 145 149
3 153 151 154
3 162 165 164
3 165 166 167
3 164 168 173
3 168 164 169
3 171 157 170
3 184 182 183
3 185 187 184
3 196 80 198
3 80 197 198
3 188 192 190
3 188 191 192
3 266 192 267
3 200 197 202
3 196 198 199
3 81 199 203
3 81 196 199
3 203 210 209
3 82 206 90
3 82 81 206
3 225 214 223
3 217 216 218
3 216 217 221
3 205 189 215
3 223 224 227
3 220 231 224
3 231 220 228
3 231 227 224
3 227 265 230
3 227 231 265
3 112 92 213
3 233 234 240
3 236 237 239
3 246 239 252
3 235 240 244
3 247 249 243
3 242 247 243
3 246 244 241
3 246 245 244
3 248 245 258
3 258 260 248
3 245 246 258
3 246 259 258
3 259 246 252
3 253 255 256
3 257 253 251
3 257 255 253
3 255 263 256
3 260 261 264
3 298 262 263
3 271 267 270
3 280 293 265
3 195 281 269
3 282 281 283
3 273 272 286
3 286 288 287
3 286 285 288
3 292 288 285
3 292 290 288
3 284 292 285
3 293 297 294
3 297 293 280
3 302 301 300
3 139 299 300
3 148 142 307
3 301 307 142
3 301 306 307
3 317 305 303
3 302 306 301
3 306 302 304
3 307 306 311
3 310 315 309
3 151 150 309
3 312 313 311
3 312 311 316
3 310 313 314
3 326 310 314
3 321 318 319
3 321 317 318
3 322 320 321
3 0 24 1
3 5 4 6
3 8 12 9
3 12 7 10
3 7 6 4
3 6 7 8
3 7 12 8
3 10 2 3
3 2 10 7
3 8 14 15
3 14 8 9
3 16 14 17
3 9 13 14
3 9 12 13
3 18 16 19
3 16 17 19
3 38 19 20
3 17 20 19
3 23 158 162
3 23 163 25
3 164 173 163
3 24 23 21
3 25 21 23
3 25 26 21
3 29 30 28
3 171 30 157
3 30 171 172
3 32 33 11
3 11 33 13
3 13 12 11
3 39 41 43
3 38 41 39
3 37 44 45
3 45 47 46
3 47 50 46
3 45 50 47
3 49 50 52
3 50 45 52
3 49 46 50
3 18 19 54
3 19 53 54
3 57 54 53
3 54 57 55
3 58 59 56
3 56 61 58
3 59 55 56
3 61 55 57
3 61 56 55
3 57 63 62
3 57 60 63
3 60 57 53
3 53 43 60
3 63 60 64
3 60 48 64
3 42 60 39
3 60 63 43
3 43 39 60
3 42 48 60
3 48 78 64
3 78 74 64
3 48 49 78
3 78 75 74
3 64 62 63
3 62 65 66
3 62 64 65
3 68 69 72
3 69 71 72
3 68 67 69
3 67 58 71
3 71 69 67
3 59 58 68
3 58 67 68
3 56 66 58
3 66 67 58
3 66 56 61
3 62 66 61
3 66 71 67
3 70 65 76
3 76 84 70
3 73 84 86
3 84 73 70
3 66 70 73
3 71 66 73
3 66 65 70
3 71 73 72
3 73 86 87
3 87 72 73
3 73 71 86
3 98 95 97
3 97 72 98
3 95 94 97
3 94 69 72
3 72 97 94
3 76 84 70
3 70 65 76
3 74 76 65
3 76 74 75
3 84 83 85
3 75 83 77
3 75 77 76
3 77 83 76
3 76 83 84
3 50 78 49
3 51 79 78
3 78 50 51
3 51 80 79
3 88 85 89
3 83 89 85
3 83 90 89
3 92 89 207
3 89 92 91
3 68 95 94
3 94 96 68
3 96 94 95
3 109 101 97
3 101 95 97
3 95 101 100
3 100 96 95
3 96 100 103
3 104 103 100
3 106 105 107
3 106 128 105
3 105 108 107
3 110 109 93
3 93 88 110
3 109 99 93
3 88 87 86
3 99 109 87
3 99 87 93
3 87 88 93
3 111 109 110
3 109 102 101
3 109 111 102
3 101 102 100
3 102 104 100
3 102 116 108
3 108 104 102
3 110 112 113
3 112 93 91
3 112 110 93
3 114 111 113
3 111 115 117
3 111 114 115
3 122 118 119
3 119 120 122
3 118 108 119
3 120 116 117
3 108 116 119
3 116 120 119
3 132 130 133
3 133 121 132
3 107 130 129
3 130 118 133
3 119 133 118
3 129 106 107
3 130 107 118
3 133 119 121
3 127 123 124
3 124 115 127
3 120 124 123
3 120 115 124
3 140 135 141
3 134 138 141
3 140 136 135
3 135 134 141
3 129 130 131
3 131 136 137
3 136 143 137
3 136 132 135
3 135 143 136
3 136 131 132
3 299 139 125
3 125 139 138
3 138 134 125
3 300 299 249
3 299 123 243
3 243 249 299
3 152 137 144
3 144 143 152
3 143 144 137
3 145 146 149
3 146 147 149
3 145 144 146
3 146 144 143
3 143 147 146
3 325 154 156
3 155 153 154
3 154 325 155
3 153 156 154
3 151 149 150
3 149 151 153
3 155 153 154
3 153 152 145
3 153 155 152
3 159 1 160
3 158 0 1
3 1 159 158
3 166 165 161
3 165 159 161
3 159 165 162
3 159 158 160
3 158 159 162
3 159 160 161
3 165 168 164
3 168 167 169
3 168 165 167
3 174 173 168
3 173 174 170
3 175 177 172
3 177 183 172
3 183 177 185
3 185 184 183
3 172 171 175
3 174 176 175
3 170 175 171
3 170 174 175
3 167 178 169
3 174 169 176
3 169 174 168
3 169 178 176
3 179 176 178
3 175 179 180
3 175 176 179
3 180 179 181
3 186 187 181
3 177 180 181
3 187 185 177
3 177 181 187
3 189 191 188
3 193 192 191
3 197 52 202
3 197 80 51
3 51 52 197
3 198 197 199
3 197 200 201
3 201 199 197
3 80 196 79
3 196 81 79
3 82 79 81
3 82 77 79
3 203 204 210
3 201 203 199
3 201 204 203
3 81 203 206
3 209 206 203
3 208 206 209
3 207 90 206
3 206 208 207
3 90 209 206
3 210 211 209
3 211 208 209
3 211 225 212
3 214 225 210
3 225 211 210
3 218 216 215
3 216 205 215
3 205 201 200
3 204 201 216
3 201 205 216
3 216 221 204
3 221 214 204
3 224 214 221
3 221 216 220
3 220 224 221
3 224 223 214
3 188 190 189
3 190 218 189
3 190 219 218
3 218 215 189
3 220 221 222
3 221 219 222
3 217 218 219
3 219 221 217
3 229 225 227
3 229 250 226
3 225 229 226
3 225 223 227
3 237 212 226
3 212 223 225
3 250 237 226
3 212 225 226
3 229 254 226
3 254 250 226
3 251 254 257
3 230 254 229
3 254 251 250
3 211 232 208
3 211 208 212
3 237 211 212
3 213 207 208
3 236 232 211
3 232 236 213
3 237 236 211
3 232 213 208
3 238 234 232
3 233 213 232
3 232 234 233
3 233 112 213
3 113 233 114
3 233 235 114
3 233 112 240
3 240 235 233
3 233 113 112
3 246 241 239
3 238 236 239
3 241 234 238
3 238 239 241
3 234 236 238
3 243 126 242
3 126 124 242
3 235 242 127
3 124 127 242
3 242 235 244
3 248 247 245
3 245 247 242
3 242 244 245
3 237 250 239
3 250 251 239
3 252 251 253
3 252 239 251
3 295 263 255
3 263 295 298
3 252 253 259
3 256 259 253
3 260 258 261
3 258 262 261
3 262 259 263
3 256 263 259
3 262 258 259
3 264 318 260
3 248 247 260
3 318 248 260
3 303 248 318
3 318 264 317
3 317 303 318
3 303 247 248
3 298 319 262
3 319 264 261
3 261 262 319
3 295 255 296
3 255 294 296
3 294 257 254
3 294 255 257
3 222 228 220
3 228 222 268
3 192 266 190
3 266 192 267
3 267 271 266
3 190 266 219
3 222 266 271
3 222 268 219
3 268 222 271
3 222 219 266
3 194 195 193
3 267 192 193
3 195 270 267
3 267 193 195
3 271 270 274
3 270 273 274
3 272 270 269
3 195 269 270
3 272 273 270
3 265 231 276
3 231 275 276
3 268 231 228
3 268 275 231
3 293 230 265
3 254 293 294
3 254 230 293
3 275 277 276
3 277 274 273
3 277 275 274
3 289 297 279
3 280 279 297
3 280 276 279
3 276 280 265
3 276 277 279
3 194 281 195
3 281 194 283
3 277 273 278
3 273 286 287
3 287 278 273
3 281 282 272
3 286 272 282
3 289 287 290
3 289 278 287
3 287 288 290
3 286 282 285
3 284 282 283
3 284 285 282
3 291 290 292
3 139 142 138
3 142 141 138
3 301 139 300
3 301 142 139
3 146 148 150
3 148 307 308
3 308 150 148
3 247 303 249
3 303 300 249
3 304 302 303
3 305 304 303
3 302 300 303
3 304 311 306
3 304 312 311
3 316 304 320
3 316 312 304
3 310 309 308
3 311 313 310
3 311 308 307
3 311 310 308
3 315 151 309
3 151 156 154
3 151 315 156
3 313 312 314
3 314 312 316
3 316 323 314
3 319 322 321
3 316 320 323
3 322 323 320
3 324 315 326
3 156 324 325
3 156 315 324
3 327 326 314
3 326 327 324
3 5 4 6
3 4 2 7
3 7 6 4
3 11 12 10
3 12 11 9
3 9 10 12
3 6 8 5
3 15 5 8
3 18 15 16
3 14 16 15
3 14 13 17
3 20 17 13
3 33 32 36
3 34 36 32
3 11 31 32
3 3 11 10
3 3 31 11
3 23 162 163
3 164 163 162
3 158 23 0
3 24 23 25
3 23 158 25
3 24 0 23
3 26 163 27
3 27 157 26
3 163 173 27
3 170 27 173
3 170 157 27
3 28 26 29
3 26 28 21
3 26 27 29
3 29 157 30
3 157 29 27
3 34 32 35
3 32 3 31
3 31 35 32
3 3 35 31
3 37 40 36
3 38 40 41
3 40 38 36
3 33 20 13
3 38 20 36
3 20 33 36
3 35 34 36
3 34 44 37
3 37 36 34
3 34 35 44
3 42 40 47
3 42 47 46
3 47 40 45
3 37 40 36
3 36 45 37
3 40 42 41
3 41 36 40
3 37 45 40
3 182 28 30
3 30 183 182
3 183 30 172
3 19 38 53
3 39 43 53
3 53 18 19
3 19 18 38
3 38 39 53

