ply
format ascii 1.0
comment VCGLIB generated
element vertex 394
property float x
property float y
property float z
property float nx
property float ny
property float nz
property uchar red
property uchar green
property uchar blue
element face 740
property list uchar int vertex_indices
end_header
-0.023922 -1.466034 0.0 0 0 0 0 0 255
-0.003882 -1.630458 0.0 0 0 0 0 0 255
-1.102482 -0.781992 0.0 0 0 0 0 0 255
-0.937512 -0.794508 0.0 0 0 0 0 0 255
-0.759246 -0.76914 0.0 0 0 0 0 0 255
-1.141188 -0.716088 0.0 0 0 0 0 0 255
-1.259004 -0.5964 0.0 0 0 0 0 0 255
-1.12938 -0.620694 0.0 0 0 0 0 0 255
-1.109682 -0.514938 0.0 0 0 0 0 0 255
-0.943896 -0.709188 0.0 0 0 0 0 0 255
-1.037922 -0.470082 0.0 0 0 0 0 0 255
-0.938328 -0.455208 0.0 0 0 0 0 0 255
-0.857526 -0.658326 0.0 0 0 0 0 0 255
-0.841974 -0.577164 0.0 0 0 0 0 0 255
-0.763602 -0.56661 0.0 0 0 0 0 0 255
-0.887766 -0.512328 0.0 0 0 0 0 0 255
-0.773196 -0.39894 0.0 0 0 0 0 0 255
-0.723168 -0.636744 0.0 0 0 0 0 0 255
-0.94347 -0.323844 0.0 0 0 0 0 0 255
-1.136376 -0.339258 0.0 0 0 0 0 0 255
-1.048128 -0.191166 0.0 0 0 0 0 0 255
-0.907812 -0.167988 0.0 0 0 0 0 0 255
-0.797382 -0.310536 0.0 0 0 0 0 0 255
-0.83835 -0.216288 0.0 0 0 0 0 0 255
-0.910656 -0.09078 0.0 0 0 0 0 0 255
-0.809622 -0.05232 0.0 0 0 0 0 0 255
-0.738552 -0.242856 0.0 0 0 0 0 0 255
-0.184014 -1.208958 0.0 0 0 0 0 0 255
-0.248538 -1.304508 0.0 0 0 0 255 0 0
-0.01932 -1.319292 0.0 0 0 0 0 0 255
-0.052278 -1.390428 0.0 0 0 0 0 0 255
-0.153876 -1.372986 0.0 0 0 0 0 0 255
-0.023592 -1.204842 0.0 0 0 0 0 0 255
-0.063414 -1.11963 0.0 0 0 0 0 0 255
-0.120018 -1.057182 0.0 0 0 0 0 0 255
0.001602 -1.000704 0.0 0 0 0 0 0 255
-0.171822 -0.896316 0.0 0 0 0 0 0 255
-0.095118 -0.89643 0.0 0 0 0 0 0 255
-0.019638 -0.86775 0.0 0 0 0 0 0 255
-0.030438 -0.763872 0.0 0 0 0 0 0 255
-0.196896 -0.707934 0.0 0 0 0 0 0 255
-0.639162 -0.67203 0.0 0 0 0 0 0 255
-0.582126 -0.574146 0.0 0 0 0 0 0 255
-0.670086 -0.450618 0.0 0 0 0 0 0 255
-0.578298 -0.481998 0.0 0 0 0 0 0 255
-0.475842 -0.540294 0.0 0 0 0 0 0 255
-0.555072 -0.72048 0.0 0 0 0 0 0 255
-0.457962 -0.758148 0.0 0 0 0 0 0 255
-0.541854 -0.40422 0.0 0 0 0 0 0 255
-0.42996 -0.33621 0.0 0 0 0 0 0 255
-0.399768 -0.528312 0.0 0 0 0 0 0 255
-0.661512 -0.193458 0.0 0 0 0 0 0 255
-0.596658 -0.279786 0.0 0 0 0 0 0 255
-0.728448 -0.034974 0.0 0 0 0 0 0 255
-0.531126 -0.071442 0.0 0 0 0 0 0 255
-0.43245 -0.248244 0.0 0 0 0 0 0 255
-0.33201 -0.243174 0.0 0 0 0 0 0 255
-0.479964 -0.168954 0.0 0 0 0 0 0 255
-0.395694 -0.072882 0.0 0 0 0 0 0 255
-0.568272 0.029238 0.0 0 0 0 0 0 255
-0.336438 -0.48441 0.0 0 0 0 0 0 255
0.06033 -0.675936 0.0 0 0 0 0 0 255
-0.21672 -0.319026 0.0 0 0 0 0 0 255
-0.28839 -0.081522 0.0 0 0 0 0 0 255
-0.246174 -0.188226 0.0 0 0 0 0 0 255
-0.34209 0.016344 0.0 0 0 0 0 0 255
-0.242076 -0.018042 0.0 0 0 0 0 0 255
-0.13797 -0.034854 0.0 0 0 0 0 0 255
-0.016092 0.060858 0.0 0 0 0 0 0 255
0.027336 -0.024474 0.0 0 0 0 0 0 255
-0.686364 0.053052 0.0 0 0 0 0 0 255
-0.8535 0.131022 0.0 0 0 0 0 0 255
-0.775764 0.232824 0.0 0 0 0 0 0 255
-0.654018 0.383022 0.0 0 0 0 0 0 255
-0.678162 0.2013 0.0 0 0 0 0 0 255
-0.65802 0.494646 0.0 0 0 0 0 0 255
-0.772482 0.512652 0.0 0 0 0 0 0 255
-0.522666 0.092298 0.0 0 0 0 0 0 255
-0.623946 0.30501 0.0 0 0 0 0 0 255
-0.519522 0.252714 0.0 0 0 0 0 0 255
-0.494388 0.166962 0.0 0 0 0 0 0 255
-0.368256 0.159684 0.0 0 0 0 0 0 255
-0.347502 0.309294 0.0 0 0 0 0 0 255
-0.487446 0.395436 0.0 0 0 0 0 0 255
-0.597804 0.544374 0.0 0 0 0 0 0 255
-0.68694 0.719544 0.0 0 0 0 0 0 255
-0.605928 0.72342 0.0 0 0 0 0 0 255
-0.31881 0.445572 0.0 0 0 0 0 0 255
-0.520872 0.554142 0.0 0 0 0 0 0 255
-0.521256 0.748818 0.0 0 0 0 0 0 255
-0.448104 0.580446 0.0 0 0 0 0 0 255
-0.304968 0.213612 0.0 0 0 0 0 0 255
-0.176676 0.23112 0.0 0 0 0 0 0 255
-0.299928 0.36915 0.0 0 0 0 0 0 255
-0.154644 0.32712 0.0 0 0 0 0 0 255
-0.17556 0.136092 0.0 0 0 0 0 0 255
-0.091488 0.232842 0.0 0 0 0 0 0 255
0.018018 0.176472 0.0 0 0 0 0 0 255
0.07257 0.36453 0.0 0 0 0 0 0 255
-0.014172 0.432024 0.0 0 0 0 0 0 255
-0.100026 0.440268 0.0 0 0 0 0 0 255
-0.279156 0.513096 0.0 0 0 0 0 0 255
-0.20544 0.538908 0.0 0 0 0 0 0 255
-0.297318 0.594318 0.0 0 0 0 0 0 255
-0.34968 0.71985 0.0 0 0 0 0 0 255
-0.154812 0.639036 0.0 0 0 0 0 0 255
-0.026196 0.59712 0.0 0 0 0 0 0 255
0.02166 0.5265 0.0 0 0 0 0 0 255
-0.093354 0.73263 0.0 0 0 0 0 0 255
0.018708 0.765888 0.0 0 0 0 0 0 255
-0.16911 0.809076 0.0 0 0 0 0 0 255
-0.60669 0.865386 0.0 0 0 0 0 0 255
-0.557652 0.945072 0.0 0 0 0 0 0 255
-0.617772 1.048482 0.0 0 0 0 0 0 255
-0.4743 0.88932 0.0 0 0 0 0 0 255
-0.399426 0.845322 0.0 0 0 0 0 0 255
-0.330264 0.811284 0.0 0 0 0 0 0 255
-0.485778 1.103562 0.0 0 0 0 0 0 255
-0.431856 1.03668 0.0 0 0 0 0 0 255
-0.334086 1.084536 0.0 0 0 0 0 0 255
-0.579366 1.210368 0.0 0 0 0 0 0 255
-0.48498 1.18332 0.0 0 0 0 0 0 255
-0.555918 1.331736 0.0 0 0 0 0 0 255
-0.515916 1.46799 0.0 0 0 0 0 0 255
-0.436074 1.41897 0.0 0 0 0 0 0 255
-0.379902 1.295334 0.0 0 0 0 0 0 255
-0.333402 0.902052 0.0 0 0 0 0 0 255
-0.17007 0.95556 0.0 0 0 0 0 0 255
-0.205746 1.032288 0.0 0 0 0 0 0 255
0.004554 0.879588 0.0 0 0 0 0 0 255
-0.100992 0.991704 0.0 0 0 0 0 0 255
-0.056184 1.053438 0.0 0 0 0 0 0 255
0.023682 1.034526 0.0 0 0 0 0 0 255
-0.130506 1.183104 0.0 0 0 0 0 0 255
-0.278226 1.23675 0.0 0 0 0 0 0 255
-0.205314 1.199412 0.0 0 0 0 0 0 255
-0.349068 1.413114 0.0 0 0 0 0 0 255
-0.258222 1.419294 0.0 0 0 0 0 0 255
-0.129282 1.33296 0.0 0 0 0 0 0 255
-0.199578 1.481148 0.0 0 0 0 0 0 255
-0.109812 1.437882 0.0 0 0 0 0 0 255
-0.00354 1.449636 0.0 0 0 0 0 0 255
0.013884 1.284714 0.0 0 0 0 0 0 255
-0.056508 1.512582 0.0 0 0 0 0 0 255
0.086286 1.38735 0.0 0 0 0 0 0 255
0.026718 1.209036 0.0 0 0 0 0 0 255
-0.62583 1.505892 0.0 0 0 0 0 0 255
-0.496224 1.573836 0.0 0 0 0 0 0 255
-0.410058 1.633014 0.0 0 0 0 0 0 255
-0.442962 1.792902 0.0 0 0 0 0 0 255
-0.333648 1.649082 0.0 0 0 0 0 0 255
-0.288414 1.583112 0.0 0 0 0 0 0 255
-0.207048 1.616892 0.0 0 0 0 0 0 255
-0.265614 1.69071 0.0 0 0 0 0 0 255
-0.266064 1.77585 0.0 0 0 0 0 0 255
-0.387114 1.922766 0.0 0 0 0 0 0 255
-0.07134 1.686732 0.0 0 0 0 0 0 255
0.034044 1.65906 0.0 0 0 0 0 0 255
-0.199056 1.822788 0.0 0 0 0 0 0 255
-0.102876 1.771092 0.0 0 0 0 0 0 255
0.002082 1.843266 0.0 0 0 0 0 0 255
-0.257118 1.929786 0.0 0 0 0 0 0 255
-0.30438 2.080554 0.0 0 0 0 0 0 255
-0.245556 2.168352 0.0 0 0 0 0 0 255
-0.147474 2.03883 0.0 0 0 0 0 0 255
-0.1563 1.956 0.0 0 0 0 0 0 255
-0.03606 1.951152 0.0 0 0 0 0 0 255
-0.13725 2.122374 0.0 0 0 0 0 0 255
0.02223 2.11764 0.0 0 0 0 0 0 255
0.014832 2.208972 0.0 0 0 0 0 0 255
-0.313494 2.239236 0.0 0 0 0 0 0 255
0.020748 2.016486 0.0 0 0 0 0 0 255
-0.12312 2.264688 0.0 0 0 0 0 0 255
-0.073362 2.34081 0.0 0 0 0 0 0 255
-0.102336 2.45706 0.0 0 0 0 0 0 255
0.067326 2.347584 0.0 0 0 0 0 0 255
0.052704 -0.897936 0.0 0 0 0 0 0 255
0.103152 -1.475052 0.0 0 0 0 0 0 255
0.18864 -1.530276 0.0 0 0 0 0 0 255
0.228168 -1.627086 0.0 0 0 0 0 0 255
0.383724 -1.495308 0.0 0 0 0 0 0 255
0.154158 -1.359024 0.0 0 0 0 0 0 255
0.122406 -1.257516 0.0 0 0 0 0 0 255
0.073488 -1.196856 0.0 0 0 0 0 0 255
0.19488 -1.195536 0.0 0 0 0 0 0 255
0.257562 -1.365396 0.0 0 0 0 0 0 255
0.414096 -1.406904 0.0 0 0 0 0 0 255
0.404016 -1.305582 0.0 0 0 0 0 0 255
0.292296 -1.179 0.0 0 0 0 0 0 255
0.428688 -1.164042 0.0 0 0 0 0 0 255
0.112812 -1.039776 0.0 0 0 0 0 0 255
0.200652 -0.952938 0.0 0 0 0 0 0 255
0.143208 -0.871866 0.0 0 0 0 0 0 255
0.172446 -0.757536 0.0 0 0 0 0 0 255
0.18042 -1.076646 0.0 0 0 0 0 0 255
0.32079 -1.00251 0.0 0 0 0 0 0 255
0.343896 -0.817026 0.0 0 0 0 0 0 255
0.409344 -0.978546 0.0 0 0 0 0 0 255
0.320346 -0.690816 0.0 0 0 0 0 0 255
0.517026 -1.034904 0.0 0 0 0 0 0 255
0.513678 -0.84681 0.0 0 0 0 0 0 255
0.384252 -0.732756 0.0 0 0 0 0 0 255
0.492738 -0.687894 0.0 0 0 0 0 0 255
0.0261 -0.58437 0.0 0 0 0 0 0 255
0.150276 -0.639774 0.0 0 0 0 0 0 255
0.209232 -0.557178 0.0 0 0 0 0 0 255
0.285834 -0.602178 0.0 0 0 0 0 0 255
0.502926 -0.57261 0.0 0 0 0 255 0 0
0.416016 -0.526602 0.0 0 0 0 0 0 255
0.737748 -0.034788 0.0 0 0 0 0 0 255
0.576384 -0.012702 0.0 0 0 0 0 0 255
0.6459 0.07326 0.0 0 0 0 0 0 255
0.746202 0.058086 0.0 0 0 0 0 0 255
0.835614 -0.078276 0.0 0 0 0 0 0 255
0.835968 0.079302 0.0 0 0 0 0 0 255
0.97926 -0.00525 0.0 0 0 0 0 0 255
1.020984 0.064416 0.0 0 0 0 0 0 255
1.142376 -0.0015 0.0 0 0 0 0 0 255
1.107546 0.109218 0.0 0 0 0 0 0 255
0.074022 0.2334 0.0 0 0 0 0 0 255
0.16533 0.127338 0.0 0 0 0 0 0 255
0.147306 0.20445 0.0 0 0 0 0 0 255
0.202308 0.2604 0.0 0 0 0 0 0 255
0.308508 0.151956 0.0 0 0 0 0 0 255
0.293652 0.232932 0.0 0 0 0 0 0 255
0.35406 0.056268 0.0 0 0 0 0 0 255
0.219594 0.365742 0.0 0 0 0 0 0 255
0.393564 0.335886 0.0 0 0 0 0 0 255
0.395178 0.124836 0.0 0 0 0 0 0 255
0.160932 0.6111 0.0 0 0 0 0 0 255
0.124668 0.522498 0.0 0 0 0 0 0 255
0.122814 0.6834 0.0 0 0 0 0 0 255
0.231216 0.644298 0.0 0 0 0 0 0 255
0.25644 0.48057 0.0 0 0 0 0 0 255
0.341814 0.461238 0.0 0 0 0 0 0 255
0.313968 0.602334 0.0 0 0 0 0 0 255
0.298128 0.684738 0.0 0 0 0 0 0 255
0.26664 0.75435 0.0 0 0 0 0 0 255
0.407562 0.692496 0.0 0 0 0 0 0 255
0.13464 0.780582 0.0 0 0 0 0 0 255
0.445614 0.46962 0.0 0 0 0 0 0 255
0.449208 0.186426 0.0 0 0 0 0 0 255
0.531168 0.108204 0.0 0 0 0 0 0 255
0.481116 0.275682 0.0 0 0 0 0 0 255
0.561558 0.290862 0.0 0 0 0 0 0 255
0.625044 0.242904 0.0 0 0 0 0 0 255
0.583776 0.164658 0.0 0 0 0 0 0 255
0.698202 0.220602 0.0 0 0 0 0 0 255
0.651042 0.416184 0.0 0 0 0 0 0 255
0.763878 0.368508 0.0 0 0 0 0 0 255
0.583968 0.3693 0.0 0 0 0 0 0 255
0.748794 0.282372 0.0 0 0 0 0 0 255
0.50568 0.559212 0.0 0 0 0 0 0 255
0.584274 0.525708 0.0 0 0 0 0 0 255
0.534336 0.45234 0.0 0 0 0 0 0 255
0.462654 0.63588 0.0 0 0 0 0 0 255
0.499656 0.719748 0.0 0 0 0 0 0 255
0.575754 0.752652 0.0 0 0 0 0 0 255
0.661338 0.619278 0.0 0 0 0 0 0 255
0.757968 0.446286 0.0 0 0 0 0 0 255
0.645666 0.705936 0.0 0 0 0 0 0 255
0.736092 0.718926 0.0 0 0 0 0 0 255
0.756618 0.539826 0.0 0 0 0 0 0 255
0.791094 0.80427 0.0 0 0 0 0 0 255
0.798702 0.220698 0.0 0 0 0 0 0 255
0.146064 0.928122 0.0 0 0 0 0 0 255
0.220578 0.82557 0.0 0 0 0 0 0 255
0.074502 0.97692 0.0 0 0 0 0 0 255
0.178788 1.00317 0.0 0 0 0 0 0 255
0.071382 1.128516 0.0 0 0 0 0 0 255
0.291918 0.867852 0.0 0 0 0 0 0 255
0.393636 0.818112 0.0 0 0 0 0 0 255
0.247056 0.945924 0.0 0 0 0 0 0 255
0.292554 1.008642 0.0 0 0 0 0 0 255
0.398634 1.000692 0.0 0 0 0 0 0 255
0.178074 1.083498 0.0 0 0 0 0 0 255
0.265932 1.081164 0.0 0 0 0 0 0 255
0.216918 1.275372 0.0 0 0 0 0 0 255
0.127272 1.280832 0.0 0 0 0 0 0 255
0.13854 1.443168 0.0 0 0 0 0 0 255
0.229758 1.158312 0.0 0 0 0 0 0 255
0.366696 1.267698 0.0 0 0 0 0 0 255
0.2943 1.29249 0.0 0 0 0 0 0 255
0.37893 1.143018 0.0 0 0 0 0 0 255
0.298944 1.418406 0.0 0 0 0 0 0 255
0.398304 1.414812 0.0 0 0 0 0 0 255
0.216216 1.500744 0.0 0 0 0 0 0 255
0.475614 0.917664 0.0 0 0 0 0 0 255
0.56043 0.841236 0.0 0 0 0 0 0 255
0.59586 0.935694 0.0 0 0 0 0 0 255
0.45702 1.064034 0.0 0 0 0 0 0 255
0.537198 1.092072 0.0 0 0 0 0 0 255
0.600426 1.039878 0.0 0 0 0 0 0 255
0.660246 0.858702 0.0 0 0 0 0 0 255
0.738156 0.861288 0.0 0 0 0 0 0 255
0.747726 1.041258 0.0 0 0 0 0 0 255
0.656796 1.112118 0.0 0 0 0 0 0 255
0.707346 0.932352 0.0 0 0 0 0 0 255
0.451404 1.285422 0.0 0 0 0 0 0 255
0.528318 1.192434 0.0 0 0 0 0 0 255
0.468282 1.38252 0.0 0 0 0 0 0 255
0.602082 1.399512 0.0 0 0 0 0 0 255
0.597258 1.26279 0.0 0 0 0 0 0 255
0.661842 1.317072 0.0 0 0 0 0 0 255
0.715446 1.194762 0.0 0 0 0 0 0 255
0.724902 1.380924 0.0 0 0 0 0 0 255
0.578454 1.496754 0.0 0 0 0 0 0 255
0.792444 1.179384 0.0 0 0 0 0 0 255
0.440076 1.524846 0.0 0 0 0 0 0 255
0.81528 0.665742 0.0 0 0 0 0 0 255
0.858366 0.16338 0.0 0 0 0 0 0 255
0.935514 0.176958 0.0 0 0 0 0 0 255
0.835182 0.398106 0.0 0 0 0 0 0 255
1.07595 0.250794 0.0 0 0 0 0 0 255
1.147068 0.21018 0.0 0 0 0 0 0 255
0.998064 0.232518 0.0 0 0 0 0 0 255
0.937356 0.33219 0.0 0 0 0 0 0 255
1.159548 0.315198 0.0 0 0 0 0 0 255
1.113462 0.41022 0.0 0 0 0 0 0 255
0.984804 0.409578 0.0 0 0 0 0 0 255
0.936012 0.474708 0.0 0 0 0 0 0 255
0.904386 0.568476 0.0 0 0 0 0 0 255
0.823344 0.586638 0.0 0 0 0 0 0 255
0.939324 0.661554 0.0 0 0 0 0 0 255
1.011312 0.48804 0.0 0 0 0 0 0 255
1.07973 0.579252 0.0 0 0 0 0 0 255
1.164774 0.599142 0.0 0 0 0 0 0 255
1.08543 0.65583 0.0 0 0 0 0 0 255
1.084956 0.770154 0.0 0 0 0 0 0 255
1.190022 0.47913 0.0 0 0 0 0 0 255
0.931266 0.743022 0.0 0 0 0 0 0 255
1.310028 0.127098 0.0 0 0 0 0 0 255
1.243422 0.216174 0.0 0 0 0 0 0 255
1.333926 0.312804 0.0 0 0 0 0 0 255
1.236366 0.310254 0.0 0 0 0 0 0 255
1.397586 0.24693 0.0 0 0 0 0 0 255
1.527378 0.409626 0.0 0 0 0 0 0 255
1.413822 0.480426 0.0 0 0 0 0 0 255
1.264284 0.436452 0.0 0 0 0 0 0 255
1.35903 0.386226 0.0 0 0 0 0 0 255
1.25058 0.559272 0.0 0 0 0 0 0 255
1.326648 0.564762 0.0 0 0 0 0 0 255
1.152408 0.733764 0.0 0 0 0 0 0 255
1.281288 0.726726 0.0 0 0 0 0 0 255
1.370874 0.654462 0.0 0 0 0 0 0 255
1.439478 0.708738 0.0 0 0 0 255 0 0
1.505994 0.666486 0.0 0 0 0 0 0 255
1.485414 0.569652 0.0 0 0 0 0 0 255
0.869736 0.812664 0.0 0 0 0 0 0 255
0.899064 0.897438 0.0 0 0 0 0 0 255
0.817944 1.001136 0.0 0 0 0 0 0 255
0.850794 1.086792 0.0 0 0 0 0 0 255
0.920766 0.97338 0.0 0 0 0 255 0 0
1.018584 0.809442 0.0 0 0 0 0 0 255
0.819198 1.253382 0.0 0 0 0 0 0 255
0.093636 1.592856 0.0 0 0 0 0 0 255
0.177384 1.629168 0.0 0 0 0 0 0 255
0.060678 1.75986 0.0 0 0 0 0 0 255
0.13365 1.787346 0.0 0 0 0 0 0 255
0.23724 1.722462 0.0 0 0 0 0 0 255
0.290442 1.59948 0.0 0 0 0 0 0 255
0.3789 1.601928 0.0 0 0 0 0 0 255
0.335166 1.76526 0.0 0 0 0 0 0 255
0.31329 1.890042 0.0 0 0 0 0 0 255
0.404184 1.727562 0.0 0 0 0 0 0 255
0.17769 1.865022 0.0 0 0 0 0 0 255
0.136044 1.933962 0.0 0 0 0 0 0 255
0.113886 2.024292 0.0 0 0 0 0 0 255
0.124416 2.101956 0.0 0 0 0 0 0 255
0.226566 2.066856 0.0 0 0 0 0 0 255
0.202122 2.14662 0.0 0 0 0 0 0 255
0.267576 1.965612 0.0 0 0 0 0 0 255
0.347262 1.968366 0.0 0 0 0 0 0 255
0.302334 2.097786 0.0 0 0 0 0 0 255
0.36342 2.144286 0.0 0 0 0 0 0 255
0.438288 2.120688 0.0 0 0 0 0 0 255
0.147972 2.268186 0.0 0 0 0 0 0 255
0.423636 1.959648 0.0 0 0 0 0 0 255
0.450888 1.666926 0.0 0 0 0 0 0 255
0.516456 1.54863 0.0 0 0 0 0 0 255
0.626208 1.560594 0.0 0 0 0 0 0 255
0.467898 1.77573 0.0 0 0 0 0 0 255
0.52209 1.69512 0.0 0 0 0 0 0 255
0.63651 1.711164 0.0 0 0 0 0 0 255
0.649782 1.636008 0.0 0 0 0 0 0 255
0.52017 1.892094 0.0 0 0 0 0 0 255
0.490224 2.02617 0.0 0 0 0 0 0 255
0.062322 2.269626 0.0 0 0 0 0 0 255
0.149718 2.345292 0.0 0 0 0 0 0 255
0.237558 2.42118 0.0 0 0 0 0 0 255
0.061068 2.428974 0.0 0 0 0 0 0 255
0.227292 2.269254 0.0 0 0 0 0 0 255
0.3126 2.285088 0.0 0 0 0 0 0 255
0.386052 2.21757 0.0 0 0 0 255 0 0

3 26 23 22
3 33 35 34
3 35 38 37
3 42 45 44
3 56 55 49
3 62 64 56
3 58 63 65
3 65 63 66
3 94 92 96
3 92 95 96
3 103 101 102
3 126 115 116
3 130 128 127
3 125 136 124
3 143 140 141
3 151 152 153
3 150 151 153
3 165 161 158
3 176 38 35
3 182 184 183
3 194 191 190
3 201 198 196
3 223 225 228
3 231 229 232
3 233 234 235
3 232 235 236
3 235 238 236
3 240 234 227
3 228 242 241
3 246 242 211
3 245 246 247
3 211 242 210
3 254 252 240
3 238 255 256
3 252 254 253
3 254 248 253
3 258 261 260
3 254 250 248
3 231 239 109
3 268 267 265
3 266 237 270
3 266 270 272
3 268 272 273
3 268 265 272
3 272 265 266
3 276 268 273
3 144 142 278
3 142 145 278
3 276 280 275
3 275 268 276
3 289 287 288
3 293 289 288
3 294 297 293
3 293 297 289
3 292 296 291
3 288 257 293
3 301 302 303
3 305 301 303
3 302 304 303
3 249 259 248
3 247 264 251
3 312 259 249
3 312 319 320
3 322 321 309
3 309 321 323
3 324 319 318
3 312 316 319
3 326 327 325
3 320 319 324
3 317 314 332
3 333 334 332
3 332 334 317
3 334 333 338
3 338 340 329
3 329 340 326
3 342 327 326
3 333 339 338
3 317 313 314
3 328 327 342
3 297 350 295
3 351 295 350
3 304 307 354
3 356 286 360
3 356 360 359
3 171 366 367
3 367 368 168
3 369 368 367
3 168 171 367
3 363 372 371
3 365 363 371
3 370 369 373
3 370 368 369
3 373 369 371
3 378 361 308
3 378 308 379
3 364 378 381
3 382 381 378
3 381 362 364
3 380 379 306
3 387 376 175
3 175 376 388
3 175 388 390
3 388 376 391
3 376 370 391
3 2 9 5
3 7 8 6
3 14 12 17
3 12 14 13
3 13 15 11
3 13 14 15
3 24 20 21
3 26 52 51
3 22 16 26
3 30 29 31
3 31 27 28
3 183 33 32
3 37 34 35
3 37 38 39
3 41 42 17
3 42 14 17
3 44 43 42
3 46 42 41
3 44 45 48
3 54 57 58
3 68 67 69
3 74 79 78
3 82 81 91
3 111 85 86
3 115 104 116
3 116 114 115
3 104 115 89
3 99 100 94
3 105 102 108
3 102 105 103
3 105 108 110
3 107 100 99
3 106 108 105
3 231 107 229
3 107 230 229
3 106 107 231
3 108 109 129
3 115 126 114
3 121 125 122
3 120 121 122
3 135 119 128
3 119 135 134
3 132 131 130
3 129 267 132
3 132 130 129
3 145 131 269
3 132 269 131
3 145 133 131
3 138 135 133
3 140 139 137
3 152 151 139
3 140 138 141
3 142 144 141
3 140 143 139
3 143 152 139
3 147 146 123
3 148 150 149
3 154 158 161
3 141 144 279
3 141 355 143
3 157 357 156
3 159 357 160
3 159 156 357
3 159 165 158
3 166 159 160
3 166 165 159
3 170 162 163
3 164 165 166
3 168 167 164
3 168 164 171
3 166 171 164
3 172 163 167
3 173 387 175
3 172 169 173
3 169 387 173
3 184 182 181
3 181 185 184
3 185 186 187
3 184 188 194
3 188 184 189
3 192 176 191
3 176 35 190
3 190 191 176
3 205 203 204
3 61 204 203
3 206 208 205
3 219 97 221
3 97 220 221
3 211 209 212
3 209 211 210
3 209 214 212
3 209 213 214
3 310 214 311
3 214 216 311
3 215 216 214
3 218 216 217
3 215 217 216
3 223 220 225
3 219 221 222
3 98 222 226
3 98 219 222
3 241 243 227
3 241 223 228
3 223 241 224
3 241 227 224
3 226 234 233
3 99 230 107
3 99 98 230
3 229 233 232
3 233 235 232
3 233 229 230
3 266 239 237
3 232 236 237
3 231 237 239
3 231 232 237
3 234 240 235
3 255 238 235
3 255 240 252
3 255 235 240
3 242 246 241
3 246 243 241
3 246 245 244
3 244 243 246
3 254 243 250
3 243 244 250
3 254 240 227
3 227 243 254
3 228 210 242
3 310 264 214
3 264 212 214
3 212 247 211
3 246 211 247
3 212 264 247
3 248 250 245
3 251 249 248
3 251 245 247
3 244 245 250
3 245 251 248
3 256 260 257
3 256 258 260
3 252 258 256
3 255 252 256
3 252 253 258
3 257 288 256
3 288 271 256
3 271 288 287
3 271 238 256
3 248 262 253
3 262 248 259
3 262 258 253
3 263 294 261
3 293 260 261
3 293 261 294
3 293 257 260
3 322 309 262
3 258 309 261
3 258 262 309
3 236 238 237
3 237 238 271
3 271 270 237
3 266 265 239
3 129 109 239
3 129 265 267
3 129 239 265
3 269 132 275
3 267 275 132
3 267 268 275
3 273 270 274
3 271 287 274
3 270 273 272
3 270 271 274
3 283 274 290
3 273 283 276
3 273 274 283
3 277 278 280
3 278 269 280
3 269 278 145
3 269 275 280
3 279 144 278
3 284 286 279
3 284 277 282
3 278 277 279
3 277 284 279
3 277 280 282
3 280 281 282
3 283 280 276
3 283 281 280
3 284 282 285
3 282 281 285
3 285 281 298
3 298 300 285
3 289 292 287
3 290 274 287
3 290 292 291
3 290 287 292
3 281 283 298
3 283 299 298
3 299 290 291
3 299 283 290
3 292 295 296
3 297 292 289
3 297 295 292
3 295 304 296
3 295 351 307
3 307 304 295
3 302 296 304
3 296 299 291
3 296 302 299
3 299 302 298
3 302 301 300
3 300 298 302
3 379 308 306
3 308 300 306
3 300 308 285
3 300 301 306
3 285 308 284
3 308 361 284
3 360 284 361
3 360 286 284
3 303 354 305
3 354 303 304
3 306 305 380
3 305 306 301
3 352 350 349
3 350 294 349
3 263 349 294
3 297 294 350
3 349 263 348
3 310 311 264
3 316 311 315
3 311 316 264
3 251 312 249
3 316 312 264
3 312 251 264
3 218 315 216
3 315 311 216
3 313 218 314
3 313 315 218
3 316 313 319
3 313 318 319
3 313 316 315
3 313 317 318
3 262 259 322
3 320 321 322
3 312 322 259
3 312 320 322
3 261 309 263
3 309 348 263
3 309 323 330
3 330 348 309
3 327 323 325
3 323 321 325
3 321 320 324
3 324 325 321
3 325 329 326
3 325 324 318
3 318 329 325
3 327 330 323
3 330 328 353
3 330 327 328
3 331 218 217
3 218 332 314
3 218 331 332
3 331 335 332
3 333 332 335
3 338 317 334
3 318 338 329
3 318 317 338
3 337 339 336
3 339 333 335
3 335 336 339
3 342 326 343
3 341 344 343
3 343 326 340
3 340 341 343
3 337 338 339
3 338 341 340
3 338 337 341
3 345 344 346
3 344 347 346
3 347 341 337
3 347 344 341
3 336 347 337
3 348 353 349
3 353 348 330
3 359 358 356
3 157 355 356
3 357 356 358
3 357 157 356
3 171 166 366
3 166 160 366
3 358 366 160
3 357 358 160
3 358 365 366
3 378 364 361
3 364 360 361
3 360 362 359
3 360 364 362
3 359 365 358
3 365 362 363
3 365 359 362
3 372 363 377
3 363 381 377
3 381 363 362
3 381 385 377
3 366 369 367
3 366 365 371
3 371 369 366
3 370 376 368
3 169 168 368
3 387 368 376
3 387 169 368
3 372 373 371
3 375 374 373
3 375 377 386
3 372 371 377
3 377 375 372
3 375 373 372
3 393 392 374
3 370 373 374
3 391 374 392
3 391 370 374
3 384 382 380
3 382 379 380
3 384 383 382
3 382 378 379
3 383 381 382
3 381 383 385
3 385 386 377
3 390 388 389
3 392 389 391
3 388 391 389
3 31 0 30
3 0 31 1
3 2 3 9
3 2 7 5
3 5 6 2
3 6 5 7
3 13 15 12
3 10 15 11
3 15 9 12
3 9 7 5
3 10 8 7
3 7 9 10
3 9 15 10
3 8 19 6
3 19 8 10
3 12 3 4
3 3 12 9
3 10 18 19
3 18 10 11
3 18 20 19
3 21 18 23
3 21 20 18
3 18 22 23
3 11 16 18
3 11 15 16
3 16 22 18
3 24 21 25
3 21 23 25
3 51 25 26
3 23 26 25
3 25 51 53
3 52 43 48
3 43 44 48
3 16 52 26
3 16 43 52
3 46 41 4
3 4 41 17
3 17 12 4
3 0 177 30
3 29 177 181
3 177 29 30
3 29 183 32
3 32 30 29
3 183 29 182
3 29 181 182
3 184 194 183
3 190 33 183
3 190 183 194
3 190 35 33
3 31 29 27
3 33 34 27
3 32 27 29
3 32 33 27
3 36 34 37
3 34 36 27
3 37 39 36
3 40 36 39
3 39 193 61
3 193 204 61
3 192 39 176
3 38 176 39
3 39 192 193
3 42 43 14
3 14 43 16
3 16 15 14
3 47 45 46
3 45 47 50
3 45 42 46
3 55 52 49
3 52 48 49
3 57 51 52
3 52 55 57
3 51 48 52
3 70 53 59
3 54 57 59
3 53 54 59
3 54 53 51
3 51 57 54
3 58 56 63
3 56 64 63
3 56 57 55
3 56 58 57
3 56 49 62
3 49 60 62
3 56 48 49
3 50 49 48
3 45 50 48
3 50 60 49
3 203 39 61
3 39 203 40
3 62 64 63
3 64 67 63
3 62 67 64
3 66 67 69
3 67 62 69
3 66 63 67
3 24 25 71
3 25 70 71
3 24 53 25
3 74 71 70
3 53 70 25
3 71 74 72
3 75 76 73
3 73 78 75
3 76 72 73
3 78 72 74
3 78 73 72
3 74 80 79
3 74 77 80
3 77 74 70
3 70 59 77
3 80 77 81
3 77 65 81
3 58 77 54
3 77 80 59
3 59 54 77
3 58 65 77
3 65 95 81
3 95 91 81
3 65 66 95
3 95 92 91
3 81 79 80
3 79 82 83
3 79 81 82
3 85 86 89
3 86 88 89
3 85 84 86
3 84 75 88
3 88 86 84
3 76 75 85
3 75 84 85
3 73 83 75
3 83 84 75
3 83 73 78
3 79 83 78
3 83 88 84
3 87 82 93
3 93 101 87
3 90 101 103
3 101 90 87
3 83 87 90
3 88 83 90
3 83 82 87
3 88 90 89
3 90 103 104
3 104 89 90
3 90 88 103
3 115 112 114
3 114 89 115
3 112 111 114
3 111 86 89
3 89 114 111
3 93 101 87
3 87 82 93
3 91 93 82
3 93 91 92
3 101 100 102
3 92 100 94
3 92 94 93
3 94 100 93
3 93 100 101
3 67 95 66
3 68 96 95
3 95 67 68
3 68 97 96
3 105 102 106
3 100 106 102
3 100 107 106
3 109 106 231
3 106 109 108
3 85 112 111
3 111 113 85
3 113 111 112
3 126 118 114
3 118 112 114
3 112 118 117
3 117 113 112
3 113 117 120
3 121 120 117
3 123 122 124
3 123 146 122
3 122 125 124
3 127 126 110
3 110 105 127
3 126 116 110
3 105 104 103
3 116 126 104
3 116 104 110
3 104 105 110
3 128 126 127
3 126 119 118
3 126 128 119
3 118 119 117
3 119 121 117
3 119 134 125
3 125 121 119
3 127 129 130
3 129 110 108
3 129 127 110
3 131 128 130
3 128 133 135
3 128 131 133
3 140 136 137
3 137 138 140
3 136 125 137
3 138 134 135
3 125 134 137
3 134 138 137
3 150 148 151
3 151 139 150
3 124 148 147
3 148 136 151
3 137 151 136
3 147 123 124
3 148 124 136
3 151 137 139
3 145 141 142
3 142 133 145
3 138 142 141
3 138 133 142
3 158 153 159
3 152 156 159
3 158 154 153
3 153 152 159
3 147 148 149
3 149 154 155
3 154 161 155
3 154 150 153
3 153 161 154
3 154 149 150
3 355 157 143
3 143 157 156
3 156 152 143
3 356 355 286
3 355 141 279
3 279 286 355
3 170 155 162
3 162 161 170
3 161 162 155
3 163 164 167
3 164 165 167
3 163 162 164
3 164 162 161
3 161 165 164
3 390 173 175
3 174 172 173
3 173 390 174
3 172 175 173
3 169 167 168
3 167 169 172
3 174 172 173
3 172 170 163
3 172 174 170
3 178 1 179
3 177 0 1
3 1 178 177
3 186 185 180
3 185 178 180
3 178 185 181
3 178 177 179
3 177 178 181
3 178 179 180
3 185 188 184
3 188 187 189
3 188 185 187
3 195 194 188
3 194 195 191
3 196 198 193
3 198 204 193
3 204 198 206
3 206 205 204
3 193 192 196
3 195 197 196
3 191 196 192
3 191 195 196
3 187 199 189
3 195 189 197
3 189 195 188
3 189 199 197
3 200 197 199
3 196 200 201
3 196 197 200
3 201 200 202
3 207 208 202
3 198 201 202
3 208 206 198
3 198 202 208
3 210 213 209
3 215 214 213
3 220 69 225
3 220 97 68
3 68 69 220
3 221 220 222
3 220 223 224
3 224 222 220
3 97 219 96
3 219 98 96
3 99 96 98
3 99 94 96
3 226 227 234
3 224 226 222
3 224 227 226
3 98 226 230
3 233 230 226

