ply
format ascii 1.0
comment VCGLIB generated
element vertex 65
property float x
property float y
property float z
property float nx
property float ny
property float nz
property uchar red
property uchar green
property uchar blue
element face 187
property list uchar int vertex_indices
end_header
-1.12938 -0.620694 0.0 0 0 0 0 0 255
-0.857526 -0.658326 0.0 0 0 0 0 0 255
-0.763602 -0.56661 0.0 0 0 0 0 0 255
-0.83835 -0.216288 0.0 0 0 0 0 0 255
-0.910656 -0.09078 0.0 0 0 0 0 0 255
-0.01932 -1.319292 0.0 0 0 0 0 0 255
-0.153876 -1.372986 0.0 0 0 0 0 0 255
-0.670086 -0.450618 0.0 0 0 0 0 0 255
-0.457962 -0.758148 0.0 0 0 0 0 0 255
-0.42996 -0.33621 0.0 0 0 0 0 0 255
-0.395694 -0.072882 0.0 0 0 0 0 0 255
-0.568272 0.029238 0.0 0 0 0 0 0 255
-0.13797 -0.034854 0.0 0 0 0 0 0 255
-0.487446 0.395436 0.0 0 0 0 0 0 255
-0.521256 0.748818 0.0 0 0 0 0 0 255
-0.176676 0.23112 0.0 0 0 0 0 0 255
-0.299928 0.36915 0.0 0 0 0 0 0 255
0.07257 0.36453 0.0 0 0 0 0 0 255
-0.20544 0.538908 0.0 0 0 0 0 0 255
-0.16911 0.809076 0.0 0 0 0 0 0 255
-0.4743 0.88932 0.0 0 0 0 0 0 255
-0.379902 1.295334 0.0 0 0 0 0 0 255
-0.17007 0.95556 0.0 0 0 0 0 0 255
-0.00354 1.449636 0.0 0 0 0 0 0 255
0.026718 1.209036 0.0 0 0 0 0 0 255
-0.496224 1.573836 0.0 0 0 0 0 0 255
-0.207048 1.616892 0.0 0 0 0 0 0 255
-0.257118 1.929786 0.0 0 0 0 0 0 255
-0.1563 1.956 0.0 0 0 0 0 0 255
0.02223 2.11764 0.0 0 0 0 0 0 255
0.257562 -1.365396 0.0 0 0 0 0 0 255
0.292296 -1.179 0.0 0 0 0 0 0 255
0.200652 -0.952938 0.0 0 0 0 0 0 255
0.18042 -1.076646 0.0 0 0 0 0 0 255
0.492738 -0.687894 0.0 0 0 0 0 0 255
0.0261 -0.58437 0.0 0 0 0 0 0 255
0.150276 -0.639774 0.0 0 0 0 0 0 255
0.97926 -0.00525 0.0 0 0 0 0 0 255
0.395178 0.124836 0.0 0 0 0 0 0 255
0.25644 0.48057 0.0 0 0 0 0 0 255
0.341814 0.461238 0.0 0 0 0 0 0 255
0.13464 0.780582 0.0 0 0 0 0 0 255
0.748794 0.282372 0.0 0 0 0 0 0 255
0.661338 0.619278 0.0 0 0 0 0 0 255
0.178788 1.00317 0.0 0 0 0 0 0 255
0.298944 1.418406 0.0 0 0 0 0 0 255
0.59586 0.935694 0.0 0 0 0 0 0 255
0.45702 1.064034 0.0 0 0 0 0 0 255
0.661842 1.317072 0.0 0 0 0 0 0 255
0.835182 0.398106 0.0 0 0 0 0 0 255
1.113462 0.41022 0.0 0 0 0 0 0 255
1.07973 0.579252 0.0 0 0 0 0 0 255
1.08543 0.65583 0.0 0 0 0 0 0 255
1.413822 0.480426 0.0 0 0 0 0 0 255
1.439478 0.708738 0.0 0 0 0 0 0 255
0.899064 0.897438 0.0 0 0 0 0 0 255
0.819198 1.253382 0.0 0 0 0 0 0 255
0.3789 1.601928 0.0 0 0 0 0 0 255
0.17769 1.865022 0.0 0 0 0 0 0 255
0.267576 1.965612 0.0 0 0 0 0 0 255
0.347262 1.968366 0.0 0 0 0 0 0 255
0.36342 2.144286 0.0 0 0 0 0 0 255
0.147972 2.268186 0.0 0 0 0 0 0 255
0.516456 1.54863 0.0 0 0 0 0 0 255
0.061068 2.428974 0.0 0 0 0 0 0 255

3 33 31 32
3 63 57 45
3 59 58 60
3 59 60 61
3 50 51 49
3 61 59 60
3 59 60 61
3 31 33 30
3 32 33 31
3 19 14 18
3 8 7 2
3 39 17 40
3 18 16 15
3 6 5 31
3 30 31 5
3 31 33 5
3 5 30 31
3 6 30 5
3 36 34 35
3 41 22 19
3 41 44 22
3 44 24 22
3 47 46 48
3 50 52 51
3 51 50 53
3 26 28 27
3 62 61 64
3 58 60 59
3 58 57 60
3 25 28 27
3 25 29 28
3 2 7 3
3 31 32 30
3 34 31 30
3 35 36 34
3 11 9 10
3 4 3 11
3 14 13 18
3 13 16 18
3 41 44 18
3 39 18 40
3 19 20 14
3 20 19 22
3 25 20 21
3 25 14 20
3 9 10 11
3 11 7 9
3 8 9 7
3 9 8 12
3 10 12 15
3 15 11 10
3 12 8 38
3 10 9 12
3 17 18 15
3 21 23 26
3 24 23 21
3 24 41 44
3 44 45 24
3 41 47 44
3 45 23 24
3 48 46 56
3 43 52 55
3 51 49 50
3 50 52 51
3 49 51 43
3 51 52 43
3 42 38 37
3 37 50 49
3 49 42 37
3 50 53 49
3 55 51 52
3 52 54 55
3 51 53 52
3 55 37 51
3 53 51 50
3 37 53 50
3 50 51 37
3 53 54 52
3 28 58 29
3 29 27 28
3 58 28 27
3 29 58 59
3 29 64 27
3 62 29 59
3 62 61 64
3 61 62 59
3 62 64 29
3 61 63 56
3 63 48 56
3 63 60 57
3 57 48 63
3 63 61 60
3 25 28 27
3 27 64 25
3 28 29 27
3 25 29 28
3 29 62 64
3 64 27 29
3 1 2 0
3 2 3 0
3 0 8 1
3 2 8 7
3 7 3 2
3 2 1 8
3 1 2 0
3 0 2 3
3 3 4 0
3 6 30 5
3 5 32 6
3 30 31 5
3 33 31 32
3 32 5 33
3 31 30 34
3 34 32 31
3 33 5 31
3 36 32 34
3 31 34 32
3 8 10 9
3 9 7 8
3 10 11 9
3 3 9 11
3 3 8 7
3 3 7 9
3 12 15 10
3 15 11 10
3 11 16 13
3 13 14 11
3 16 15 14
3 14 13 16
3 11 15 16
3 22 19 41
3 17 39 41
3 41 19 18
3 18 17 41
3 19 22 18
3 4 11 13
3 13 14 4
3 11 19 13
3 20 19 25
3 25 14 20
3 14 13 19
3 19 20 14
3 25 4 14
3 6 5 35
3 5 32 35
3 5 33 32
3 32 36 35
3 15 12 17
3 17 39 15
3 12 38 17
3 40 17 38
3 40 39 17
3 24 21 22
3 22 19 24
3 21 20 22
3 19 14 4
3 14 21 4
3 14 19 20
3 21 14 20
3 19 22 20
3 27 25 26
3 21 26 25
3 41 40 43
3 41 39 40
3 41 47 44
3 47 41 46
3 41 43 46
3 26 23 58
3 58 28 26
3 57 23 45
3 57 58 23
3 56 63 48
3 48 47 56
3 45 63 57
3 63 45 48
3 47 45 44
3 45 57 24
3 24 44 45
3 47 48 45
3 56 46 55
3 43 55 46
3 39 38 40
3 40 43 39
3 38 42 40
3 43 42 49
3 43 40 42
3 37 53 50

