ply
format ascii 1.0
comment VCGLIB generated
element vertex 231
property float x
property float y
property float z
property float nx
property float ny
property float nz
property uchar red
property uchar green
property uchar blue
element face 458
property list uchar int vertex_indices
end_header
0.707107 0.707107 0.0 0 0 0 0 36 255
-0.707107 0.707107 0.0 0 0 0 0 36 255
0.0 0.707107 -0.707107 0 0 0 0 22 255
0.707107 0.0 -0.707107 0 0 0 0 22 255
-0.707107 0.0 -0.707107 0 0 0 0 22 255
0.0 -0.707107 -0.707107 0 0 0 0 22 255
0.707107 -0.707107 0.0 0 0 0 0 36 255
-0.707107 -0.707107 0.0 0 0 0 0 36 255
0.673887 0.673887 -0.302905 0 0 0 0 22 255
0.382683 0.92388 0.0 0 0 0 0 26 255
-0.673887 0.673887 0.302905 0 0 0 0 22 255
-0.382683 0.92388 0.0 0 0 0 0 26 255
-0.408248 0.816497 -0.408248 0 0 0 0 22 255
0.408248 0.408248 -0.816497 0 0 0 0 22 255
-0.408248 -0.408248 -0.816497 0 0 0 0 22 255
0.408248 -0.816497 -0.408248 0 0 0 0 22 255
0.673887 -0.673887 0.302905 0 0 0 0 22 255
0.382683 -0.92388 0.0 0 0 0 0 26 255
-0.673887 -0.673887 -0.302905 0 0 0 0 22 255
-0.382683 -0.92388 0.0 0 0 0 0 26 255
-0.408248 -0.816497 0.408248 0 0 0 0 18 255
0.92388 -0.382683 0.0 0 0 0 0 26 255
0.816497 -0.408248 -0.408248 0 0 0 0 22 255
0.92388 0.382683 0.0 0 0 0 0 26 255
-0.92388 -0.382683 0.0 0 0 0 0 26 255
-0.92388 0.382683 0.0 0 0 0 0 26 255
-0.816497 0.408248 -0.408248 0 0 0 0 22 255
-0.44539 -0.633099 0.633099 0 0 0 0 41 255
-0.320792 -0.510307 0.797922 0 0 0 0 42 255
0.0 -0.55557 0.83147 0 0 0 0 36 255
-0.153263 -0.698753 0.698753 0 0 0 0 40 255
0.0 -0.19509 0.980785 0 0 0 0 42 255
-0.164817 -0.358851 0.918728 0 0 0 0 48 255
0.633099 -0.44539 0.633099 0 0 0 0 35 255
0.44539 -0.633099 0.633099 0 0 0 0 32 255
0.698753 -0.153263 0.698753 0 0 0 0 40 255
0.548101 -0.360199 0.754879 0 0 0 0 28 255
0.153263 -0.698753 0.698753 0 0 0 0 40 255
0.360199 -0.548101 0.754879 0 0 0 0 34 255
0.633099 0.44539 0.633099 0 0 0 0 35 255
0.510307 0.320792 0.797922 0 0 0 0 42 255
0.19509 0.0 0.980785 0 0 0 0 47 255
0.358851 0.164817 0.918728 0 0 0 0 46 255
0.698753 0.153263 0.698753 0 0 0 0 40 255
0.55557 0.0 0.83147 0 0 0 0 36 255
0.208846 -0.404615 0.89032 0 0 0 0 44 255
0.404615 -0.208846 0.89032 0 0 0 0 55 255
-0.633099 -0.44539 0.633099 0 0 0 0 39 255
-0.510307 -0.320792 0.797922 0 0 0 0 40 255
-0.19509 0.0 0.980785 0 0 0 0 53 255
-0.358851 -0.164817 0.918728 0 0 0 0 38 255
-0.698753 -0.153263 0.698753 0 0 0 0 40 255
-0.55557 0.0 0.83147 0 0 0 0 36 255
0.44539 0.633099 0.633099 0 0 0 0 44 255
0.320792 0.510307 0.797922 0 0 0 0 40 255
0.0 0.55557 0.83147 0 0 0 0 36 255
0.153263 0.698753 0.698753 0 0 0 0 40 255
0.0 0.19509 0.980785 0 0 0 0 38 255
0.164817 0.358851 0.918728 0 0 0 0 42 255
-0.633099 0.44539 0.633099 0 0 0 0 32 255
-0.44539 0.633099 0.633099 0 0 0 0 35 255
-0.698753 0.153263 0.698753 0 0 0 0 40 255
-0.548101 0.360199 0.754879 0 0 0 0 34 255
-0.153263 0.698753 0.698753 0 0 0 0 40 255
-0.360199 0.548101 0.754879 0 0 0 0 28 255
-0.208846 0.404615 0.89032 0 0 0 0 55 255
-0.404615 0.208846 0.89032 0 0 0 0 44 255
-0.320792 0.797922 0.510307 0 0 0 0 44 255
0.0 0.83147 0.55557 0 0 0 0 36 255
0.0 0.980785 0.19509 0 0 0 0 43 255
-0.164817 0.918728 0.358851 0 0 0 0 38 255
0.57735 0.788675 0.211325 0 0 0 0 35 255
0.548101 0.754879 0.360199 0 0 0 0 35 255
0.360199 0.754879 0.548101 0 0 0 0 28 255
0.633099 0.633099 -0.44539 0 0 0 0 31 255
0.510307 0.797922 -0.320792 0 0 0 0 31 255
0.19509 0.980785 0.0 0 0 0 0 29 255
0.358851 0.918728 -0.164817 0 0 0 0 30 255
0.544816 0.823881 -0.156192 0 0 0 0 29 255
0.208846 0.89032 0.404615 0 0 0 0 47 255
0.404615 0.89032 0.208846 0 0 0 0 26 255
0.198757 0.959683 0.198757 0 0 0 0 23 255
-0.633099 0.633099 0.44539 0 0 0 0 36 255
-0.510307 0.797922 0.320792 0 0 0 0 26 255
-0.19509 0.980785 0.0 0 0 0 0 29 255
-0.358851 0.918728 0.164817 0 0 0 0 31 255
-0.544816 0.823881 0.156192 0 0 0 0 29 255
0.44539 0.633099 -0.633099 0 0 0 0 39 255
0.320792 0.797922 -0.510307 0 0 0 0 36 255
0.0 0.83147 -0.55557 0 0 0 0 32 255
0.153263 0.698753 -0.698753 0 0 0 0 23 255
0.0 0.980785 -0.19509 0 0 0 0 43 255
0.164817 0.918728 -0.358851 0 0 0 0 46 255
-0.44539 0.633099 -0.633099 0 0 0 0 39 255
-0.57735 0.788675 -0.211325 0 0 0 0 34 255
-0.548101 0.754879 -0.360199 0 0 0 0 26 255
-0.153263 0.698753 -0.698753 0 0 0 0 23 255
-0.211325 0.788675 -0.57735 0 0 0 0 22 255
-0.360199 0.754879 -0.548101 0 0 0 0 22 255
-0.198757 0.959683 -0.198757 0 0 0 0 23 255
-0.208846 0.89032 -0.404615 0 0 0 0 33 255
-0.404615 0.89032 -0.208846 0 0 0 0 24 255
-0.320792 0.510307 -0.797922 0 0 0 0 36 255
0.0 0.55557 -0.83147 0 0 0 0 32 255
0.0 0.19509 -0.980785 0 0 0 0 38 255
-0.164817 0.358851 -0.918728 0 0 0 0 48 255
0.633099 0.44539 -0.633099 0 0 0 0 32 255
0.57735 0.211325 -0.788675 0 0 0 0 22 255
0.698753 0.153263 -0.698753 0 0 0 0 23 255
0.548101 0.360199 -0.754879 0 0 0 0 24 255
0.211325 0.57735 -0.788675 0 0 0 0 22 255
0.360199 0.548101 -0.754879 0 0 0 0 22 255
0.633099 -0.44539 -0.633099 0 0 0 0 35 255
0.510307 -0.320792 -0.797922 0 0 0 0 44 255
0.19509 0.0 -0.980785 0 0 0 0 45 255
0.358851 -0.164817 -0.918728 0 0 0 0 42 255
0.698753 -0.153263 -0.698753 0 0 0 0 23 255
0.55557 0.0 -0.83147 0 0 0 0 32 255
0.208846 0.404615 -0.89032 0 0 0 0 37 255
0.404615 0.208846 -0.89032 0 0 0 0 35 255
-0.633099 0.44539 -0.633099 0 0 0 0 41 255
-0.510307 0.320792 -0.797922 0 0 0 0 44 255
-0.19509 0.0 -0.980785 0 0 0 0 53 255
-0.358851 0.164817 -0.918728 0 0 0 0 38 255
-0.698753 0.153263 -0.698753 0 0 0 0 23 255
-0.55557 0.0 -0.83147 0 0 0 0 32 255
0.44539 -0.633099 -0.633099 0 0 0 0 44 255
0.320792 -0.510307 -0.797922 0 0 0 0 36 255
0.0 -0.55557 -0.83147 0 0 0 0 32 255
0.153263 -0.698753 -0.698753 0 0 0 0 23 255
0.0 -0.19509 -0.980785 0 0 0 0 43 255
0.164817 -0.358851 -0.918728 0 0 0 0 46 255
-0.633099 -0.44539 -0.633099 0 0 0 0 39 255
-0.44539 -0.633099 -0.633099 0 0 0 0 32 255
-0.57735 -0.211325 -0.788675 0 0 0 0 22 255
-0.698753 -0.153263 -0.698753 0 0 0 0 23 255
-0.548101 -0.360199 -0.754879 0 0 0 0 22 255
-0.153263 -0.698753 -0.698753 0 0 0 0 23 255
-0.211325 -0.57735 -0.788675 0 0 0 0 22 255
-0.360199 -0.548101 -0.754879 0 0 0 0 24 255
-0.208846 -0.404615 -0.89032 0 0 0 0 37 255
-0.404615 -0.208846 -0.89032 0 0 0 0 35 255
-0.320792 -0.797922 -0.510307 0 0 0 0 44 255
0.0 -0.83147 -0.55557 0 0 0 0 32 255
0.0 -0.980785 -0.19509 0 0 0 0 43 255
-0.164817 -0.918728 -0.358851 0 0 0 0 38 255
0.57735 -0.788675 -0.211325 0 0 0 0 34 255
0.548101 -0.754879 -0.360199 0 0 0 0 27 255
0.211325 -0.788675 -0.57735 0 0 0 0 22 255
0.360199 -0.754879 -0.548101 0 0 0 0 22 255
0.633099 -0.633099 0.44539 0 0 0 0 36 255
0.510307 -0.797922 0.320792 0 0 0 0 26 255
0.19509 -0.980785 0.0 0 0 0 0 29 255
0.358851 -0.918728 0.164817 0 0 0 0 31 255
0.544816 -0.823881 0.156192 0 0 0 0 29 255
0.208846 -0.89032 -0.404615 0 0 0 0 33 255
0.404615 -0.89032 -0.208846 0 0 0 0 24 255
0.198757 -0.959683 -0.198757 0 0 0 0 23 255
-0.633099 -0.633099 -0.44539 0 0 0 0 31 255
-0.510307 -0.797922 -0.320792 0 0 0 0 26 255
-0.19509 -0.980785 0.0 0 0 0 0 29 255
-0.358851 -0.918728 -0.164817 0 0 0 0 31 255
-0.544816 -0.823881 -0.156192 0 0 0 0 29 255
0.320792 -0.797922 0.510307 0 0 0 0 44 255
0.0 -0.83147 0.55557 0 0 0 0 36 255
0.0 -0.980785 0.19509 0 0 0 0 43 255
0.164817 -0.918728 0.358851 0 0 0 0 38 255
-0.57735 -0.788675 0.211325 0 0 0 0 34 255
-0.548101 -0.754879 0.360199 0 0 0 0 27 255
-0.360199 -0.754879 0.548101 0 0 0 0 25 255
-0.198757 -0.959683 0.198757 0 0 0 0 23 255
-0.208846 -0.89032 0.404615 0 0 0 0 40 255
-0.404615 -0.89032 0.208846 0 0 0 0 24 255
0.797922 -0.510307 0.320792 0 0 0 0 26 255
0.823881 -0.544816 0.156192 0 0 0 0 29 255
0.980785 -0.19509 0.0 0 0 0 0 32 255
0.918728 -0.358851 0.164817 0 0 0 0 29 255
0.788675 -0.211325 -0.57735 0 0 0 0 22 255
0.754879 -0.360199 -0.548101 0 0 0 0 22 255
0.788675 -0.57735 -0.211325 0 0 0 0 38 255
0.754879 -0.548101 -0.360199 0 0 0 0 22 255
0.797922 0.320792 -0.510307 0 0 0 0 44 255
0.980785 0.0 -0.19509 0 0 0 0 43 255
0.918728 0.164817 -0.358851 0 0 0 0 38 255
0.83147 0.0 -0.55557 0 0 0 0 32 255
0.89032 -0.404615 -0.208846 0 0 0 0 24 255
0.89032 -0.208846 -0.404615 0 0 0 0 33 255
0.959683 -0.198757 -0.198757 0 0 0 0 23 255
0.797922 -0.320792 0.510307 0 0 0 0 44 255
0.980785 0.0 0.19509 0 0 0 0 39 255
0.918728 -0.164817 0.358851 0 0 0 0 42 255
0.83147 0.0 0.55557 0 0 0 0 36 255
0.797922 0.510307 -0.320792 0 0 0 0 26 255
0.823881 0.544816 -0.156192 0 0 0 0 29 255
0.980785 0.19509 0.0 0 0 0 0 29 255
0.918728 0.358851 -0.164817 0 0 0 0 31 255
0.754879 0.360199 0.548101 0 0 0 0 28 255
0.788675 0.57735 0.211325 0 0 0 0 29 255
0.754879 0.548101 0.360199 0 0 0 0 44 255
0.959683 0.198757 0.198757 0 0 0 0 23 255
0.89032 0.404615 0.208846 0 0 0 0 26 255
0.89032 0.208846 0.404615 0 0 0 0 47 255
-0.797922 -0.510307 -0.320792 0 0 0 0 29 255
-0.823881 -0.544816 -0.156192 0 0 0 0 29 255
-0.980785 -0.19509 0.0 0 0 0 0 32 255
-0.918728 -0.358851 -0.164817 0 0 0 0 29 255
-0.754879 -0.360199 0.548101 0 0 0 0 28 255
-0.788675 -0.57735 0.211325 0 0 0 0 35 255
-0.754879 -0.548101 0.360199 0 0 0 0 39 255
-0.797922 0.320792 0.510307 0 0 0 0 44 255
-0.980785 0.0 0.19509 0 0 0 0 43 255
-0.918728 0.164817 0.358851 0 0 0 0 38 255
-0.83147 0.0 0.55557 0 0 0 0 36 255
-0.89032 -0.404615 0.208846 0 0 0 0 26 255
-0.89032 -0.208846 0.404615 0 0 0 0 47 255
-0.959683 -0.198757 0.198757 0 0 0 0 23 255
-0.797922 -0.320792 -0.510307 0 0 0 0 40 255
-0.980785 0.0 -0.19509 0 0 0 0 39 255
-0.918728 -0.164817 -0.358851 0 0 0 0 42 255
-0.83147 0.0 -0.55557 0 0 0 0 32 255
-0.797922 0.510307 0.320792 0 0 0 0 26 255
-0.823881 0.544816 0.156192 0 0 0 0 29 255
-0.980785 0.19509 0.0 0 0 0 0 29 255
-0.918728 0.358851 0.164817 0 0 0 0 31 255
-0.788675 0.211325 -0.57735 0 0 0 0 22 255
-0.754879 0.360199 -0.548101 0 0 0 0 22 255
-0.788675 0.57735 -0.211325 0 0 0 0 38 255
-0.754879 0.548101 -0.360199 0 0 0 0 23 255
-0.959683 0.198757 -0.198757 0 0 0 0 23 255
-0.89032 0.404615 -0.208846 0 0 0 0 24 255
-0.89032 0.208846 -0.404615 0 0 0 0 33 255

3 8 74 75
3 9 77 76
3 9 78 77
3 8 75 78
3 77 78 75
3 9 76 81
3 69 81 76
3 9 81 80
3 80 81 79
3 10 82 83
3 11 85 84
3 11 86 85
3 10 83 86
3 85 86 83
3 2 89 90
3 12 95 94
3 2 96 97
3 12 97 98
3 96 98 97
3 12 98 95
3 11 84 99
3 91 99 84
3 2 97 89
3 12 100 97
3 97 100 89
3 12 94 101
3 12 101 100
3 11 99 101
3 100 101 99
3 2 103 96
3 3 107 108
3 13 109 107
3 107 109 108
3 2 90 110
3 13 110 111
3 90 111 110
3 13 111 109
3 3 116 117
3 2 110 103
3 13 118 110
3 110 118 103
3 3 117 107
3 13 107 119
3 117 119 107
3 13 119 118
3 4 124 125
3 5 128 129
3 4 134 135
3 14 136 134
3 134 136 135
3 5 137 138
3 14 138 139
3 137 139 138
3 14 139 136
3 5 138 128
3 14 140 138
3 138 140 128
3 4 125 134
3 14 134 141
3 125 141 134
3 14 141 140
3 5 143 137
3 15 147 146
3 5 129 148
3 15 148 149
3 129 149 148
3 15 149 147
3 16 150 151
3 17 153 152
3 17 154 153
3 16 151 154
3 153 154 151
3 5 148 143
3 15 155 148
3 148 155 143
3 15 146 156
3 17 152 157
3 144 157 152
3 15 156 155
3 17 157 156
3 156 157 155
3 18 158 159
3 19 161 160
3 19 162 161
3 18 159 162
3 161 162 159
3 20 168 167
3 20 169 168
3 19 160 170
3 165 170 160
3 20 167 172
3 20 172 171
3 19 170 172
3 171 172 170
3 16 173 150
3 21 175 176
3 16 174 173
3 21 176 174
3 174 176 173
3 3 177 116
3 22 178 177
3 177 178 116
3 22 179 180
3 22 180 178
3 3 108 184
3 22 185 179
3 3 184 177
3 22 177 186
3 184 186 177
3 21 187 175
3 175 187 182
3 22 186 185
3 21 185 187
3 186 187 185
3 8 192 74
3 23 194 195
3 8 193 192
3 23 195 193
3 193 195 192
3 23 199 194
3 194 199 189
3 23 200 199
3 200 201 199
3 18 202 158
3 24 204 205
3 18 203 202
3 24 205 203
3 203 205 202
3 24 215 204
3 204 215 210
3 24 213 215
3 214 215 213
3 4 135 219
3 10 220 82
3 25 222 223
3 10 221 220
3 25 223 221
3 221 223 220
3 4 224 124
3 26 225 224
3 224 225 124
3 26 226 227
3 26 227 225
3 25 228 222
3 222 228 217
3 26 229 226
3 4 219 224
3 26 224 230
3 219 230 224
3 25 229 228
3 26 230 229
3 229 230 228
3 0 71 197
3 71 198 197
3 198 71 72
3 1 226 94
3 226 95 94
3 95 226 227
3 6 179 146
3 179 147 146
3 147 179 180
3 207 167 168
3 207 168 208
3 207 7 167
3 150 33 34
3 133 132 158
3 82 59 60
3 87 106 74
3 7 18 203
3 162 18 7
3 8 0 78
3 0 8 193
3 86 1 10
3 1 221 10
3 16 6 174
3 16 154 6
3 9 71 78
3 71 9 80
3 71 0 78
3 167 19 172
3 162 167 7
3 162 19 167
3 24 207 203
3 207 24 213
3 207 7 203
3 193 197 0
3 23 200 197
3 197 193 23
3 6 179 174
3 21 179 185
3 21 174 179
3 1 226 221
3 25 226 229
3 25 221 226
3 86 94 11
3 86 1 94
3 94 101 11
3 154 146 17
3 154 6 146
3 146 156 17
3 53 40 39
3 40 53 54
3 113 127 126
3 126 112 113
3 150 163 151
3 150 34 163
3 150 188 173
3 150 33 188
3 159 142 158
3 142 133 158
3 202 132 158
3 216 132 202
3 75 87 74
3 75 88 87
3 181 192 74
3 74 106 181
3 60 67 82
3 83 82 67
3 28 47 27
3 48 47 28
3 121 102 93
3 93 120 121
3 220 209 82
3 209 59 82
3 178 116 112
3 113 112 116
3 117 113 116
3 115 113 117
3 180 178 112
3 43 39 40
3 39 43 196
3 196 198 39
3 40 44 43
3 44 40 42
3 54 53 56
3 73 56 53
3 56 55 54
3 58 54 55
3 129 126 127
3 126 129 149
3 127 128 129
3 128 127 131
3 38 37 34
3 163 34 37
3 34 33 38
3 36 38 33
3 36 33 35
3 35 33 188
3 188 191 35
3 188 190 191
3 164 166 163
3 163 37 164
3 51 47 48
3 47 51 206
3 206 208 47
3 48 52 51
3 48 50 52
3 96 93 102
3 93 96 98
3 103 96 102
3 102 105 103
3 93 98 95
3 109 108 106
3 181 106 108
3 106 87 109
3 111 109 87
3 87 90 111
3 87 88 90
3 184 181 108
3 183 181 184
3 90 88 89
3 89 88 92
3 133 137 139
3 137 133 142
3 139 132 133
3 132 139 136
3 135 132 136
3 216 132 135
3 142 143 137
3 142 145 143
3 219 218 216
3 216 135 219
3 121 120 124
3 225 124 120
3 124 125 121
3 123 121 125
3 28 27 30
3 169 30 27
3 29 32 28
3 28 30 29
3 59 61 62
3 61 59 209
3 62 60 59
3 60 62 64
3 63 67 60
3 60 64 63
3 68 67 63
3 70 67 68
3 209 212 61
3 209 211 212
3 77 92 75
3 92 88 75
3 76 91 77
3 91 92 77
3 209 223 220
3 209 211 223
3 223 210 222
3 223 211 210
3 54 42 40
3 54 58 42
3 58 41 42
3 41 58 57
3 161 145 142
3 142 159 161
3 160 144 161
3 144 145 161
3 32 50 48
3 48 28 32
3 31 49 32
3 49 50 32
3 41 49 31
3 49 41 57
3 121 105 102
3 121 123 105
3 105 122 104
3 105 123 122
3 163 153 151
3 163 166 153
3 153 165 152
3 153 166 165
3 144 165 152
3 165 144 160
3 176 190 188
3 188 173 176
3 175 190 176
3 175 189 190
3 113 131 127
3 131 113 115
3 115 130 131
3 115 114 130
3 114 122 130
3 122 114 104
3 192 195 181
3 183 181 195
3 194 182 195
3 182 183 195
3 189 182 194
3 182 189 175
3 83 67 85
3 85 67 70
3 69 85 70
3 69 84 85
3 69 91 84
3 91 69 76
3 218 205 216
3 205 202 216
3 204 205 218
3 218 217 204
3 217 210 204
3 210 217 222
3 169 27 168
3 27 47 208
3 208 168 27
3 39 198 53
3 72 53 198
3 72 73 53
3 126 180 112
3 126 149 147
3 147 180 126
3 225 120 227
3 120 93 95
3 95 227 120
3 165 171 170
3 171 166 164
3 171 165 166
3 89 92 100
3 100 92 91
3 91 99 100
3 157 155 144
3 155 143 145
3 145 144 155
3 65 58 55
3 65 57 58
3 130 140 131
3 140 128 131
3 104 118 105
3 118 103 105
3 45 32 29
3 45 31 32
3 119 114 115
3 115 117 119
3 44 42 46
3 46 42 41
3 52 50 66
3 66 50 49
3 191 190 201
3 201 190 189
3 189 199 201
3 186 183 184
3 182 186 187
3 182 183 186
3 212 211 214
3 214 211 210
3 210 215 214
3 123 141 122
3 123 125 141
3 81 69 79
3 79 69 70
3 70 68 79
3 218 230 217
3 218 219 230
3 230 228 217
3 114 118 104
3 118 114 119
3 46 31 45
3 31 46 41
3 66 49 65
3 57 65 49
3 122 140 130
3 140 122 141
3 55 56 63
3 68 63 56
3 68 56 79
3 79 56 73
3 65 55 63
3 63 64 65
3 64 62 65
3 66 65 62
3 61 66 62
3 52 66 61
3 61 51 52
3 51 61 212
3 214 51 212
3 206 51 214
3 73 72 79
3 80 72 71
3 80 79 72
3 207 208 213
3 208 206 214
3 214 213 208
3 35 43 44
3 43 35 191
3 46 36 35
3 35 44 46
3 43 201 196
3 43 191 201
3 197 198 200
3 198 196 201
3 201 200 198
3 38 36 46
3 46 45 38
3 38 45 37
3 37 45 29
3 30 37 29
3 164 37 30
3 20 171 169
3 171 164 30
3 30 169 171

