ply
format ascii 1.0
comment VCGLIB generated
element vertex 308
property float x
property float y
property float z
property float nx
property float ny
property float nz
property uchar red
property uchar green
property uchar blue
element face 618
property list uchar int vertex_indices
end_header
0.0 -0.707107 0.707107 0 0 0 0 22 255
0.0 0.0 1.0 0 0 0 0 22 255
0.707107 0.0 0.707107 0 0 0 0 22 255
-0.707107 0.0 0.707107 0 0 0 0 22 255
0.0 0.707107 0.707107 0 0 0 0 22 255
0.0 1.0 0.0 0 0 0 0 22 255
0.707107 0.707107 0.0 0 0 0 0 36 255
-0.707107 0.707107 0.0 0 0 0 0 36 255
0.0 0.707107 -0.707107 0 0 0 0 22 255
0.0 0.0 -1.0 0 0 0 0 22 255
0.707107 0.0 -0.707107 0 0 0 0 22 255
-0.707107 0.0 -0.707107 0 0 0 0 22 255
0.0 -0.707107 -0.707107 0 0 0 0 22 255
0.0 -1.0 0.0 0 0 0 0 22 255
0.707107 -0.707107 0.0 0 0 0 0 36 255
-0.707107 -0.707107 0.0 0 0 0 0 36 255
1.0 0.0 0.0 0 0 0 0 22 255
-1.0 0.0 0.0 0 0 0 0 22 255
-0.325058 -0.325058 0.888074 0 0 0 0 20 255
0.0 -0.382683 0.92388 0 0 0 0 23 255
0.408248 -0.408248 0.816497 0 0 0 0 22 255
0.325058 0.325058 0.888074 0 0 0 0 20 255
0.382683 0.0 0.92388 0 0 0 0 20 255
-0.382683 0.0 0.92388 0 0 0 0 20 255
0.0 0.382683 0.92388 0 0 0 0 20 255
-0.673887 0.302905 0.673887 0 0 0 0 19 255
-0.302905 0.673887 0.673887 0 0 0 0 19 255
-0.408248 0.408248 0.816497 0 0 0 0 22 255
-0.325058 0.888074 0.325058 0 0 0 0 20 255
0.0 0.92388 0.382683 0 0 0 0 23 255
0.408248 0.816497 0.408248 0 0 0 0 22 255
0.325058 0.888074 -0.325058 0 0 0 0 20 255
0.673887 0.673887 -0.302905 0 0 0 0 22 255
0.382683 0.92388 0.0 0 0 0 0 26 255
-0.673887 0.673887 0.302905 0 0 0 0 22 255
-0.382683 0.92388 0.0 0 0 0 0 26 255
0.0 0.92388 -0.382683 0 0 0 0 20 255
-0.408248 0.816497 -0.408248 0 0 0 0 22 255
-0.325058 0.325058 -0.888074 0 0 0 0 20 255
0.0 0.382683 -0.92388 0 0 0 0 20 255
0.408248 0.408248 -0.816497 0 0 0 0 22 255
0.325058 -0.325058 -0.888074 0 0 0 0 20 255
0.382683 0.0 -0.92388 0 0 0 0 20 255
-0.382683 0.0 -0.92388 0 0 0 0 20 255
0.0 -0.382683 -0.92388 0 0 0 0 20 255
-0.408248 -0.408248 -0.816497 0 0 0 0 22 255
-0.325058 -0.888074 -0.325058 0 0 0 0 20 255
0.0 -0.92388 -0.382683 0 0 0 0 20 255
0.408248 -0.816497 -0.408248 0 0 0 0 22 255
0.325058 -0.888074 0.325058 0 0 0 0 20 255
0.673887 -0.673887 0.302905 0 0 0 0 22 255
0.382683 -0.92388 0.0 0 0 0 0 26 255
-0.673887 -0.673887 -0.302905 0 0 0 0 22 255
-0.382683 -0.92388 0.0 0 0 0 0 26 255
0.0 -0.92388 0.382683 0 0 0 0 20 255
-0.408248 -0.816497 0.408248 0 0 0 0 22 255
0.888074 -0.325058 0.325058 0 0 0 0 20 255
0.92388 -0.382683 0.0 0 0 0 0 26 255
0.816497 -0.408248 -0.408248 0 0 0 0 22 255
0.888074 0.325058 -0.325058 0 0 0 0 20 255
0.92388 0.0 -0.382683 0 0 0 0 20 255
0.92388 0.0 0.382683 0 0 0 0 20 255
0.92388 0.382683 0.0 0 0 0 0 26 255
0.816497 0.408248 0.408248 0 0 0 0 22 255
-0.888074 -0.325058 -0.325058 0 0 0 0 20 255
-0.92388 -0.382683 0.0 0 0 0 0 26 255
-0.816497 -0.408248 0.408248 0 0 0 0 22 255
-0.888074 0.325058 0.325058 0 0 0 0 20 255
-0.92388 0.0 0.382683 0 0 0 0 23 255
-0.92388 0.0 -0.382683 0 0 0 0 20 255
-0.92388 0.382683 0.0 0 0 0 0 26 255
-0.816497 0.408248 -0.408248 0 0 0 0 22 255
-0.44539 -0.633099 0.633099 0 0 0 0 31 255
-0.320792 -0.510307 0.797922 0 0 0 0 32 255
0.0 -0.55557 0.83147 0 0 0 0 23 255
-0.153263 -0.698753 0.698753 0 0 0 0 22 255
-0.156192 -0.544816 0.823881 0 0 0 0 18 255
-0.167277 -0.167277 0.971616 0 0 0 0 21 255
0.0 -0.19509 0.980785 0 0 0 0 23 255
-0.164817 -0.358851 0.918728 0 0 0 0 21 255
0.633099 -0.44539 0.633099 0 0 0 0 35 255
0.44539 -0.633099 0.633099 0 0 0 0 32 255
0.57735 -0.211325 0.788675 0 0 0 0 22 255
0.698753 -0.153263 0.698753 0 0 0 0 23 255
0.548101 -0.360199 0.754879 0 0 0 0 22 255
0.153263 -0.698753 0.698753 0 0 0 0 23 255
0.211325 -0.57735 0.788675 0 0 0 0 22 255
0.360199 -0.548101 0.754879 0 0 0 0 24 255
0.633099 0.44539 0.633099 0 0 0 0 37 255
0.510307 0.320792 0.797922 0 0 0 0 39 255
0.19509 0.0 0.980785 0 0 0 0 23 255
0.167277 0.167277 0.971616 0 0 0 0 21 255
0.358851 0.164817 0.918728 0 0 0 0 23 255
0.698753 0.153263 0.698753 0 0 0 0 23 255
0.55557 0.0 0.83147 0 0 0 0 30 255
0.208846 -0.404615 0.89032 0 0 0 0 27 255
0.404615 -0.208846 0.89032 0 0 0 0 27 255
0.198757 -0.198757 0.959683 0 0 0 0 27 255
-0.633099 -0.44539 0.633099 0 0 0 0 40 255
-0.510307 -0.320792 0.797922 0 0 0 0 34 255
-0.19509 0.0 0.980785 0 0 0 0 23 255
-0.358851 -0.164817 0.918728 0 0 0 0 23 255
-0.698753 -0.153263 0.698753 0 0 0 0 23 255
-0.55557 0.0 0.83147 0 0 0 0 30 255
0.44539 0.633099 0.633099 0 0 0 0 36 255
0.320792 0.510307 0.797922 0 0 0 0 34 255
0.0 0.55557 0.83147 0 0 0 0 30 255
0.153263 0.698753 0.698753 0 0 0 0 23 255
0.0 0.19509 0.980785 0 0 0 0 23 255
0.164817 0.358851 0.918728 0 0 0 0 23 255
-0.633099 0.44539 0.633099 0 0 0 0 21 255
-0.44539 0.633099 0.633099 0 0 0 0 21 255
-0.506121 0.506121 0.698343 0 0 0 0 20 255
-0.57735 0.211325 0.788675 0 0 0 0 22 255
-0.698753 0.153263 0.698753 0 0 0 0 19 255
-0.548101 0.360199 0.754879 0 0 0 0 20 255
-0.153263 0.698753 0.698753 0 0 0 0 19 255
-0.211325 0.57735 0.788675 0 0 0 0 22 255
-0.360199 0.548101 0.754879 0 0 0 0 20 255
-0.198757 0.198757 0.959683 0 0 0 0 27 255
-0.208846 0.404615 0.89032 0 0 0 0 27 255
-0.404615 0.208846 0.89032 0 0 0 0 27 255
-0.320792 0.797922 0.510307 0 0 0 0 27 255
0.0 0.83147 0.55557 0 0 0 0 23 255
-0.156192 0.823881 0.544816 0 0 0 0 21 255
-0.167277 0.971616 0.167277 0 0 0 0 21 255
0.0 0.980785 0.19509 0 0 0 0 23 255
-0.164817 0.918728 0.358851 0 0 0 0 21 255
0.506121 0.698343 0.506121 0 0 0 0 20 255
0.57735 0.788675 0.211325 0 0 0 0 38 255
0.548101 0.754879 0.360199 0 0 0 0 20 255
0.211325 0.788675 0.57735 0 0 0 0 22 255
0.360199 0.754879 0.548101 0 0 0 0 20 255
0.633099 0.633099 -0.44539 0 0 0 0 31 255
0.510307 0.797922 -0.320792 0 0 0 0 27 255
0.19509 0.980785 0.0 0 0 0 0 23 255
0.167277 0.971616 -0.167277 0 0 0 0 21 255
0.358851 0.918728 -0.164817 0 0 0 0 21 255
0.544816 0.823881 -0.156192 0 0 0 0 29 255
0.208846 0.89032 0.404615 0 0 0 0 27 255
0.404615 0.89032 0.208846 0 0 0 0 24 255
0.198757 0.959683 0.198757 0 0 0 0 27 255
-0.633099 0.633099 0.44539 0 0 0 0 36 255
-0.510307 0.797922 0.320792 0 0 0 0 25 255
-0.19509 0.980785 0.0 0 0 0 0 23 255
-0.358851 0.918728 0.164817 0 0 0 0 21 255
-0.544816 0.823881 0.156192 0 0 0 0 29 255
0.44539 0.633099 -0.633099 0 0 0 0 39 255
0.320792 0.797922 -0.510307 0 0 0 0 34 255
0.0 0.83147 -0.55557 0 0 0 0 30 255
0.153263 0.698753 -0.698753 0 0 0 0 23 255
0.0 0.980785 -0.19509 0 0 0 0 23 255
0.164817 0.918728 -0.358851 0 0 0 0 23 255
-0.44539 0.633099 -0.633099 0 0 0 0 40 255
-0.57735 0.788675 -0.211325 0 0 0 0 34 255
-0.548101 0.754879 -0.360199 0 0 0 0 27 255
-0.153263 0.698753 -0.698753 0 0 0 0 23 255
-0.211325 0.788675 -0.57735 0 0 0 0 22 255
-0.360199 0.754879 -0.548101 0 0 0 0 22 255
-0.198757 0.959683 -0.198757 0 0 0 0 27 255
-0.208846 0.89032 -0.404615 0 0 0 0 27 255
-0.404615 0.89032 -0.208846 0 0 0 0 24 255
-0.320792 0.510307 -0.797922 0 0 0 0 34 255
0.0 0.55557 -0.83147 0 0 0 0 30 255
-0.167277 0.167277 -0.971616 0 0 0 0 21 255
0.0 0.19509 -0.980785 0 0 0 0 23 255
-0.164817 0.358851 -0.918728 0 0 0 0 23 255
0.633099 0.44539 -0.633099 0 0 0 0 32 255
0.57735 0.211325 -0.788675 0 0 0 0 22 255
0.698753 0.153263 -0.698753 0 0 0 0 23 255
0.548101 0.360199 -0.754879 0 0 0 0 24 255
0.211325 0.57735 -0.788675 0 0 0 0 22 255
0.360199 0.548101 -0.754879 0 0 0 0 22 255
0.633099 -0.44539 -0.633099 0 0 0 0 37 255
0.510307 -0.320792 -0.797922 0 0 0 0 39 255
0.19509 0.0 -0.980785 0 0 0 0 23 255
0.167277 -0.167277 -0.971616 0 0 0 0 21 255
0.358851 -0.164817 -0.918728 0 0 0 0 23 255
0.698753 -0.153263 -0.698753 0 0 0 0 23 255
0.55557 0.0 -0.83147 0 0 0 0 30 255
0.208846 0.404615 -0.89032 0 0 0 0 27 255
0.404615 0.208846 -0.89032 0 0 0 0 27 255
0.198757 0.198757 -0.959683 0 0 0 0 27 255
-0.633099 0.44539 -0.633099 0 0 0 0 31 255
-0.510307 0.320792 -0.797922 0 0 0 0 39 255
-0.19509 0.0 -0.980785 0 0 0 0 23 255
-0.358851 0.164817 -0.918728 0 0 0 0 23 255
-0.698753 0.153263 -0.698753 0 0 0 0 23 255
-0.55557 0.0 -0.83147 0 0 0 0 30 255
0.44539 -0.633099 -0.633099 0 0 0 0 36 255
0.320792 -0.510307 -0.797922 0 0 0 0 34 255
0.0 -0.55557 -0.83147 0 0 0 0 30 255
0.153263 -0.698753 -0.698753 0 0 0 0 23 255
0.0 -0.19509 -0.980785 0 0 0 0 23 255
0.164817 -0.358851 -0.918728 0 0 0 0 23 255
-0.633099 -0.44539 -0.633099 0 0 0 0 39 255
-0.44539 -0.633099 -0.633099 0 0 0 0 32 255
-0.57735 -0.211325 -0.788675 0 0 0 0 22 255
-0.698753 -0.153263 -0.698753 0 0 0 0 23 255
-0.548101 -0.360199 -0.754879 0 0 0 0 22 255
-0.153263 -0.698753 -0.698753 0 0 0 0 23 255
-0.211325 -0.57735 -0.788675 0 0 0 0 22 255
-0.360199 -0.548101 -0.754879 0 0 0 0 24 255
-0.198757 -0.198757 -0.959683 0 0 0 0 27 255
-0.208846 -0.404615 -0.89032 0 0 0 0 27 255
-0.404615 -0.208846 -0.89032 0 0 0 0 27 255
-0.320792 -0.797922 -0.510307 0 0 0 0 39 255
0.0 -0.83147 -0.55557 0 0 0 0 30 255
-0.167277 -0.971616 -0.167277 0 0 0 0 21 255
0.0 -0.980785 -0.19509 0 0 0 0 23 255
-0.164817 -0.918728 -0.358851 0 0 0 0 23 255
0.506121 -0.698343 -0.506121 0 0 0 0 20 255
0.57735 -0.788675 -0.211325 0 0 0 0 34 255
0.548101 -0.754879 -0.360199 0 0 0 0 24 255
0.211325 -0.788675 -0.57735 0 0 0 0 22 255
0.360199 -0.754879 -0.548101 0 0 0 0 20 255
0.633099 -0.633099 0.44539 0 0 0 0 36 255
0.510307 -0.797922 0.320792 0 0 0 0 25 255
0.19509 -0.980785 0.0 0 0 0 0 23 255
0.167277 -0.971616 0.167277 0 0 0 0 21 255
0.358851 -0.918728 0.164817 0 0 0 0 21 255
0.544816 -0.823881 0.156192 0 0 0 0 29 255
0.208846 -0.89032 -0.404615 0 0 0 0 27 255
0.404615 -0.89032 -0.208846 0 0 0 0 24 255
0.198757 -0.959683 -0.198757 0 0 0 0 27 255
-0.633099 -0.633099 -0.44539 0 0 0 0 31 255
-0.510307 -0.797922 -0.320792 0 0 0 0 25 255
-0.19509 -0.980785 0.0 0 0 0 0 23 255
-0.358851 -0.918728 -0.164817 0 0 0 0 21 255
-0.544816 -0.823881 -0.156192 0 0 0 0 29 255
0.320792 -0.797922 0.510307 0 0 0 0 39 255
0.0 -0.83147 0.55557 0 0 0 0 30 255
0.0 -0.980785 0.19509 0 0 0 0 23 255
0.164817 -0.918728 0.358851 0 0 0 0 23 255
-0.506121 -0.698343 0.506121 0 0 0 0 20 255
-0.57735 -0.788675 0.211325 0 0 0 0 34 255
-0.548101 -0.754879 0.360199 0 0 0 0 24 255
-0.211325 -0.788675 0.57735 0 0 0 0 22 255
-0.360199 -0.754879 0.548101 0 0 0 0 20 255
-0.198757 -0.959683 0.198757 0 0 0 0 27 255
-0.208846 -0.89032 0.404615 0 0 0 0 27 255
-0.404615 -0.89032 0.208846 0 0 0 0 24 255
0.797922 -0.510307 0.320792 0 0 0 0 25 255
0.823881 -0.544816 0.156192 0 0 0 0 29 255
0.971616 -0.167277 0.167277 0 0 0 0 21 255
0.980785 -0.19509 0.0 0 0 0 0 23 255
0.918728 -0.358851 0.164817 0 0 0 0 21 255
0.788675 -0.211325 -0.57735 0 0 0 0 22 255
0.754879 -0.360199 -0.548101 0 0 0 0 22 255
0.788675 -0.57735 -0.211325 0 0 0 0 38 255
0.754879 -0.548101 -0.360199 0 0 0 0 23 255
0.797922 0.320792 -0.510307 0 0 0 0 39 255
0.980785 0.0 -0.19509 0 0 0 0 23 255
0.971616 0.167277 -0.167277 0 0 0 0 21 255
0.918728 0.164817 -0.358851 0 0 0 0 23 255
0.83147 0.0 -0.55557 0 0 0 0 30 255
0.89032 -0.404615 -0.208846 0 0 0 0 24 255
0.89032 -0.208846 -0.404615 0 0 0 0 27 255
0.959683 -0.198757 -0.198757 0 0 0 0 27 255
0.797922 -0.320792 0.510307 0 0 0 0 39 255
0.980785 0.0 0.19509 0 0 0 0 23 255
0.918728 -0.164817 0.358851 0 0 0 0 23 255
0.83147 0.0 0.55557 0 0 0 0 30 255
0.797922 0.510307 -0.320792 0 0 0 0 25 255
0.823881 0.544816 -0.156192 0 0 0 0 29 255
0.980785 0.19509 0.0 0 0 0 0 23 255
0.918728 0.358851 -0.164817 0 0 0 0 21 255
0.788675 0.211325 0.57735 0 0 0 0 22 255
0.754879 0.360199 0.548101 0 0 0 0 22 255
0.788675 0.57735 0.211325 0 0 0 0 34 255
0.754879 0.548101 0.360199 0 0 0 0 27 255
0.959683 0.198757 0.198757 0 0 0 0 27 255
0.89032 0.404615 0.208846 0 0 0 0 24 255
0.89032 0.208846 0.404615 0 0 0 0 27 255
-0.797922 -0.510307 -0.320792 0 0 0 0 27 255
-0.823881 -0.544816 -0.156192 0 0 0 0 29 255
-0.971616 -0.167277 -0.167277 0 0 0 0 21 255
-0.980785 -0.19509 0.0 0 0 0 0 23 255
-0.918728 -0.358851 -0.164817 0 0 0 0 21 255
-0.788675 -0.211325 0.57735 0 0 0 0 22 255
-0.754879 -0.360199 0.548101 0 0 0 0 22 255
-0.788675 -0.57735 0.211325 0 0 0 0 38 255
-0.754879 -0.548101 0.360199 0 0 0 0 23 255
-0.797922 0.320792 0.510307 0 0 0 0 27 255
-0.980785 0.0 0.19509 0 0 0 0 23 255
-0.971616 0.167277 0.167277 0 0 0 0 21 255
-0.918728 0.164817 0.358851 0 0 0 0 21 255
-0.83147 0.0 0.55557 0 0 0 0 23 255
-0.823881 0.156192 0.544816 0 0 0 0 21 255
-0.89032 -0.404615 0.208846 0 0 0 0 24 255
-0.89032 -0.208846 0.404615 0 0 0 0 27 255
-0.959683 -0.198757 0.198757 0 0 0 0 27 255
-0.797922 -0.320792 -0.510307 0 0 0 0 34 255
-0.980785 0.0 -0.19509 0 0 0 0 23 255
-0.918728 -0.164817 -0.358851 0 0 0 0 23 255
-0.83147 0.0 -0.55557 0 0 0 0 30 255
-0.797922 0.510307 0.320792 0 0 0 0 25 255
-0.823881 0.544816 0.156192 0 0 0 0 29 255
-0.980785 0.19509 0.0 0 0 0 0 23 255
-0.918728 0.358851 0.164817 0 0 0 0 21 255
-0.698343 0.506121 -0.506121 0 0 0 0 20 255
-0.788675 0.211325 -0.57735 0 0 0 0 22 255
-0.754879 0.360199 -0.548101 0 0 0 0 20 255
-0.788675 0.57735 -0.211325 0 0 0 0 38 255
-0.754879 0.548101 -0.360199 0 0 0 0 20 255
-0.959683 0.198757 -0.198757 0 0 0 0 27 255
-0.89032 0.404615 -0.208846 0 0 0 0 24 255
-0.89032 0.208846 -0.404615 0 0 0 0 27 255

3 0 74 75
3 19 76 74
3 74 76 75
3 1 77 78
3 18 79 77
3 19 78 79
3 77 79 78
3 19 79 76
3 18 73 79
3 76 79 73
3 2 82 83
3 20 84 82
3 82 84 83
3 0 85 86
3 20 86 87
3 85 87 86
3 20 87 84
3 1 90 91
3 22 92 90
3 21 91 92
3 90 92 91
3 2 93 94
3 21 92 89
3 0 86 74
3 20 95 86
3 19 74 95
3 86 95 74
3 2 94 82
3 22 96 94
3 20 82 96
3 94 96 82
3 1 78 90
3 19 97 78
3 22 90 97
3 78 97 90
3 20 96 95
3 22 97 96
3 19 95 97
3 96 97 95
3 1 100 77
3 23 101 100
3 18 77 101
3 100 101 77
3 3 102 103
3 18 101 99
3 4 106 107
3 1 91 108
3 21 109 91
3 24 108 109
3 91 109 108
3 21 105 109
3 25 112 110
3 26 111 112
3 110 112 111
3 3 113 114
3 27 115 113
3 25 114 115
3 113 115 114
3 4 116 117
3 26 118 116
3 27 117 118
3 116 118 117
3 25 115 112
3 27 118 115
3 26 112 118
3 115 118 112
3 1 108 100
3 24 119 108
3 23 100 119
3 108 119 100
3 4 117 106
3 27 120 117
3 24 106 120
3 117 120 106
3 3 103 113
3 23 121 103
3 27 113 121
3 103 121 113
3 24 120 119
3 27 121 120
3 23 119 121
3 120 121 119
3 26 122 111
3 4 123 116
3 29 124 123
3 26 116 124
3 123 124 116
3 5 125 126
3 28 127 125
3 29 126 127
3 125 127 126
3 26 124 122
3 29 127 124
3 28 122 127
3 124 127 122
3 30 130 129
3 4 107 131
3 30 131 132
3 107 132 131
3 30 132 130
3 130 132 128
3 32 133 134
3 5 135 136
3 33 137 135
3 31 136 137
3 135 137 136
3 31 137 134
3 33 138 137
3 32 134 138
3 137 138 134
3 4 131 123
3 30 139 131
3 29 123 139
3 131 139 123
3 30 129 140
3 5 126 135
3 29 141 126
3 33 135 141
3 126 141 135
3 30 140 139
3 33 141 140
3 29 139 141
3 140 141 139
3 34 142 143
3 5 144 125
3 35 145 144
3 28 125 145
3 144 145 125
3 28 145 143
3 35 146 145
3 34 143 146
3 145 146 143
3 8 149 150
3 5 136 151
3 31 152 136
3 36 151 152
3 136 152 151
3 31 148 152
3 37 155 154
3 8 156 157
3 37 157 158
3 156 158 157
3 37 158 155
3 5 151 144
3 36 159 151
3 35 144 159
3 151 159 144
3 8 157 149
3 37 160 157
3 36 149 160
3 157 160 149
3 37 154 161
3 36 160 159
3 37 161 160
3 35 159 161
3 160 161 159
3 8 163 156
3 9 164 165
3 38 166 164
3 39 165 166
3 164 166 165
3 38 162 166
3 10 168 169
3 40 170 168
3 168 170 169
3 8 150 171
3 40 171 172
3 150 172 171
3 40 172 170
3 9 175 176
3 42 177 175
3 41 176 177
3 175 177 176
3 10 178 179
3 41 177 174
3 8 171 163
3 40 180 171
3 39 163 180
3 171 180 163
3 10 179 168
3 42 181 179
3 40 168 181
3 179 181 168
3 9 165 175
3 39 182 165
3 42 175 182
3 165 182 175
3 40 181 180
3 42 182 181
3 39 180 182
3 181 182 180
3 9 185 164
3 43 186 185
3 38 164 186
3 185 186 164
3 11 187 188
3 38 186 184
3 12 191 192
3 9 176 193
3 41 194 176
3 44 193 194
3 176 194 193
3 41 190 194
3 11 197 198
3 45 199 197
3 197 199 198
3 12 200 201
3 45 201 202
3 200 202 201
3 45 202 199
3 9 193 185
3 44 203 193
3 43 185 203
3 193 203 185
3 12 201 191
3 45 204 201
3 44 191 204
3 201 204 191
3 11 188 197
3 43 205 188
3 45 197 205
3 188 205 197
3 44 204 203
3 45 205 204
3 43 203 205
3 204 205 203
3 12 207 200
3 13 208 209
3 46 210 208
3 47 209 210
3 208 210 209
3 46 206 210
3 48 213 212
3 12 192 214
3 48 214 215
3 192 215 214
3 48 215 213
3 213 215 211
3 50 216 217
3 13 218 219
3 51 220 218
3 49 219 220
3 218 220 219
3 49 220 217
3 51 221 220
3 50 217 221
3 220 221 217
3 12 214 207
3 48 222 214
3 47 207 222
3 214 222 207
3 48 212 223
3 13 209 218
3 47 224 209
3 51 218 224
3 209 224 218
3 48 223 222
3 51 224 223
3 47 222 224
3 223 224 222
3 52 225 226
3 13 227 208
3 53 228 227
3 46 208 228
3 227 228 208
3 46 228 226
3 53 229 228
3 52 226 229
3 228 229 226
3 0 231 85
3 13 219 232
3 49 233 219
3 54 232 233
3 219 233 232
3 49 230 233
3 55 236 235
3 0 75 237
3 55 237 238
3 75 238 237
3 55 238 236
3 236 238 234
3 13 232 227
3 54 239 232
3 53 227 239
3 232 239 227
3 0 237 231
3 55 240 237
3 54 231 240
3 237 240 231
3 55 235 241
3 54 240 239
3 55 241 240
3 53 239 241
3 240 241 239
3 50 242 216
3 16 244 245
3 56 246 244
3 57 245 246
3 244 246 245
3 50 243 242
3 57 246 243
3 56 242 246
3 243 246 242
3 10 247 178
3 58 248 247
3 247 248 178
3 58 249 250
3 58 250 248
3 16 252 253
3 60 254 252
3 59 253 254
3 252 254 253
3 10 169 255
3 59 254 251
3 58 256 249
3 10 255 247
3 60 257 255
3 58 247 257
3 255 257 247
3 16 245 252
3 57 258 245
3 60 252 258
3 245 258 252
3 58 257 256
3 60 258 257
3 57 256 258
3 257 258 256
3 16 260 244
3 61 261 260
3 56 244 261
3 260 261 244
3 2 83 262
3 56 261 259
3 32 263 133
3 16 253 265
3 59 266 253
3 62 265 266
3 253 266 265
3 32 264 263
3 62 266 264
3 59 263 266
3 264 266 263
3 2 267 93
3 63 268 267
3 267 268 93
3 63 269 270
3 63 270 268
3 16 265 260
3 62 271 265
3 61 260 271
3 265 271 260
3 63 272 269
3 2 262 267
3 61 273 262
3 63 267 273
3 262 273 267
3 62 272 271
3 63 273 272
3 61 271 273
3 272 273 271
3 52 274 225
3 17 276 277
3 64 278 276
3 65 277 278
3 276 278 277
3 52 275 274
3 65 278 275
3 64 274 278
3 275 278 274
3 3 279 102
3 66 280 279
3 279 280 102
3 66 281 282
3 66 282 280
3 25 110 283
3 17 284 285
3 68 286 284
3 67 285 286
3 284 286 285
3 3 114 287
3 25 288 114
3 68 287 288
3 114 288 287
3 67 286 283
3 68 288 286
3 25 283 288
3 286 288 283
3 66 289 281
3 3 287 279
3 68 290 287
3 66 279 290
3 287 290 279
3 17 277 284
3 65 291 277
3 68 284 291
3 277 291 284
3 66 290 289
3 68 291 290
3 65 289 291
3 290 291 289
3 17 293 276
3 69 294 293
3 64 276 294
3 293 294 276
3 11 198 295
3 64 294 292
3 34 296 142
3 17 285 298
3 67 299 285
3 70 298 299
3 285 299 298
3 34 297 296
3 70 299 297
3 67 296 299
3 297 299 296
3 11 301 187
3 71 302 301
3 301 302 187
3 71 303 304
3 71 304 302
3 302 304 300
3 17 298 293
3 70 305 298
3 69 293 305
3 298 305 293
3 71 306 303
3 11 295 301
3 69 307 295
3 71 301 307
3 295 307 301
3 70 306 305
3 71 307 306
3 69 305 307
3 306 307 305
3 6 129 269
3 129 270 269
3 270 129 130
3 104 128 130
3 128 270 130
3 7 303 154
3 303 155 154
3 155 303 304
3 304 183 300
3 14 249 212
3 249 213 212
3 213 249 250
3 189 213 211
3 281 235 236
3 281 236 282
3 281 15 235
3 236 234 282
3 236 72 234
3 234 72 98
3 216 80 81
3 196 195 225
3 142 110 111
3 147 167 133
3 15 52 275
3 229 52 15
3 32 6 138
3 6 32 264
3 146 7 34
3 7 297 34
3 50 14 243
3 50 221 14
3 33 129 138
3 129 33 140
3 129 6 138
3 235 53 241
3 229 235 15
3 229 53 235
3 65 281 275
3 281 65 289
3 281 15 275
3 264 269 6
3 62 272 269
3 269 264 62
3 14 249 243
3 57 249 256
3 57 243 249
3 7 303 297
3 70 303 306
3 70 297 303
3 146 154 35
3 146 7 154
3 154 161 35
3 221 212 51
3 221 14 212
3 212 223 51
3 104 89 88
3 89 105 21
3 89 104 105
3 41 190 174
3 174 190 189
3 189 173 174
3 216 230 217
3 216 81 230
3 230 49 217
3 216 259 242
3 216 80 259
3 259 56 242
3 226 206 225
3 206 226 46
3 206 196 225
3 274 195 225
3 292 274 64
3 292 195 274
3 148 134 31
3 134 147 133
3 134 148 147
3 59 263 251
3 251 263 133
3 133 167 251
3 111 122 142
3 143 122 28
3 143 142 122
3 73 98 72
3 99 73 18
3 99 98 73
3 38 162 184
3 184 162 153
3 153 183 184
3 296 283 142
3 283 296 67
3 283 110 142
3 248 178 173
3 174 173 178
3 179 174 178
3 177 179 42
3 177 174 179
3 189 211 173
3 211 250 173
3 189 213 211
3 211 213 250
3 250 248 173
3 93 88 89
3 88 93 268
3 268 270 88
3 88 270 128
3 128 104 88
3 89 94 93
3 94 92 22
3 94 89 92
3 105 104 107
3 104 128 132
3 132 107 104
3 107 106 105
3 106 24 109
3 109 105 106
3 192 189 190
3 189 215 211
3 189 192 215
3 190 191 192
3 191 194 44
3 191 190 194
3 87 85 81
3 230 81 85
3 81 80 87
3 84 87 80
3 84 80 83
3 83 80 259
3 262 261 61
3 259 262 83
3 259 261 262
3 54 233 231
3 231 233 230
3 230 85 231
3 102 98 99
3 98 102 280
3 234 98 282
3 280 282 98
3 103 101 23
3 99 103 102
3 99 101 103
3 156 153 162
3 153 156 158
3 39 163 166
3 163 156 162
3 162 166 163
3 304 300 155
3 300 153 155
3 304 183 300
3 300 183 153
3 153 158 155
3 170 169 167
3 251 167 169
3 167 147 170
3 172 170 147
3 147 150 172
3 147 148 150
3 255 251 169
3 254 255 60
3 254 251 255
3 150 148 149
3 149 148 152
3 152 36 149
3 196 200 202
3 200 196 206
3 202 195 196
3 195 202 199
3 198 195 199
3 292 195 198
3 207 210 47
3 206 207 200
3 206 210 207
3 69 294 295
3 295 294 292
3 292 198 295
3 184 183 187
3 302 183 300
3 302 187 183
3 187 188 184
3 188 43 186
3 186 184 188
3 76 73 75
3 73 72 75
3 238 72 234
3 238 75 72

