ply
format ascii 1.0
comment VCGLIB generated
element vertex 77
property float x
property float y
property float z
property float nx
property float ny
property float nz
property uchar red
property uchar green
property uchar blue
element face 151
property list uchar int vertex_indices
end_header
0.707107 0.707107 0.0 0 0 0 0 92 255
-0.707107 0.707107 0.0 0 0 0 0 92 255
-0.44539 -0.633099 0.633099 0 0 0 0 89 255
-0.164817 -0.358851 0.918728 0 0 0 0 113 255
0.633099 -0.44539 0.633099 0 0 0 0 112 255
0.698753 -0.153263 0.698753 0 0 0 0 117 255
0.153263 -0.698753 0.698753 0 0 0 0 110 255
0.633099 0.44539 0.633099 0 0 0 0 87 255
0.19509 0.0 0.980785 0 0 0 0 126 255
0.208846 -0.404615 0.89032 0 0 0 0 90 255
-0.633099 -0.44539 0.633099 0 0 0 0 87 255
-0.19509 0.0 0.980785 0 0 0 0 125 255
0.44539 0.633099 0.633099 0 0 0 0 83 255
0.153263 0.698753 0.698753 0 0 0 0 103 255
0.164817 0.358851 0.918728 0 0 0 0 105 255
-0.698753 0.153263 0.698753 0 0 0 0 82 255
-0.548101 0.360199 0.754879 0 0 0 0 85 255
-0.153263 0.698753 0.698753 0 0 0 0 100 255
-0.208846 0.404615 0.89032 0 0 0 0 80 255
0.0 0.980785 0.19509 0 0 0 0 110 255
0.633099 0.633099 -0.44539 0 0 0 0 86 255
0.358851 0.918728 -0.164817 0 0 0 0 113 255
0.404615 0.89032 0.208846 0 0 0 0 102 255
-0.633099 0.633099 0.44539 0 0 0 0 109 255
-0.358851 0.918728 0.164817 0 0 0 0 136 255
0.44539 0.633099 -0.633099 0 0 0 0 72 255
0.153263 0.698753 -0.698753 0 0 0 0 79 255
0.0 0.980785 -0.19509 0 0 0 0 101 255
-0.548101 0.754879 -0.360199 0 0 0 0 113 255
-0.153263 0.698753 -0.698753 0 0 0 0 94 255
-0.208846 0.89032 -0.404615 0 0 0 0 96 255
-0.164817 0.358851 -0.918728 0 0 0 0 109 255
0.698753 0.153263 -0.698753 0 0 0 0 82 255
0.548101 0.360199 -0.754879 0 0 0 0 77 255
0.633099 -0.44539 -0.633099 0 0 0 0 87 255
0.19509 0.0 -0.980785 0 0 0 0 125 255
0.208846 0.404615 -0.89032 0 0 0 0 83 255
-0.633099 0.44539 -0.633099 0 0 0 0 108 255
-0.19509 0.0 -0.980785 0 0 0 0 110 255
-0.698753 0.153263 -0.698753 0 0 0 0 79 255
0.44539 -0.633099 -0.633099 0 0 0 0 89 255
0.164817 -0.358851 -0.918728 0 0 0 0 113 255
-0.633099 -0.44539 -0.633099 0 0 0 0 112 255
-0.698753 -0.153263 -0.698753 0 0 0 0 103 255
-0.153263 -0.698753 -0.698753 0 0 0 0 110 255
-0.208846 -0.404615 -0.89032 0 0 0 0 90 255
-0.320792 -0.797922 -0.510307 0 0 0 0 95 255
0.0 -0.980785 -0.19509 0 0 0 0 89 255
0.548101 -0.754879 -0.360199 0 0 0 0 80 255
0.358851 -0.918728 0.164817 0 0 0 0 79 255
0.544816 -0.823881 0.156192 0 0 0 0 92 255
0.208846 -0.89032 -0.404615 0 0 0 0 109 255
-0.358851 -0.918728 -0.164817 0 0 0 0 79 255
-0.544816 -0.823881 -0.156192 0 0 0 0 92 255
0.320792 -0.797922 0.510307 0 0 0 0 95 255
0.0 -0.980785 0.19509 0 0 0 0 89 255
-0.548101 -0.754879 0.360199 0 0 0 0 80 255
-0.208846 -0.89032 0.404615 0 0 0 0 109 255
0.823881 -0.544816 0.156192 0 0 0 0 120 255
0.980785 -0.19509 0.0 0 0 0 0 101 255
0.754879 -0.548101 -0.360199 0 0 0 0 87 255
0.797922 0.320792 -0.510307 0 0 0 0 74 255
0.980785 0.0 -0.19509 0 0 0 0 78 255
0.89032 -0.208846 -0.404615 0 0 0 0 89 255
0.918728 -0.164817 0.358851 0 0 0 0 82 255
0.918728 0.358851 -0.164817 0 0 0 0 104 255
0.754879 0.548101 0.360199 0 0 0 0 93 255
0.89032 0.208846 0.404615 0 0 0 0 114 255
-0.823881 -0.544816 -0.156192 0 0 0 0 120 255
-0.980785 -0.19509 0.0 0 0 0 0 126 255
-0.754879 -0.548101 0.360199 0 0 0 0 87 255
-0.797922 0.320792 0.510307 0 0 0 0 89 255
-0.89032 -0.208846 0.404615 0 0 0 0 105 255
-0.918728 -0.164817 -0.358851 0 0 0 0 82 255
-0.918728 0.358851 0.164817 0 0 0 0 115 255
-0.89032 0.404615 -0.208846 0 0 0 0 125 255
-0.89032 0.208846 -0.404615 0 0 0 0 83 255

3 2 10 70
3 70 56 2
3 7 66 12
3 40 60 34
3 48 60 40
3 59 62 63
3 50 54 49
3 52 46 53
3 70 10 72
3 57 2 56
3 7 67 66
3 25 36 33
3 36 25 26
3 63 34 60
3 39 37 76
3 40 51 48
3 32 61 33
3 33 61 20
3 20 25 33
3 16 23 71
3 71 15 16
3 29 36 26
3 36 29 31
3 18 13 17
3 13 18 14
3 64 67 5
3 76 43 39
3 76 73 43
3 26 30 29
3 35 31 38
3 31 35 36
3 18 11 14
3 8 14 11
3 8 11 3
3 3 9 8
3 47 55 49
3 52 47 55
3 19 21 27
3 19 22 21
3 27 19 24
3 12 13 14
3 34 41 40
3 10 2 3
3 41 38 45
3 41 35 38
3 21 25 20
3 64 5 4
3 43 73 42
3 55 54 57
3 55 49 54
3 54 6 57
3 51 46 47
3 46 51 44
3 46 52 47
3 32 63 61
3 62 61 63
3 62 65 61
3 71 72 15
3 72 69 70
3 68 70 69
3 73 69 68
3 70 68 56
3 53 56 68
3 59 63 60
3 60 58 59
3 64 58 59
3 58 48 50
3 58 60 48
3 11 18 16
3 36 35 33
3 73 76 69
3 75 69 76
3 64 59 67
3 62 67 59
3 22 21 0
3 0 21 20
3 1 23 24
3 9 6 4
3 54 4 6
3 46 44 42
3 42 44 45
3 57 52 55
3 56 53 52
3 52 57 56
3 48 49 50
3 49 51 47
3 49 48 51
3 22 66 0
3 12 66 22
3 28 75 37
3 28 1 75
3 75 76 37
3 61 65 20
3 0 20 65
3 23 74 71
3 74 1 75
3 74 23 1
3 37 39 31
3 38 31 39
3 17 19 24
3 25 21 26
3 26 21 27
3 27 30 26
3 28 24 1
3 24 30 27
3 24 28 30
3 10 15 72
3 32 34 63
3 9 4 5
3 5 8 9
3 67 7 5
3 17 13 19
3 22 13 12
3 22 19 13
3 43 38 39
3 43 42 45
3 45 38 43
3 29 37 31
3 28 29 30
3 28 37 29
3 66 65 0
3 67 62 65
3 65 66 67
3 9 3 6
3 6 3 2
3 2 57 6
3 40 44 51
3 44 41 45
3 44 40 41
3 5 7 8
3 14 7 12
3 14 8 7
3 33 35 32
3 34 35 41
3 34 32 35
3 16 15 11
3 11 15 10
3 10 3 11
3 71 74 72
3 69 74 75
3 74 71 75
3 69 72 74
3 73 68 42
3 42 68 53
3 53 46 42
3 64 4 58
3 4 54 50
3 50 58 4
3 24 23 17
3 17 23 16
3 16 18 17

