ply
format ascii 1.0
comment VCGLIB generated
element vertex 347
property float x
property float y
property float z
property float nx
property float ny
property float nz
property uchar red
property uchar green
property uchar blue
element face 698
property list uchar int vertex_indices
end_header
0.0 -0.707107 0.707107 0 0 0 0 22 255
0.0 0.0 1.0 0 0 0 0 22 255
0.707107 0.0 0.707107 0 0 0 0 22 255
-0.707107 0.0 0.707107 0 0 0 0 22 255
0.0 0.707107 0.707107 0 0 0 0 22 255
0.0 1.0 0.0 0 0 0 0 22 255
0.707107 0.707107 0.0 0 0 0 0 36 255
-0.707107 0.707107 0.0 0 0 0 0 36 255
0.0 0.707107 -0.707107 0 0 0 0 22 255
0.0 0.0 -1.0 0 0 0 0 22 255
0.707107 0.0 -0.707107 0 0 0 0 22 255
-0.707107 0.0 -0.707107 0 0 0 0 22 255
0.0 -0.707107 -0.707107 0 0 0 0 22 255
0.0 -1.0 0.0 0 0 0 0 22 255
0.707107 -0.707107 0.0 0 0 0 0 36 255
-0.707107 -0.707107 0.0 0 0 0 0 36 255
1.0 0.0 0.0 0 0 0 0 22 255
-1.0 0.0 0.0 0 0 0 0 22 255
-0.302905 -0.673887 0.673887 0 0 0 0 19 255
-0.325058 -0.325058 0.888074 0 0 0 0 21 255
0.0 -0.382683 0.92388 0 0 0 0 23 255
0.673887 -0.302905 0.673887 0 0 0 0 19 255
0.302905 -0.673887 0.673887 0 0 0 0 19 255
0.408248 -0.408248 0.816497 0 0 0 0 22 255
0.325058 0.325058 0.888074 0 0 0 0 20 255
0.673887 0.302905 0.673887 0 0 0 0 19 255
0.382683 0.0 0.92388 0 0 0 0 23 255
-0.673887 -0.302905 0.673887 0 0 0 0 19 255
-0.382683 0.0 0.92388 0 0 0 0 23 255
0.302905 0.673887 0.673887 0 0 0 0 19 255
0.0 0.382683 0.92388 0 0 0 0 23 255
-0.673887 0.302905 0.673887 0 0 0 0 19 255
-0.302905 0.673887 0.673887 0 0 0 0 19 255
-0.408248 0.408248 0.816497 0 0 0 0 22 255
-0.325058 0.888074 0.325058 0 0 0 0 21 255
0.0 0.92388 0.382683 0 0 0 0 23 255
0.408248 0.816497 0.408248 0 0 0 0 22 255
0.325058 0.888074 -0.325058 0 0 0 0 20 255
0.673887 0.673887 -0.302905 0 0 0 0 22 255
0.382683 0.92388 0.0 0 0 0 0 26 255
-0.673887 0.673887 0.302905 0 0 0 0 22 255
-0.382683 0.92388 0.0 0 0 0 0 26 255
0.302905 0.673887 -0.673887 0 0 0 0 19 255
0.0 0.92388 -0.382683 0 0 0 0 23 255
-0.302905 0.673887 -0.673887 0 0 0 0 19 255
-0.408248 0.816497 -0.408248 0 0 0 0 22 255
-0.325058 0.325058 -0.888074 0 0 0 0 21 255
0.0 0.382683 -0.92388 0 0 0 0 23 255
0.673887 0.302905 -0.673887 0 0 0 0 19 255
0.408248 0.408248 -0.816497 0 0 0 0 22 255
0.325058 -0.325058 -0.888074 0 0 0 0 20 255
0.673887 -0.302905 -0.673887 0 0 0 0 19 255
0.382683 0.0 -0.92388 0 0 0 0 23 255
-0.673887 0.302905 -0.673887 0 0 0 0 19 255
-0.382683 0.0 -0.92388 0 0 0 0 23 255
0.302905 -0.673887 -0.673887 0 0 0 0 19 255
0.0 -0.382683 -0.92388 0 0 0 0 23 255
-0.673887 -0.302905 -0.673887 0 0 0 0 19 255
-0.302905 -0.673887 -0.673887 0 0 0 0 19 255
-0.408248 -0.408248 -0.816497 0 0 0 0 22 255
-0.325058 -0.888074 -0.325058 0 0 0 0 20 255
0.0 -0.92388 -0.382683 0 0 0 0 23 255
0.408248 -0.816497 -0.408248 0 0 0 0 22 255
0.325058 -0.888074 0.325058 0 0 0 0 20 255
0.673887 -0.673887 0.302905 0 0 0 0 22 255
0.382683 -0.92388 0.0 0 0 0 0 26 255
-0.673887 -0.673887 -0.302905 0 0 0 0 22 255
-0.382683 -0.92388 0.0 0 0 0 0 26 255
0.0 -0.92388 0.382683 0 0 0 0 23 255
-0.408248 -0.816497 0.408248 0 0 0 0 22 255
0.888074 -0.325058 0.325058 0 0 0 0 20 255
0.92388 -0.382683 0.0 0 0 0 0 26 255
0.816497 -0.408248 -0.408248 0 0 0 0 22 255
0.888074 0.325058 -0.325058 0 0 0 0 21 255
0.92388 0.0 -0.382683 0 0 0 0 23 255
0.92388 0.0 0.382683 0 0 0 0 23 255
0.92388 0.382683 0.0 0 0 0 0 26 255
0.816497 0.408248 0.408248 0 0 0 0 22 255
-0.888074 -0.325058 -0.325058 0 0 0 0 20 255
-0.92388 -0.382683 0.0 0 0 0 0 26 255
-0.816497 -0.408248 0.408248 0 0 0 0 22 255
-0.888074 0.325058 0.325058 0 0 0 0 21 255
-0.92388 0.0 0.382683 0 0 0 0 23 255
-0.92388 0.0 -0.382683 0 0 0 0 23 255
-0.92388 0.382683 0.0 0 0 0 0 26 255
-0.816497 0.408248 -0.408248 0 0 0 0 22 255
-0.44539 -0.633099 0.633099 0 0 0 0 25 255
-0.464385 -0.464385 0.754117 0 0 0 0 19 255
-0.320792 -0.510307 0.797922 0 0 0 0 21 255
0.0 -0.55557 0.83147 0 0 0 0 23 255
-0.153263 -0.698753 0.698753 0 0 0 0 19 255
-0.156192 -0.544816 0.823881 0 0 0 0 21 255
-0.167277 -0.167277 0.971616 0 0 0 0 21 255
0.0 -0.19509 0.980785 0 0 0 0 23 255
-0.164817 -0.358851 0.918728 0 0 0 0 21 255
0.633099 -0.44539 0.633099 0 0 0 0 21 255
0.44539 -0.633099 0.633099 0 0 0 0 21 255
0.506121 -0.506121 0.698343 0 0 0 0 20 255
0.57735 -0.211325 0.788675 0 0 0 0 22 255
0.698753 -0.153263 0.698753 0 0 0 0 19 255
0.548101 -0.360199 0.754879 0 0 0 0 20 255
0.153263 -0.698753 0.698753 0 0 0 0 19 255
0.211325 -0.57735 0.788675 0 0 0 0 22 255
0.360199 -0.548101 0.754879 0 0 0 0 20 255
0.633099 0.44539 0.633099 0 0 0 0 26 255
0.510307 0.320792 0.797922 0 0 0 0 27 255
0.19509 0.0 0.980785 0 0 0 0 23 255
0.167277 0.167277 0.971616 0 0 0 0 21 255
0.358851 0.164817 0.918728 0 0 0 0 21 255
0.698753 0.153263 0.698753 0 0 0 0 19 255
0.55557 0.0 0.83147 0 0 0 0 23 255
0.544816 0.156192 0.823881 0 0 0 0 21 255
0.208846 -0.404615 0.89032 0 0 0 0 27 255
0.404615 -0.208846 0.89032 0 0 0 0 27 255
0.198757 -0.198757 0.959683 0 0 0 0 27 255
-0.633099 -0.44539 0.633099 0 0 0 0 25 255
-0.510307 -0.320792 0.797922 0 0 0 0 21 255
-0.19509 0.0 0.980785 0 0 0 0 23 255
-0.358851 -0.164817 0.918728 0 0 0 0 21 255
-0.698753 -0.153263 0.698753 0 0 0 0 19 255
-0.55557 0.0 0.83147 0 0 0 0 23 255
-0.544816 -0.156192 0.823881 0 0 0 0 21 255
0.44539 0.633099 0.633099 0 0 0 0 28 255
0.320792 0.510307 0.797922 0 0 0 0 25 255
0.0 0.55557 0.83147 0 0 0 0 23 255
0.153263 0.698753 0.698753 0 0 0 0 19 255
0.156192 0.544816 0.823881 0 0 0 0 21 255
0.0 0.19509 0.980785 0 0 0 0 23 255
0.164817 0.358851 0.918728 0 0 0 0 21 255
-0.633099 0.44539 0.633099 0 0 0 0 20 255
-0.44539 0.633099 0.633099 0 0 0 0 20 255
-0.506121 0.506121 0.698343 0 0 0 0 20 255
-0.57735 0.211325 0.788675 0 0 0 0 22 255
-0.698753 0.153263 0.698753 0 0 0 0 19 255
-0.548101 0.360199 0.754879 0 0 0 0 20 255
-0.153263 0.698753 0.698753 0 0 0 0 19 255
-0.211325 0.57735 0.788675 0 0 0 0 22 255
-0.360199 0.548101 0.754879 0 0 0 0 20 255
-0.198757 0.198757 0.959683 0 0 0 0 27 255
-0.208846 0.404615 0.89032 0 0 0 0 27 255
-0.404615 0.208846 0.89032 0 0 0 0 27 255
-0.464385 0.754117 0.464385 0 0 0 0 19 255
-0.320792 0.797922 0.510307 0 0 0 0 21 255
0.0 0.83147 0.55557 0 0 0 0 23 255
-0.156192 0.823881 0.544816 0 0 0 0 21 255
-0.167277 0.971616 0.167277 0 0 0 0 21 255
0.0 0.980785 0.19509 0 0 0 0 23 255
-0.164817 0.918728 0.358851 0 0 0 0 21 255
0.506121 0.698343 0.506121 0 0 0 0 23 255
0.57735 0.788675 0.211325 0 0 0 0 38 255
0.548101 0.754879 0.360199 0 0 0 0 20 255
0.211325 0.788675 0.57735 0 0 0 0 22 255
0.360199 0.754879 0.548101 0 0 0 0 20 255
0.633099 0.633099 -0.44539 0 0 0 0 27 255
0.510307 0.797922 -0.320792 0 0 0 0 27 255
0.19509 0.980785 0.0 0 0 0 0 23 255
0.167277 0.971616 -0.167277 0 0 0 0 21 255
0.358851 0.918728 -0.164817 0 0 0 0 21 255
0.544816 0.823881 -0.156192 0 0 0 0 29 255
0.208846 0.89032 0.404615 0 0 0 0 27 255
0.404615 0.89032 0.208846 0 0 0 0 24 255
0.198757 0.959683 0.198757 0 0 0 0 27 255
-0.633099 0.633099 0.44539 0 0 0 0 26 255
-0.510307 0.797922 0.320792 0 0 0 0 21 255
-0.19509 0.980785 0.0 0 0 0 0 23 255
-0.358851 0.918728 0.164817 0 0 0 0 21 255
-0.544816 0.823881 0.156192 0 0 0 0 29 255
0.44539 0.633099 -0.633099 0 0 0 0 22 255
0.320792 0.797922 -0.510307 0 0 0 0 25 255
0.0 0.83147 -0.55557 0 0 0 0 23 255
0.153263 0.698753 -0.698753 0 0 0 0 19 255
0.156192 0.823881 -0.544816 0 0 0 0 21 255
0.0 0.980785 -0.19509 0 0 0 0 23 255
0.164817 0.918728 -0.358851 0 0 0 0 21 255
-0.44539 0.633099 -0.633099 0 0 0 0 25 255
-0.506121 0.698343 -0.506121 0 0 0 0 23 255
-0.57735 0.788675 -0.211325 0 0 0 0 34 255
-0.548101 0.754879 -0.360199 0 0 0 0 24 255
-0.153263 0.698753 -0.698753 0 0 0 0 19 255
-0.211325 0.788675 -0.57735 0 0 0 0 22 255
-0.360199 0.754879 -0.548101 0 0 0 0 20 255
-0.198757 0.959683 -0.198757 0 0 0 0 27 255
-0.208846 0.89032 -0.404615 0 0 0 0 27 255
-0.404615 0.89032 -0.208846 0 0 0 0 24 255
-0.464385 0.464385 -0.754117 0 0 0 0 19 255
-0.320792 0.510307 -0.797922 0 0 0 0 21 255
0.0 0.55557 -0.83147 0 0 0 0 23 255
-0.156192 0.544816 -0.823881 0 0 0 0 21 255
-0.167277 0.167277 -0.971616 0 0 0 0 21 255
0.0 0.19509 -0.980785 0 0 0 0 23 255
-0.164817 0.358851 -0.918728 0 0 0 0 21 255
0.633099 0.44539 -0.633099 0 0 0 0 20 255
0.506121 0.506121 -0.698343 0 0 0 0 20 255
0.57735 0.211325 -0.788675 0 0 0 0 22 255
0.698753 0.153263 -0.698753 0 0 0 0 19 255
0.548101 0.360199 -0.754879 0 0 0 0 20 255
0.211325 0.57735 -0.788675 0 0 0 0 22 255
0.360199 0.548101 -0.754879 0 0 0 0 20 255
0.633099 -0.44539 -0.633099 0 0 0 0 26 255
0.510307 -0.320792 -0.797922 0 0 0 0 27 255
0.19509 0.0 -0.980785 0 0 0 0 23 255
0.167277 -0.167277 -0.971616 0 0 0 0 21 255
0.358851 -0.164817 -0.918728 0 0 0 0 21 255
0.698753 -0.153263 -0.698753 0 0 0 0 19 255
0.55557 0.0 -0.83147 0 0 0 0 23 255
0.544816 -0.156192 -0.823881 0 0 0 0 21 255
0.208846 0.404615 -0.89032 0 0 0 0 27 255
0.404615 0.208846 -0.89032 0 0 0 0 27 255
0.198757 0.198757 -0.959683 0 0 0 0 27 255
-0.633099 0.44539 -0.633099 0 0 0 0 25 255
-0.510307 0.320792 -0.797922 0 0 0 0 21 255
-0.19509 0.0 -0.980785 0 0 0 0 23 255
-0.358851 0.164817 -0.918728 0 0 0 0 21 255
-0.698753 0.153263 -0.698753 0 0 0 0 19 255
-0.55557 0.0 -0.83147 0 0 0 0 23 255
-0.544816 0.156192 -0.823881 0 0 0 0 21 255
0.44539 -0.633099 -0.633099 0 0 0 0 28 255
0.320792 -0.510307 -0.797922 0 0 0 0 25 255
0.0 -0.55557 -0.83147 0 0 0 0 23 255
0.153263 -0.698753 -0.698753 0 0 0 0 19 255
0.156192 -0.544816 -0.823881 0 0 0 0 21 255
0.0 -0.19509 -0.980785 0 0 0 0 23 255
0.164817 -0.358851 -0.918728 0 0 0 0 21 255
-0.633099 -0.44539 -0.633099 0 0 0 0 22 255
-0.44539 -0.633099 -0.633099 0 0 0 0 21 255
-0.506121 -0.506121 -0.698343 0 0 0 0 20 255
-0.57735 -0.211325 -0.788675 0 0 0 0 22 255
-0.698753 -0.153263 -0.698753 0 0 0 0 19 255
-0.548101 -0.360199 -0.754879 0 0 0 0 20 255
-0.153263 -0.698753 -0.698753 0 0 0 0 19 255
-0.211325 -0.57735 -0.788675 0 0 0 0 22 255
-0.360199 -0.548101 -0.754879 0 0 0 0 20 255
-0.198757 -0.198757 -0.959683 0 0 0 0 27 255
-0.208846 -0.404615 -0.89032 0 0 0 0 27 255
-0.404615 -0.208846 -0.89032 0 0 0 0 27 255
-0.320792 -0.797922 -0.510307 0 0 0 0 27 255
0.0 -0.83147 -0.55557 0 0 0 0 23 255
-0.156192 -0.823881 -0.544816 0 0 0 0 21 255
-0.167277 -0.971616 -0.167277 0 0 0 0 21 255
0.0 -0.980785 -0.19509 0 0 0 0 23 255
-0.164817 -0.918728 -0.358851 0 0 0 0 21 255
0.506121 -0.698343 -0.506121 0 0 0 0 20 255
0.57735 -0.788675 -0.211325 0 0 0 0 34 255
0.548101 -0.754879 -0.360199 0 0 0 0 24 255
0.211325 -0.788675 -0.57735 0 0 0 0 22 255
0.360199 -0.754879 -0.548101 0 0 0 0 20 255
0.633099 -0.633099 0.44539 0 0 0 0 36 255
0.510307 -0.797922 0.320792 0 0 0 0 25 255
0.19509 -0.980785 0.0 0 0 0 0 23 255
0.167277 -0.971616 0.167277 0 0 0 0 21 255
0.358851 -0.918728 0.164817 0 0 0 0 21 255
0.544816 -0.823881 0.156192 0 0 0 0 29 255
0.208846 -0.89032 -0.404615 0 0 0 0 27 255
0.404615 -0.89032 -0.208846 0 0 0 0 24 255
0.198757 -0.959683 -0.198757 0 0 0 0 27 255
-0.633099 -0.633099 -0.44539 0 0 0 0 31 255
-0.510307 -0.797922 -0.320792 0 0 0 0 25 255
-0.19509 -0.980785 0.0 0 0 0 0 23 255
-0.358851 -0.918728 -0.164817 0 0 0 0 21 255
-0.544816 -0.823881 -0.156192 0 0 0 0 29 255
0.320792 -0.797922 0.510307 0 0 0 0 27 255
0.0 -0.83147 0.55557 0 0 0 0 23 255
0.156192 -0.823881 0.544816 0 0 0 0 21 255
0.0 -0.980785 0.19509 0 0 0 0 23 255
0.164817 -0.918728 0.358851 0 0 0 0 21 255
-0.506121 -0.698343 0.506121 0 0 0 0 23 255
-0.57735 -0.788675 0.211325 0 0 0 0 34 255
-0.548101 -0.754879 0.360199 0 0 0 0 24 255
-0.211325 -0.788675 0.57735 0 0 0 0 22 255
-0.360199 -0.754879 0.548101 0 0 0 0 20 255
-0.198757 -0.959683 0.198757 0 0 0 0 27 255
-0.208846 -0.89032 0.404615 0 0 0 0 27 255
-0.404615 -0.89032 0.208846 0 0 0 0 24 255
0.797922 -0.510307 0.320792 0 0 0 0 25 255
0.823881 -0.544816 0.156192 0 0 0 0 29 255
0.971616 -0.167277 0.167277 0 0 0 0 21 255
0.980785 -0.19509 0.0 0 0 0 0 23 255
0.918728 -0.358851 0.164817 0 0 0 0 21 255
0.698343 -0.506121 -0.506121 0 0 0 0 23 255
0.788675 -0.211325 -0.57735 0 0 0 0 22 255
0.754879 -0.360199 -0.548101 0 0 0 0 20 255
0.788675 -0.57735 -0.211325 0 0 0 0 38 255
0.754879 -0.548101 -0.360199 0 0 0 0 20 255
0.754117 0.464385 -0.464385 0 0 0 0 19 255
0.797922 0.320792 -0.510307 0 0 0 0 21 255
0.980785 0.0 -0.19509 0 0 0 0 23 255
0.971616 0.167277 -0.167277 0 0 0 0 21 255
0.918728 0.164817 -0.358851 0 0 0 0 21 255
0.83147 0.0 -0.55557 0 0 0 0 23 255
0.823881 0.156192 -0.544816 0 0 0 0 21 255
0.89032 -0.404615 -0.208846 0 0 0 0 24 255
0.89032 -0.208846 -0.404615 0 0 0 0 27 255
0.959683 -0.198757 -0.198757 0 0 0 0 27 255
0.797922 -0.320792 0.510307 0 0 0 0 27 255
0.980785 0.0 0.19509 0 0 0 0 23 255
0.918728 -0.164817 0.358851 0 0 0 0 21 255
0.83147 0.0 0.55557 0 0 0 0 23 255
0.823881 -0.156192 0.544816 0 0 0 0 21 255
0.797922 0.510307 -0.320792 0 0 0 0 21 255
0.823881 0.544816 -0.156192 0 0 0 0 29 255
0.980785 0.19509 0.0 0 0 0 0 23 255
0.918728 0.358851 -0.164817 0 0 0 0 21 255
0.698343 0.506121 0.506121 0 0 0 0 20 255
0.788675 0.211325 0.57735 0 0 0 0 22 255
0.754879 0.360199 0.548101 0 0 0 0 20 255
0.788675 0.57735 0.211325 0 0 0 0 34 255
0.754879 0.548101 0.360199 0 0 0 0 24 255
0.959683 0.198757 0.198757 0 0 0 0 27 255
0.89032 0.404615 0.208846 0 0 0 0 24 255
0.89032 0.208846 0.404615 0 0 0 0 27 255
-0.797922 -0.510307 -0.320792 0 0 0 0 27 255
-0.823881 -0.544816 -0.156192 0 0 0 0 29 255
-0.971616 -0.167277 -0.167277 0 0 0 0 21 255
-0.980785 -0.19509 0.0 0 0 0 0 23 255
-0.918728 -0.358851 -0.164817 0 0 0 0 21 255
-0.698343 -0.506121 0.506121 0 0 0 0 20 255
-0.788675 -0.211325 0.57735 0 0 0 0 22 255
-0.754879 -0.360199 0.548101 0 0 0 0 20 255
-0.788675 -0.57735 0.211325 0 0 0 0 38 255
-0.754879 -0.548101 0.360199 0 0 0 0 20 255
-0.754117 0.464385 0.464385 0 0 0 0 19 255
-0.797922 0.320792 0.510307 0 0 0 0 21 255
-0.980785 0.0 0.19509 0 0 0 0 23 255
-0.971616 0.167277 0.167277 0 0 0 0 21 255
-0.918728 0.164817 0.358851 0 0 0 0 21 255
-0.83147 0.0 0.55557 0 0 0 0 23 255
-0.823881 0.156192 0.544816 0 0 0 0 21 255
-0.89032 -0.404615 0.208846 0 0 0 0 24 255
-0.89032 -0.208846 0.404615 0 0 0 0 27 255
-0.959683 -0.198757 0.198757 0 0 0 0 27 255
-0.797922 -0.320792 -0.510307 0 0 0 0 25 255
-0.980785 0.0 -0.19509 0 0 0 0 23 255
-0.918728 -0.164817 -0.358851 0 0 0 0 21 255
-0.83147 0.0 -0.55557 0 0 0 0 23 255
-0.823881 -0.156192 -0.544816 0 0 0 0 21 255
-0.797922 0.510307 0.320792 0 0 0 0 21 255
-0.823881 0.544816 0.156192 0 0 0 0 29 255
-0.980785 0.19509 0.0 0 0 0 0 23 255
-0.918728 0.358851 0.164817 0 0 0 0 21 255
-0.698343 0.506121 -0.506121 0 0 0 0 20 255
-0.788675 0.211325 -0.57735 0 0 0 0 22 255
-0.754879 0.360199 -0.548101 0 0 0 0 20 255
-0.788675 0.57735 -0.211325 0 0 0 0 38 255
-0.754879 0.548101 -0.360199 0 0 0 0 20 255
-0.959683 0.198757 -0.198757 0 0 0 0 27 255
-0.89032 0.404615 -0.208846 0 0 0 0 24 255
-0.89032 0.208846 -0.404615 0 0 0 0 27 255

3 18 88 86
3 19 87 88
3 86 88 87
3 0 89 90
3 20 91 89
3 18 90 91
3 89 91 90
3 1 92 93
3 19 94 92
3 20 93 94
3 92 94 93
3 18 91 88
3 20 94 91
3 19 88 94
3 91 94 88
3 21 97 95
3 22 96 97
3 95 97 96
3 2 98 99
3 23 100 98
3 21 99 100
3 98 100 99
3 0 101 102
3 22 103 101
3 23 102 103
3 101 103 102
3 21 100 97
3 23 103 100
3 22 97 103
3 100 103 97
3 25 104 105
3 1 106 107
3 26 108 106
3 24 107 108
3 106 108 107
3 2 109 110
3 25 111 109
3 26 110 111
3 109 111 110
3 24 108 105
3 26 111 108
3 25 105 111
3 108 111 105
3 0 102 89
3 23 112 102
3 20 89 112
3 102 112 89
3 2 110 98
3 26 113 110
3 23 98 113
3 110 113 98
3 1 93 106
3 20 114 93
3 26 106 114
3 93 114 106
3 23 113 112
3 26 114 113
3 20 112 114
3 113 114 112
3 19 116 87
3 27 115 116
3 87 116 115
3 1 117 92
3 28 118 117
3 19 92 118
3 117 118 92
3 3 119 120
3 27 121 119
3 28 120 121
3 119 121 120
3 19 118 116
3 28 121 118
3 27 116 121
3 118 121 116
3 29 123 122
3 4 124 125
3 30 126 124
3 29 125 126
3 124 126 125
3 1 107 127
3 24 128 107
3 30 127 128
3 107 128 127
3 29 126 123
3 30 128 126
3 24 123 128
3 126 128 123
3 31 131 129
3 32 130 131
3 129 131 130
3 3 132 133
3 33 134 132
3 31 133 134
3 132 134 133
3 4 135 136
3 32 137 135
3 33 136 137
3 135 137 136
3 31 134 131
3 33 137 134
3 32 131 137
3 134 137 131
3 1 127 117
3 30 138 127
3 28 117 138
3 127 138 117
3 4 136 124
3 33 139 136
3 30 124 139
3 136 139 124
3 3 120 132
3 28 140 120
3 33 132 140
3 120 140 132
3 30 139 138
3 33 140 139
3 28 138 140
3 139 140 138
3 32 142 130
3 34 141 142
3 130 142 141
3 4 143 135
3 35 144 143
3 32 135 144
3 143 144 135
3 5 145 146
3 34 147 145
3 35 146 147
3 145 147 146
3 32 144 142
3 35 147 144
3 34 142 147
3 144 147 142
3 29 122 148
3 36 150 149
3 4 125 151
3 29 152 125
3 36 151 152
3 125 152 151
3 36 152 150
3 29 148 152
3 150 152 148
3 38 153 154
3 5 155 156
3 39 157 155
3 37 156 157
3 155 157 156
3 37 157 154
3 39 158 157
3 38 154 158
3 157 158 154
3 4 151 143
3 36 159 151
3 35 143 159
3 151 159 143
3 36 149 160
3 5 146 155
3 35 161 146
3 39 155 161
3 146 161 155
3 36 160 159
3 39 161 160
3 35 159 161
3 160 161 159
3 34 163 141
3 40 162 163
3 141 163 162
3 5 164 145
3 41 165 164
3 34 145 165
3 164 165 145
3 34 165 163
3 41 166 165
3 40 163 166
3 165 166 163
3 42 168 167
3 8 169 170
3 43 171 169
3 42 170 171
3 169 171 170
3 5 156 172
3 37 173 156
3 43 172 173
3 156 173 172
3 42 171 168
3 43 173 171
3 37 168 173
3 171 173 168
3 44 174 175
3 45 177 176
3 8 178 179
3 44 180 178
3 45 179 180
3 178 180 179
3 45 180 177
3 44 175 180
3 177 180 175
3 5 172 164
3 43 181 172
3 41 164 181
3 172 181 164
3 8 179 169
3 45 182 179
3 43 169 182
3 179 182 169
3 45 176 183
3 43 182 181
3 45 183 182
3 41 181 183
3 182 183 181
3 44 185 174
3 46 184 185
3 174 185 184
3 8 186 178
3 47 187 186
3 44 178 187
3 186 187 178
3 9 188 189
3 46 190 188
3 47 189 190
3 188 190 189
3 44 187 185
3 47 190 187
3 46 185 190
3 187 190 185
3 48 192 191
3 42 167 192
3 191 192 167
3 10 193 194
3 49 195 193
3 48 194 195
3 193 195 194
3 8 170 196
3 42 197 170
3 49 196 197
3 170 197 196
3 48 195 192
3 49 197 195
3 42 192 197
3 195 197 192
3 51 198 199
3 9 200 201
3 52 202 200
3 50 201 202
3 200 202 201
3 10 203 204
3 51 205 203
3 52 204 205
3 203 205 204
3 50 202 199
3 52 205 202
3 51 199 205
3 202 205 199
3 8 196 186
3 49 206 196
3 47 186 206
3 196 206 186
3 10 204 193
3 52 207 204
3 49 193 207
3 204 207 193
3 9 189 200
3 47 208 189
3 52 200 208
3 189 208 200
3 49 207 206
3 52 208 207
3 47 206 208
3 207 208 206
3 46 210 184
3 53 209 210
3 184 210 209
3 9 211 188
3 54 212 211
3 46 188 212
3 211 212 188
3 11 213 214
3 53 215 213
3 54 214 215
3 213 215 214
3 46 212 210
3 54 215 212
3 53 210 215
3 212 215 210
3 55 217 216
3 12 218 219
3 56 220 218
3 55 219 220
3 218 220 219
3 9 201 221
3 50 222 201
3 56 221 222
3 201 222 221
3 55 220 217
3 56 222 220
3 50 217 222
3 220 222 217
3 57 225 223
3 58 224 225
3 223 225 224
3 11 226 227
3 59 228 226
3 57 227 228
3 226 228 227
3 12 229 230
3 58 231 229
3 59 230 231
3 229 231 230
3 57 228 225
3 59 231 228
3 58 225 231
3 228 231 225
3 9 221 211
3 56 232 221
3 54 211 232
3 221 232 211
3 12 230 218
3 59 233 230
3 56 218 233
3 230 233 218
3 11 214 226
3 54 234 214
3 59 226 234
3 214 234 226
3 56 233 232
3 59 234 233
3 54 232 234
3 233 234 232
3 58 235 224
3 12 236 229
3 61 237 236
3 58 229 237
3 236 237 229
3 13 238 239
3 60 240 238
3 61 239 240
3 238 240 239
3 58 237 235
3 61 240 237
3 60 235 240
3 237 240 235
3 55 216 241
3 62 243 242
3 12 219 244
3 55 245 219
3 62 244 245
3 219 245 244
3 62 245 243
3 55 241 245
3 243 245 241
3 64 246 247
3 13 248 249
3 65 250 248
3 63 249 250
3 248 250 249
3 63 250 247
3 65 251 250
3 64 247 251
3 250 251 247
3 12 244 236
3 62 252 244
3 61 236 252
3 244 252 236
3 62 242 253
3 13 239 248
3 61 254 239
3 65 248 254
3 239 254 248
3 62 253 252
3 65 254 253
3 61 252 254
3 253 254 252
3 66 255 256
3 13 257 238
3 67 258 257
3 60 238 258
3 257 258 238
3 60 258 256
3 67 259 258
3 66 256 259
3 258 259 256
3 22 260 96
3 0 261 101
3 68 262 261
3 22 101 262
3 261 262 101
3 13 249 263
3 63 264 249
3 68 263 264
3 249 264 263
3 22 262 260
3 68 264 262
3 63 260 264
3 262 264 260
3 18 86 265
3 69 267 266
3 0 90 268
3 18 269 90
3 69 268 269
3 90 269 268
3 69 269 267
3 18 265 269
3 267 269 265
3 13 263 257
3 68 270 263
3 67 257 270
3 263 270 257
3 0 268 261
3 69 271 268
3 68 261 271
3 268 271 261
3 69 266 272
3 68 271 270
3 69 272 271
3 67 270 272
3 271 272 270
3 64 273 246
3 16 275 276
3 70 277 275
3 71 276 277
3 275 277 276
3 64 274 273
3 71 277 274
3 70 273 277
3 274 277 273
3 51 278 198
3 10 279 203
3 72 280 279
3 51 203 280
3 279 280 203
3 72 281 282
3 51 280 278
3 72 282 280
3 280 282 278
3 73 284 283
3 48 191 284
3 283 284 191
3 16 285 286
3 74 287 285
3 73 286 287
3 285 287 286
3 10 194 288
3 48 289 194
3 74 288 289
3 194 289 288
3 73 287 284
3 74 289 287
3 48 284 289
3 287 289 284
3 72 290 281
3 10 288 279
3 74 291 288
3 72 279 291
3 288 291 279
3 16 276 285
3 71 292 276
3 74 285 292
3 276 292 285
3 72 291 290
3 74 292 291
3 71 290 292
3 291 292 290
3 21 95 293
3 16 294 275
3 75 295 294
3 70 275 295
3 294 295 275
3 2 99 296
3 21 297 99
3 75 296 297
3 99 297 296
3 70 295 293
3 75 297 295
3 21 293 297
3 295 297 293
3 38 298 153
3 73 283 298
3 153 298 283
3 16 286 300
3 73 301 286
3 76 300 301
3 286 301 300
3 38 299 298
3 76 301 299
3 73 298 301
3 299 301 298
3 25 302 104
3 2 303 109
3 77 304 303
3 25 109 304
3 303 304 109
3 77 305 306
3 25 304 302
3 77 306 304
3 304 306 302
3 16 300 294
3 76 307 300
3 75 294 307
3 300 307 294
3 77 308 305
3 2 296 303
3 75 309 296
3 77 303 309
3 296 309 303
3 76 308 307
3 77 309 308
3 75 307 309
3 308 309 307
3 66 310 255
3 17 312 313
3 78 314 312
3 79 313 314
3 312 314 313
3 66 311 310
3 79 314 311
3 78 310 314
3 311 314 310
3 27 315 115
3 3 316 119
3 80 317 316
3 27 119 317
3 316 317 119
3 80 318 319
3 27 317 315
3 80 319 317
3 317 319 315
3 81 321 320
3 31 129 321
3 320 321 129
3 17 322 323
3 82 324 322
3 81 323 324
3 322 324 323
3 3 133 325
3 31 326 133
3 82 325 326
3 133 326 325
3 81 324 321
3 82 326 324
3 31 321 326
3 324 326 321
3 80 327 318
3 3 325 316
3 82 328 325
3 80 316 328
3 325 328 316
3 17 313 322
3 79 329 313
3 82 322 329
3 313 329 322
3 80 328 327
3 82 329 328
3 79 327 329
3 328 329 327
3 57 223 330
3 17 331 312
3 83 332 331
3 78 312 332
3 331 332 312
3 11 227 333
3 57 334 227
3 83 333 334
3 227 334 333
3 78 332 330
3 83 334 332
3 57 330 334
3 332 334 330
3 40 335 162
3 81 320 335
3 162 335 320
3 17 323 337
3 81 338 323
3 84 337 338
3 323 338 337
3 40 336 335
3 84 338 336
3 81 335 338
3 336 338 335
3 53 339 209
3 11 340 213
3 85 341 340
3 53 213 341
3 340 341 213
3 85 342 343
3 53 341 339
3 85 343 341
3 341 343 339
3 17 337 331
3 84 344 337
3 83 331 344
3 337 344 331
3 85 345 342
3 11 333 340
3 83 346 333
3 85 340 346
3 333 346 340
3 84 345 344
3 85 346 345
3 83 344 346
3 345 346 344
3 115 86 87
3 184 174 209
3 6 149 305
3 149 306 305
3 306 149 150
3 306 302 104
3 302 122 104
3 306 148 302
3 122 148 150
3 148 306 150
3 122 302 148
3 7 342 176
3 342 177 176
3 177 342 343
3 339 175 343
3 175 177 343
3 343 209 339
3 209 174 175
3 175 339 209
3 174 177 175
3 14 281 242
3 281 243 242
3 243 281 282
3 282 198 278
3 278 243 282
3 198 216 278
3 216 243 241
3 241 278 216
3 243 278 241
3 318 266 267
3 318 267 319
3 318 15 266
3 267 265 319
3 265 315 319
3 267 86 265
3 265 86 115
3 115 315 265
3 115 319 315
3 246 95 96
3 224 223 255
3 129 162 320
3 162 130 141
3 162 129 130
3 283 153 191
3 167 191 153
3 15 66 311
3 259 66 15
3 38 6 158
3 6 38 299
3 166 7 40
3 7 336 40
3 64 14 274
3 64 251 14
3 39 149 158
3 149 39 160
3 149 6 158
3 266 67 272
3 259 266 15
3 259 67 266
3 79 318 311
3 318 79 327
3 318 15 311
3 299 305 6
3 76 308 305
3 305 299 76
3 14 281 274
3 71 281 290
3 71 274 281
3 7 342 336
3 84 342 345
3 84 336 342
3 166 176 41
3 166 7 176
3 176 183 41
3 251 242 65
3 251 14 242
3 242 253 65
3 122 105 104
3 105 123 24
3 105 122 123
3 50 217 199
3 199 217 216
3 216 198 199
3 246 260 247
3 246 96 260
3 260 63 247
3 246 293 273
3 246 95 293
3 293 70 273
3 256 235 255
3 235 256 60
3 235 224 255
3 310 223 255
3 330 310 78
3 330 223 310
3 168 154 37
3 154 167 153
3 154 168 167

