ply
format ascii 1.0
comment VCGLIB generated
element vertex 115
property float x
property float y
property float z
property float nx
property float ny
property float nz
property uchar red
property uchar green
property uchar blue
element face 226
property list uchar int vertex_indices
end_header
0.707107 0.707107 0.0 0 0 0 0 52 255
-0.707107 0.707107 0.0 0 0 0 0 52 255
0.707107 -0.707107 0.0 0 0 0 0 52 255
-0.44539 -0.633099 0.633099 0 0 0 0 73 255
-0.153263 -0.698753 0.698753 0 0 0 0 67 255
-0.164817 -0.358851 0.918728 0 0 0 0 94 255
0.633099 -0.44539 0.633099 0 0 0 0 72 255
0.698753 -0.153263 0.698753 0 0 0 0 67 255
0.153263 -0.698753 0.698753 0 0 0 0 58 255
0.360199 -0.548101 0.754879 0 0 0 0 52 255
0.633099 0.44539 0.633099 0 0 0 0 62 255
0.19509 0.0 0.980785 0 0 0 0 64 255
0.358851 0.164817 0.918728 0 0 0 0 65 255
0.698753 0.153263 0.698753 0 0 0 0 67 255
0.208846 -0.404615 0.89032 0 0 0 0 63 255
0.404615 -0.208846 0.89032 0 0 0 0 65 255
-0.633099 -0.44539 0.633099 0 0 0 0 72 255
-0.19509 0.0 0.980785 0 0 0 0 64 255
-0.358851 -0.164817 0.918728 0 0 0 0 58 255
-0.698753 -0.153263 0.698753 0 0 0 0 67 255
0.44539 0.633099 0.633099 0 0 0 0 80 255
0.153263 0.698753 0.698753 0 0 0 0 67 255
0.164817 0.358851 0.918728 0 0 0 0 85 255
-0.44539 0.633099 0.633099 0 0 0 0 72 255
-0.698753 0.153263 0.698753 0 0 0 0 58 255
-0.548101 0.360199 0.754879 0 0 0 0 52 255
-0.153263 0.698753 0.698753 0 0 0 0 67 255
-0.208846 0.404615 0.89032 0 0 0 0 77 255
-0.404615 0.208846 0.89032 0 0 0 0 49 255
0.0 0.980785 0.19509 0 0 0 0 64 255
-0.164817 0.918728 0.358851 0 0 0 0 58 255
0.548101 0.754879 0.360199 0 0 0 0 54 255
0.633099 0.633099 -0.44539 0 0 0 0 73 255
0.358851 0.918728 -0.164817 0 0 0 0 85 255
0.544816 0.823881 -0.156192 0 0 0 0 50 255
0.208846 0.89032 0.404615 0 0 0 0 65 255
0.404615 0.89032 0.208846 0 0 0 0 59 255
-0.633099 0.633099 0.44539 0 0 0 0 73 255
-0.358851 0.918728 0.164817 0 0 0 0 85 255
-0.544816 0.823881 0.156192 0 0 0 0 50 255
0.44539 0.633099 -0.633099 0 0 0 0 72 255
0.153263 0.698753 -0.698753 0 0 0 0 67 255
0.0 0.980785 -0.19509 0 0 0 0 64 255
0.164817 0.918728 -0.358851 0 0 0 0 58 255
-0.44539 0.633099 -0.633099 0 0 0 0 62 255
-0.548101 0.754879 -0.360199 0 0 0 0 60 255
-0.153263 0.698753 -0.698753 0 0 0 0 67 255
-0.208846 0.89032 -0.404615 0 0 0 0 65 255
-0.404615 0.89032 -0.208846 0 0 0 0 59 255
-0.164817 0.358851 -0.918728 0 0 0 0 94 255
0.698753 0.153263 -0.698753 0 0 0 0 58 255
0.548101 0.360199 -0.754879 0 0 0 0 52 255
0.633099 -0.44539 -0.633099 0 0 0 0 72 255
0.19509 0.0 -0.980785 0 0 0 0 64 255
0.358851 -0.164817 -0.918728 0 0 0 0 58 255
0.698753 -0.153263 -0.698753 0 0 0 0 67 255
0.208846 0.404615 -0.89032 0 0 0 0 77 255
0.404615 0.208846 -0.89032 0 0 0 0 49 255
-0.633099 0.44539 -0.633099 0 0 0 0 80 255
-0.19509 0.0 -0.980785 0 0 0 0 64 255
-0.358851 0.164817 -0.918728 0 0 0 0 58 255
-0.698753 0.153263 -0.698753 0 0 0 0 67 255
0.44539 -0.633099 -0.633099 0 0 0 0 73 255
0.153263 -0.698753 -0.698753 0 0 0 0 67 255
0.164817 -0.358851 -0.918728 0 0 0 0 94 255
-0.633099 -0.44539 -0.633099 0 0 0 0 62 255
-0.698753 -0.153263 -0.698753 0 0 0 0 67 255
-0.153263 -0.698753 -0.698753 0 0 0 0 58 255
-0.360199 -0.548101 -0.754879 0 0 0 0 52 255
-0.208846 -0.404615 -0.89032 0 0 0 0 63 255
-0.404615 -0.208846 -0.89032 0 0 0 0 65 255
-0.320792 -0.797922 -0.510307 0 0 0 0 77 255
0.0 -0.980785 -0.19509 0 0 0 0 88 255
0.548101 -0.754879 -0.360199 0 0 0 0 54 255
0.633099 -0.633099 0.44539 0 0 0 0 73 255
0.358851 -0.918728 0.164817 0 0 0 0 60 255
0.544816 -0.823881 0.156192 0 0 0 0 60 255
0.208846 -0.89032 -0.404615 0 0 0 0 72 255
0.404615 -0.89032 -0.208846 0 0 0 0 59 255
-0.633099 -0.633099 -0.44539 0 0 0 0 76 255
-0.358851 -0.918728 -0.164817 0 0 0 0 60 255
-0.544816 -0.823881 -0.156192 0 0 0 0 77 255
0.320792 -0.797922 0.510307 0 0 0 0 77 255
0.0 -0.980785 0.19509 0 0 0 0 88 255
-0.548101 -0.754879 0.360199 0 0 0 0 69 255
-0.208846 -0.89032 0.404615 0 0 0 0 72 255
-0.404615 -0.89032 0.208846 0 0 0 0 52 255
0.823881 -0.544816 0.156192 0 0 0 0 50 255
0.980785 -0.19509 0.0 0 0 0 0 51 255
0.918728 -0.358851 0.164817 0 0 0 0 58 255
0.754879 -0.548101 -0.360199 0 0 0 0 60 255
0.797922 0.320792 -0.510307 0 0 0 0 77 255
0.980785 0.0 -0.19509 0 0 0 0 66 255
0.89032 -0.404615 -0.208846 0 0 0 0 49 255
0.89032 -0.208846 -0.404615 0 0 0 0 80 255
0.980785 0.0 0.19509 0 0 0 0 50 255
0.918728 -0.164817 0.358851 0 0 0 0 67 255
0.823881 0.544816 -0.156192 0 0 0 0 60 255
0.918728 0.358851 -0.164817 0 0 0 0 60 255
0.754879 0.548101 0.360199 0 0 0 0 60 255
0.89032 0.404615 0.208846 0 0 0 0 59 255
0.89032 0.208846 0.404615 0 0 0 0 65 255
-0.823881 -0.544816 -0.156192 0 0 0 0 98 255
-0.980785 -0.19509 0.0 0 0 0 0 68 255
-0.754879 -0.548101 0.360199 0 0 0 0 87 255
-0.797922 0.320792 0.510307 0 0 0 0 77 255
-0.980785 0.0 0.19509 0 0 0 0 66 255
-0.89032 -0.208846 0.404615 0 0 0 0 83 255
-0.980785 0.0 -0.19509 0 0 0 0 50 255
-0.918728 -0.164817 -0.358851 0 0 0 0 77 255
-0.823881 0.544816 0.156192 0 0 0 0 60 255
-0.918728 0.358851 0.164817 0 0 0 0 60 255
-0.754879 0.548101 -0.360199 0 0 0 0 54 255
-0.89032 0.404615 -0.208846 0 0 0 0 59 255
-0.89032 0.208846 -0.404615 0 0 0 0 65 255

3 42 43 33
3 22 11 12
3 17 18 5
3 49 60 59
3 88 96 89
3 88 95 96
3 92 95 88
3 29 38 30
3 109 108 103
3 108 106 103
3 3 16 104
3 104 84 3
3 10 99 20
3 31 20 99
3 62 90 52
3 73 90 62
3 58 44 45
3 45 112 58
3 47 43 42
3 57 53 54
3 15 12 11
3 28 18 17
3 101 96 95
3 60 70 59
3 35 29 30
3 109 114 108
3 56 53 57
3 28 17 27
3 69 59 70
3 28 27 25
3 24 28 25
3 36 35 31
3 101 100 99
3 15 14 9
3 9 14 8
3 86 85 84
3 56 57 51
3 51 57 50
3 93 94 90
3 45 47 48
3 67 69 68
3 113 114 112
3 73 77 78
3 0 34 97
3 34 32 97
3 2 87 76
3 87 74 76
3 102 81 79
3 110 39 1
3 110 37 39
3 88 92 94
3 94 93 88
3 103 107 106
3 76 75 78
3 36 33 34
3 81 86 80
3 39 38 48
3 97 100 98
3 89 93 87
3 89 88 93
3 111 113 110
3 111 105 110
3 37 110 105
3 76 82 75
3 82 76 74
3 79 81 71
3 80 71 81
3 97 91 98
3 91 97 32
3 2 78 76
3 73 78 2
3 97 0 100
3 99 100 0
3 1 48 39
3 45 48 1
3 9 6 15
3 7 15 6
3 104 16 107
3 19 107 16
3 85 3 84
3 3 85 4
3 27 23 25
3 23 27 26
3 10 101 99
3 101 10 13
3 40 56 51
3 56 40 41
3 94 52 90
3 52 94 55
3 112 114 58
3 61 58 114
3 21 20 35
3 31 35 20
3 45 44 47
3 46 47 44
3 77 62 63
3 62 77 73
3 65 70 66
3 70 68 69
3 70 65 68
3 65 79 68
3 68 79 71
3 71 67 68
3 50 91 51
3 51 91 32
3 32 40 51
3 23 37 25
3 25 37 105
3 105 24 25
3 9 74 6
3 82 9 8
3 82 74 9
3 34 36 0
3 0 36 31
3 31 99 0
3 2 90 73
3 2 87 93
3 93 90 2
3 1 112 45
3 1 110 113
3 113 112 1
3 49 46 44
3 46 56 41
3 56 46 49
3 64 63 62
3 63 69 67
3 69 63 64
3 27 21 26
3 21 27 22
3 24 107 19
3 13 15 7
3 13 12 15
3 14 4 8
3 4 14 5
3 85 8 4
3 70 61 66
3 70 60 61
3 24 19 28
3 18 28 19
3 13 7 101
3 96 101 7
3 63 67 77
3 21 35 26
3 26 35 30
3 50 57 55
3 55 57 54
3 55 94 50
3 114 66 61
3 114 109 66
3 41 47 46
3 43 47 41
3 5 3 4
3 13 10 12
3 53 49 59
3 49 53 56
3 27 17 22
3 11 22 17
3 101 95 100
3 95 92 98
3 98 100 95
3 106 108 111
3 108 114 113
3 113 111 108
3 15 11 14
3 11 17 5
3 5 14 11
3 77 72 78
3 72 83 75
3 75 78 72
3 80 83 86
3 80 72 83
3 83 85 86
3 36 29 35
3 29 33 42
3 29 36 33
3 48 42 38
3 42 48 47
3 42 29 38
3 12 20 22
3 20 12 10
3 20 21 22
3 52 64 62
3 52 55 54
3 54 64 52
3 60 58 61
3 49 44 58
3 58 60 49
3 18 16 5
3 18 19 16
3 16 3 5
3 53 64 54
3 64 59 69
3 64 53 59
3 34 33 32
3 33 40 32
3 43 40 33
3 43 41 40
3 87 89 74
3 89 6 74
3 96 6 89
3 96 7 6
3 23 38 37
3 38 39 37
3 23 26 30
3 30 38 23
3 66 109 65
3 83 82 85
3 83 75 82
3 82 8 85
3 77 71 72
3 71 77 67
3 71 80 72
3 50 94 91
3 92 91 94
3 92 98 91
3 107 105 106
3 105 107 24
3 105 111 106
3 107 103 104
3 102 104 103
3 79 109 102
3 79 65 109
3 109 103 102
3 104 102 84
3 81 84 102
3 81 86 84

