ply
format ascii 1.0
comment VCGLIB generated
element vertex 270
property float x
property float y
property float z
property float nx
property float ny
property float nz
property uchar red
property uchar green
property uchar blue
element face 540
property list uchar int vertex_indices
end_header
0.0 -0.707107 0.707107 0 0 0 0 22 255
0.707107 0.0 0.707107 0 0 0 0 22 255
-0.707107 0.0 0.707107 0 0 0 0 22 255
0.0 0.707107 0.707107 0 0 0 0 22 255
0.707107 0.707107 0.0 0 0 0 0 36 255
-0.707107 0.707107 0.0 0 0 0 0 36 255
0.0 0.707107 -0.707107 0 0 0 0 22 255
0.707107 0.0 -0.707107 0 0 0 0 22 255
-0.707107 0.0 -0.707107 0 0 0 0 22 255
0.0 -0.707107 -0.707107 0 0 0 0 22 255
0.707107 -0.707107 0.0 0 0 0 0 36 255
-0.707107 -0.707107 0.0 0 0 0 0 36 255
0.0 -0.382683 0.92388 0 0 0 0 20 255
0.408248 -0.408248 0.816497 0 0 0 0 22 255
0.382683 0.0 0.92388 0 0 0 0 20 255
-0.382683 0.0 0.92388 0 0 0 0 20 255
0.0 0.382683 0.92388 0 0 0 0 20 255
-0.408248 0.408248 0.816497 0 0 0 0 22 255
0.0 0.92388 0.382683 0 0 0 0 20 255
0.408248 0.816497 0.408248 0 0 0 0 22 255
0.673887 0.673887 -0.302905 0 0 0 0 22 255
0.382683 0.92388 0.0 0 0 0 0 26 255
-0.673887 0.673887 0.302905 0 0 0 0 22 255
-0.382683 0.92388 0.0 0 0 0 0 26 255
0.0 0.92388 -0.382683 0 0 0 0 20 255
-0.408248 0.816497 -0.408248 0 0 0 0 22 255
0.0 0.382683 -0.92388 0 0 0 0 20 255
0.408248 0.408248 -0.816497 0 0 0 0 22 255
0.382683 0.0 -0.92388 0 0 0 0 20 255
-0.382683 0.0 -0.92388 0 0 0 0 20 255
0.0 -0.382683 -0.92388 0 0 0 0 20 255
-0.408248 -0.408248 -0.816497 0 0 0 0 22 255
0.0 -0.92388 -0.382683 0 0 0 0 20 255
0.408248 -0.816497 -0.408248 0 0 0 0 22 255
0.673887 -0.673887 0.302905 0 0 0 0 22 255
0.382683 -0.92388 0.0 0 0 0 0 26 255
-0.673887 -0.673887 -0.302905 0 0 0 0 22 255
-0.382683 -0.92388 0.0 0 0 0 0 26 255
0.0 -0.92388 0.382683 0 0 0 0 20 255
-0.408248 -0.816497 0.408248 0 0 0 0 22 255
0.92388 -0.382683 0.0 0 0 0 0 26 255
0.816497 -0.408248 -0.408248 0 0 0 0 22 255
0.92388 0.0 -0.382683 0 0 0 0 20 255
0.92388 0.0 0.382683 0 0 0 0 20 255
0.92388 0.382683 0.0 0 0 0 0 26 255
0.816497 0.408248 0.408248 0 0 0 0 22 255
-0.92388 -0.382683 0.0 0 0 0 0 26 255
-0.816497 -0.408248 0.408248 0 0 0 0 22 255
-0.92388 0.0 0.382683 0 0 0 0 20 255
-0.92388 0.0 -0.382683 0 0 0 0 20 255
-0.92388 0.382683 0.0 0 0 0 0 26 255
-0.816497 0.408248 -0.408248 0 0 0 0 22 255
-0.44539 -0.633099 0.633099 0 0 0 0 41 255
-0.320792 -0.510307 0.797922 0 0 0 0 42 255
0.0 -0.55557 0.83147 0 0 0 0 30 255
-0.153263 -0.698753 0.698753 0 0 0 0 23 255
0.0 -0.19509 0.980785 0 0 0 0 29 255
-0.164817 -0.358851 0.918728 0 0 0 0 37 255
0.633099 -0.44539 0.633099 0 0 0 0 35 255
0.44539 -0.633099 0.633099 0 0 0 0 32 255
0.57735 -0.211325 0.788675 0 0 0 0 22 255
0.698753 -0.153263 0.698753 0 0 0 0 23 255
0.548101 -0.360199 0.754879 0 0 0 0 22 255
0.153263 -0.698753 0.698753 0 0 0 0 23 255
0.211325 -0.57735 0.788675 0 0 0 0 22 255
0.360199 -0.548101 0.754879 0 0 0 0 24 255
0.633099 0.44539 0.633099 0 0 0 0 35 255
0.510307 0.320792 0.797922 0 0 0 0 42 255
0.19509 0.0 0.980785 0 0 0 0 34 255
0.358851 0.164817 0.918728 0 0 0 0 34 255
0.698753 0.153263 0.698753 0 0 0 0 23 255
0.55557 0.0 0.83147 0 0 0 0 30 255
0.208846 -0.404615 0.89032 0 0 0 0 27 255
0.404615 -0.208846 0.89032 0 0 0 0 27 255
0.198757 -0.198757 0.959683 0 0 0 0 27 255
-0.633099 -0.44539 0.633099 0 0 0 0 39 255
-0.510307 -0.320792 0.797922 0 0 0 0 40 255
-0.19509 0.0 0.980785 0 0 0 0 34 255
-0.358851 -0.164817 0.918728 0 0 0 0 30 255
-0.698753 -0.153263 0.698753 0 0 0 0 23 255
-0.55557 0.0 0.83147 0 0 0 0 30 255
0.44539 0.633099 0.633099 0 0 0 0 44 255
0.320792 0.510307 0.797922 0 0 0 0 40 255
0.0 0.55557 0.83147 0 0 0 0 30 255
0.153263 0.698753 0.698753 0 0 0 0 23 255
0.0 0.19509 0.980785 0 0 0 0 29 255
0.164817 0.358851 0.918728 0 0 0 0 34 255
-0.633099 0.44539 0.633099 0 0 0 0 32 255
-0.44539 0.633099 0.633099 0 0 0 0 35 255
-0.57735 0.211325 0.788675 0 0 0 0 22 255
-0.698753 0.153263 0.698753 0 0 0 0 23 255
-0.548101 0.360199 0.754879 0 0 0 0 24 255
-0.153263 0.698753 0.698753 0 0 0 0 23 255
-0.211325 0.57735 0.788675 0 0 0 0 22 255
-0.360199 0.548101 0.754879 0 0 0 0 22 255
-0.198757 0.198757 0.959683 0 0 0 0 27 255
-0.208846 0.404615 0.89032 0 0 0 0 27 255
-0.404615 0.208846 0.89032 0 0 0 0 27 255
-0.320792 0.797922 0.510307 0 0 0 0 44 255
0.0 0.83147 0.55557 0 0 0 0 30 255
0.0 0.980785 0.19509 0 0 0 0 34 255
-0.164817 0.918728 0.358851 0 0 0 0 30 255
0.57735 0.788675 0.211325 0 0 0 0 38 255
0.548101 0.754879 0.360199 0 0 0 0 23 255
0.211325 0.788675 0.57735 0 0 0 0 22 255
0.360199 0.754879 0.548101 0 0 0 0 22 255
0.633099 0.633099 -0.44539 0 0 0 0 31 255
0.510307 0.797922 -0.320792 0 0 0 0 31 255
0.19509 0.980785 0.0 0 0 0 0 29 255
0.358851 0.918728 -0.164817 0 0 0 0 30 255
0.544816 0.823881 -0.156192 0 0 0 0 29 255
0.208846 0.89032 0.404615 0 0 0 0 27 255
0.404615 0.89032 0.208846 0 0 0 0 24 255
0.198757 0.959683 0.198757 0 0 0 0 27 255
-0.633099 0.633099 0.44539 0 0 0 0 36 255
-0.510307 0.797922 0.320792 0 0 0 0 26 255
-0.19509 0.980785 0.0 0 0 0 0 29 255
-0.358851 0.918728 0.164817 0 0 0 0 31 255
-0.544816 0.823881 0.156192 0 0 0 0 29 255
0.44539 0.633099 -0.633099 0 0 0 0 39 255
0.320792 0.797922 -0.510307 0 0 0 0 36 255
0.0 0.83147 -0.55557 0 0 0 0 30 255
0.153263 0.698753 -0.698753 0 0 0 0 23 255
0.0 0.980785 -0.19509 0 0 0 0 34 255
0.164817 0.918728 -0.358851 0 0 0 0 34 255
-0.44539 0.633099 -0.633099 0 0 0 0 40 255
-0.57735 0.788675 -0.211325 0 0 0 0 34 255
-0.548101 0.754879 -0.360199 0 0 0 0 27 255
-0.153263 0.698753 -0.698753 0 0 0 0 23 255
-0.211325 0.788675 -0.57735 0 0 0 0 22 255
-0.360199 0.754879 -0.548101 0 0 0 0 22 255
-0.198757 0.959683 -0.198757 0 0 0 0 27 255
-0.208846 0.89032 -0.404615 0 0 0 0 27 255
-0.404615 0.89032 -0.208846 0 0 0 0 24 255
-0.320792 0.510307 -0.797922 0 0 0 0 36 255
0.0 0.55557 -0.83147 0 0 0 0 30 255
0.0 0.19509 -0.980785 0 0 0 0 29 255
-0.164817 0.358851 -0.918728 0 0 0 0 37 255
0.633099 0.44539 -0.633099 0 0 0 0 32 255
0.57735 0.211325 -0.788675 0 0 0 0 22 255
0.698753 0.153263 -0.698753 0 0 0 0 23 255
0.548101 0.360199 -0.754879 0 0 0 0 24 255
0.211325 0.57735 -0.788675 0 0 0 0 22 255
0.360199 0.548101 -0.754879 0 0 0 0 22 255
0.633099 -0.44539 -0.633099 0 0 0 0 37 255
0.510307 -0.320792 -0.797922 0 0 0 0 44 255
0.19509 0.0 -0.980785 0 0 0 0 32 255
0.358851 -0.164817 -0.918728 0 0 0 0 34 255
0.698753 -0.153263 -0.698753 0 0 0 0 23 255
0.55557 0.0 -0.83147 0 0 0 0 30 255
0.208846 0.404615 -0.89032 0 0 0 0 27 255
0.404615 0.208846 -0.89032 0 0 0 0 27 255
0.198757 0.198757 -0.959683 0 0 0 0 27 255
-0.633099 0.44539 -0.633099 0 0 0 0 31 255
-0.510307 0.320792 -0.797922 0 0 0 0 44 255
-0.19509 0.0 -0.980785 0 0 0 0 34 255
-0.358851 0.164817 -0.918728 0 0 0 0 30 255
-0.698753 0.153263 -0.698753 0 0 0 0 23 255
-0.55557 0.0 -0.83147 0 0 0 0 30 255
0.44539 -0.633099 -0.633099 0 0 0 0 36 255
0.320792 -0.510307 -0.797922 0 0 0 0 36 255
0.0 -0.55557 -0.83147 0 0 0 0 30 255
0.153263 -0.698753 -0.698753 0 0 0 0 23 255
0.0 -0.19509 -0.980785 0 0 0 0 32 255
0.164817 -0.358851 -0.918728 0 0 0 0 34 255
-0.633099 -0.44539 -0.633099 0 0 0 0 39 255
-0.44539 -0.633099 -0.633099 0 0 0 0 32 255
-0.57735 -0.211325 -0.788675 0 0 0 0 22 255
-0.698753 -0.153263 -0.698753 0 0 0 0 23 255
-0.548101 -0.360199 -0.754879 0 0 0 0 22 255
-0.153263 -0.698753 -0.698753 0 0 0 0 23 255
-0.211325 -0.57735 -0.788675 0 0 0 0 22 255
-0.360199 -0.548101 -0.754879 0 0 0 0 24 255
-0.198757 -0.198757 -0.959683 0 0 0 0 27 255
-0.208846 -0.404615 -0.89032 0 0 0 0 27 255
-0.404615 -0.208846 -0.89032 0 0 0 0 27 255
-0.320792 -0.797922 -0.510307 0 0 0 0 44 255
0.0 -0.83147 -0.55557 0 0 0 0 30 255
0.0 -0.980785 -0.19509 0 0 0 0 34 255
-0.164817 -0.918728 -0.358851 0 0 0 0 30 255
0.506121 -0.698343 -0.506121 0 0 0 0 20 255
0.57735 -0.788675 -0.211325 0 0 0 0 34 255
0.548101 -0.754879 -0.360199 0 0 0 0 24 255
0.211325 -0.788675 -0.57735 0 0 0 0 22 255
0.360199 -0.754879 -0.548101 0 0 0 0 20 255
0.633099 -0.633099 0.44539 0 0 0 0 36 255
0.510307 -0.797922 0.320792 0 0 0 0 26 255
0.19509 -0.980785 0.0 0 0 0 0 29 255
0.358851 -0.918728 0.164817 0 0 0 0 31 255
0.544816 -0.823881 0.156192 0 0 0 0 29 255
0.208846 -0.89032 -0.404615 0 0 0 0 27 255
0.404615 -0.89032 -0.208846 0 0 0 0 24 255
0.198757 -0.959683 -0.198757 0 0 0 0 27 255
-0.633099 -0.633099 -0.44539 0 0 0 0 31 255
-0.510307 -0.797922 -0.320792 0 0 0 0 26 255
-0.19509 -0.980785 0.0 0 0 0 0 29 255
-0.358851 -0.918728 -0.164817 0 0 0 0 31 255
-0.544816 -0.823881 -0.156192 0 0 0 0 29 255
0.320792 -0.797922 0.510307 0 0 0 0 44 255
0.0 -0.83147 0.55557 0 0 0 0 30 255
0.0 -0.980785 0.19509 0 0 0 0 34 255
0.164817 -0.918728 0.358851 0 0 0 0 30 255
-0.57735 -0.788675 0.211325 0 0 0 0 34 255
-0.548101 -0.754879 0.360199 0 0 0 0 27 255
-0.211325 -0.788675 0.57735 0 0 0 0 22 255
-0.360199 -0.754879 0.548101 0 0 0 0 22 255
-0.198757 -0.959683 0.198757 0 0 0 0 27 255
-0.208846 -0.89032 0.404615 0 0 0 0 27 255
-0.404615 -0.89032 0.208846 0 0 0 0 24 255
0.797922 -0.510307 0.320792 0 0 0 0 26 255
0.823881 -0.544816 0.156192 0 0 0 0 29 255
0.980785 -0.19509 0.0 0 0 0 0 32 255
0.918728 -0.358851 0.164817 0 0 0 0 29 255
0.788675 -0.211325 -0.57735 0 0 0 0 22 255
0.754879 -0.360199 -0.548101 0 0 0 0 22 255
0.788675 -0.57735 -0.211325 0 0 0 0 38 255
0.754879 -0.548101 -0.360199 0 0 0 0 23 255
0.797922 0.320792 -0.510307 0 0 0 0 44 255
0.980785 0.0 -0.19509 0 0 0 0 34 255
0.918728 0.164817 -0.358851 0 0 0 0 30 255
0.83147 0.0 -0.55557 0 0 0 0 30 255
0.89032 -0.404615 -0.208846 0 0 0 0 24 255
0.89032 -0.208846 -0.404615 0 0 0 0 27 255
0.959683 -0.198757 -0.198757 0 0 0 0 27 255
0.797922 -0.320792 0.510307 0 0 0 0 44 255
0.980785 0.0 0.19509 0 0 0 0 32 255
0.918728 -0.164817 0.358851 0 0 0 0 34 255
0.83147 0.0 0.55557 0 0 0 0 30 255
0.797922 0.510307 -0.320792 0 0 0 0 26 255
0.823881 0.544816 -0.156192 0 0 0 0 29 255
0.980785 0.19509 0.0 0 0 0 0 29 255
0.918728 0.358851 -0.164817 0 0 0 0 31 255
0.788675 0.211325 0.57735 0 0 0 0 22 255
0.754879 0.360199 0.548101 0 0 0 0 22 255
0.788675 0.57735 0.211325 0 0 0 0 34 255
0.754879 0.548101 0.360199 0 0 0 0 26 255
0.959683 0.198757 0.198757 0 0 0 0 27 255
0.89032 0.404615 0.208846 0 0 0 0 24 255
0.89032 0.208846 0.404615 0 0 0 0 27 255
-0.797922 -0.510307 -0.320792 0 0 0 0 29 255
-0.823881 -0.544816 -0.156192 0 0 0 0 29 255
-0.980785 -0.19509 0.0 0 0 0 0 32 255
-0.918728 -0.358851 -0.164817 0 0 0 0 29 255
-0.788675 -0.211325 0.57735 0 0 0 0 22 255
-0.754879 -0.360199 0.548101 0 0 0 0 22 255
-0.788675 -0.57735 0.211325 0 0 0 0 38 255
-0.754879 -0.548101 0.360199 0 0 0 0 22 255
-0.797922 0.320792 0.510307 0 0 0 0 44 255
-0.980785 0.0 0.19509 0 0 0 0 34 255
-0.918728 0.164817 0.358851 0 0 0 0 30 255
-0.83147 0.0 0.55557 0 0 0 0 30 255
-0.89032 -0.404615 0.208846 0 0 0 0 24 255
-0.89032 -0.208846 0.404615 0 0 0 0 27 255
-0.959683 -0.198757 0.198757 0 0 0 0 27 255
-0.797922 -0.320792 -0.510307 0 0 0 0 40 255
-0.980785 0.0 -0.19509 0 0 0 0 32 255
-0.918728 -0.164817 -0.358851 0 0 0 0 34 255
-0.83147 0.0 -0.55557 0 0 0 0 30 255
-0.797922 0.510307 0.320792 0 0 0 0 26 255
-0.823881 0.544816 0.156192 0 0 0 0 29 255
-0.980785 0.19509 0.0 0 0 0 0 29 255
-0.918728 0.358851 0.164817 0 0 0 0 31 255
-0.698343 0.506121 -0.506121 0 0 0 0 20 255
-0.788675 0.211325 -0.57735 0 0 0 0 22 255
-0.754879 0.360199 -0.548101 0 0 0 0 20 255
-0.788675 0.57735 -0.211325 0 0 0 0 38 255
-0.754879 0.548101 -0.360199 0 0 0 0 20 255
-0.959683 0.198757 -0.198757 0 0 0 0 27 255
-0.89032 0.404615 -0.208846 0 0 0 0 24 255
-0.89032 0.208846 -0.404615 0 0 0 0 27 255

3 0 54 55
3 12 56 57
3 1 60 61
3 13 62 60
3 60 62 61
3 0 63 64
3 13 64 65
3 63 65 64
3 13 65 62
3 14 69 68
3 1 70 71
3 0 64 54
3 13 72 64
3 12 54 72
3 64 72 54
3 1 71 60
3 14 73 71
3 13 60 73
3 71 73 60
3 12 74 56
3 14 68 74
3 56 74 68
3 13 73 72
3 14 74 73
3 12 72 74
3 73 74 72
3 15 78 77
3 2 79 80
3 3 83 84
3 16 85 86
3 2 89 90
3 17 91 89
3 89 91 90
3 3 92 93
3 17 93 94
3 92 94 93
3 17 94 91
3 16 95 85
3 15 77 95
3 85 95 77
3 3 93 83
3 17 96 93
3 16 83 96
3 93 96 83
3 2 80 89
3 15 97 80
3 17 89 97
3 80 97 89
3 16 96 95
3 17 97 96
3 15 95 97
3 96 97 95
3 3 99 92
3 18 100 101
3 19 103 102
3 3 84 104
3 19 104 105
3 84 105 104
3 19 105 103
3 20 106 107
3 21 109 108
3 21 110 109
3 20 107 110
3 109 110 107
3 3 104 99
3 19 111 104
3 18 99 111
3 104 111 99
3 19 102 112
3 18 113 100
3 21 108 113
3 100 113 108
3 19 112 111
3 21 113 112
3 18 111 113
3 112 113 111
3 22 114 115
3 23 117 116
3 23 118 117
3 22 115 118
3 117 118 115
3 6 121 122
3 24 123 124
3 25 127 126
3 6 128 129
3 25 129 130
3 128 130 129
3 25 130 127
3 24 131 123
3 23 116 131
3 123 131 116
3 6 129 121
3 25 132 129
3 24 121 132
3 129 132 121
3 25 126 133
3 24 132 131
3 25 133 132
3 23 131 133
3 132 133 131
3 6 135 128
3 26 136 137
3 7 139 140
3 27 141 139
3 139 141 140
3 6 122 142
3 27 142 143
3 122 143 142
3 27 143 141
3 28 147 146
3 7 148 149
3 6 142 135
3 27 150 142
3 26 135 150
3 142 150 135
3 7 149 139
3 28 151 149
3 27 139 151
3 149 151 139
3 26 152 136
3 28 146 152
3 136 152 146
3 27 151 150
3 28 152 151
3 26 150 152
3 151 152 150
3 29 156 155
3 8 157 158
3 9 161 162
3 30 163 164
3 8 167 168
3 31 169 167
3 167 169 168
3 9 170 171
3 31 171 172
3 170 172 171
3 31 172 169
3 30 173 163
3 29 155 173
3 163 173 155
3 9 171 161
3 31 174 171
3 30 161 174
3 171 174 161
3 8 158 167
3 29 175 158
3 31 167 175
3 158 175 167
3 30 174 173
3 31 175 174
3 29 173 175
3 174 175 173
3 9 177 170
3 32 178 179
3 33 182 181
3 9 162 183
3 33 183 184
3 162 184 183
3 33 184 182
3 182 184 180
3 34 185 186
3 35 188 187
3 35 189 188
3 34 186 189
3 188 189 186
3 9 183 177
3 33 190 183
3 32 177 190
3 183 190 177
3 33 181 191
3 32 192 178
3 35 187 192
3 178 192 187
3 33 191 190
3 35 192 191
3 32 190 192
3 191 192 190
3 36 193 194
3 37 196 195
3 37 197 196
3 36 194 197
3 196 197 194
3 0 199 63
3 38 200 201
3 39 203 202
3 0 55 204
3 39 204 205
3 55 205 204
3 39 205 203
3 38 206 200
3 37 195 206
3 200 206 195
3 0 204 199
3 39 207 204
3 38 199 207
3 204 207 199
3 39 202 208
3 38 207 206
3 39 208 207
3 37 206 208
3 207 208 206
3 34 209 185
3 40 211 212
3 34 210 209
3 40 212 210
3 210 212 209
3 7 213 148
3 41 214 213
3 213 214 148
3 41 215 216
3 41 216 214
3 42 219 218
3 7 140 220
3 41 221 215
3 7 220 213
3 42 222 220
3 41 213 222
3 220 222 213
3 40 223 211
3 42 218 223
3 211 223 218
3 41 222 221
3 42 223 222
3 40 221 223
3 222 223 221
3 43 226 225
3 1 61 227
3 20 228 106
3 44 230 231
3 20 229 228
3 44 231 229
3 229 231 228
3 1 232 70
3 45 233 232
3 232 233 70
3 45 234 235
3 45 235 233
3 44 236 230
3 43 225 236
3 230 236 225
3 45 237 234
3 1 227 232
3 43 238 227
3 45 232 238
3 227 238 232
3 44 237 236
3 45 238 237
3 43 236 238
3 237 238 236
3 36 239 193
3 46 241 242
3 36 240 239
3 46 242 240
3 240 242 239
3 2 243 79
3 47 244 243
3 243 244 79
3 47 245 246
3 47 246 244
3 48 249 248
3 2 90 250
3 47 251 245
3 2 250 243
3 48 252 250
3 47 243 252
3 250 252 243
3 46 253 241
3 48 248 253
3 241 253 248
3 47 252 251
3 48 253 252
3 46 251 253
3 252 253 251
3 49 256 255
3 8 168 257
3 22 258 114
3 50 260 261
3 22 259 258
3 50 261 259
3 259 261 258
3 8 263 157
3 51 264 263
3 263 264 157
3 51 265 266
3 51 266 264
3 264 266 262
3 50 267 260
3 49 255 267
3 260 267 255
3 51 268 265
3 8 257 263
3 49 269 257
3 51 263 269
3 257 269 263
3 50 268 267
3 51 269 268
3 49 267 269
3 268 269 267
3 4 102 234
3 102 235 234
3 235 102 103
3 5 265 126
3 265 127 126
3 127 265 266
3 266 153 262
3 10 215 181
3 215 182 181
3 182 215 216
3 159 182 180
3 245 202 203
3 245 203 246
3 245 11 202
3 185 58 59
3 166 165 193
3 114 87 88
3 119 138 106
3 11 36 240
3 197 36 11
3 20 4 110
3 4 20 229
3 118 5 22
3 5 259 22
3 34 10 210
3 34 189 10
3 21 102 110
3 102 21 112
3 102 4 110
3 202 37 208
3 197 202 11
3 197 37 202
3 46 245 240
3 245 46 251
3 245 11 240
3 229 234 4
3 44 237 234
3 234 229 44
3 10 215 210
3 40 215 221
3 40 210 215
3 5 265 259
3 50 265 268
3 50 259 265
3 118 126 23
3 118 5 126
3 126 133 23
3 189 181 35
3 189 10 181
3 181 191 35
3 81 67 66
3 67 81 82
3 145 160 159
3 159 144 145
3 185 198 186
3 185 59 198
3 185 224 209
3 185 58 224
3 194 176 193
3 176 166 193
3 239 165 193
3 254 165 239
3 107 119 106
3 107 120 119
3 217 228 106
3 106 138 217
3 88 98 114
3 115 114 98
3 53 75 52
3 76 75 53
3 154 134 125
3 125 153 154
3 258 247 114
3 247 87 114
3 214 148 144
3 145 144 148
3 149 145 148
3 147 149 28
3 147 145 149
3 159 180 144
3 180 216 144
3 159 182 180
3 180 182 216
3 216 214 144
3 70 66 67
3 66 70 233
3 233 235 66
3 67 71 70
3 71 69 14
3 71 67 69
3 82 81 84
3 105 84 81
3 84 83 82
3 83 16 86
3 86 82 83
3 162 159 160
3 159 184 180
3 159 162 184
3 160 161 162
3 161 164 30
3 161 160 164
3 65 63 59
3 198 59 63
3 59 58 65
3 62 65 58
3 62 58 61
3 61 58 224
3 227 226 43
3 224 227 61
3 224 226 227
3 38 201 199
3 199 201 198
3 198 63 199
3 79 75 76
3 75 79 244
3 244 246 75
3 80 78 15
3 76 80 79
3 76 78 80
3 128 125 134
3 125 128 130
3 26 135 137
3 135 128 134
3 134 137 135
3 266 262 127
3 262 125 127
3 266 153 262
3 262 153 125
3 125 130 127
3 141 140 138
3 217 138 140
3 138 119 141
3 143 141 119
3 119 122 143
3 119 120 122
3 220 217 140
3 219 220 42
3 219 217 220
3 122 120 121
3 121 120 124
3 124 24 121
3 166 170 172
3 170 166 176
3 172 165 166
3 165 172 169
3 168 165 169
3 254 165 168
3 177 179 32
3 176 177 170
3 176 179 177
3 49 256 257
3 257 256 254
3 254 168 257
3 154 153 157
3 264 153 262
3 264 157 153
3 157 158 154
3 158 29 156
3 156 154 158
3 53 52 55
3 205 55 52
3 12 57 54
3 54 57 53
3 53 55 54
3 87 90 91
3 90 87 247
3 91 88 87
3 88 91 94
3 92 98 88
3 88 94 92
3 99 98 92
3 101 99 18
3 101 98 99
3 250 249 48
3 247 250 90
3 247 249 250
3 109 124 107
3 124 120 107
3 108 123 109
3 123 124 109
3 247 261 258
3 247 249 261
3 261 248 260
3 261 249 248
3 82 69 67
3 82 86 69
3 86 68 69
3 68 86 85
3 196 179 176
3 176 194 196
3 195 178 196
3 178 179 196
3 57 78 76
3 76 53 57
3 56 77 57
3 77 78 57
3 68 77 56
3 77 68 85
3 154 137 134
3 154 156 137
3 137 155 136
3 137 156 155
3 198 188 186
3 198 201 188
3 188 200 187
3 188 201 200
3 178 200 187
3 200 178 195
3 212 226 224
3 224 209 212
3 211 226 212
3 211 225 226
3 145 164 160
3 164 145 147
3 147 163 164
3 147 146 163
3 146 155 163
3 155 146 136
3 228 231 217
3 219 217 231
3 230 218 231
3 218 219 231
3 225 218 230
3 218 225 211
3 115 98 117
3 117 98 101
3 100 117 101
3 100 116 117
3 100 123 116
3 123 100 108
3 256 242 254
3 242 239 254
3 241 242 256
3 256 255 241
3 255 248 241
3 248 255 260
3 205 52 203
3 52 75 246
3 246 203 52
3 66 235 81
3 103 81 235
3 103 105 81

