ply
format ascii 1.0
comment VCGLIB generated
element vertex 193
property float x
property float y
property float z
property float nx
property float ny
property float nz
property uchar red
property uchar green
property uchar blue
element face 382
property list uchar int vertex_indices
end_header
0.707107 0.707107 0.0 0 0 0 0 33 255
-0.707107 0.707107 0.0 0 0 0 0 33 255
0.707107 -0.707107 0.0 0 0 0 0 33 255
-0.707107 -0.707107 0.0 0 0 0 0 33 255
-0.92388 0.382683 0.0 0 0 0 0 24 255
-0.44539 -0.633099 0.633099 0 0 0 0 41 255
-0.320792 -0.510307 0.797922 0 0 0 0 42 255
0.0 -0.55557 0.83147 0 0 0 0 36 255
-0.153263 -0.698753 0.698753 0 0 0 0 40 255
0.0 -0.19509 0.980785 0 0 0 0 42 255
-0.164817 -0.358851 0.918728 0 0 0 0 48 255
0.633099 -0.44539 0.633099 0 0 0 0 35 255
0.44539 -0.633099 0.633099 0 0 0 0 32 255
0.698753 -0.153263 0.698753 0 0 0 0 40 255
0.548101 -0.360199 0.754879 0 0 0 0 28 255
0.153263 -0.698753 0.698753 0 0 0 0 40 255
0.360199 -0.548101 0.754879 0 0 0 0 34 255
0.633099 0.44539 0.633099 0 0 0 0 35 255
0.510307 0.320792 0.797922 0 0 0 0 42 255
0.19509 0.0 0.980785 0 0 0 0 47 255
0.358851 0.164817 0.918728 0 0 0 0 46 255
0.698753 0.153263 0.698753 0 0 0 0 40 255
0.55557 0.0 0.83147 0 0 0 0 36 255
0.208846 -0.404615 0.89032 0 0 0 0 44 255
0.404615 -0.208846 0.89032 0 0 0 0 55 255
-0.633099 -0.44539 0.633099 0 0 0 0 39 255
-0.510307 -0.320792 0.797922 0 0 0 0 40 255
-0.19509 0.0 0.980785 0 0 0 0 53 255
-0.358851 -0.164817 0.918728 0 0 0 0 38 255
-0.698753 -0.153263 0.698753 0 0 0 0 40 255
-0.55557 0.0 0.83147 0 0 0 0 36 255
0.44539 0.633099 0.633099 0 0 0 0 44 255
0.320792 0.510307 0.797922 0 0 0 0 40 255
0.0 0.55557 0.83147 0 0 0 0 36 255
0.153263 0.698753 0.698753 0 0 0 0 40 255
0.0 0.19509 0.980785 0 0 0 0 38 255
0.164817 0.358851 0.918728 0 0 0 0 42 255
-0.633099 0.44539 0.633099 0 0 0 0 32 255
-0.44539 0.633099 0.633099 0 0 0 0 35 255
-0.698753 0.153263 0.698753 0 0 0 0 40 255
-0.548101 0.360199 0.754879 0 0 0 0 34 255
-0.153263 0.698753 0.698753 0 0 0 0 40 255
-0.360199 0.548101 0.754879 0 0 0 0 28 255
-0.208846 0.404615 0.89032 0 0 0 0 55 255
-0.404615 0.208846 0.89032 0 0 0 0 44 255
-0.320792 0.797922 0.510307 0 0 0 0 44 255
0.0 0.83147 0.55557 0 0 0 0 36 255
0.0 0.980785 0.19509 0 0 0 0 47 255
-0.164817 0.918728 0.358851 0 0 0 0 38 255
0.57735 0.788675 0.211325 0 0 0 0 32 255
0.548101 0.754879 0.360199 0 0 0 0 35 255
0.360199 0.754879 0.548101 0 0 0 0 28 255
0.633099 0.633099 -0.44539 0 0 0 0 43 255
0.510307 0.797922 -0.320792 0 0 0 0 30 255
0.19509 0.980785 0.0 0 0 0 0 42 255
0.358851 0.918728 -0.164817 0 0 0 0 40 255
0.544816 0.823881 -0.156192 0 0 0 0 44 255
0.208846 0.89032 0.404615 0 0 0 0 55 255
0.404615 0.89032 0.208846 0 0 0 0 41 255
-0.633099 0.633099 0.44539 0 0 0 0 48 255
-0.510307 0.797922 0.320792 0 0 0 0 26 255
-0.19509 0.980785 0.0 0 0 0 0 42 255
-0.358851 0.918728 0.164817 0 0 0 0 46 255
-0.544816 0.823881 0.156192 0 0 0 0 44 255
0.44539 0.633099 -0.633099 0 0 0 0 39 255
0.320792 0.797922 -0.510307 0 0 0 0 36 255
0.0 0.83147 -0.55557 0 0 0 0 36 255
0.153263 0.698753 -0.698753 0 0 0 0 40 255
0.0 0.980785 -0.19509 0 0 0 0 47 255
0.164817 0.918728 -0.358851 0 0 0 0 46 255
-0.44539 0.633099 -0.633099 0 0 0 0 39 255
-0.57735 0.788675 -0.211325 0 0 0 0 27 255
-0.548101 0.754879 -0.360199 0 0 0 0 44 255
-0.153263 0.698753 -0.698753 0 0 0 0 40 255
-0.360199 0.754879 -0.548101 0 0 0 0 28 255
-0.208846 0.89032 -0.404615 0 0 0 0 55 255
-0.404615 0.89032 -0.208846 0 0 0 0 41 255
-0.320792 0.510307 -0.797922 0 0 0 0 36 255
0.0 0.55557 -0.83147 0 0 0 0 36 255
0.0 0.19509 -0.980785 0 0 0 0 38 255
-0.164817 0.358851 -0.918728 0 0 0 0 48 255
0.633099 0.44539 -0.633099 0 0 0 0 32 255
0.698753 0.153263 -0.698753 0 0 0 0 40 255
0.548101 0.360199 -0.754879 0 0 0 0 34 255
0.360199 0.548101 -0.754879 0 0 0 0 28 255
0.633099 -0.44539 -0.633099 0 0 0 0 35 255
0.510307 -0.320792 -0.797922 0 0 0 0 44 255
0.19509 0.0 -0.980785 0 0 0 0 45 255
0.358851 -0.164817 -0.918728 0 0 0 0 42 255
0.698753 -0.153263 -0.698753 0 0 0 0 40 255
0.55557 0.0 -0.83147 0 0 0 0 36 255
0.208846 0.404615 -0.89032 0 0 0 0 55 255
0.404615 0.208846 -0.89032 0 0 0 0 44 255
-0.633099 0.44539 -0.633099 0 0 0 0 41 255
-0.510307 0.320792 -0.797922 0 0 0 0 44 255
-0.19509 0.0 -0.980785 0 0 0 0 53 255
-0.358851 0.164817 -0.918728 0 0 0 0 38 255
-0.698753 0.153263 -0.698753 0 0 0 0 40 255
-0.55557 0.0 -0.83147 0 0 0 0 36 255
0.44539 -0.633099 -0.633099 0 0 0 0 44 255
0.320792 -0.510307 -0.797922 0 0 0 0 36 255
0.0 -0.55557 -0.83147 0 0 0 0 36 255
0.153263 -0.698753 -0.698753 0 0 0 0 40 255
0.0 -0.19509 -0.980785 0 0 0 0 43 255
0.164817 -0.358851 -0.918728 0 0 0 0 46 255
-0.633099 -0.44539 -0.633099 0 0 0 0 39 255
-0.44539 -0.633099 -0.633099 0 0 0 0 32 255
-0.698753 -0.153263 -0.698753 0 0 0 0 40 255
-0.548101 -0.360199 -0.754879 0 0 0 0 31 255
-0.153263 -0.698753 -0.698753 0 0 0 0 40 255
-0.360199 -0.548101 -0.754879 0 0 0 0 32 255
-0.208846 -0.404615 -0.89032 0 0 0 0 55 255
-0.404615 -0.208846 -0.89032 0 0 0 0 44 255
-0.320792 -0.797922 -0.510307 0 0 0 0 44 255
0.0 -0.83147 -0.55557 0 0 0 0 36 255
0.0 -0.980785 -0.19509 0 0 0 0 47 255
-0.164817 -0.918728 -0.358851 0 0 0 0 38 255
0.57735 -0.788675 -0.211325 0 0 0 0 27 255
0.548101 -0.754879 -0.360199 0 0 0 0 42 255
0.360199 -0.754879 -0.548101 0 0 0 0 28 255
0.633099 -0.633099 0.44539 0 0 0 0 48 255
0.510307 -0.797922 0.320792 0 0 0 0 26 255
0.19509 -0.980785 0.0 0 0 0 0 42 255
0.358851 -0.918728 0.164817 0 0 0 0 46 255
0.544816 -0.823881 0.156192 0 0 0 0 44 255
0.208846 -0.89032 -0.404615 0 0 0 0 55 255
0.404615 -0.89032 -0.208846 0 0 0 0 41 255
-0.633099 -0.633099 -0.44539 0 0 0 0 43 255
-0.510307 -0.797922 -0.320792 0 0 0 0 26 255
-0.19509 -0.980785 0.0 0 0 0 0 42 255
-0.358851 -0.918728 -0.164817 0 0 0 0 46 255
-0.544816 -0.823881 -0.156192 0 0 0 0 44 255
0.320792 -0.797922 0.510307 0 0 0 0 44 255
0.0 -0.83147 0.55557 0 0 0 0 36 255
0.0 -0.980785 0.19509 0 0 0 0 47 255
0.164817 -0.918728 0.358851 0 0 0 0 38 255
-0.57735 -0.788675 0.211325 0 0 0 0 27 255
-0.548101 -0.754879 0.360199 0 0 0 0 42 255
-0.360199 -0.754879 0.548101 0 0 0 0 28 255
-0.208846 -0.89032 0.404615 0 0 0 0 55 255
-0.404615 -0.89032 0.208846 0 0 0 0 41 255
0.797922 -0.510307 0.320792 0 0 0 0 26 255
0.823881 -0.544816 0.156192 0 0 0 0 44 255
0.980785 -0.19509 0.0 0 0 0 0 51 255
0.918728 -0.358851 0.164817 0 0 0 0 44 255
0.754879 -0.360199 -0.548101 0 0 0 0 28 255
0.788675 -0.57735 -0.211325 0 0 0 0 32 255
0.754879 -0.548101 -0.360199 0 0 0 0 39 255
0.797922 0.320792 -0.510307 0 0 0 0 44 255
0.980785 0.0 -0.19509 0 0 0 0 47 255
0.918728 0.164817 -0.358851 0 0 0 0 38 255
0.83147 0.0 -0.55557 0 0 0 0 36 255
0.89032 -0.404615 -0.208846 0 0 0 0 41 255
0.89032 -0.208846 -0.404615 0 0 0 0 55 255
0.797922 -0.320792 0.510307 0 0 0 0 44 255
0.980785 0.0 0.19509 0 0 0 0 43 255
0.918728 -0.164817 0.358851 0 0 0 0 42 255
0.83147 0.0 0.55557 0 0 0 0 36 255
0.797922 0.510307 -0.320792 0 0 0 0 26 255
0.823881 0.544816 -0.156192 0 0 0 0 44 255
0.980785 0.19509 0.0 0 0 0 0 42 255
0.918728 0.358851 -0.164817 0 0 0 0 46 255
0.754879 0.360199 0.548101 0 0 0 0 28 255
0.788675 0.57735 0.211325 0 0 0 0 27 255
0.754879 0.548101 0.360199 0 0 0 0 44 255
0.89032 0.404615 0.208846 0 0 0 0 41 255
0.89032 0.208846 0.404615 0 0 0 0 55 255
-0.797922 -0.510307 -0.320792 0 0 0 0 29 255
-0.823881 -0.544816 -0.156192 0 0 0 0 44 255
-0.980785 -0.19509 0.0 0 0 0 0 51 255
-0.918728 -0.358851 -0.164817 0 0 0 0 44 255
-0.754879 -0.360199 0.548101 0 0 0 0 28 255
-0.788675 -0.57735 0.211325 0 0 0 0 32 255
-0.754879 -0.548101 0.360199 0 0 0 0 39 255
-0.797922 0.320792 0.510307 0 0 0 0 44 255
-0.980785 0.0 0.19509 0 0 0 0 47 255
-0.918728 0.164817 0.358851 0 0 0 0 38 255
-0.83147 0.0 0.55557 0 0 0 0 36 255
-0.89032 -0.404615 0.208846 0 0 0 0 41 255
-0.89032 -0.208846 0.404615 0 0 0 0 55 255
-0.797922 -0.320792 -0.510307 0 0 0 0 40 255
-0.980785 0.0 -0.19509 0 0 0 0 43 255
-0.918728 -0.164817 -0.358851 0 0 0 0 42 255
-0.83147 0.0 -0.55557 0 0 0 0 36 255
-0.797922 0.510307 0.320792 0 0 0 0 26 255
-0.823881 0.544816 0.156192 0 0 0 0 39 255
-0.980785 0.19509 0.0 0 0 0 0 38 255
-0.918728 0.358851 0.164817 0 0 0 0 31 255
-0.754879 0.360199 -0.548101 0 0 0 0 28 255
-0.788675 0.57735 -0.211325 0 0 0 0 35 255
-0.754879 0.548101 -0.360199 0 0 0 0 35 255
-0.89032 0.404615 -0.208846 0 0 0 0 32 255
-0.89032 0.208846 -0.404615 0 0 0 0 55 255

3 55 56 53
3 62 63 60
3 123 124 121
3 130 131 128
3 142 144 141
3 159 161 158
3 168 170 167
3 4 186 187
3 4 187 185
3 185 187 184
3 0 49 163
3 49 164 163
3 164 49 50
3 1 189 71
3 189 72 71
3 72 189 190
3 2 146 117
3 146 118 117
3 118 146 147
3 172 136 137
3 172 137 173
3 172 3 136
3 120 11 12
3 106 105 127
3 59 37 38
3 64 81 52
3 49 0 56
3 131 136 3
3 172 3 168
3 159 163 0
3 2 146 142
3 1 189 185
3 4 189 191
3 4 185 189
3 63 1 71
3 124 2 117
3 31 18 17
3 18 31 32
3 86 100 99
3 99 85 86
3 120 132 121
3 120 12 132
3 120 154 141
3 120 11 154
3 128 113 127
3 113 106 127
3 167 105 127
3 180 105 167
3 53 64 52
3 53 65 64
3 148 158 52
3 52 81 148
3 38 45 59
3 60 59 45
3 6 25 5
3 26 25 6
3 94 77 70
3 70 93 94
3 184 174 59
3 174 37 59
3 145 89 85
3 86 85 89
3 90 86 89
3 88 86 90
3 147 145 85
3 21 17 18
3 17 21 162
3 162 164 17
3 18 22 21
3 22 18 20
3 32 31 34
3 51 34 31
3 34 33 32
3 36 32 33
3 102 99 100
3 99 102 119
3 100 101 102
3 101 100 104
3 16 15 12
3 132 12 15
3 12 11 16
3 14 16 11
3 14 11 13
3 13 11 154
3 154 157 13
3 154 156 157
3 133 135 132
3 132 15 133
3 29 25 26
3 25 29 171
3 171 173 25
3 26 30 29
3 26 28 30
3 73 70 77
3 70 73 74
3 78 73 77
3 77 80 78
3 70 74 72
3 83 82 81
3 148 81 82
3 81 64 83
3 84 83 64
3 64 67 84
3 64 65 67
3 151 148 82
3 150 148 151
3 67 65 66
3 66 65 69
3 106 109 110
3 109 106 113
3 110 105 106
3 105 110 108
3 107 105 108
3 180 105 107
3 113 114 109
3 113 116 114
3 183 182 180
3 180 107 183
3 94 93 97
3 188 97 93
3 97 98 94
3 96 94 98
3 6 5 8
3 138 8 5
3 7 10 6
3 6 8 7
3 37 39 40
3 39 37 174
3 40 38 37
3 38 40 42
3 41 45 38
3 38 42 41
3 46 45 41
3 48 45 46
3 174 177 39
3 174 176 177
3 55 69 53
3 69 65 53
3 54 68 55
3 68 69 55
3 174 187 184
3 174 176 187
3 187 175 186
3 187 176 175
3 32 20 18
3 32 36 20
3 36 19 20
3 19 36 35
3 130 116 113
3 113 128 130
3 129 115 130
3 115 116 130
3 10 28 26
3 26 6 10
3 9 27 10
3 27 28 10
3 19 27 9
3 27 19 35
3 94 80 77
3 94 96 80
3 80 95 79
3 80 96 95
3 132 123 121
3 132 135 123
3 123 134 122
3 123 135 134
3 115 134 122
3 134 115 129
3 144 156 154
3 154 141 144
3 143 156 144
3 143 155 156
3 86 104 100
3 104 86 88
3 88 103 104
3 88 87 103
3 87 95 103
3 95 87 79
3 158 161 148
3 150 148 161
3 160 149 161
3 149 150 161
3 155 149 160
3 149 155 143
3 60 45 62
3 62 45 48
3 47 62 48
3 47 61 62
3 47 68 61
3 68 47 54
3 182 170 180
3 170 167 180
3 169 170 182
3 182 181 169
3 181 175 169
3 175 181 186
3 138 5 137
3 5 25 173
3 173 137 5
3 17 164 31
3 50 31 164
3 50 51 31
3 99 147 85
3 99 119 118
3 118 147 99
3 188 93 190
3 93 70 72
3 72 190 93
3 139 135 133
3 139 134 135
3 66 69 75
3 75 69 68
3 125 114 116
3 116 115 125
3 43 36 33
3 43 35 36
3 103 111 104
3 111 101 104
3 79 91 80
3 91 78 80
3 23 10 7
3 23 9 10
3 92 87 88
3 88 90 92
3 22 20 24
3 24 20 19
3 30 28 44
3 44 28 27
3 157 156 166
3 166 156 155
3 153 150 151
3 149 150 153
3 177 176 179
3 179 176 175
3 96 112 95
3 96 98 112
3 57 47 48
3 48 46 57
3 182 192 181
3 182 183 192
3 87 91 79
3 91 87 92
3 24 9 23
3 9 24 19
3 44 27 43
3 35 43 27
3 95 111 103
3 111 95 112
3 33 34 41
3 46 41 34
3 46 34 57
3 57 34 51
3 43 33 41
3 41 42 43
3 42 40 43
3 44 43 40
3 39 44 40
3 30 44 39
3 39 29 30
3 29 39 177
3 179 29 177
3 171 29 179
3 51 50 57
3 58 50 49
3 58 57 50
3 172 173 178
3 173 171 179
3 179 178 173
3 13 21 22
3 21 13 157
3 24 14 13
3 13 22 24
3 21 166 162
3 21 157 166
3 163 164 165
3 164 162 166
3 166 165 164
3 16 14 24
3 24 23 16
3 16 23 15
3 15 23 7
3 8 15 7
3 133 15 8
3 139 133 8
3 8 138 139
3 138 137 139
3 140 137 136
3 140 139 137
3 67 73 78
3 73 67 66
3 67 91 84
3 67 78 91
3 75 74 73
3 73 66 75
3 91 83 84
3 91 92 83
3 83 92 82
3 82 92 90
3 82 89 151
3 82 90 89
3 89 153 151
3 89 145 153
3 147 153 145
3 152 147 146
3 152 153 147
3 75 72 74
3 76 71 72
3 72 75 76
3 109 102 101
3 102 109 114
3 125 102 114
3 125 119 102
3 109 111 110
3 109 101 111
3 111 108 110
3 111 112 108
3 112 107 108
3 112 98 107
3 107 97 183
3 107 98 97
3 97 192 183
3 192 97 188
3 190 192 188
3 191 190 189
3 191 192 190
3 125 118 119
3 126 117 118
3 118 125 126
3 0 56 159
3 56 52 159
3 52 56 53
3 52 158 159
3 2 142 124
3 142 120 124
3 120 142 141
3 120 121 124
3 167 168 127
3 168 131 127
3 168 3 131
3 131 128 127
3 60 63 59
3 185 184 59
3 185 63 1
3 185 59 63
3 160 166 155
3 165 166 160
3 61 75 68
3 61 76 75
3 143 149 153
3 153 152 143
3 169 179 175
3 169 178 179
3 122 125 115
3 122 126 125
3 58 54 57
3 54 47 57
3 129 134 139
3 139 140 129
3 192 186 181
3 191 4 186
3 186 192 191
3 122 126 123
3 124 126 117
3 124 123 126
3 55 58 54
3 56 49 58
3 58 55 56
3 178 168 172
3 178 169 170
3 170 168 178
3 129 130 140
3 131 140 130
3 131 136 140
3 61 76 62
3 63 76 71
3 63 62 76
3 160 161 165
3 159 165 161
3 159 163 165
3 144 152 142
3 144 143 152
3 152 146 142

