ply
format ascii 1.0
comment VCGLIB generated
element vertex 38
property float x
property float y
property float z
property float nx
property float ny
property float nz
property uchar red
property uchar green
property uchar blue
element face 72
property list uchar int vertex_indices
end_header
0.707107 0.707107 0.0 0 0 0 10 255 0
-0.44539 -0.633099 0.633099 0 0 0 0 255 103
-0.164817 -0.358851 0.918728 0 0 0 0 67 255
0.633099 -0.44539 0.633099 0 0 0 0 74 255
0.698753 -0.153263 0.698753 0 0 0 0 100 255
0.153263 -0.698753 0.698753 0 0 0 0 255 179
0.633099 0.44539 0.633099 0 0 0 0 255 65
0.19509 0.0 0.980785 0 0 0 0 62 255
-0.19509 0.0 0.980785 0 0 0 0 62 255
0.164817 0.358851 0.918728 0 0 0 0 21 255
-0.548101 0.360199 0.754879 0 0 0 0 255 251
-0.153263 0.698753 0.698753 0 0 0 0 255 228
0.0 0.980785 0.19509 0 0 0 0 255 90
0.633099 0.633099 -0.44539 0 0 0 54 255 0
-0.633099 0.633099 0.44539 0 0 0 0 255 244
-0.358851 0.918728 0.164817 0 0 0 0 152 255
0.153263 0.698753 -0.698753 0 0 0 0 255 95
-0.208846 0.89032 -0.404615 0 0 0 127 255 0
0.698753 0.153263 -0.698753 0 0 0 0 255 180
0.633099 -0.44539 -0.633099 0 0 0 0 255 105
0.19509 0.0 -0.980785 0 0 0 0 255 13
-0.633099 0.44539 -0.633099 0 0 0 0 255 173
-0.19509 0.0 -0.980785 0 0 0 14 255 0
-0.633099 -0.44539 -0.633099 0 0 0 0 74 255
-0.698753 -0.153263 -0.698753 0 0 0 0 184 255
-0.153263 -0.698753 -0.698753 0 0 0 5 255 0
0.0 -0.980785 -0.19509 0 0 0 0 25 255
0.544816 -0.823881 0.156192 0 0 0 0 251 255
0.208846 -0.89032 -0.404615 0 0 0 0 0 255
-0.544816 -0.823881 -0.156192 0 0 0 0 255 143
0.0 -0.980785 0.19509 0 0 0 0 185 255
0.823881 -0.544816 0.156192 0 0 0 0 73 255
0.754879 -0.548101 -0.360199 0 0 0 0 56 255
0.980785 0.0 -0.19509 0 0 0 50 255 0
0.89032 0.208846 0.404615 0 0 0 0 211 255
-0.823881 -0.544816 -0.156192 0 0 0 0 255 57
-0.89032 -0.208846 0.404615 0 0 0 255 96 0
-0.89032 0.404615 -0.208846 0 0 0 255 0 0

3 7 9 8
3 7 8 2
3 11 12 15
3 34 6 4
3 5 2 1
3 4 6 7
3 9 7 6
3 19 18 20
3 23 35 29
3 27 31 3
3 15 14 11
3 11 14 10
3 24 22 21
3 29 26 30
3 26 27 28
3 27 26 30
3 31 32 27
3 28 27 32
3 9 10 8
3 9 11 10
3 23 24 35
3 31 4 3
3 32 33 19
3 33 18 19
3 34 0 6
3 1 2 36
3 8 36 2
3 8 10 36
3 25 22 23
3 22 24 23
3 4 7 3
3 7 2 5
3 5 3 7
3 16 18 13
3 20 18 16
3 32 19 28
3 37 24 21
3 25 26 28
3 29 25 23
3 29 26 25
3 5 27 3
3 30 27 5
3 12 15 17
3 11 9 6
3 15 37 17
3 15 14 37
3 37 21 17
3 31 34 4
3 33 31 32
3 33 34 31
3 30 1 29
3 30 5 1
3 35 29 1
3 1 36 35
3 6 12 11
3 12 6 0
3 10 14 36
3 36 14 37
3 13 33 0
3 13 18 33
3 33 34 0
3 35 37 36
3 37 35 24
3 17 13 12
3 17 16 13
3 13 0 12
3 17 21 16
3 16 21 22
3 22 20 16
3 19 25 28
3 25 20 22
3 25 19 20

