ply
format ascii 1.0
comment VCGLIB generated
element vertex 154
property float x
property float y
property float z
property float nx
property float ny
property float nz
property uchar red
property uchar green
property uchar blue
element face 304
property list uchar int vertex_indices
end_header
0.707107 0.707107 0.0 0 0 0 0 52 255
-0.707107 0.707107 0.0 0 0 0 0 52 255
0.707107 -0.707107 0.0 0 0 0 0 52 255
-0.707107 -0.707107 0.0 0 0 0 0 52 255
-0.44539 -0.633099 0.633099 0 0 0 0 50 255
-0.320792 -0.510307 0.797922 0 0 0 0 42 255
0.0 -0.55557 0.83147 0 0 0 0 36 255
-0.153263 -0.698753 0.698753 0 0 0 0 42 255
0.0 -0.19509 0.980785 0 0 0 0 42 255
-0.164817 -0.358851 0.918728 0 0 0 0 48 255
0.633099 -0.44539 0.633099 0 0 0 0 44 255
0.698753 -0.153263 0.698753 0 0 0 0 42 255
0.153263 -0.698753 0.698753 0 0 0 0 39 255
0.360199 -0.548101 0.754879 0 0 0 0 52 255
0.633099 0.44539 0.633099 0 0 0 0 44 255
0.510307 0.320792 0.797922 0 0 0 0 42 255
0.19509 0.0 0.980785 0 0 0 0 47 255
0.358851 0.164817 0.918728 0 0 0 0 46 255
0.698753 0.153263 0.698753 0 0 0 0 42 255
0.55557 0.0 0.83147 0 0 0 0 36 255
0.208846 -0.404615 0.89032 0 0 0 0 44 255
0.404615 -0.208846 0.89032 0 0 0 0 63 255
-0.633099 -0.44539 0.633099 0 0 0 0 52 255
-0.510307 -0.320792 0.797922 0 0 0 0 40 255
-0.19509 0.0 0.980785 0 0 0 0 53 255
-0.358851 -0.164817 0.918728 0 0 0 0 38 255
-0.698753 -0.153263 0.698753 0 0 0 0 46 255
-0.55557 0.0 0.83147 0 0 0 0 36 255
0.44539 0.633099 0.633099 0 0 0 0 57 255
0.320792 0.510307 0.797922 0 0 0 0 38 255
0.153263 0.698753 0.698753 0 0 0 0 57 255
0.0 0.19509 0.980785 0 0 0 0 38 255
0.164817 0.358851 0.918728 0 0 0 0 53 255
-0.44539 0.633099 0.633099 0 0 0 0 44 255
-0.698753 0.153263 0.698753 0 0 0 0 55 255
-0.548101 0.360199 0.754879 0 0 0 0 52 255
-0.153263 0.698753 0.698753 0 0 0 0 46 255
-0.208846 0.404615 0.89032 0 0 0 0 73 255
-0.404615 0.208846 0.89032 0 0 0 0 44 255
-0.320792 0.797922 0.510307 0 0 0 0 49 255
0.0 0.83147 0.55557 0 0 0 0 36 255
0.0 0.980785 0.19509 0 0 0 0 47 255
-0.164817 0.918728 0.358851 0 0 0 0 38 255
0.548101 0.754879 0.360199 0 0 0 0 54 255
0.633099 0.633099 -0.44539 0 0 0 0 64 255
0.19509 0.980785 0.0 0 0 0 0 42 255
0.358851 0.918728 -0.164817 0 0 0 0 48 255
0.544816 0.823881 -0.156192 0 0 0 0 60 255
0.208846 0.89032 0.404615 0 0 0 0 63 255
0.404615 0.89032 0.208846 0 0 0 0 49 255
-0.633099 0.633099 0.44539 0 0 0 0 64 255
-0.19509 0.980785 0.0 0 0 0 0 42 255
-0.358851 0.918728 0.164817 0 0 0 0 48 255
-0.544816 0.823881 0.156192 0 0 0 0 60 255
0.44539 0.633099 -0.633099 0 0 0 0 44 255
0.320792 0.797922 -0.510307 0 0 0 0 49 255
0.0 0.83147 -0.55557 0 0 0 0 36 255
0.153263 0.698753 -0.698753 0 0 0 0 46 255
0.0 0.980785 -0.19509 0 0 0 0 47 255
0.164817 0.918728 -0.358851 0 0 0 0 38 255
-0.44539 0.633099 -0.633099 0 0 0 0 62 255
-0.548101 0.754879 -0.360199 0 0 0 0 60 255
-0.153263 0.698753 -0.698753 0 0 0 0 62 255
-0.208846 0.89032 -0.404615 0 0 0 0 63 255
-0.404615 0.89032 -0.208846 0 0 0 0 49 255
0.0 0.19509 -0.980785 0 0 0 0 38 255
-0.164817 0.358851 -0.918728 0 0 0 0 66 255
0.698753 0.153263 -0.698753 0 0 0 0 39 255
0.548101 0.360199 -0.754879 0 0 0 0 52 255
0.633099 -0.44539 -0.633099 0 0 0 0 44 255
0.510307 -0.320792 -0.797922 0 0 0 0 47 255
0.19509 0.0 -0.980785 0 0 0 0 45 255
0.358851 -0.164817 -0.918728 0 0 0 0 42 255
0.698753 -0.153263 -0.698753 0 0 0 0 42 255
0.55557 0.0 -0.83147 0 0 0 0 36 255
0.208846 0.404615 -0.89032 0 0 0 0 73 255
0.404615 0.208846 -0.89032 0 0 0 0 44 255
-0.633099 0.44539 -0.633099 0 0 0 0 50 255
-0.510307 0.320792 -0.797922 0 0 0 0 47 255
-0.19509 0.0 -0.980785 0 0 0 0 53 255
-0.358851 0.164817 -0.918728 0 0 0 0 38 255
-0.698753 0.153263 -0.698753 0 0 0 0 42 255
-0.55557 0.0 -0.83147 0 0 0 0 36 255
0.44539 -0.633099 -0.633099 0 0 0 0 71 255
0.153263 -0.698753 -0.698753 0 0 0 0 62 255
0.0 -0.19509 -0.980785 0 0 0 0 43 255
0.164817 -0.358851 -0.918728 0 0 0 0 58 255
-0.633099 -0.44539 -0.633099 0 0 0 0 44 255
-0.698753 -0.153263 -0.698753 0 0 0 0 42 255
-0.153263 -0.698753 -0.698753 0 0 0 0 42 255
-0.360199 -0.548101 -0.754879 0 0 0 0 52 255
-0.208846 -0.404615 -0.89032 0 0 0 0 59 255
-0.404615 -0.208846 -0.89032 0 0 0 0 57 255
-0.320792 -0.797922 -0.510307 0 0 0 0 57 255
0.0 -0.83147 -0.55557 0 0 0 0 36 255
0.0 -0.980785 -0.19509 0 0 0 0 47 255
-0.164817 -0.918728 -0.358851 0 0 0 0 38 255
0.548101 -0.754879 -0.360199 0 0 0 0 54 255
0.633099 -0.633099 0.44539 0 0 0 0 64 255
0.19509 -0.980785 0.0 0 0 0 0 42 255
0.358851 -0.918728 0.164817 0 0 0 0 48 255
0.544816 -0.823881 0.156192 0 0 0 0 60 255
0.208846 -0.89032 -0.404615 0 0 0 0 63 255
0.404615 -0.89032 -0.208846 0 0 0 0 49 255
-0.633099 -0.633099 -0.44539 0 0 0 0 64 255
-0.19509 -0.980785 0.0 0 0 0 0 42 255
-0.358851 -0.918728 -0.164817 0 0 0 0 48 255
-0.544816 -0.823881 -0.156192 0 0 0 0 60 255
0.320792 -0.797922 0.510307 0 0 0 0 57 255
0.0 -0.83147 0.55557 0 0 0 0 36 255
0.0 -0.980785 0.19509 0 0 0 0 47 255
0.164817 -0.918728 0.358851 0 0 0 0 38 255
-0.548101 -0.754879 0.360199 0 0 0 0 54 255
-0.208846 -0.89032 0.404615 0 0 0 0 63 255
-0.404615 -0.89032 0.208846 0 0 0 0 49 255
0.823881 -0.544816 0.156192 0 0 0 0 60 255
0.980785 -0.19509 0.0 0 0 0 0 51 255
0.918728 -0.358851 0.164817 0 0 0 0 46 255
0.754879 -0.548101 -0.360199 0 0 0 0 60 255
0.797922 0.320792 -0.510307 0 0 0 0 57 255
0.980785 0.0 -0.19509 0 0 0 0 47 255
0.918728 0.164817 -0.358851 0 0 0 0 38 255
0.83147 0.0 -0.55557 0 0 0 0 36 255
0.89032 -0.404615 -0.208846 0 0 0 0 49 255
0.89032 -0.208846 -0.404615 0 0 0 0 63 255
0.797922 -0.320792 0.510307 0 0 0 0 49 255
0.980785 0.0 0.19509 0 0 0 0 43 255
0.918728 -0.164817 0.358851 0 0 0 0 42 255
0.83147 0.0 0.55557 0 0 0 0 36 255
0.823881 0.544816 -0.156192 0 0 0 0 60 255
0.980785 0.19509 0.0 0 0 0 0 42 255
0.918728 0.358851 -0.164817 0 0 0 0 48 255
0.754879 0.548101 0.360199 0 0 0 0 60 255
0.89032 0.404615 0.208846 0 0 0 0 49 255
0.89032 0.208846 0.404615 0 0 0 0 63 255
-0.823881 -0.544816 -0.156192 0 0 0 0 60 255
-0.980785 -0.19509 0.0 0 0 0 0 51 255
-0.918728 -0.358851 -0.164817 0 0 0 0 46 255
-0.754879 -0.548101 0.360199 0 0 0 0 60 255
-0.797922 0.320792 0.510307 0 0 0 0 52 255
-0.980785 0.0 0.19509 0 0 0 0 47 255
-0.918728 0.164817 0.358851 0 0 0 0 45 255
-0.89032 -0.404615 0.208846 0 0 0 0 49 255
-0.89032 -0.208846 0.404615 0 0 0 0 73 255
-0.797922 -0.320792 -0.510307 0 0 0 0 49 255
-0.980785 0.0 -0.19509 0 0 0 0 43 255
-0.918728 -0.164817 -0.358851 0 0 0 0 42 255
-0.83147 0.0 -0.55557 0 0 0 0 36 255
-0.823881 0.544816 0.156192 0 0 0 0 60 255
-0.980785 0.19509 0.0 0 0 0 0 42 255
-0.918728 0.358851 0.164817 0 0 0 0 48 255
-0.754879 0.548101 -0.360199 0 0 0 0 54 255
-0.89032 0.404615 -0.208846 0 0 0 0 49 255
-0.89032 0.208846 -0.404615 0 0 0 0 63 255

3 28 15 14
3 15 28 29
3 83 69 70
3 98 10 125
3 33 39 50
3 5 22 4
3 23 22 5
3 60 77 78
3 70 69 73
3 74 70 73
3 72 70 74
3 18 14 15
3 15 19 18
3 19 15 17
3 29 28 30
3 11 10 125
3 125 128 11
3 125 127 128
3 109 111 108
3 108 12 109
3 26 22 23
3 23 27 26
3 23 25 27
3 54 55 57
3 122 119 67
3 121 119 122
3 57 55 56
3 56 55 59
3 144 87 88
3 93 94 89
3 93 96 94
3 147 146 144
3 144 88 147
3 78 77 81
3 81 82 78
3 80 78 82
3 5 4 7
3 6 9 5
3 5 7 6
3 36 39 33
3 40 39 36
3 42 39 40
3 45 58 46
3 58 59 46
3 139 141 150
3 150 140 149
3 150 141 140
3 29 17 15
3 29 32 17
3 32 16 17
3 16 32 31
3 106 96 93
3 105 95 106
3 95 96 106
3 9 25 23
3 23 5 9
3 8 24 9
3 24 25 9
3 16 24 8
3 24 16 31
3 78 80 66
3 66 79 65
3 66 80 79
3 108 111 100
3 100 110 99
3 100 111 110
3 95 110 99
3 110 95 105
3 117 127 125
3 116 127 117
3 116 126 127
3 86 70 72
3 72 85 86
3 72 71 85
3 71 79 85
3 79 71 65
3 121 119 131
3 130 120 131
3 120 121 131
3 126 120 130
3 120 126 116
3 52 39 42
3 41 52 42
3 41 51 52
3 41 58 51
3 58 41 45
3 146 137 144
3 136 137 146
3 146 145 136
3 145 140 136
3 140 145 149
3 4 22 138
3 138 112 4
3 14 132 28
3 43 28 132
3 83 118 69
3 97 118 83
3 77 60 61
3 61 151 77
3 113 111 109
3 113 110 111
3 56 59 63
3 63 59 58
3 102 94 96
3 96 95 102
3 37 31 32
3 85 91 86
3 65 75 66
3 20 9 6
3 20 8 9
3 76 71 72
3 72 74 76
3 19 17 21
3 21 17 16
3 27 25 38
3 38 25 24
3 128 127 134
3 134 127 126
3 124 121 122
3 120 121 124
3 143 141 140
3 80 92 79
3 80 82 92
3 48 41 42
3 42 40 48
3 146 153 145
3 146 147 153
3 71 75 65
3 75 71 76
3 21 8 20
3 8 21 16
3 38 24 37
3 31 37 24
3 79 91 85
3 91 79 92
3 40 36 30
3 40 30 48
3 38 37 35
3 34 38 35
3 27 38 34
3 34 26 27
3 49 48 43
3 143 142 138
3 11 18 19
3 18 11 128
3 11 19 21
3 18 128 134
3 134 133 132
3 21 20 13
3 13 20 12
3 12 20 6
3 7 12 6
3 109 12 7
3 113 109 7
3 114 113 112
3 62 57 56
3 62 56 63
3 75 76 68
3 68 76 67
3 67 76 74
3 67 73 122
3 67 74 73
3 73 124 122
3 123 124 118
3 61 63 64
3 84 89 94
3 102 84 94
3 89 91 90
3 92 82 88
3 88 81 147
3 88 82 81
3 81 153 147
3 152 153 151
3 97 102 103
3 0 47 129
3 47 44 129
3 2 115 101
3 115 98 101
3 135 107 104
3 135 3 107
3 148 53 1
3 148 50 53
3 130 134 126
3 133 134 130
3 51 63 58
3 51 64 63
3 116 120 124
3 124 123 116
3 136 143 140
3 136 142 143
3 99 102 95
3 99 103 102
3 49 45 48
3 45 41 48
3 105 110 113
3 113 114 105
3 153 149 145
3 149 153 152
3 99 103 100
3 101 100 103
3 46 49 45
3 49 46 47
3 142 136 137
3 137 135 142
3 105 106 114
3 107 114 106
3 51 64 52
3 53 52 64
3 130 131 133
3 129 133 131
3 117 123 115
3 117 116 123
3 150 152 148
3 150 149 152
3 117 125 115
3 98 115 125
3 150 139 148
3 50 148 139
3 101 108 100
3 108 101 98
3 104 107 93
3 106 93 107
3 129 119 131
3 119 129 44
3 53 39 52
3 39 53 50
3 2 103 101
3 97 103 2
3 114 3 107
3 114 112 3
3 129 0 133
3 132 133 0
3 1 64 53
3 61 64 1
3 13 10 21
3 11 21 10
3 138 22 143
3 26 143 22
3 113 4 112
3 4 113 7
3 37 33 35
3 33 37 36
3 14 134 132
3 134 14 18
3 54 75 68
3 75 54 57
3 124 69 118
3 69 124 73
3 151 153 77
3 81 77 153
3 30 28 48
3 43 48 28
3 61 60 63
3 62 63 60
3 102 83 84
3 83 102 97
3 87 144 104
3 144 137 135
3 135 104 144
3 47 55 44
3 55 54 44
3 55 46 59
3 55 47 46
3 87 92 88
3 92 90 91
3 92 87 90
3 87 104 90
3 90 104 93
3 93 89 90
3 67 119 68
3 68 119 44
3 44 54 68
3 33 50 35
3 35 50 139
3 139 34 35
3 13 98 10
3 108 13 12
3 108 98 13
3 47 49 0
3 0 49 43
3 43 132 0
3 2 118 97
3 2 115 123
3 123 118 2
3 3 142 135
3 138 3 112
3 138 142 3
3 1 151 61
3 1 148 152
3 152 151 1
3 66 62 60
3 60 78 66
3 62 75 57
3 75 62 66
3 86 84 83
3 83 70 86
3 84 91 89
3 91 84 86
3 37 30 36
3 30 32 29
3 30 37 32
3 141 34 139
3 34 143 26
3 34 141 143

