ply
format ascii 1.0
comment VCGLIB generated
element vertex 26
property float x
property float y
property float z
property float nx
property float ny
property float nz
property uchar red
property uchar green
property uchar blue
element face 48
property list uchar int vertex_indices
end_header
-0.57735 -0.57735 0.57735 -0.005823962640623917 0.9984139072752997 0.05599777869192883 216 255 0
0.57735 -0.57735 0.57735 -0.08637471180853074 0.11861831604012985 -0.9891759723425337 255 10 0
-0.57735 0.57735 0.57735 0.0702006779491181 0.9882437022282281 -0.13581697177352173 255 244 0
0.57735 0.57735 0.57735 0.0 1.0 0.0 211 255 0
-0.57735 0.57735 -0.57735 -0.0038023261257135003 0.5220201054667265 -0.8529247046513201 255 73 0
0.57735 0.57735 -0.57735 -0.061768622720769314 0.3415139159903128 -0.9378448072213977 255 20 0
-0.57735 -0.57735 -0.57735 0.04681954269890956 -0.2588616139987833 -0.9647790395833701 255 11 0
0.57735 -0.57735 -0.57735 0.0 0.0 -1.0 255 0 0
0.0 -0.707107 0.707107 0.7688082641049101 0.6357670922631103 0.0688044870579279 255 232 0
0.0 0.0 1.0 0.040484642111587324 0.7485056753171089 0.6618914169039932 0 0 255
0.707107 0.0 0.707107 0.028659025381807538 0.5649015380300096 0.8246604832265789 255 0 0
-0.707107 0.0 0.707107 -0.08049020495894711 0.347708934750979 0.9341412225140298 255 3 0
0.0 0.707107 0.707107 0.32782314906125065 0.84715738382767 0.4181582833877893 31 255 0
0.0 1.0 0.0 -0.1654058957953008 0.9757383069815582 0.14344213441285925 0 223 255
0.707107 0.707107 0.0 0.29747203817333256 0.829683867953853 0.4723717453046243 106 255 0
-0.707107 0.707107 0.0 0.5627399166781311 0.6168348606900687 -0.5503076783169155 255 0 0
0.0 0.707107 -0.707107 0.23355144253522556 0.8967512668397675 -0.37588680358718046 0 255 58
0.0 0.0 -1.0 -0.3164681575771453 0.39026163314113127 -0.8646061316794742 0 0 255
0.707107 0.0 -0.707107 -0.42271027805535344 0.1357864759874144 -0.8960346275481127 255 95 0
-0.707107 0.0 -0.707107 -0.7238573640009903 0.4166835826456041 -0.5499139101124483 193 255 0
0.0 -0.707107 -0.707107 0.007063479826419002 0.32184013379987 -0.9467676776952325 255 54 0
0.0 -1.0 0.0 -0.8738063337064386 0.3719647167830391 -0.3132167630300549 255 73 0
0.707107 -0.707107 0.0 -0.05238675929543131 -0.684076245850256 -0.727526849892114 255 107 0
-0.707107 -0.707107 0.0 0.052936340258136864 0.2504305753340223 0.9666862318342728 255 23 0
1.0 0.0 0.0 0.45403110428058885 0.826058960628668 -0.3338897271717623 255 111 0
-1.0 0.0 0.0 0.043408387261117856 0.9983448249024398 0.03772694668145547 255 0 0

3 0 8 9
3 1 10 8
3 3 9 10
3 8 10 9
3 0 9 11
3 3 12 9
3 2 11 12
3 9 12 11
3 2 12 13
3 3 14 12
3 5 13 14
3 12 14 13
3 2 13 15
3 5 16 13
3 4 15 16
3 13 16 15
3 4 16 17
3 5 18 16
3 7 17 18
3 16 18 17
3 4 17 19
3 7 20 17
3 6 19 20
3 17 20 19
3 6 20 21
3 7 22 20
3 1 21 22
3 20 22 21
3 6 21 23
3 1 8 21
3 0 23 8
3 21 8 23
3 1 22 24
3 7 18 22
3 5 24 18
3 22 18 24
3 1 24 10
3 5 14 24
3 3 10 14
3 24 14 10
3 6 23 25
3 0 11 23
3 2 25 11
3 23 11 25
3 6 25 19
3 2 15 25
3 4 19 15
3 25 15 19

