ply
format ascii 1.0
comment VCGLIB generated
element vertex 26
property float x
property float y
property float z
property float nx
property float ny
property float nz
property uchar red
property uchar green
property uchar blue
element face 48
property list uchar int vertex_indices
end_header
-0.57735 -0.57735 0.57735 -0.005823962640623919 0.9984139072752996 0.05599777869192879 216 255 0
0.57735 -0.57735 0.57735 -0.08637471180853075 0.11861831604012987 -0.9891759723425338 255 10 0
-0.57735 0.57735 0.57735 0.0702006779491181 0.9882437022282281 -0.1358169717735217 255 244 0
0.57735 0.57735 0.57735 -9.753076598581204e-18 1.0 0.0 211 255 0
-0.57735 0.57735 -0.57735 -0.003802326125713501 0.5220201054667264 -0.85292470465132 255 73 0
0.57735 0.57735 -0.57735 -0.061768622720769314 0.3415139159903127 -0.9378448072213977 255 20 0
-0.57735 -0.57735 -0.57735 0.046819542698909554 -0.2588616139987832 -0.9647790395833701 255 11 0
0.57735 -0.57735 -0.57735 -9.753076598581204e-18 0.0 -1.0 255 0 0
0.0 -0.707107 0.707107 0.4328470106681171 0.6022473544248161 -0.670776855179116 255 205 0
0.0 0.0 1.0 0.032027896269521204 0.891781131495739 0.4513320588754228 0 0 255
0.707107 0.0 0.707107 -0.1395522997375129 0.8560363154452363 0.4977217920454311 255 9 0
-0.707107 0.0 0.707107 -0.08049020495894708 0.3477089347509789 0.9341412225140298 255 3 0
0.0 0.707107 0.707107 0.33512913091862356 0.8344090503006034 0.43754999986992726 52 255 0
0.0 1.0 0.0 -0.13387613262009762 0.9835028276633221 0.121652657566269 0 184 255
0.707107 0.707107 0.0 0.2493638803103652 0.7331791072467045 0.6326658295605058 223 255 0
-0.707107 0.707107 0.0 0.5627399166781311 0.6168348606900687 -0.5503076783169155 255 0 0
0.0 0.707107 -0.707107 0.42087768893269345 0.9045271699775694 0.06850233376348805 0 255 75
0.0 0.0 -1.0 -0.8430589944201193 0.5376260623000954 -0.014482716010159895 0 0 255
0.707107 0.0 -0.707107 -0.6537532090607943 0.0601940711416906 -0.754309893506709 255 248 0
-0.707107 0.0 -0.707107 -0.8599218856771692 0.4477192474758663 -0.24511594393891514 10 255 0
0.0 -0.707107 -0.707107 0.005195310769195459 0.7176700752547532 -0.6963638932554218 200 255 0
0.0 -1.0 0.0 -0.8738063337064385 0.3719647167830391 -0.3132167630300549 255 73 0
0.707107 -0.707107 0.0 -0.052386759295431296 -0.684076245850256 -0.727526849892114 255 107 0
-0.707107 -0.707107 0.0 0.05293634025813682 0.2504305753340223 0.9666862318342728 255 23 0
1.0 0.0 0.0 0.45403110428058885 0.826058960628668 -0.33388972717176224 255 111 0
-1.0 0.0 0.0 0.04340838726111785 0.9983448249024399 0.03772694668145551 255 0 0

3 0 8 9
3 1 10 8
3 3 9 10
3 8 10 9
3 0 9 11
3 3 12 9
3 2 11 12
3 9 12 11
3 2 12 13
3 3 14 12
3 5 13 14
3 12 14 13
3 2 13 15
3 5 16 13
3 4 15 16
3 13 16 15
3 4 16 17
3 5 18 16
3 7 17 18
3 16 18 17
3 4 17 19
3 7 20 17
3 6 19 20
3 17 20 19
3 6 20 21
3 7 22 20
3 1 21 22
3 20 22 21
3 6 21 23
3 1 8 21
3 0 23 8
3 21 8 23
3 1 22 24
3 7 18 22
3 5 24 18
3 22 18 24
3 1 24 10
3 5 14 24
3 3 10 14
3 24 14 10
3 6 23 25
3 0 11 23
3 2 25 11
3 23 11 25
3 6 25 19
3 2 15 25
3 4 19 15
3 25 15 19

