ply
format ascii 1.0
comment VCGLIB generated
element vertex 26
property float x
property float y
property float z
property float nx
property float ny
property float nz
property uchar red
property uchar green
property uchar blue
element face 48
property list uchar int vertex_indices
end_header
-0.57735 -0.57735 0.57735 -0.03730173043563766 0.9988091261519131 -0.0314469461499642 237 255 0
0.57735 -0.57735 0.57735 -0.060328251684881436 0.16967184039423536 -0.9836523616735127 255 13 0
-0.57735 0.57735 0.57735 0.034784445658553056 0.9955996850141852 -0.08701327220534927 238 255 0
0.57735 0.57735 0.57735 -9.574263964072027e-18 1.0 0.0 211 255 0
-0.57735 0.57735 -0.57735 -0.021983991664620124 0.5599181653650733 -0.8282562116909841 255 90 0
0.57735 0.57735 -0.57735 -0.04039691936125485 0.27429144866735095 -0.9607977363077447 255 14 0
-0.57735 -0.57735 -0.57735 0.026988331074093687 -0.18324834033080326 -0.9826961258455439 255 6 0
0.57735 -0.57735 -0.57735 -9.574263964072027e-18 0.0 -1.0 255 0 0
0.0 -0.707107 0.707107 0.5212233785971604 0.31410426011113773 -0.7935141481938403 255 51 0
0.0 0.0 1.0 0.08278125965878372 0.7216160233813336 0.6873263983353292 0 0 255
0.707107 0.0 0.707107 0.04455319137123775 0.3783657401153244 0.9245833547309948 255 1 0
-0.707107 0.0 0.707107 -0.3074336148846099 0.3243474030749795 0.8945855658110622 255 49 0
0.0 0.707107 0.707107 0.3786277045382647 0.7772982516309848 0.5024425234467108 131 255 0
0.0 1.0 0.0 -0.1722090345712074 0.9753741855994824 0.1378014748767199 0 224 255
0.707107 0.707107 0.0 0.3296132462327935 0.7617357688289467 0.5577756954138942 138 255 0
-0.707107 0.707107 0.0 0.45436554492118036 0.7114569415481197 -0.5360792589827313 255 16 0
0.0 0.707107 -0.707107 0.14956286363339782 0.943682145104028 -0.2951185504735984 0 255 172
0.0 0.0 -1.0 -0.30475205867808286 0.4625020029311747 -0.8325971895317219 0 0 255
0.707107 0.0 -0.707107 -0.7125122579296582 0.28990468790942464 -0.638969134018318 205 255 0
-0.707107 0.0 -0.707107 -0.6918896270463645 0.559860417772562 -0.4559002704508681 226 255 0
0.0 -0.707107 -0.707107 0.04749961841789455 0.4210217525167922 -0.9058059782082712 255 94 0
0.0 -1.0 0.0 -0.776131657336509 0.3105298376063421 -0.548808591802518 255 50 0
0.707107 -0.707107 0.0 -0.15413814450027152 -0.6173235215377809 -0.7714616660380517 255 56 0
-0.707107 -0.707107 0.0 0.11091232653373304 0.4951297030978029 0.8617105273426549 255 98 0
1.0 0.0 0.0 0.5178978033720764 0.7992475267994271 -0.30493483921549047 255 147 0
-1.0 0.0 0.0 0.061656517445066054 0.9736824246849719 -0.21941059618017614 255 1 0

3 0 8 9
3 1 10 8
3 3 9 10
3 8 10 9
3 0 9 11
3 3 12 9
3 2 11 12
3 9 12 11
3 2 12 13
3 3 14 12
3 5 13 14
3 12 14 13
3 2 13 15
3 5 16 13
3 4 15 16
3 13 16 15
3 4 16 17
3 5 18 16
3 7 17 18
3 16 18 17
3 4 17 19
3 7 20 17
3 6 19 20
3 17 20 19
3 6 20 21
3 7 22 20
3 1 21 22
3 20 22 21
3 6 21 23
3 1 8 21
3 0 23 8
3 21 8 23
3 1 22 24
3 7 18 22
3 5 24 18
3 22 18 24
3 1 24 10
3 5 14 24
3 3 10 14
3 24 14 10
3 6 23 25
3 0 11 23
3 2 25 11
3 23 11 25
3 6 25 19
3 2 15 25
3 4 19 15
3 25 15 19

