ply
format ascii 1.0
comment VCGLIB generated
element vertex 324
property float x
property float y
property float z
property float nx
property float ny
property float nz
property uchar red
property uchar green
property uchar blue
element face 1092
property list uchar int vertex_indices
end_header
-2.9916 1.8 -0.081 0 0 0 0 89 255
-2.9916 1.8 0.081 0 0 0 0 58 255
-2.95871 1.67241 0.144 0 0 0 0 59 255
-2.9576 1.5348 0.0 0 0 0 0 58 255
-2.93196 2.01653 0.081 0 0 0 0 110 255
-2.93196 2.01653 -0.081 0 0 0 0 58 255
-2.92561 1.67913 -0.189 0 0 0 0 74 255
-2.89685 1.41014 -0.081 0 0 0 0 104 255
-2.8966 1.55787 0.189 0 0 0 0 97 255
-2.87796 1.99588 -0.189 0 0 0 0 175 255
-2.87702 1.42098 0.144 0 0 0 0 96 255
-2.83689 2.08028 0.144 0 0 0 0 136 255
-2.83655 1.89146 0.225 0 0 0 0 72 255
-2.75774 1.71323 0.189 0 0 0 0 148 255
-2.74742 1.34038 -0.216 0 0 0 0 183 255
-2.7362 1.61853 -0.189 0 0 0 0 95 255
-2.72583 1.16319 -0.081 0 0 0 0 94 255
-2.70695 2.1147 -0.189 0 0 0 0 146 255
-2.66305 1.22546 0.216 0 0 0 0 75 255
-2.64754 1.41399 -0.189 0 0 0 0 123 255
-2.6372 2.0646 0.225 0 0 0 0 47 255
-2.62164 1.43308 0.144 0 0 0 0 78 255
-2.61905 2.18824 0.081 0 0 0 0 97 255
-2.6029 2.17327 -0.144 0 0 0 0 57 255
-2.60085 2.03849 -0.216 0 0 0 0 135 255
-2.55882 1.11273 0.216 0 0 0 0 75 255
-2.55882 1.11273 -0.216 0 0 0 0 84 255
-2.5368 1.1439 -0.225 0 0 0 0 40 255
-2.51478 1.17507 -0.216 0 0 0 0 40 255
-2.46564 0.929375 0.081 0 0 0 0 109 255
-2.4624 1.2492 0.0 0 0 0 0 89 255
-2.45523 2.2153 -0.081 0 0 0 0 77 255
-2.43433 1.00328 -0.216 0 0 0 0 166 255
-2.4125 1.99688 0.0 0 0 0 0 79 255
-2.40572 1.0708 0.216 0 0 0 0 48 255
-2.3748 2.1159 -0.225 0 0 0 0 90 255
-2.32641 2.05609 -0.189 0 0 0 0 62 255
-2.30732 2.0325 0.144 0 0 0 0 72 255
-2.3024 0.8112 0.0 0 0 0 0 88 255
-2.29849 0.836909 0.144 0 0 0 0 56 255
-2.26168 2.23172 0.081 0 0 0 0 81 255
-2.25266 2.21508 -0.144 0 0 0 0 54 255
-2.22322 2.16079 0.216 0 0 0 0 94 255
-2.15864 2.04169 -0.144 0 0 0 0 100 255
-2.11597 0.731578 -0.144 0 0 0 0 101 255
-2.03409 2.22319 -0.144 0 0 0 0 94 255
-2.03409 2.22319 0.144 0 0 0 0 49 255
-1.9972 0.8916 0.081 0 0 0 0 78 255
-1.98911 2.04641 0.144 0 0 0 0 83 255
-1.87158 1.4712 -0.311096 0 0 0 0 255 252
-1.8009 2.02478 0.0 0 0 0 0 64 255
-1.79925 2.04815 -0.144 0 0 0 0 47 255
-1.79695 0.553725 0.603624 0 0 0 0 57 255
-1.7906 2.17043 -0.216 0 0 0 0 87 255
-1.7906 2.17043 0.216 0 0 0 0 108 255
-1.78544 2.24326 -0.081 0 0 0 0 42 255
-1.77968 0.9 -0.92592 0 0 0 0 79 255
-1.77968 0.9 0.92592 0 0 0 0 134 255
-1.76722 0.771675 -0.919439 0 0 0 0 104 255
-1.73341 0.6564 0.901846 0 0 0 0 60 255
-1.73236 0.4632 -0.581929 0 0 0 0 44 255
-1.71825 1.92953 -0.0 0 0 0 0 62 255
-1.66208 0.384375 0.55832 0 0 0 0 75 255
-1.63192 1.92953 -0.54819 0 0 0 0 68 255
-1.63192 1.92953 0.54819 0 0 0 0 155 255
-1.61269 1.03718 -1.18353 0 0 0 0 49 255
-1.60723 0.771675 1.17953 0 0 0 0 44 255
-1.5972 2.0313 0.081 0 0 0 0 70 255
-1.58747 1.7748 0.825921 0 0 0 0 77 255
-1.5784 2.0736 -0.189 0 0 0 0 132 255
-1.5694 1.32323 1.15176 0 0 0 0 57 255
-1.55 2.1375 0.225 0 0 0 0 113 255
-1.53116 0.553725 1.1237 0 0 0 0 39 255
-1.5104 2.2266 -0.144 0 0 0 0 100 255
-1.5028 2.2437 0.081 0 0 0 0 58 255
-1.49211 1.62188 -1.09504 0 0 0 0 43 255
-1.48068 0.15 -0.24612 0 0 0 0 104 255
-1.48032 2.43544 0.0 0 0 0 0 49 255
-1.42464 0.15 -0.47856 0 0 0 0 65 255
-1.42464 0.15 0.47856 0 0 0 0 53 255
-1.42464 2.4 0.47856 0 0 0 0 60 255
-1.41624 0.384375 -1.03936 0 0 0 0 63 255
-1.40151 2.4945 -0.232961 0 0 0 0 40 255
-1.40012 1.1784 -1.40012 0 0 0 0 54 255
-1.40012 1.1784 1.40012 0 0 0 0 50 255
-1.38308 0.6564 -1.38308 0 0 0 0 106 255
-1.38308 0.6564 1.38308 0 0 0 0 54 255
-1.37229 2.4945 0.228104 0 0 0 0 128 255
-1.36673 2.48269 -0.459107 0 0 0 0 50 255
-1.33476 0.15 0.69444 0 0 0 0 135 255
-1.28437 0.046875 0.0 0 0 0 0 55 255
-1.26664 1.7748 -1.26664 0 0 0 0 73 255
-1.26664 1.7748 1.26664 0 0 0 0 64 255
-1.24578 2.4 -0.648144 0 0 0 0 112 255
-1.23012 0.0648 -0.639996 0 0 0 0 78 255
-1.19838 0.1056 0.879477 0 0 0 0 73 255
-1.198 2.43544 0.879195 0 0 0 0 40 255
-1.18353 1.03718 1.61269 0 0 0 0 59 255
-1.17953 0.771675 -1.60723 0 0 0 0 43 255
-1.17953 0.771675 1.60723 0 0 0 0 41 255
-1.16457 2.48269 -0.854666 0 0 0 0 81 255
-1.15176 1.32323 -1.5694 0 0 0 0 69 255
-1.13552 2.49844 0.833344 0 0 0 0 162 255
-1.08603 2.5026 0.180521 0 0 0 0 40 255
-1.065 0.15 1.065 0 0 0 0 62 255
-1.05206 2.4 -0.772096 0 0 0 146 255 0
-1.05206 2.4 0.772096 0 0 0 0 157 255
-1.05137 0.1056 -1.05137 0 0 0 0 67 255
-1.03936 0.384375 1.41624 0 0 0 0 43 255
-1.03632 2.463 1.03632 0 0 0 0 36 255
-0.92592 0.9 1.77968 0 0 0 0 45 255
-0.901846 0.6564 -1.73341 0 0 0 0 165 255
-0.879195 2.43544 -1.198 0 0 0 0 75 255
-0.87592 0.553725 1.68358 0 0 0 0 63 255
-0.854666 2.48269 1.16457 0 0 0 0 96 255
-0.833344 2.49844 -1.13552 0 0 0 0 85 255
-0.762958 2.0856 1.46646 0 0 0 0 44 255
-0.694143 0.0084 -0.115381 0 0 0 0 52 255
-0.685551 0.1056 1.31767 0 0 0 0 72 255
-0.679207 0.0312 0.925493 0 0 0 0 48 255
-0.675736 2.463 1.29881 0 0 0 0 50 255
-0.669128 0.084525 -1.28611 0 0 0 0 105 255
-0.633613 0.771675 -1.88622 0 0 0 0 43 255
-0.633613 0.771675 1.88622 0 0 0 0 43 255
-0.618698 1.32323 -1.84182 0 0 0 0 62 255
-0.618698 1.32323 1.84182 0 0 0 0 96 255
-0.603624 0.553725 -1.79695 0 0 0 0 60 255
-0.594614 0.046875 -1.14289 0 0 0 0 106 255
-0.54819 1.92953 -1.63192 0 0 0 0 70 255
-0.54819 1.92953 1.63192 0 0 0 0 78 255
-0.47856 2.4 -1.42464 0 0 0 0 62 255
-0.47856 0.15 1.42464 0 0 0 0 103 255
-0.449256 2.5272 0.863501 0 0 0 0 111 255
-0.35361 3.08115 0.058988 0 0 0 0 38 255
-0.32816 0.9 -1.97424 0 0 0 0 76 255
-0.32816 0.9 1.97424 0 0 0 0 54 255
-0.319628 0.6564 1.92291 0 0 0 0 42 255
-0.319082 3.0348 0.166306 0 0 0 0 129 255
-0.318907 3.08115 -0.166221 0 0 0 0 56 255
-0.311096 1.4712 -1.87158 0 0 0 0 41 255
-0.304843 3.1176 -0.050855 0 0 0 0 112 255
-0.28934 2.98125 -0.150793 0 0 0 0 75 255
-0.24612 0.15 1.48068 0 0 0 0 109 255
-0.24297 0.1056 -1.46173 0 0 0 0 100 255
-0.239491 2.463 1.4408 0 0 0 0 49 255
-0.232342 2.6256 0.31659 0 0 0 0 89 255
-0.228104 2.4945 -1.37229 0 0 0 0 118 255
-0.213123 3.08115 0.290138 0 0 0 0 0 255
-0.18111 2.6256 -0.348105 0 0 0 0 74 255
-0.177968 2.7 -0.092592 0 0 0 0 199 255
-0.173255 3.14145 -0.090306 0 0 0 0 87 255
-0.166221 3.08115 0.318907 0 0 0 0 42 255
-0.114619 3.08115 -0.340289 0 0 0 0 78 255
-0.090306 3.14145 0.173255 0 0 0 0 9 255
-0.050855 3.1176 0.304843 0 0 0 0 96 255
-0.0 1.03718 1.99275 0 0 0 0 69 255
-0.0 2.43544 -1.48032 0 0 0 0 49 255
0.0 0.018225 0.952425 0 0 0 0 49 255
0.0 0.553725 -1.892 0 0 0 0 105 255
0.0 2.49844 -1.40313 0 0 0 0 97 255
0.0 2.49844 1.40313 0 0 0 0 216 255
0.0 3.0348 -0.3584 0 0 0 0 112 255
0.0 0.553725 1.892 0 0 0 0 90 255
0.0 1.03718 -1.99275 0 0 0 0 54 255
0.0 1.62188 1.84375 0 0 0 0 71 255
0.0 1.92953 -1.71825 0 0 0 0 45 255
0.050855 3.1176 -0.304843 0 0 0 0 66 255
0.08914 2.6592 -0.265363 0 0 0 0 55 255
0.090306 3.14145 0.173255 0 0 0 0 75 255
0.173255 3.14145 -0.090306 0 0 0 0 61 255
0.176897 2.8044 0.02945 0 0 0 0 115 255
0.228104 2.4945 1.37229 0 0 0 0 139 255
0.24297 0.1056 1.46173 0 0 0 0 135 255
0.24612 0.15 -1.48068 0 0 0 0 80 255
0.254653 3.08115 -0.254653 0 0 0 0 92 255
0.254653 3.08115 0.254653 0 0 0 0 163 255
0.265363 2.6592 0.08914 0 0 0 0 129 255
0.270404 2.0856 1.62677 0 0 0 0 73 255
0.304843 3.1176 -0.050855 0 0 0 0 59 255
0.311096 1.4712 1.87158 0 0 0 0 51 255
0.318192 1.32323 -1.91427 0 0 0 0 69 255
0.319082 3.0348 -0.166306 0 0 0 0 85 255
0.319628 0.6564 1.92291 0 0 0 0 41 255
0.32816 0.9 -1.97424 0 0 0 0 73 255
0.32816 0.9 1.97424 0 0 0 0 54 255
0.353807 3.0348 0.059016 0 0 0 0 51 255
0.364854 0.0312 -1.08615 0 0 0 0 49 255
0.371546 2.6256 0.124808 0 0 0 0 87 255
0.459107 2.48269 -1.36673 0 0 0 0 55 255
0.459107 2.48269 1.36673 0 0 0 0 70 255
0.47856 0.15 -1.42464 0 0 0 0 52 255
0.54819 1.92953 -1.63192 0 0 0 0 65 255
0.557774 2.4744 -1.07208 0 0 0 151 255 0
0.557774 2.4744 1.07208 0 0 0 35 255 0
0.603624 0.553725 -1.79695 0 0 0 0 94 255
0.633613 0.771675 1.88622 0 0 0 0 70 255
0.675736 2.463 1.29881 0 0 0 0 69 255
0.685551 0.1056 -1.31767 0 0 0 0 76 255
0.685551 0.1056 1.31767 0 0 0 0 106 255
0.833344 2.49844 -1.13552 0 0 0 0 119 255
0.844439 0.4632 1.62307 0 0 0 0 82 255
0.847506 0.018225 -0.440935 0 0 0 0 46 255
0.854666 2.48269 -1.16457 0 0 0 0 139 255
0.877772 1.4712 -1.68714 0 0 0 0 53 255
0.877772 1.4712 1.68714 0 0 0 0 58 255
0.92592 0.9 -1.77968 0 0 0 0 110 255
0.92592 0.9 1.77968 0 0 0 0 76 255
0.981504 0.0648 0.981504 0 0 0 0 33 255
1.0205 1.92953 1.39055 0 0 0 0 87 255
1.03632 2.463 -1.03632 0 0 0 0 43 255
1.03632 2.463 1.03632 0 0 0 0 106 255
1.03942 0.046875 0.762816 0 0 0 0 74 255
1.04493 2.5026 -0.351008 0 0 0 0 169 255
1.0625 0.127575 -1.0625 0 0 0 0 101 255
1.065 0.15 1.065 0 0 0 0 52 255
1.08331 0.4632 -1.47613 0 0 0 0 65 255
1.09504 1.62188 -1.49211 0 0 0 0 54 255
1.15176 1.32323 1.5694 0 0 0 0 50 255
1.16457 2.48269 0.854666 0 0 0 0 100 255
1.17953 0.771675 -1.60723 0 0 0 0 60 255
1.17953 0.771675 1.60723 0 0 0 0 58 255
1.198 2.43544 -0.879195 0 0 0 0 72 255
1.21056 2.4408 0.406648 0 0 0 0 47 255
1.21107 0.127575 -0.888786 0 0 0 0 83 255
1.26664 1.7748 -1.26664 0 0 0 0 62 255
1.28437 0.046875 0.0 0 0 0 0 42 255
1.31767 0.1056 -0.685551 0 0 0 0 65 255
1.32966 2.4 0.446656 0 0 0 0 97 255
1.33476 0.15 0.69444 0 0 0 0 56 255
1.34332 0.553725 -1.34332 0 0 0 0 91 255
1.36673 2.48269 0.459107 0 0 0 0 150 255
1.37229 2.4945 -0.228104 0 0 0 0 150 255
1.38308 0.6564 1.38308 0 0 0 0 49 255
1.39055 1.92953 1.0205 0 0 0 0 56 255
1.40012 1.1784 -1.40012 0 0 0 0 74 255
1.40313 2.49844 0.0 0 0 0 0 38 255
1.41624 0.384375 1.03936 0 0 0 0 57 255
1.42 0.9 1.42 0 0 0 0 40 255
1.42129 0.127575 -0.477435 0 0 0 0 84 255
1.42464 0.15 0.47856 0 0 0 0 45 255
1.42464 2.4 -0.47856 0 0 0 0 51 255
1.46173 0.1056 0.24297 0 0 0 0 44 255
1.48032 2.43544 -0.0 0 0 0 0 68 255
1.48068 0.15 -0.24612 0 0 0 0 38 255
1.5694 1.32323 -1.15176 0 0 0 0 56 255
1.5694 1.32323 1.15176 0 0 0 0 73 255
1.60723 0.771675 -1.17953 0 0 0 0 83 255
1.60723 0.771675 1.17953 0 0 0 0 62 255
1.62307 0.4632 -0.844439 0 0 0 0 72 255
1.63192 1.92953 -0.54819 0 0 0 0 128 255
1.63192 1.92953 0.54819 0 0 0 0 60 255
1.7 0.6231 0.1782 0 0 0 0 109 255
1.7 0.6858 -0.3168 0 0 0 0 120 255
1.7 0.7782 0.4158 0 0 0 0 70 255
1.7 0.8904 -0.4752 0 0 0 0 67 255
1.7 1.0125 0.495 0 0 0 0 63 255
1.7 1.1346 -0.4752 0 0 0 0 118 255
1.7 1.2468 0.4158 0 0 0 0 63 255
1.7 1.3392 -0.3168 0 0 0 0 56 255
1.7 1.3392 0.3168 0 0 0 0 71 255
1.7 1.4019 0.1782 0 0 0 0 70 255
1.7 1.4019 -0.1782 0 0 0 0 68 255
1.7 1.425 0.0 0 0 0 0 50 255
1.71825 1.92953 0.0 0 0 0 0 56 255
1.73341 0.6564 0.901846 0 0 0 0 49 255
1.75 0.384375 0.0 0 0 0 0 31 255
1.77968 0.9 -0.92592 0 0 0 0 72 255
1.77968 0.9 0.92592 0 0 0 0 40 255
1.80051 0.4632 0.299282 0 0 0 0 64 255
1.84182 1.32323 -0.618698 0 0 0 0 66 255
1.84182 1.32323 0.618698 0 0 0 0 75 255
1.88622 0.771675 -0.633613 0 0 0 0 57 255
1.88622 0.771675 0.633613 0 0 0 0 59 255
1.92291 0.6564 -0.319628 0 0 0 0 50 255
1.93925 1.32323 -0.0 0 0 0 0 82 255
1.97424 0.9 -0.32816 0 0 0 0 41 255
1.97424 0.9 0.32816 0 0 0 0 73 255
1.986 0.771675 -0.0 0 0 0 0 77 255
1.9983 1.06957 0.48639 0 0 0 0 88 255
2.03374 0.856788 -0.408568 0 0 0 0 68 255
2.03374 0.856788 0.408568 0 0 0 0 56 255
2.05721 0.715929 0.1751 0 0 0 0 60 255
2.05721 0.715929 -0.1751 0 0 0 0 62 255
2.18385 1.26528 -0.444499 0 0 0 0 98 255
2.24495 1.06992 -0.444499 0 0 0 0 42 255
2.29613 0.90624 -0.296333 0 0 0 0 47 255
2.29613 0.90624 0.296333 0 0 0 0 65 255
2.3176 0.8376 0.0 0 0 0 0 64 255
2.35505 1.63406 0.247526 0 0 0 0 46 255
2.3651 1.29803 0.42858 0 0 0 0 47 255
2.43769 1.13849 -0.360007 0 0 0 0 46 255
2.43769 1.13849 0.360007 0 0 0 0 88 255
2.48574 1.03288 -0.154289 0 0 0 0 39 255
2.48734 2.05238 -0.091411 0 0 0 0 121 255
2.4931 1.6746 -0.3276 0 0 0 0 111 255
2.50283 1.87147 -0.248422 0 0 0 0 68 255
2.50911 1.38437 0.37129 0 0 0 0 61 255
2.5288 2.1834 0.0 0 0 0 0 69 255
2.5375 1.62188 0.34125 0 0 0 0 65 255
2.54591 1.83638 0.28391 0 0 0 0 89 255
2.54763 1.32194 -0.324878 0 0 0 0 121 255
2.55209 2.02065 0.213293 0 0 0 0 59 255
2.6088 1.2228 0.0 0 0 0 0 67 255
2.61241 2.29881 -0.0706 0 0 0 0 138 255
2.64852 2.29613 0.12551 0 0 0 0 54 255
2.6499 1.97273 -0.25392 0 0 0 0 71 255
2.6563 1.4808 0.2184 0 0 0 0 48 255
2.66735 2.15066 -0.210701 0 0 0 0 81 255
2.6791 1.45372 -0.12285 0 0 0 0 59 255
2.68277 1.72493 -0.248422 0 0 0 0 86 255
2.70087 1.94775 0.243763 0 0 0 0 46 255
2.7256 2.1369 0.21948 0 0 0 0 80 255
2.74233 1.67642 0.106466 0 0 0 0 83 255
2.77637 2.4363 0.064692 0 0 0 0 72 255
2.85279 2.45461 -0.050004 0 0 0 0 133 255
2.88147 2.10007 0.140467 0 0 0 0 62 255
2.88773 2.45844 -0.096 0 0 0 0 95 255
2.89699 2.43833 0.150948 0 0 0 0 135 255
2.9112 2.4 -0.18 0 0 0 0 135 255
2.91138 2.093 -0.079013 0 0 0 0 136 255
3.02488 2.26822 0.12551 0 0 0 0 127 255
3.1206 2.46345 0.1611 0 0 0 0 176 255
3.2376 2.4 -0.12 0 0 0 0 129 255
3.4 2.4468 0.0 0 0 0 255 0 0

3 32 26 27
3 28 27 26
3 28 27 32
3 202 199 209
3 261 260 262
3 261 262 258
3 260 257 259
3 257 260 262
3 53 55 45
3 301 299 310
3 117 76 90
3 62 79 89
3 38 39 29
3 190 213 197
3 73 55 69
3 69 55 53
3 31 41 40
3 315 320 319
3 320 319 315
3 293 307 297
3 303 307 319
3 307 293 319
3 303 297 307
3 185 176 187
3 314 320 319
3 319 320 315
3 315 320 311
3 311 310 315
3 320 319 312
3 308 312 309
3 74 55 73
3 102 96 109
3 298 296 306
3 243 265 238
3 57 25 34
3 39 34 25
3 34 29 25
3 25 39 34
3 66 59 57
3 34 49 47
3 18 57 25
3 29 18 25
3 29 25 57
3 34 38 29
3 38 34 39
3 17 24 23
3 24 17 33
3 36 41 35
3 35 31 36
3 41 23 35
3 33 31 24
3 24 17 33
3 24 31 23
3 23 17 24
3 31 35 23
3 33 36 31
3 202 199 209
3 187 176 170
3 309 307 305
3 305 295 309
3 33 36 24
3 34 57 25
3 62 57 52
3 59 57 52
3 34 25 39
3 47 38 57
3 44 38 47
3 49 47 57
3 47 39 44
3 168 178 169
3 22 23 31
3 261 262 258
3 256 258 261
3 258 283 261
3 26 32 27
3 32 28 27
3 28 30 27
3 27 32 28
3 26 27 30
3 26 32 27
3 79 95 89
3 119 117 157
3 95 104 79
3 7 10 3
3 311 320 317
3 156 159 146
3 235 231 242
3 40 42 46
3 168 153 154
3 66 72 86
3 72 66 59
3 76 78 60
3 187 167 176
3 176 170 187
3 167 170 176
3 137 141 149
3 151 153 147
3 137 151 147
3 153 137 151
3 154 153 151
3 10 8 3
3 2 3 8
3 138 150 140
3 132 193 145
3 226 248 223
3 238 226 243
3 223 248 213
3 213 226 223
3 243 226 213
3 46 45 55
3 45 46 40
3 40 41 45
3 120 109 114
3 187 167 176
3 170 176 167
3 170 167 149
3 239 236 228
3 236 214 228
3 214 211 228
3 203 216 191
3 153 151 154
3 147 151 153
3 229 215 213
3 306 308 302
3 306 312 308
3 217 208 204
3 141 150 138
3 154 153 151
3 69 51 50
3 69 53 51
3 126 122 111
3 177 164 179
3 314 311 315
3 315 320 314
3 61 63 49
3 289 291 296
3 247 264 267
3 272 267 264
3 110 97 99
3 201 225 238
3 243 238 225
3 238 226 243
3 226 238 248
3 123 136 135
3 186 117 201
3 232 237 220
3 247 237 232
3 68 70 92
3 275 273 277
3 273 275 271
3 184 182 195
3 92 70 84
3 234 244 224
3 224 216 234
3 91 83 101
3 83 91 75
3 179 164 155
3 54 55 46
3 74 55 54
3 252 279 254
3 131 113 118
3 104 142 118
3 131 118 142
3 108 118 113
3 214 200 198
3 198 157 207
3 183 180 163
3 79 95 89
3 143 121 173
3 304 303 297
3 149 137 145
3 132 103 106
3 103 132 145
3 145 170 149
3 83 75 65
3 235 227 230
3 219 215 229
3 27 26 32
3 32 28 27
3 28 16 27
3 26 27 16
3 100 93 88
3 114 120 109
3 69 50 67
3 50 69 51
3 108 99 86
3 99 108 113
3 84 70 66
3 128 139 165
3 139 128 124
3 285 292 290
3 284 285 290
3 285 284 279
3 169 166 174
3 253 280 255
3 278 255 280
3 190 173 143
3 158 143 173
3 301 310 311
3 298 299 288
3 94 117 127
3 78 117 94
3 94 127 107
3 235 231 227
3 231 227 230
3 231 171 227
3 160 189 171
3 259 278 260
3 257 255 278
3 278 259 257
3 193 132 106
3 132 193 145
3 145 106 132
3 193 222 187
3 187 193 222
3 212 187 222
3 193 132 106
3 132 145 106
3 193 145 132
3 170 145 187
3 145 193 187
3 148 149 141
3 137 106 103
3 137 141 149
3 149 170 137
3 137 170 145
3 145 106 137
3 139 163 180
3 295 309 305
3 309 295 294
3 57 59 66
3 66 70 57
3 62 52 89
3 79 62 89
3 37 24 33
3 42 37 40
3 37 33 40
3 31 40 33
3 184 179 155
3 139 134 163
3 139 124 134
3 204 206 217
3 292 300 290
3 300 302 308
3 300 292 302
3 190 197 194
3 173 197 190
3 190 194 173
3 194 197 215
3 213 197 223
3 223 215 213
3 223 197 173
3 110 113 123
3 110 99 113
3 54 46 48
3 316 318 314
3 22 11 20
3 201 157 117
3 211 207 157
3 225 211 201
3 211 157 201
3 225 241 239
3 239 211 225
3 5 1 4
3 0 1 5
3 116 114 109
3 109 92 116
3 116 120 114
3 217 220 237
3 220 217 206
3 245 247 267
3 247 245 237
3 21 13 15
3 12 33 13
3 20 11 12
3 19 13 15
3 13 33 24
3 13 19 33
3 24 17 9
3 15 0 6
3 15 9 24
3 9 33 24
3 9 13 4
3 12 11 4
3 11 9 4
3 9 11 33
3 13 12 8
3 15 19 49
3 49 12 15
3 15 21 19
3 12 13 15
3 21 18 14
3 18 16 14
3 15 13 21
3 30 49 19
3 30 27 28
3 30 28 49
3 27 26 32
3 32 28 27
3 49 28 32
3 30 26 27
3 30 16 26
3 16 30 14
3 19 21 15
3 30 19 14
3 19 15 14
3 30 21 19
3 87 231 171
3 231 87 146
3 146 87 93
3 96 92 109
3 64 68 96
3 68 92 96
3 209 224 221
3 270 272 276
3 272 270 267
3 295 305 293
3 305 319 307
3 307 293 305
3 319 293 307
3 181 169 174
3 181 178 169
3 79 95 89
3 89 62 79
3 95 72 89
3 62 59 52
3 59 62 72
3 62 89 72
3 264 247 236
3 232 236 247
3 124 122 134
3 98 101 83
3 246 244 234
3 61 82 77
3 63 88 82
3 82 61 63
3 218 210 233
3 210 208 233
3 269 274 249
3 274 263 249
3 274 269 275
3 277 274 276
3 274 277 275
3 275 269 271
3 131 157 142
3 108 72 104
3 72 108 86
3 72 95 104
3 108 95 104
3 104 118 108
3 95 108 79
3 79 119 95
3 131 108 118
3 193 145 187
3 176 187 145
3 185 170 168
3 265 273 277
3 277 268 265
3 56 58 65
3 56 49 58
3 54 71 74
3 50 54 48
3 50 67 54
3 54 67 71
3 63 75 91
3 41 43 45
3 43 41 36
3 36 35 33
3 33 43 36
3 35 41 23
3 23 33 35
3 36 41 35
3 11 12 13
3 11 4 12
3 286 281 287
3 287 285 282
3 285 287 292
3 282 279 252
3 279 282 285
3 94 90 117
3 117 94 90
3 78 90 94
3 78 76 90
3 268 241 265
3 241 243 265
3 241 239 225
3 225 243 241
3 239 268 228
3 228 225 239
3 241 268 239
3 320 314 319
3 320 321 314
3 322 316 318
3 322 320 319
3 320 316 319
3 316 314 319
3 314 311 319
3 142 162 136
3 194 173 190
3 110 123 125
3 135 125 123
3 301 297 293
3 126 111 121
3 201 223 213
3 197 215 190
3 215 213 223
3 215 197 213
3 180 165 139
3 180 191 165
3 260 261 262
3 293 288 299
3 299 301 293
3 299 288 298
3 288 296 298
3 293 295 288
3 293 288 299
3 294 288 295
3 261 288 283
3 288 261 262
3 295 294 288
3 300 288 283
3 294 288 300
3 221 209 249
3 240 221 249
3 221 249 231
3 221 209 249
3 249 231 209
3 231 199 209
3 202 209 199
3 231 199 146
3 249 199 231
3 146 199 159
3 188 159 199
3 199 249 202
3 202 199 209
3 188 199 202
3 191 202 188
3 224 209 202
3 224 216 249
3 224 202 191
3 216 224 191
3 224 249 209
3 146 202 199
3 209 221 199
3 209 199 202
3 199 231 146
3 231 235 146
3 242 240 263
3 240 249 263
3 240 242 231
3 240 231 242
3 242 249 240
3 242 231 235
3 227 249 242
3 109 102 96
3 96 64 109
3 96 80 64
3 64 80 61
3 80 77 61
3 87 77 80
3 160 102 171
3 102 96 87
3 109 64 96
3 96 102 109
3 64 87 96
3 109 114 64
3 102 87 171
3 64 102 109
3 109 116 64
3 114 109 102
3 144 120 160
3 114 160 120
3 160 114 102
3 160 120 144
3 116 144 120
3 116 160 120
3 120 114 116
3 102 160 171
3 160 116 171
3 160 114 120
3 109 114 102
3 102 116 109
3 102 114 160
3 171 87 102
3 102 87 116
3 109 116 114
3 171 177 189
3 177 171 160
3 129 177 144
3 144 177 160
3 144 116 129
3 177 129 164
3 177 189 171
3 189 177 196
3 177 171 160
3 177 189 171
3 177 160 164
3 210 164 227
3 171 218 230
3 218 171 210
3 196 171 189
3 160 171 230
3 160 189 171
3 171 196 210
3 77 80 64
3 77 87 80
3 82 77 88
3 77 82 87
3 82 77 88
3 88 64 93
3 77 87 64
3 64 88 77
3 102 64 87
3 77 82 87
3 159 115 146
3 112 128 130
3 128 146 115
3 115 112 128
3 88 82 64
3 82 87 64
3 88 93 82
3 102 87 146
3 102 64 87
3 93 87 82
3 88 100 93
3 165 130 128
3 130 165 156
3 156 146 130
3 93 115 146
3 115 93 100
3 93 146 87
3 87 88 93
3 26 27 28
3 28 16 26
3 32 28 27
3 27 26 32
3 178 168 185
3 168 175 185
3 188 156 191
3 156 165 191
3 156 188 159
3 33 37 43
3 36 33 43
3 36 43 45
3 45 53 36
3 43 48 45
3 36 48 43
3 50 51 45
3 51 50 53
3 48 50 45
3 51 53 45
3 37 48 42
3 37 43 48
3 48 46 42
3 211 228 207
3 228 211 239
3 284 290 283
3 283 290 300
3 13 2 8
3 280 281 286
3 281 253 251
3 281 280 253
3 297 311 304
3 311 297 301
3 121 107 127
3 299 288 296
3 288 262 260
3 259 288 260
3 262 259 260
3 288 299 262
3 288 289 296
3 259 257 278
3 278 289 259
3 259 262 257
3 289 288 259
3 140 153 150
3 153 137 147
3 137 153 133
3 153 140 133
3 225 238 201
3 238 223 226
3 226 201 238
3 223 201 226
3 15 7 14
3 3 7 15
3 3 15 6
3 3 0 2
3 0 3 6
3 0 1 2
3 14 17 15
3 15 6 14
3 6 15 9
3 17 9 15
3 8 3 14
3 0 3 2
3 8 2 3
3 2 13 1
3 0 2 1
3 13 12 1
3 2 8 13
3 3 6 14
3 8 12 13
3 9 17 6
3 4 0 1
3 1 12 4
3 4 17 9
3 6 17 14
3 0 6 3
3 13 0 4
3 0 5 4
3 13 15 0
3 9 0 6
3 15 6 0
3 0 9 5
3 271 266 248
3 248 266 246
3 200 206 195
3 220 206 200
3 313 304 311
3 304 303 311
3 313 303 304
3 223 229 213
3 248 246 229
3 229 223 248
3 141 152 161
3 170 149 161
3 149 141 161
3 152 166 161
3 187 212 222
3 148 152 141
3 133 141 140
3 141 138 140
3 141 133 137
3 161 170 149
3 161 148 167
3 161 149 148
3 149 141 148
3 145 176 187
3 187 132 145
3 137 170 145
3 103 145 132
3 141 137 103
3 145 103 137
3 170 176 145
3 149 137 141
3 141 148 149
3 170 137 149
3 212 222 187
3 132 103 106
3 187 132 141
3 141 148 187
3 132 103 141
3 103 105 141
3 105 148 141
3 192 167 148
3 148 105 192
3 103 148 187
3 103 105 148
3 148 167 187
3 99 97 86
3 84 86 97
3 84 66 86
3 85 98 83
3 83 65 85
3 189 171 177
3 160 177 171
3 118 119 131
3 119 157 131
3 282 281 287
3 251 281 282
3 277 276 268
3 268 276 272
3 296 302 306
3 302 296 291
3 8 21 13
3 306 312 298
3 312 310 299
3 299 298 312
3 263 231 242
3 242 227 263
3 231 235 242
3 227 242 235
3 227 230 250
3 235 231 230
3 230 227 235
3 227 250 263
3 58 60 81
3 186 127 117
3 127 186 143
3 186 117 201
3 111 121 126
3 143 121 127
3 121 111 127
3 143 126 121
3 95 89 119
3 117 79 90
3 89 117 119
3 89 79 117
3 189 177 196
3 177 208 196
3 204 177 179
3 204 208 177
3 79 119 95
3 104 119 118
3 104 95 119
3 316 314 317
3 317 314 313
3 311 317 304
3 317 313 304
3 320 317 315
3 317 311 315
3 195 179 184
3 195 206 204
3 204 179 195
3 143 186 173
3 190 173 186
3 234 205 219
3 203 234 216
3 203 205 234
3 221 231 199
3 240 235 231
3 231 221 240
3 235 199 231
3 52 76 57
3 158 163 134
3 183 163 158
3 135 162 155
3 162 184 155
3 162 135 136
3 162 182 184
3 201 223 213
3 213 186 201
3 186 197 190
3 186 213 197
3 215 205 194
3 205 215 219
3 88 93 63
3 93 91 63
3 91 93 100
3 93 88 100
3 128 91 112
3 112 159 128
3 112 100 115
3 115 159 112
3 100 159 115
3 112 91 100
3 220 200 232
3 232 200 214
3 214 236 232
3 243 273 238
3 273 248 238
3 243 265 273
3 273 271 248
3 18 30 21
3 30 25 34
3 30 18 25
3 182 200 195
3 239 264 228
3 264 236 228
3 268 272 264
3 264 239 268
3 76 78 60
3 78 81 60
3 76 94 78
3 81 94 107
3 107 121 81
3 121 107 94
3 81 78 94
3 136 131 142
3 113 136 123
3 113 131 136
3 219 229 234
3 246 234 229
3 131 157 142
3 157 198 172
3 172 142 157
3 102 80 96
3 80 87 77
3 80 102 87
3 4 5 11
3 5 17 11
3 22 17 23
3 9 17 5
3 17 22 11
3 251 282 252
3 221 224 249
3 224 244 249
3 269 249 244
3 269 266 271
3 244 246 266
3 266 269 244
3 246 271 266
3 124 128 101
3 91 128 112
3 91 101 128
3 256 279 283
3 256 254 279
3 279 284 283
3 261 258 283
3 258 261 256
3 256 283 258
3 125 97 110
3 122 124 111
3 101 111 124
3 101 98 111
3 245 217 237
3 208 245 233
3 208 217 245
3 170 161 148
3 187 185 176
3 187 176 148
3 212 185 187
3 185 170 176
3 185 178 181
3 170 185 181
3 174 181 178
3 178 169 174
3 185 212 178
3 192 148 167
3 181 167 148
3 192 161 148
3 167 181 170
3 170 181 169
3 181 174 169
3 174 161 166
3 166 169 174
3 161 192 166
3 161 174 148
3 174 181 148
3 145 167 170
3 167 212 187
3 167 187 176
3 212 167 192
3 161 149 148
3 161 192 167
3 170 149 167
3 167 176 170
3 149 161 167
3 161 148 192
3 233 270 250
3 270 245 267
3 270 233 245
3 176 185 170
3 170 149 176
3 170 185 145
3 145 149 170
3 176 149 187
3 176 187 185
3 193 175 187
3 175 185 187
3 185 175 145
3 145 168 149
3 149 168 150
3 153 151 137
3 137 150 153
3 168 153 150
3 154 193 151
3 151 168 154
3 168 151 153
3 149 150 141
3 193 175 145
3 175 154 145
3 154 175 168
3 270 274 250
3 274 270 276
3 274 263 250
3 135 155 125
3 125 155 164
3 164 129 125
3 164 208 177
3 177 189 164
3 208 196 177
3 189 177 196
3 196 218 189
3 210 208 218
3 218 196 210
3 196 208 210
3 21 10 18
3 10 21 8
3 296 289 291
3 289 278 291
3 286 278 280
3 286 291 278
3 143 158 126
3 126 158 134
3 134 122 126
3 57 59 52
3 57 70 59
3 34 25 49
3 47 25 34
3 68 47 64
3 57 68 70
3 47 61 64
3 47 68 57
3 47 34 49
3 34 47 57
3 47 49 61
3 47 39 44
3 44 52 47
3 39 52 57
3 52 39 47
3 34 57 25
3 39 57 34
3 322 320 319
3 314 320 321
3 314 319 320
3 320 322 321
3 315 321 320
3 322 321 323
3 320 317 315
3 315 311 321
3 314 315 317
3 314 311 315
3 319 320 311
3 309 318 307
3 320 314 322
3 314 316 322
3 318 322 316
3 307 319 303
3 318 319 320
3 319 318 303
3 313 316 314
3 318 320 316
3 316 313 318
3 313 303 318
3 319 312 310
3 310 311 315
3 319 310 315
3 311 314 315
3 312 305 309
3 305 319 307
3 307 322 305
3 307 319 314
3 314 322 307
3 314 311 322
3 319 315 314
3 305 312 319
3 214 200 198
3 198 172 214
3 200 172 198
3 172 162 142
3 142 214 172
3 162 172 182
3 172 200 182
3 194 158 173
3 183 158 194
3 194 205 183
3 236 214 211
3 214 198 207
3 207 211 214
3 198 211 207
3 214 236 198
3 63 49 75
3 152 141 138
3 152 150 141
3 168 141 150
3 150 152 166
3 153 150 140
3 140 154 153
3 150 166 140
3 153 168 150
3 175 154 145
3 154 140 145
3 168 153 154
3 175 168 154
3 150 168 169
3 169 174 166
3 169 168 175
3 169 178 174
3 170 175 145
3 145 187 170
3 170 187 178
3 178 175 170
3 175 178 169
3 187 174 178
3 169 166 150
3 320 314 316
3 317 313 314
3 320 316 322
3 321 320 322
3 320 317 314
3 13 10 21
3 14 49 21
3 14 21 18
3 21 49 13
3 49 12 13
3 7 18 21
3 18 7 16
3 13 12 10
3 21 10 7
3 10 16 7
3 18 16 14
3 49 26 32
3 16 26 14
3 26 49 14
3 34 18 57
3 18 34 29
3 18 16 29
3 26 29 16
3 29 26 32
3 44 38 47
3 47 49 44
3 38 39 47
3 47 57 49
3 39 34 57
3 57 47 39
3 34 25 57
3 39 29 34
3 30 25 29
3 30 29 38
3 25 30 18
3 18 57 25
3 29 25 34
3 30 32 18
3 29 39 38
3 125 92 97
3 92 84 97
3 92 129 116
3 92 125 129
3 20 11 22
3 22 37 20
3 24 22 11
3 22 24 31
3 37 33 42
3 42 20 37
3 33 22 31
3 31 42 33
3 37 22 33
3 183 205 180
3 180 205 203
3 203 191 180
3 250 227 233
3 227 218 233
3 250 230 227
3 227 230 218
3 218 210 233
3 98 85 111
3 85 107 111
3 85 81 107
3 107 121 111
3 165 130 128
3 146 156 159
3 165 156 130
3 156 146 130
3 112 130 115
3 130 159 146
3 146 115 130
3 159 115 146
3 32 38 29
3 30 28 32
3 29 30 32
3 30 49 28
3 38 32 47
3 44 47 32
3 44 32 49
3 32 28 49
3 60 56 44
3 58 56 60
3 44 56 49
3 56 75 49
3 65 56 58
3 56 44 58
3 65 75 56
3 57 47 29
3 47 38 29
3 57 52 47
3 57 89 62
3 62 52 57
3 62 89 79
3 62 79 76
3 89 90 79
3 38 44 29
3 90 78 76
3 79 90 76
3 60 76 78
3 44 76 60
3 29 44 60
3 47 62 76
3 47 52 62
3 47 38 39
3 39 52 47
3 38 47 44
3 47 76 44
3 291 287 302
3 291 286 287
3 287 292 302
3 283 300 294
3 294 300 308
3 308 309 294
3 85 58 81
3 65 56 58
3 58 85 65

