ply
format ascii 1.0
comment VCGLIB generated
element vertex 15
property float x
property float y
property float z
property float nx
property float ny
property float nz
property uchar red
property uchar green
property uchar blue
element face 26
property list uchar int vertex_indices
end_header
0.0 -0.707107 0.707107 0 0 0 255 0 0
0.707107 0.0 0.707107 0 0 0 255 81 0
-0.707107 0.0 0.707107 0 0 0 255 250 0
0.0 0.707107 0.707107 0 0 0 255 0 0
0.0 1.0 0.0 0 0 0 0 0 255
0.707107 0.707107 0.0 0 0 0 255 250 0
-0.707107 0.707107 0.0 0 0 0 167 255 0
0.0 0.707107 -0.707107 0 0 0 255 0 0
0.707107 0.0 -0.707107 0 0 0 255 81 0
-0.707107 0.0 -0.707107 0 0 0 255 250 0
0.0 -0.707107 -0.707107 0 0 0 255 0 0
0.0 -1.0 0.0 0 0 0 0 0 255
0.707107 -0.707107 0.0 0 0 0 255 250 0
-0.707107 -0.707107 0.0 0 0 0 167 255 0
-1.0 0.0 0.0 0 0 0 0 0 255

3 3 5 4
3 4 7 6
3 10 12 11
3 11 0 13
3 13 2 14
3 14 6 9
3 13 0 2
3 5 3 1
3 9 7 6
3 12 8 10
3 12 1 0
3 0 11 12
3 4 6 3
3 6 14 2
3 2 3 6
3 7 5 4
3 7 8 5
3 10 13 11
3 13 9 14
3 13 10 9
3 3 0 1
3 0 3 2
3 10 7 9
3 7 10 8
3 8 1 12
3 1 8 5

