ply
format ascii 1.0
comment VCGLIB generated
element vertex 14
property float x
property float y
property float z
property float nx
property float ny
property float nz
property uchar red
property uchar green
property uchar blue
element face 24
property list uchar int vertex_indices
end_header
0.0 -0.707107 0.707107 0 0 0 105 255 0
0.707107 0.0 0.707107 0 0 0 56 255 0
-0.707107 0.0 0.707107 0 0 0 0 255 45
0.0 0.707107 0.707107 0 0 0 255 0 0
0.707107 0.707107 0.0 0 0 0 0 255 8
-0.707107 0.707107 0.0 0 0 0 0 255 45
0.0 0.707107 -0.707107 0 0 0 255 0 0
0.707107 0.0 -0.707107 0 0 0 56 255 0
-0.707107 0.0 -0.707107 0 0 0 0 255 45
0.0 -0.707107 -0.707107 0 0 0 105 255 0
0.0 -1.0 0.0 0 0 0 0 0 255
0.707107 -0.707107 0.0 0 0 0 0 255 45
-0.707107 -0.707107 0.0 0 0 0 0 255 101
-1.0 0.0 0.0 0 0 0 0 0 255

3 9 11 10
3 10 0 12
3 12 2 13
3 13 5 8
3 12 0 2
3 4 3 1
3 8 6 5
3 11 7 9
3 11 1 0
3 0 10 11
3 5 13 2
3 2 3 5
3 6 7 4
3 9 12 10
3 12 8 13
3 12 9 8
3 3 0 1
3 0 3 2
3 9 6 8
3 6 9 7
3 7 1 11
3 1 7 4
3 6 3 4
3 3 6 5

