ply
format ascii 1.0
comment VCGLIB generated
element vertex 12
property float x
property float y
property float z
property float nx
property float ny
property float nz
property uchar red
property uchar green
property uchar blue
element face 20
property list uchar int vertex_indices
end_header
0.0 -0.707107 0.707107 0 0 0 255 0 0
0.707107 0.0 0.707107 0 0 0 0 128 255
-0.707107 0.0 0.707107 0 0 0 0 128 255
0.0 0.707107 0.707107 0 0 0 255 0 0
0.707107 0.707107 0.0 0 0 0 0 0 255
-0.707107 0.707107 0.0 0 0 0 0 0 255
0.0 0.707107 -0.707107 0 0 0 255 0 0
0.707107 0.0 -0.707107 0 0 0 0 128 255
-0.707107 0.0 -0.707107 0 0 0 0 128 255
0.0 -0.707107 -0.707107 0 0 0 255 0 0
0.707107 -0.707107 0.0 0 0 0 0 0 255
-0.707107 -0.707107 0.0 0 0 0 0 0 255

3 11 0 2
3 4 3 1
3 8 6 5
3 10 7 9
3 10 1 0
3 2 3 5
3 6 7 4
3 11 9 8
3 3 0 1
3 0 3 2
3 9 6 8
3 6 9 7
3 7 1 10
3 1 7 4
3 6 3 4
3 3 6 5
3 8 2 11
3 2 8 5
3 9 0 10
3 0 9 11

