ply
format ascii 1.0
comment VCGLIB generated
element vertex 25
property float x
property float y
property float z
property float nx
property float ny
property float nz
property uchar red
property uchar green
property uchar blue
element face 46
property list uchar int vertex_indices
end_header
0.57735 -0.57735 0.57735 0 0 0 0 221 255
-0.57735 0.57735 0.57735 0 0 0 0 221 255
0.57735 0.57735 0.57735 0 0 0 0 0 255
-0.57735 0.57735 -0.57735 0 0 0 0 0 255
0.57735 0.57735 -0.57735 0 0 0 0 221 255
-0.57735 -0.57735 -0.57735 0 0 0 0 221 255
0.57735 -0.57735 -0.57735 0 0 0 0 0 255
0.0 -0.707107 0.707107 0 0 0 255 0 0
0.0 0.0 1.0 0 0 0 117 255 0
0.707107 0.0 0.707107 0 0 0 255 214 0
-0.707107 0.0 0.707107 0 0 0 255 0 0
0.0 0.707107 0.707107 0 0 0 255 214 0
0.0 1.0 0.0 0 0 0 255 151 0
0.707107 0.707107 0.0 0 0 0 0 255 90
-0.707107 0.707107 0.0 0 0 0 0 255 90
0.0 0.707107 -0.707107 0 0 0 255 214 0
0.0 0.0 -1.0 0 0 0 255 151 0
0.707107 0.0 -0.707107 0 0 0 255 214 0
-0.707107 0.0 -0.707107 0 0 0 255 214 0
0.0 -0.707107 -0.707107 0 0 0 255 214 0
0.0 -1.0 0.0 0 0 0 255 151 0
0.707107 -0.707107 0.0 0 0 0 0 255 90
-0.707107 -0.707107 0.0 0 0 0 32 255 0
1.0 0.0 0.0 0 0 0 255 151 0
-1.0 0.0 0.0 0 0 0 255 151 0

3 0 9 7
3 2 8 9
3 7 9 8
3 2 11 8
3 1 10 11
3 8 11 10
3 1 11 12
3 2 13 11
3 4 12 13
3 11 13 12
3 1 12 14
3 4 15 12
3 3 14 15
3 12 15 14
3 3 15 16
3 4 17 15
3 6 16 17
3 15 17 16
3 3 16 18
3 6 19 16
3 5 18 19
3 16 19 18
3 5 19 20
3 6 21 19
3 0 20 21
3 19 21 20
3 5 20 22
3 0 7 20
3 20 7 22
3 0 21 23
3 6 17 21
3 4 23 17
3 21 17 23
3 0 23 9
3 4 13 23
3 2 9 13
3 23 13 9
3 5 22 24
3 1 24 10
3 22 10 24
3 5 24 18
3 1 14 24
3 3 18 14
3 24 14 18
3 22 7 10
3 8 10 7

