ply
format ascii 1.0
comment VCGLIB generated
element vertex 24
property float x
property float y
property float z
property float nx
property float ny
property float nz
property uchar red
property uchar green
property uchar blue
element face 44
property list uchar int vertex_indices
end_header
0.57735 -0.57735 0.57735 0 0 0 0 221 255
-0.57735 0.57735 0.57735 0 0 0 0 221 255
-0.57735 0.57735 -0.57735 0 0 0 0 0 255
0.57735 0.57735 -0.57735 0 0 0 0 221 255
-0.57735 -0.57735 -0.57735 0 0 0 0 221 255
0.57735 -0.57735 -0.57735 0 0 0 0 0 255
0.0 -0.707107 0.707107 0 0 0 255 0 0
0.0 0.0 1.0 0 0 0 0 255 8
0.707107 0.0 0.707107 0 0 0 255 0 0
-0.707107 0.0 0.707107 0 0 0 255 0 0
0.0 0.707107 0.707107 0 0 0 255 0 0
0.0 1.0 0.0 0 0 0 255 151 0
0.707107 0.707107 0.0 0 0 0 32 255 0
-0.707107 0.707107 0.0 0 0 0 0 255 90
0.0 0.707107 -0.707107 0 0 0 255 214 0
0.0 0.0 -1.0 0 0 0 255 151 0
0.707107 0.0 -0.707107 0 0 0 255 214 0
-0.707107 0.0 -0.707107 0 0 0 255 214 0
0.0 -0.707107 -0.707107 0 0 0 255 214 0
0.0 -1.0 0.0 0 0 0 255 151 0
0.707107 -0.707107 0.0 0 0 0 0 255 90
-0.707107 -0.707107 0.0 0 0 0 32 255 0
1.0 0.0 0.0 0 0 0 255 151 0
-1.0 0.0 0.0 0 0 0 255 151 0

3 0 8 6
3 6 8 7
3 1 9 10
3 7 10 9
3 1 10 11
3 3 11 12
3 10 12 11
3 1 11 13
3 3 14 11
3 2 13 14
3 11 14 13
3 2 14 15
3 3 16 14
3 5 15 16
3 14 16 15
3 2 15 17
3 5 18 15
3 4 17 18
3 15 18 17
3 4 18 19
3 5 20 18
3 0 19 20
3 18 20 19
3 4 19 21
3 0 6 19
3 19 6 21
3 0 20 22
3 5 16 20
3 3 22 16
3 20 16 22
3 0 22 8
3 3 12 22
3 22 12 8
3 4 21 23
3 1 23 9
3 21 9 23
3 4 23 17
3 1 13 23
3 2 17 13
3 23 13 17
3 21 6 9
3 7 9 6
3 12 10 8
3 7 8 10

