ply
format ascii 1.0
comment VCGLIB generated
element vertex 23
property float x
property float y
property float z
property float nx
property float ny
property float nz
property uchar red
property uchar green
property uchar blue
element face 42
property list uchar int vertex_indices
end_header
0.57735 -0.57735 0.57735 0 0 0 0 221 255
-0.57735 0.57735 0.57735 0 0 0 0 221 255
0.57735 0.57735 -0.57735 0 0 0 0 221 255
-0.57735 -0.57735 -0.57735 0 0 0 0 221 255
0.57735 -0.57735 -0.57735 0 0 0 0 0 255
0.0 -0.707107 0.707107 0 0 0 255 0 0
0.0 0.0 1.0 0 0 0 0 255 8
0.707107 0.0 0.707107 0 0 0 255 0 0
-0.707107 0.0 0.707107 0 0 0 255 0 0
0.0 0.707107 0.707107 0 0 0 255 0 0
0.0 1.0 0.0 0 0 0 255 151 0
0.707107 0.707107 0.0 0 0 0 32 255 0
-0.707107 0.707107 0.0 0 0 0 32 255 0
0.0 0.707107 -0.707107 0 0 0 255 0 0
0.0 0.0 -1.0 0 0 0 117 255 0
0.707107 0.0 -0.707107 0 0 0 255 214 0
-0.707107 0.0 -0.707107 0 0 0 255 0 0
0.0 -0.707107 -0.707107 0 0 0 255 214 0
0.0 -1.0 0.0 0 0 0 255 151 0
0.707107 -0.707107 0.0 0 0 0 0 255 90
-0.707107 -0.707107 0.0 0 0 0 32 255 0
1.0 0.0 0.0 0 0 0 255 151 0
-1.0 0.0 0.0 0 0 0 255 151 0

3 0 7 5
3 5 7 6
3 1 8 9
3 6 9 8
3 1 9 10
3 2 10 11
3 9 11 10
3 1 10 12
3 2 13 10
3 10 13 12
3 2 15 13
3 4 14 15
3 13 15 14
3 4 17 14
3 3 16 17
3 14 17 16
3 3 17 18
3 4 19 17
3 0 18 19
3 17 19 18
3 3 18 20
3 0 5 18
3 18 5 20
3 0 19 21
3 4 15 19
3 2 21 15
3 19 15 21
3 0 21 7
3 2 11 21
3 21 11 7
3 3 20 22
3 1 22 8
3 20 8 22
3 3 22 16
3 1 12 22
3 22 12 16
3 20 5 8
3 6 8 5
3 11 9 7
3 6 7 9
3 16 13 12
3 13 16 14

