ply
format ascii 1.0
comment VCGLIB generated
element vertex 22
property float x
property float y
property float z
property float nx
property float ny
property float nz
property uchar red
property uchar green
property uchar blue
element face 40
property list uchar int vertex_indices
end_header
0.57735 -0.57735 0.57735 0 0 0 0 0 255
-0.57735 0.57735 0.57735 0 0 0 0 0 255
0.57735 0.57735 -0.57735 0 0 0 0 0 255
-0.57735 -0.57735 -0.57735 0 0 0 0 0 255
0.0 -0.707107 0.707107 0 0 0 255 0 0
0.0 0.0 1.0 0 0 0 0 255 151
0.707107 0.0 0.707107 0 0 0 255 0 0
-0.707107 0.0 0.707107 0 0 0 255 0 0
0.0 0.707107 0.707107 0 0 0 255 0 0
0.0 1.0 0.0 0 0 0 255 193 0
0.707107 0.707107 0.0 0 0 0 0 255 99
-0.707107 0.707107 0.0 0 0 0 0 255 99
0.0 0.707107 -0.707107 0 0 0 255 0 0
0.0 0.0 -1.0 0 0 0 0 255 151
0.707107 0.0 -0.707107 0 0 0 255 0 0
-0.707107 0.0 -0.707107 0 0 0 255 0 0
0.0 -0.707107 -0.707107 0 0 0 255 0 0
0.0 -1.0 0.0 0 0 0 255 193 0
0.707107 -0.707107 0.0 0 0 0 0 255 99
-0.707107 -0.707107 0.0 0 0 0 0 255 99
1.0 0.0 0.0 0 0 0 255 193 0
-1.0 0.0 0.0 0 0 0 255 193 0

3 0 6 4
3 4 6 5
3 1 7 8
3 5 8 7
3 1 8 9
3 2 9 10
3 8 10 9
3 1 9 11
3 2 12 9
3 9 12 11
3 2 14 12
3 12 14 13
3 3 15 16
3 13 16 15
3 3 16 17
3 0 17 18
3 16 18 17
3 3 17 19
3 0 4 17
3 17 4 19
3 0 18 20
3 2 20 14
3 18 14 20
3 0 20 6
3 2 10 20
3 20 10 6
3 3 19 21
3 1 21 7
3 19 7 21
3 3 21 15
3 1 11 21
3 21 11 15
3 19 4 7
3 5 7 4
3 10 8 6
3 5 6 8
3 15 12 11
3 12 15 13
3 18 14 16
3 13 16 14

