ply
format ascii 1.0
comment VCGLIB generated
element vertex 21
property float x
property float y
property float z
property float nx
property float ny
property float nz
property uchar red
property uchar green
property uchar blue
element face 38
property list uchar int vertex_indices
end_header
-0.57735 0.57735 0.57735 0 0 0 0 0 255
0.57735 0.57735 -0.57735 0 0 0 0 0 255
-0.57735 -0.57735 -0.57735 0 0 0 0 0 255
0.0 -0.707107 0.707107 0 0 0 255 0 0
0.0 0.0 1.0 0 0 0 0 238 255
0.707107 0.0 0.707107 0 0 0 255 0 0
-0.707107 0.0 0.707107 0 0 0 168 255 0
0.0 0.707107 0.707107 0 0 0 168 255 0
0.0 1.0 0.0 0 0 0 39 255 0
0.707107 0.707107 0.0 0 0 0 0 255 236
-0.707107 0.707107 0.0 0 0 0 0 255 236
0.0 0.707107 -0.707107 0 0 0 168 255 0
0.0 0.0 -1.0 0 0 0 0 238 255
0.707107 0.0 -0.707107 0 0 0 168 255 0
-0.707107 0.0 -0.707107 0 0 0 168 255 0
0.0 -0.707107 -0.707107 0 0 0 168 255 0
0.0 -1.0 0.0 0 0 0 0 255 164
0.707107 -0.707107 0.0 0 0 0 255 0 0
-0.707107 -0.707107 0.0 0 0 0 0 255 236
1.0 0.0 0.0 0 0 0 0 255 164
-1.0 0.0 0.0 0 0 0 39 255 0

3 3 5 4
3 0 6 7
3 4 7 6
3 0 7 8
3 1 8 9
3 7 9 8
3 0 8 10
3 1 11 8
3 8 11 10
3 1 13 11
3 11 13 12
3 2 14 15
3 12 15 14
3 2 15 16
3 15 17 16
3 2 16 18
3 16 3 18
3 1 19 13
3 17 13 19
3 1 9 19
3 19 9 5
3 2 18 20
3 0 20 6
3 18 6 20
3 2 20 14
3 0 10 20
3 20 10 14
3 18 3 6
3 4 6 3
3 9 7 5
3 4 5 7
3 14 11 10
3 11 14 12
3 17 13 15
3 12 15 13
3 19 5 17
3 17 5 3
3 3 16 17

