ply
format ascii 1.0
comment VCGLIB generated
element vertex 20
property float x
property float y
property float z
property float nx
property float ny
property float nz
property uchar red
property uchar green
property uchar blue
element face 36
property list uchar int vertex_indices
end_header
0.57735 0.57735 -0.57735 0 0 0 0 0 255
-0.57735 -0.57735 -0.57735 0 0 0 0 0 255
0.0 -0.707107 0.707107 0 0 0 255 0 0
0.0 0.0 1.0 0 0 0 0 238 255
0.707107 0.0 0.707107 0 0 0 255 0 0
-0.707107 0.0 0.707107 0 0 0 255 0 0
0.0 0.707107 0.707107 0 0 0 255 0 0
0.0 1.0 0.0 0 0 0 0 255 164
0.707107 0.707107 0.0 0 0 0 0 255 236
-0.707107 0.707107 0.0 0 0 0 255 0 0
0.0 0.707107 -0.707107 0 0 0 168 255 0
0.0 0.0 -1.0 0 0 0 0 238 255
0.707107 0.0 -0.707107 0 0 0 168 255 0
-0.707107 0.0 -0.707107 0 0 0 168 255 0
0.0 -0.707107 -0.707107 0 0 0 168 255 0
0.0 -1.0 0.0 0 0 0 0 255 164
0.707107 -0.707107 0.0 0 0 0 255 0 0
-0.707107 -0.707107 0.0 0 0 0 0 255 236
1.0 0.0 0.0 0 0 0 0 255 164
-1.0 0.0 0.0 0 0 0 0 255 164

3 2 4 3
3 3 6 5
3 0 7 8
3 6 8 7
3 0 10 7
3 7 10 9
3 0 12 10
3 10 12 11
3 1 13 14
3 11 14 13
3 1 14 15
3 14 16 15
3 1 15 17
3 15 2 17
3 0 18 12
3 16 12 18
3 0 8 18
3 18 8 4
3 1 17 19
3 17 5 19
3 1 19 13
3 19 9 13
3 17 2 5
3 3 5 2
3 8 6 4
3 3 4 6
3 13 10 9
3 10 13 11
3 16 12 14
3 11 14 12
3 18 4 16
3 16 4 2
3 2 15 16
3 7 9 6
3 9 19 5
3 5 6 9

