ply
format ascii 1.0
comment VCGLIB generated
element vertex 19
property float x
property float y
property float z
property float nx
property float ny
property float nz
property uchar red
property uchar green
property uchar blue
element face 34
property list uchar int vertex_indices
end_header
-0.57735 -0.57735 -0.57735 0 0 0 0 0 255
0.0 -0.707107 0.707107 0 0 0 255 0 0
0.0 0.0 1.0 0 0 0 0 238 255
0.707107 0.0 0.707107 0 0 0 255 0 0
-0.707107 0.0 0.707107 0 0 0 255 0 0
0.0 0.707107 0.707107 0 0 0 255 0 0
0.0 1.0 0.0 0 0 0 0 238 255
0.707107 0.707107 0.0 0 0 0 255 0 0
-0.707107 0.707107 0.0 0 0 0 255 0 0
0.0 0.707107 -0.707107 0 0 0 255 0 0
0.0 0.0 -1.0 0 0 0 0 238 255
0.707107 0.0 -0.707107 0 0 0 255 0 0
-0.707107 0.0 -0.707107 0 0 0 168 255 0
0.0 -0.707107 -0.707107 0 0 0 168 255 0
0.0 -1.0 0.0 0 0 0 0 255 164
0.707107 -0.707107 0.0 0 0 0 255 0 0
-0.707107 -0.707107 0.0 0 0 0 0 255 236
1.0 0.0 0.0 0 0 0 0 238 255
-1.0 0.0 0.0 0 0 0 0 255 164

3 1 3 2
3 2 5 4
3 5 7 6
3 6 9 8
3 9 11 10
3 0 12 13
3 10 13 12
3 0 13 14
3 13 15 14
3 0 14 16
3 14 1 16
3 15 11 17
3 17 7 3
3 0 16 18
3 16 4 18
3 0 18 12
3 18 8 12
3 16 1 4
3 2 4 1
3 7 5 3
3 2 3 5
3 12 9 8
3 9 12 10
3 15 11 13
3 10 13 11
3 17 3 15
3 15 3 1
3 1 14 15
3 6 8 5
3 8 18 4
3 4 5 8
3 7 11 17
3 9 7 6
3 9 11 7

