ply
format ascii 1.0
comment VCGLIB generated
element vertex 18
property float x
property float y
property float z
property float nx
property float ny
property float nz
property uchar red
property uchar green
property uchar blue
element face 32
property list uchar int vertex_indices
end_header
0.0 -0.707107 0.707107 0 0 0 255 0 0
0.0 0.0 1.0 0 0 0 0 0 255
0.707107 0.0 0.707107 0 0 0 255 0 0
-0.707107 0.0 0.707107 0 0 0 255 0 0
0.0 0.707107 0.707107 0 0 0 255 0 0
0.0 1.0 0.0 0 0 0 0 0 255
0.707107 0.707107 0.0 0 0 0 255 0 0
-0.707107 0.707107 0.0 0 0 0 255 0 0
0.0 0.707107 -0.707107 0 0 0 255 0 0
0.0 0.0 -1.0 0 0 0 0 0 255
0.707107 0.0 -0.707107 0 0 0 255 0 0
-0.707107 0.0 -0.707107 0 0 0 255 0 0
0.0 -0.707107 -0.707107 0 0 0 255 0 0
0.0 -1.0 0.0 0 0 0 0 0 255
0.707107 -0.707107 0.0 0 0 0 255 0 0
-0.707107 -0.707107 0.0 0 0 0 255 0 0
1.0 0.0 0.0 0 0 0 0 0 255
-1.0 0.0 0.0 0 0 0 0 0 255

3 0 2 1
3 1 4 3
3 4 6 5
3 5 8 7
3 8 10 9
3 9 12 11
3 12 14 13
3 13 0 15
3 14 10 16
3 16 6 2
3 15 3 17
3 17 7 11
3 15 0 3
3 1 3 0
3 6 4 2
3 1 2 4
3 11 8 7
3 8 11 9
3 14 10 12
3 9 12 10
3 16 2 14
3 14 2 0
3 0 13 14
3 5 7 4
3 7 17 3
3 3 4 7
3 6 10 16
3 8 6 5
3 8 10 6
3 12 15 13
3 15 11 17
3 15 12 11

