ply
format ascii 1.0
comment VCGLIB generated
element vertex 17
property float x
property float y
property float z
property float nx
property float ny
property float nz
property uchar red
property uchar green
property uchar blue
element face 30
property list uchar int vertex_indices
end_header
0.0 -0.707107 0.707107 0 0 0 255 0 0
0.707107 0.0 0.707107 0 0 0 255 250 0
-0.707107 0.0 0.707107 0 0 0 255 250 0
0.0 0.707107 0.707107 0 0 0 255 0 0
0.0 1.0 0.0 0 0 0 0 0 255
0.707107 0.707107 0.0 0 0 0 167 255 0
-0.707107 0.707107 0.0 0 0 0 167 255 0
0.0 0.707107 -0.707107 0 0 0 167 255 0
0.0 0.0 -1.0 0 0 0 0 0 255
0.707107 0.0 -0.707107 0 0 0 167 255 0
-0.707107 0.0 -0.707107 0 0 0 167 255 0
0.0 -0.707107 -0.707107 0 0 0 167 255 0
0.0 -1.0 0.0 0 0 0 0 0 255
0.707107 -0.707107 0.0 0 0 0 167 255 0
-0.707107 -0.707107 0.0 0 0 0 167 255 0
1.0 0.0 0.0 0 0 0 0 0 255
-1.0 0.0 0.0 0 0 0 0 0 255

3 3 5 4
3 4 7 6
3 7 9 8
3 8 11 10
3 11 13 12
3 12 0 14
3 13 9 15
3 15 5 1
3 14 2 16
3 16 6 10
3 14 0 2
3 5 3 1
3 10 7 6
3 7 10 8
3 13 9 11
3 8 11 9
3 15 1 13
3 13 1 0
3 0 12 13
3 4 6 3
3 6 16 2
3 2 3 6
3 5 9 15
3 7 5 4
3 7 9 5
3 11 14 12
3 14 10 16
3 14 11 10
3 3 0 1
3 0 3 2

