ply
format ascii 1.0
comment VCGLIB generated
comment TextureFile checker.png
element vertex 8
property float x
property float y
property float z
element face 12
property list uchar int vertex_indices
property list uchar float texcoord
end_header
-0.5 -0.5 0.5 
0.5 -0.5 0.5 
-0.5 0.5 0.5 
0.5 0.5 0.5 
-0.5 0.5 -0.5 
0.5 0.5 -0.5 
-0.5 -0.5 -0.5 
0.5 -0.5 -0.5 
3 0 1 3 6 0.328618 0.998047 0.00195312 0.998047 0.00195312 0.671382 
3 0 3 2 6 0.33138 0.995285 0.00471526 0.66862 0.33138 0.66862 
3 2 3 5 6 0.661951 0.998047 0.335286 0.998047 0.335286 0.671382 
3 2 5 4 6 0.664714 0.995285 0.338049 0.66862 0.664714 0.66862 
3 4 5 7 6 0.995285 0.998047 0.66862 0.998047 0.66862 0.671382 
3 4 7 6 6 0.998047 0.995285 0.671382 0.66862 0.998047 0.66862 
3 6 7 1 6 0.328618 0.664714 0.00195312 0.664714 0.00195312 0.338049 
3 6 1 0 6 0.33138 0.661951 0.00471526 0.335286 0.33138 0.335286 
3 1 7 5 6 0.661951 0.664714 0.335286 0.664714 0.335286 0.338049 
3 1 5 3 6 0.664714 0.661951 0.338049 0.335286 0.664714 0.335286 
3 6 0 2 6 0.995285 0.664714 0.66862 0.664714 0.66862 0.338049 
3 6 2 4 6 0.998047 0.661951 0.671382 0.335286 0.998047 0.335286 
