ply
format ascii 1.0
comment VCGLIB generated
element vertex 290
property float x
property float y
property float z
property float nx
property float ny
property float nz
property uchar red
property uchar green
property uchar blue
element face 1272
property list uchar int vertex_indices
end_header
2.66302 -1.44049 -0.478149 0 0 0 19 255 0
2.96012 -0.941827 -0.284743 0 0 0 0 255 147
2.8931 -1.30217 -0.332049 0 0 0 0 199 255
2.54526 -1.5933 -0.38631 0 0 0 0 254 255
2.53423 -1.61708 0.0 0 0 0 0 255 171
-0.112666 -1.80658 -0.383324 0 0 0 0 194 255
-2.22392 -1.54127 -0.87926 0 0 0 0 166 255
-3.63118 -1.15784 -0.50561 0 0 0 0 255 88
-3.6766 -0.729578 -0.330724 0 0 0 0 182 255
1.72175 -3.11689 -0.979111 0 0 0 0 178 255
2.25436 -3.55093 -1.23512 0 0 0 0 255 135
1.98119 -3.44128 -1.18053 0 0 0 0 255 228
1.70917 -3.13315 -0.80794 0 0 0 0 200 255
1.83952 -3.40529 -0.883488 0 0 0 0 255 188
2.11003 -3.14826 -1.06882 0 0 0 0 152 255
2.11359 -3.01185 -0.851648 0 0 0 0 222 255
2.00274 -3.52342 -0.688103 0 0 0 0 255 115
2.30936 -3.34547 -0.801508 0 0 0 0 255 128
2.24415 -3.54556 -0.732888 0 0 0 0 191 255
-3.23261 -1.8343 -1.08783 0 0 0 0 255 254
-3.4227 -2.0708 -0.773898 0 0 0 187 255 0
2.02453 -2.19533 -0.811284 0 0 0 0 255 162
1.6249 -2.0873 -0.963391 0 0 0 0 255 185
1.65032 -1.64588 -1.05335 0 0 0 120 255 0
1.58632 -2.27375 -0.880969 0 0 0 0 255 214
1.54409 -2.08072 -0.786432 0 0 0 0 255 237
2.19794 -3.58395 -0.936437 0 0 0 0 218 255
1.72121 -1.59019 -0.601932 0 0 0 0 141 255
1.94726 -2.44323 -0.732587 0 0 0 0 255 173
1.5167 -1.45305 -1.06852 0 0 0 0 255 9
2.03604 -1.57908 -0.967151 0 0 0 0 0 255
2.15859 -0.955809 -1.11365 0 0 0 0 255 228
3.25222 2.02635 -0.148215 0 0 0 0 165 255
3.05837 1.77335 -0.297337 0 0 0 0 255 112
3.61965 0.472046 -0.391742 0 0 0 0 227 255
3.51498 -0.121886 -0.187589 0 0 0 0 207 255
3.71636 2.34339 0.0 0 0 0 0 181 255
3.95564 0.432417 -0.197586 0 0 0 0 255 123
3.74772 1.18493 -0.518662 0 0 0 0 186 255
3.34216 -0.384674 -0.201349 0 0 0 0 176 255
2.94839 0.783357 -0.515058 0 0 0 0 255 229
2.5945 -0.422948 -0.981263 0 0 0 0 255 245
2.66894 0.206182 -1.01437 0 0 0 0 220 255
2.266 1.27325 -0.663332 0 0 0 0 169 255
2.44897 0.529858 -1.03734 0 0 0 0 255 204
1.80758 1.75655 -0.177627 0 0 0 0 255 243
2.0817 0.283249 -1.25946 0 0 0 0 255 50
0.733818 1.74087 0.0 0 0 0 0 255 231
0.53915 0.148262 -1.32101 0 0 0 0 199 255
0.948819 -0.638568 -1.10296 0 0 0 0 23 255
0.527724 -0.862854 -1.25381 0 0 0 0 218 255
0.44655 -1.67295 0.0 0 0 0 0 255 230
-0.597781 1.48962 -0.641047 0 0 0 0 253 255
-0.752416 0.438132 -1.46735 0 0 0 0 244 255
-0.645496 0.179261 -1.58432 0 0 0 0 245 255
-0.536767 -0.144454 -1.68223 0 0 0 0 195 255
0.021051 -0.831931 -1.51155 0 0 0 0 211 255
-0.505045 -0.913827 -1.64561 0 0 0 0 255 252
-0.071941 -1.34699 -1.23738 0 0 0 0 200 255
-0.524231 -1.39927 -1.31302 0 0 0 0 205 255
-1.17947 1.78665 0.0 0 0 0 0 251 255
-1.04607 1.5091 -0.76106 0 0 0 0 255 235
-1.2789 1.19205 -0.946843 0 0 0 0 151 255
-1.05343 -0.342553 -1.69025 0 0 0 0 255 87
-1.07721 -0.869649 -1.63314 0 0 0 0 255 118
1.50495 1.48349 -0.585976 0 0 0 0 255 195
1.57069 0.938327 -0.989108 0 0 0 0 255 192
1.67862 -0.410061 -1.29118 0 0 0 0 255 170
-0.07847 -1.68827 -0.80023 0 0 0 255 168 0
-1.58219 1.56754 -0.982349 0 0 0 0 245 255
-1.72181 1.39126 -1.11331 0 0 0 0 207 255
-1.7823 -1.02058 -0.943381 0 0 0 0 255 146
-1.45666 -1.29553 -0.89424 0 0 0 0 255 42
-2.17214 1.62301 -0.805318 0 0 0 84 255 0
-2.18763 -0.375454 -1.4069 0 0 0 0 227 255
-2.71748 1.5768 -0.875971 0 0 0 0 181 255
-3.10905 1.78948 -0.565323 0 0 0 0 212 255
-2.93031 1.10358 -1.12588 0 0 0 0 255 235
-2.82583 0.755899 -1.20904 0 0 0 0 255 171
-3.27808 1.43242 -0.853958 0 0 0 0 255 245
-2.90708 -0.345582 -1.28156 0 0 0 0 209 255
-2.90116 -0.619504 -1.28406 0 0 0 0 237 255
-2.93766 -1.00275 -1.21941 0 0 0 0 255 39
-3.73499 1.58943 -0.295202 0 0 0 0 217 255
-3.68462 1.35069 -0.501428 0 0 0 0 255 244
-3.63988 1.01519 -0.615203 0 0 0 0 154 255
-3.58287 0.734419 -0.697787 0 0 0 0 255 130
-3.50452 0.405574 -0.847066 0 0 0 0 255 197
-3.31655 -3.16893 -1.12123 0 0 0 0 255 197
-3.0429 -3.19391 -1.2073 0 0 0 0 185 255
-2.88863 -3.2003 -1.21093 0 0 0 0 255 246
-3.08274 -3.5983 -1.05456 0 0 0 0 255 205
-2.98182 -3.60889 -1.34696 0 0 0 0 255 174
-3.29439 -3.16622 -0.842823 0 0 0 0 255 81
-3.00687 -3.57546 -0.830221 0 0 0 0 185 255
-2.87042 -3.60172 -0.843123 0 0 0 0 126 255
-2.52472 -3.56161 -1.16154 0 0 0 0 255 163
-2.59351 -3.53615 -0.94245 0 0 0 0 173 255
-2.66896 -3.39751 -0.943626 0 0 0 255 153 0
-2.72957 -3.60298 -1.37724 0 0 0 0 255 87
-3.46972 1.9615 -0.071141 0 0 0 0 255 244
-3.85121 1.00759 -0.099831 0 0 0 0 255 55
-3.66093 1.77004 -0.115431 0 0 0 0 160 255
-3.76824 1.47562 -0.124295 0 0 0 0 255 185
-3.35851 1.81025 -0.380095 0 0 0 0 243 255
4.97187 1.92408 -0.586026 0 0 0 0 255 235
4.87115 1.74124 -0.592326 0 0 0 0 255 250
4.93795 2.18115 -0.486939 0 0 0 0 150 255
5.32114 1.79556 -0.119606 0 0 0 0 255 52
5.42181 1.68535 -0.123555 0 0 0 0 99 255
5.91503 1.38216 -0.13682 0 0 0 0 233 255
5.68173 1.2825 -0.333871 0 0 0 0 255 226
5.95946 1.15723 -0.187097 0 0 0 0 245 255
5.91215 1.11791 -0.254197 0 0 0 0 145 255
5.59828 1.09474 -0.386994 0 0 0 0 234 255
5.51156 0.863525 -0.177613 0 0 0 0 192 255
5.8514 0.929008 -0.105362 0 0 0 0 211 255
4.99671 0.81056 -0.280771 0 0 0 0 195 255
4.71207 0.770512 -0.333393 0 0 0 0 206 255
4.74325 1.05921 -0.563421 0 0 0 0 148 255
4.49619 1.02457 -0.579491 0 0 0 0 93 255
4.3198 0.731007 -0.291212 0 0 0 0 255 210
4.36687 1.13114 -0.630581 0 0 0 0 233 255
4.18988 2.60692 -0.000863 0 0 0 0 140 255
4.63691 2.7505 -0.856859 0 0 0 0 146 255
4.44071 2.39847 -0.629128 0 0 0 0 255 243
4.66222 2.55635 -0.940618 0 0 0 0 171 255
4.10429 2.53798 -0.543437 0 0 0 0 228 255
4.6248 2.70837 -0.989445 0 0 0 0 162 255
4.21165 2.60254 -0.264011 0 0 0 0 255 240
4.10091 2.56063 -0.302396 0 0 0 0 193 255
4.343 2.66405 -0.904347 0 0 0 0 255 203
3.90391 2.2415 -0.512468 0 0 0 0 195 255
3.92887 2.22392 -0.615683 0 0 0 0 255 241
4.17047 2.45844 -1.24185 0 0 0 61 255 0
4.38948 2.19042 -0.47332 0 0 0 0 255 230
4.30319 2.34712 -1.04441 0 0 0 0 167 255
5.09538 1.96124 -0.401516 0 0 0 0 255 173
4.15217 1.86878 -1.225 0 0 0 255 78 0
5.09615 2.75972 -0.774729 0 0 0 255 59 0
4.05989 1.86046 -0.470087 0 0 0 0 243 255
4.23234 1.90308 -0.534362 0 0 0 0 164 255
2.51084 -1.15879 0.678057 0 0 0 0 255 253
2.92879 -1.10747 0.312054 0 0 0 0 255 219
2.8931 -1.30217 0.332049 0 0 0 0 255 233
2.72113 -1.52042 0.362378 0 0 0 0 219 255
2.39661 -1.59324 0.389972 0 0 0 0 203 255
-0.680046 -1.76832 0.81908 0 0 0 0 255 166
-0.422877 -1.7512 0.823423 0 0 0 0 227 255
-0.07847 -1.68827 0.80023 0 0 0 0 148 255
-0.972089 -1.77451 0.76857 0 0 0 255 250 0
-3.6766 -0.729578 0.330724 0 0 0 0 224 255
-3.55012 -0.984868 0.675228 0 0 0 0 255 205
1.72175 -3.11689 0.979111 0 0 0 0 255 196
1.83952 -3.40529 0.883488 0 0 0 0 255 171
2.21737 -3.15609 0.888927 0 0 0 0 252 255
2.44024 -3.50956 1.01942 0 0 0 0 255 223
2.12655 -3.54968 0.701005 0 0 0 0 255 27
2.37781 -3.48411 0.800332 0 0 0 0 255 253
2.25436 -3.55093 1.23512 0 0 0 0 86 255
-3.45197 -2.07731 0.931974 0 0 0 255 242 0
1.6249 -2.0873 0.963391 0 0 0 0 213 255
1.47389 -1.81895 0.799576 0 0 0 255 215 0
1.80179 -1.46546 1.12928 0 0 0 0 255 234
2.02469 -1.07465 1.17246 0 0 0 0 247 255
2.15859 -0.955809 1.11365 0 0 0 0 255 246
1.53604 -0.985876 1.1856 0 0 0 0 141 255
3.0091 1.9716 0.03422 0 0 0 0 156 255
3.51498 -0.121886 0.187589 0 0 0 0 255 229
3.73701 0.181837 0.176819 0 0 0 0 255 135
3.74772 1.18493 0.518662 0 0 0 0 255 253
3.47942 1.97825 0.317478 0 0 0 0 151 255
3.10753 -0.691019 0.264602 0 0 0 0 252 255
2.36109 1.76666 0.202595 0 0 0 0 255 73
2.54337 -0.548031 0.937182 0 0 0 0 234 255
2.66894 0.206182 1.01437 0 0 0 0 255 59
2.50049 -0.035029 1.17018 0 0 0 0 195 255
2.0817 0.283249 1.25946 0 0 0 0 255 164
1.85944 1.45039 0.632222 0 0 0 0 255 179
0.223642 1.68407 0.160743 0 0 0 0 255 219
0.53915 0.148262 1.32101 0 0 0 0 203 255
0.948819 -0.638568 1.10296 0 0 0 0 230 255
-0.228904 1.73427 0.0 0 0 0 0 176 255
-0.597781 1.48962 0.641047 0 0 0 0 223 255
-0.179548 1.4713 0.544513 0 0 0 0 210 255
-0.752416 0.438132 1.46735 0 0 0 0 216 255
-0.645496 0.179261 1.58432 0 0 0 0 238 255
-0.536767 -0.144454 1.68223 0 0 0 0 170 255
-0.533528 -0.58228 1.70141 0 0 0 0 179 255
0.021051 -0.831931 1.51155 0 0 0 0 207 255
-0.487217 -1.19352 1.50403 0 0 0 0 245 255
-0.071941 -1.34699 1.23738 0 0 0 0 172 255
-0.866132 1.75467 0.0 0 0 0 0 210 255
-1.05343 -0.342553 1.69025 0 0 0 0 255 92
-1.07721 -0.869649 1.63314 0 0 0 0 209 255
-1.40235 -1.12785 1.30905 0 0 0 0 255 241
-1.00137 -1.3359 1.35334 0 0 0 0 192 255
1.46251 1.74548 0.222394 0 0 0 0 255 93
1.57069 0.938327 0.989108 0 0 0 0 255 135
1.67862 -0.410061 1.29118 0 0 0 0 255 128
1.25296 -0.928825 1.00164 0 0 0 0 255 251
-1.35095 1.80701 0.0 0 0 0 0 255 213
-1.58219 1.56754 0.982349 0 0 0 0 161 255
-1.72181 1.39126 1.11331 0 0 0 0 255 71
-2.03019 0.547622 1.18976 0 0 0 0 183 255
-1.36687 -1.34021 0.907567 0 0 0 0 255 236
-2.17214 1.62301 0.805318 0 0 0 0 255 225
-2.62947 1.9182 0.0 0 0 0 0 255 138
-2.71748 1.5768 0.875971 0 0 0 0 255 246
-2.57229 0.835495 1.25219 0 0 0 0 161 255
-2.41473 -0.108377 1.39538 0 0 0 0 158 255
-3.10905 1.78948 0.565323 0 0 0 0 255 199
-2.93031 1.10358 1.12588 0 0 0 0 255 253
-2.82583 0.755899 1.20904 0 0 0 0 65 255
-3.39281 1.76936 0.0 0 0 0 0 229 255
-3.27808 1.43242 0.853958 0 0 0 0 214 255
-2.90708 -0.345582 1.28156 0 0 0 0 228 255
-2.90116 -0.619504 1.28406 0 0 0 0 255 25
-2.93766 -1.00275 1.21941 0 0 0 96 255 0
-3.73499 1.58943 0.295202 0 0 0 0 255 238
-3.65515 1.19094 0.573692 0 0 0 0 255 170
-3.50452 0.405574 0.847066 0 0 0 0 255 16
-3.42426 0.158638 0.918279 0 0 0 0 192 255
-3.23261 -1.8343 1.08783 0 0 0 160 255 0
-3.31655 -3.16893 1.12123 0 0 0 0 255 147
-2.72957 -3.60298 1.37724 0 0 0 0 218 255
-3.03063 -3.49333 1.32265 0 0 0 0 255 235
-2.88471 -3.0639 0.993766 0 0 0 0 173 255
-3.08274 -3.5983 1.05456 0 0 0 0 255 150
-3.29439 -3.16622 0.842823 0 0 0 0 255 245
-2.98635 -2.93377 1.08768 0 0 0 0 255 145
-2.88863 -3.2003 1.21093 0 0 0 0 255 175
-3.17711 -2.97931 1.13908 0 0 0 0 243 255
-3.33964 -2.84684 0.966368 0 0 0 0 242 255
-2.52472 -3.56161 1.16154 0 0 0 0 255 211
-3.01199 -3.092 0.860973 0 0 0 0 179 255
-3.00687 -3.57546 0.830221 0 0 0 0 255 131
-2.66896 -3.39751 0.943626 0 0 0 0 255 223
-2.79175 -3.63599 1.07855 0 0 0 0 237 255
-3.89039 -1.7501 0.017612 0 0 0 0 255 200
-3.91401 -1.48685 0.149147 0 0 0 0 255 177
-3.9745 -1.1696 0.164243 0 0 0 0 248 255
-4.02973 -1.04324 0.136305 0 0 0 0 255 171
-4.42412 -1.83174 0.130839 0 0 0 0 223 255
-4.2163 -1.16085 -0.104034 0 0 0 0 255 106
-4.2019 -1.66855 -0.214859 0 0 0 0 255 197
-3.91788 -1.08283 -0.289171 0 0 0 0 255 203
-3.77771 -1.05141 -0.240495 0 0 0 0 255 118
-4.00002 -1.56751 -0.27535 0 0 0 0 228 255
-3.97766 -1.75084 -0.184909 0 0 0 0 150 255
-4.07503 -1.9044 -0.041324 0 0 0 0 168 255
-3.85121 1.00759 0.099831 0 0 0 0 250 255
-3.82169 1.47799 0.107631 0 0 0 0 255 192
-3.66093 1.77004 0.115431 0 0 0 0 170 255
-3.74063 -0.558176 0.085478 0 0 0 0 215 255
-3.6397 -1.24235 0.05719 0 0 0 0 255 153
-4.40536 -1.92144 0.192978 0 0 0 0 158 255
-4.32127 -1.96349 0.025072 0 0 0 0 158 255
-3.23822 2.0054 0.075645 0 0 0 0 255 235
-2.06565 -2.12462 0.36872 0 0 0 255 0 0
-2.04111 -2.07535 0.540201 0 0 0 255 98 0
4.97187 1.92408 0.586026 0 0 0 0 152 255
4.99598 2.14879 0.344534 0 0 0 0 255 172
5.60489 1.54609 0.113773 0 0 0 0 176 255
5.47963 1.11131 0.364188 0 0 0 0 27 255
5.84209 1.42771 0.130724 0 0 0 0 166 255
5.91215 1.11791 0.254197 0 0 0 0 187 255
5.75528 1.00415 0.307505 0 0 0 0 155 255
5.68173 1.2825 0.333871 0 0 0 0 164 255
5.95946 1.15723 0.187097 0 0 0 0 178 255
5.8514 0.929008 0.105362 0 0 0 0 174 255
5.51156 0.863525 0.177613 0 0 0 0 156 255
5.15374 0.831575 0.218348 0 0 0 0 153 255
4.99671 0.81056 0.280771 0 0 0 0 151 255
4.71207 0.770512 0.333393 0 0 0 0 186 255
4.49619 1.02457 0.579491 0 0 0 0 255 48
4.21165 2.60254 0.264011 0 0 0 0 205 255
4.45238 2.52456 0.130255 0 0 0 0 180 255
4.74803 2.6838 0.800044 0 0 0 0 191 255
4.76334 2.59083 0.929248 0 0 0 0 215 255
5.09615 2.75972 0.774729 0 0 0 20 255 0
4.13869 2.47401 0.642311 0 0 0 0 211 255
4.23549 2.63617 0.803613 0 0 0 0 255 213
4.6248 2.70837 0.989445 0 0 0 0 190 255
3.90391 2.2415 0.512468 0 0 0 0 218 255
4.38948 2.19042 0.47332 0 0 0 0 18 255
4.99171 1.1631 0.504149 0 0 0 0 180 255
4.04667 2.34135 1.45253 0 0 0 176 255 0
4.15217 1.86878 1.225 0 0 0 255 127 0
-3.35851 1.81025 0.380095 0 0 0 0 255 221

3 97 96 98
3 187 193 188
3 193 194 188
3 212 213 209
3 249 239 250
3 60 192 201
3 60 192 201
3 118 120 121
3 61 192 60
3 192 201 60
3 192 201 60
3 33 32 167
3 101 251 103
3 50 67 49
3 273 274 272
3 240 243 256
3 241 242 240
3 32 167 33
3 168 35 39
3 117 273 272
3 227 230 235
3 12 9 13
3 219 251 252
3 103 252 251
3 253 219 252
3 253 252 219
3 253 102 252
3 102 104 83
3 83 103 102
3 102 103 252
3 253 104 102
3 214 289 252
3 251 252 101
3 252 251 103
3 271 272 273
3 272 117 273
3 46 66 67
3 66 48 67
3 177 198 199
3 198 180 199
3 183 184 179
3 184 179 182
3 47 182 179
3 258 289 211
3 169 35 168
3 35 39 168
3 34 169 37
3 34 39 35
3 37 169 121
3 121 34 37
3 34 35 169
3 122 121 120
3 89 90 88
3 87 78 86
3 79 86 77
3 78 77 86
3 86 79 85
3 274 118 121
3 274 273 117
3 117 118 274
3 249 248 245
3 195 205 196
3 120 118 119
3 117 119 118
3 106 137 105
3 108 137 106
3 105 108 137
3 33 32 43
3 33 43 40
3 22 27 23
3 30 23 27
3 30 27 23
3 27 29 23
3 22 21 30
3 27 22 23
3 23 22 30
3 108 137 105
3 107 139 105
3 108 262 137
3 137 105 108
3 135 129 139
3 80 82 81
3 216 218 217
3 279 278 283
3 262 280 285
3 262 108 261
3 286 280 261
3 280 108 262
3 262 261 280
3 261 263 286
3 263 268 286
3 263 108 109
3 109 268 263
3 108 263 261
3 268 264 286
3 272 286 273
3 264 286 272
3 143 142 144
3 113 116 112
3 53 62 54
3 21 162 27
3 27 30 21
3 27 30 21
3 30 27 3
3 23 30 22
3 21 22 25
3 30 24 22
3 24 51 25
3 23 30 22
3 23 27 30
3 22 27 23
3 162 51 27
3 0 3 1
3 2 1 0
3 27 30 23
3 23 21 27
3 29 30 0
3 27 0 30
3 257 256 250
3 250 256 239
3 256 257 243
3 257 256 250
3 273 286 274
3 275 274 286
3 122 38 121
3 37 38 34
3 121 274 38
3 38 37 121
3 34 140 38
3 95 94 91
3 28 25 162
3 25 27 162
3 25 24 22
3 22 27 25
3 24 25 21
3 25 28 21
3 25 21 27
3 22 25 24
3 25 22 21
3 23 25 27
3 24 30 27
3 23 27 30
3 25 24 27
3 25 23 29
3 102 100 104
3 102 253 214
3 214 100 102
3 252 289 253
3 40 38 33
3 32 33 38
3 40 34 38
3 117 119 120
3 106 119 109
3 137 106 108
3 106 109 108
3 109 114 111
3 274 34 37
3 34 169 37
3 169 34 168
3 275 121 274
3 170 121 275
3 186 185 187
3 54 53 55
3 27 4 146
3 289 208 211
3 206 207 208
3 207 211 208
3 207 75 73
3 76 104 75
3 76 75 207
3 63 55 54
3 187 186 193
3 213 221 222
3 213 212 221
3 40 44 42
3 267 270 266
3 270 269 266
3 241 240 255
3 255 242 241
3 241 242 240
3 271 264 272
3 267 269 266
3 266 268 267
3 263 268 265
3 270 266 269
3 84 87 85
3 86 85 87
3 87 86 85
3 84 83 103
3 189 190 191
3 58 50 56
3 75 79 77
3 208 215 212
3 267 271 270
3 0 3 1
3 1 41 0
3 41 31 0
3 0 31 30
3 0 172 1
3 172 39 1
3 41 1 0
3 1 39 172
3 172 0 1
3 1 41 39
3 39 42 41
3 42 39 35
3 42 34 40
3 40 33 42
3 33 40 34
3 42 35 34
3 144 142 0
3 144 1 143
3 143 142 144
3 144 0 1
3 52 192 61
3 192 60 61
3 182 192 52
3 182 183 184
3 182 60 192
3 182 192 183
3 265 268 266
3 266 269 265
3 129 130 127
3 123 130 129
3 219 103 251
3 101 251 252
3 251 103 252
3 103 219 83
3 83 219 102
3 219 253 102
3 214 100 253
3 219 214 253
3 289 214 251
3 214 219 251
3 76 258 211
3 104 289 211
3 211 207 76
3 289 104 100
3 104 258 100
3 104 211 258
3 214 289 253
3 100 289 214
3 247 246 255
3 254 247 255
3 244 242 247
3 247 246 244
3 246 247 254
3 242 246 247
3 247 254 242
3 247 255 254
3 247 246 255
3 246 240 255
3 211 103 101
3 206 254 255
3 76 103 211
3 207 211 73
3 289 103 211
3 76 289 211
3 104 258 100
3 207 258 76
3 207 76 211
3 211 207 258
3 101 240 254
3 255 254 240
3 240 249 248
3 240 248 255
3 249 239 248
3 251 101 103
3 254 73 101
3 242 255 246
3 246 255 254
3 289 253 214
3 211 207 289
3 206 207 211
3 207 206 73
3 73 206 101
3 214 253 103
3 253 214 289
3 289 252 253
3 214 258 289
3 103 100 253
3 101 103 252
3 289 211 252
3 103 253 252
3 253 100 214
3 211 101 252
3 211 258 206
3 206 101 211
3 258 76 206
3 258 214 100
3 100 104 76
3 76 258 100
3 104 103 76
3 100 103 104
3 258 211 289
3 246 242 241
3 241 240 255
3 255 246 241
3 255 247 246
3 247 101 254
3 247 254 246
3 254 242 246
3 242 244 241
3 101 73 207
3 73 201 207
3 101 254 73
3 62 254 255
3 62 73 254
3 69 201 73
3 62 101 254
3 254 255 62
3 101 248 254
3 255 248 239
3 239 62 255
3 248 101 249
3 249 239 248
3 255 254 248
3 201 61 60
3 69 201 73
3 69 61 201
3 207 206 201
3 73 258 207
3 207 201 73
3 258 206 207
3 127 129 130
3 127 135 130
3 130 132 127
3 132 36 133
3 132 130 36
3 130 129 123
3 123 36 130
3 130 132 129
3 283 279 278
3 278 279 283
3 278 282 279
3 278 285 281
3 281 282 278
3 283 282 287
3 217 210 216
3 73 70 69
3 46 40 44
3 43 44 40
3 33 43 40
3 47 197 45
3 162 200 51
3 277 262 135
3 107 135 262
3 262 137 106
3 137 105 106
3 262 107 137
3 105 107 139
3 139 106 105
3 107 262 139
3 105 137 107
3 125 107 126
3 105 139 107
3 139 126 107
3 107 125 135
3 135 107 125
3 135 105 107
3 107 105 137
3 137 105 106
3 106 105 135
3 141 140 125
3 122 38 120
3 141 138 140
3 141 106 138
3 234 238 225
3 231 238 226
3 238 225 226
3 238 237 234
3 234 225 238
3 6 72 71
3 116 112 270
3 112 269 270
3 113 112 116
3 113 110 111
3 110 113 112
3 113 112 116
3 112 113 110
3 220 221 212
3 212 215 220
3 62 69 70
3 203 202 206
3 210 204 209
3 209 213 210
3 106 119 137
3 122 120 119
3 119 106 122
3 141 140 122
3 106 122 137
3 141 122 106
3 122 140 38
3 106 125 135
3 135 137 106
3 136 106 138
3 106 136 125
3 125 135 106
3 141 106 135
3 125 136 134
3 133 134 136
3 106 125 135
3 135 141 106
3 205 150 196
3 147 196 150
3 44 66 46
3 43 66 44
3 33 43 44
3 4 145 146
3 256 257 243
3 244 240 241
3 240 245 243
3 240 244 245
3 271 270 115
3 116 115 270
3 41 39 46
3 42 39 44
3 44 46 42
3 33 44 39
3 42 46 39
3 46 67 41
3 57 50 56
3 216 221 222
3 278 283 279
3 279 283 282
3 60 192 201
3 184 192 183
3 62 52 61
3 62 53 52
3 182 61 52
3 213 209 212
3 278 285 279
3 27 162 146
3 89 88 93
3 89 93 90
3 93 89 88
3 11 26 10
3 11 14 26
3 199 166 164
3 164 165 199
3 101 83 103
3 83 102 103
3 73 70 69
3 3 27 30
3 30 0 3
3 27 3 4
3 27 162 21
3 162 27 4
3 27 21 30
3 210 213 216
3 216 213 222
3 221 213 212
3 210 204 209
3 210 209 213
3 209 212 213
3 204 212 209
3 213 221 222
3 112 113 116
3 112 111 113
3 149 191 148
3 98 91 95
3 91 94 95
3 91 89 93
3 93 94 91
3 88 93 89
3 91 98 89
3 97 98 89
3 90 97 89
3 90 98 97
3 89 98 93
3 93 89 98
3 93 88 89
3 90 98 89
3 51 68 5
3 58 59 68
3 81 74 80
3 15 162 28
3 162 24 28
3 22 162 23
3 162 22 21
3 30 23 162
3 21 24 162
3 162 23 22
3 22 23 14
3 12 15 9
3 28 162 22
3 162 24 28
3 12 13 15
3 11 17 13
3 16 13 17
3 15 17 162
3 16 15 13
3 12 13 15
3 12 162 28
3 12 9 13
3 13 162 12
3 9 12 15
3 13 9 12
3 12 162 13
3 13 11 14
3 14 9 13
3 11 22 14
3 12 9 15
3 28 22 162
3 28 162 12
3 15 28 12
3 15 12 14
3 12 28 9
3 24 21 22
3 28 15 21
3 21 24 28
3 24 9 28
3 11 17 162
3 17 18 162
3 18 17 26
3 26 10 11
3 26 17 10
3 26 13 11
3 26 18 16
3 18 26 17
3 15 9 14
3 14 17 15
3 13 9 12
3 9 13 14
3 17 11 26
3 13 16 11
3 13 11 14
3 16 26 11
3 11 17 14
3 229 224 232
3 133 138 136
3 138 136 134
3 140 141 138
3 141 135 125
3 125 138 141
3 141 140 133
3 136 135 141
3 135 133 141
3 136 125 135
3 141 133 132
3 133 127 132
3 130 132 127
3 127 133 135
3 125 135 136
3 136 131 126
3 173 45 178
3 178 45 197
3 167 173 33
3 33 32 167
3 170 171 167
3 170 167 173
3 168 37 169
3 172 37 168
3 175 169 170
3 170 169 37
3 37 121 274
3 274 170 37
3 37 172 121
3 170 167 173
3 32 173 167
3 167 171 32
3 170 284 171
3 167 170 171
3 171 36 284
3 275 170 274
3 275 274 286
3 170 275 288
3 285 279 281
3 279 278 282
3 282 281 279
3 284 36 171
3 281 284 285
3 282 281 285
3 170 284 171
3 198 177 178
3 175 177 176
3 177 175 178
3 173 175 170
3 170 274 173
3 175 176 274
3 274 170 175
3 173 178 175
3 261 286 108
3 275 274 286
3 286 261 275
3 274 108 286
3 108 261 262
3 262 277 108
3 108 280 261
3 277 262 285
3 277 281 278
3 281 276 285
3 276 277 123
3 123 285 276
3 277 278 129
3 129 123 277
3 123 129 285
3 276 281 277
3 158 157 156
3 156 158 157
3 156 155 158
3 209 208 212
3 202 206 203
3 206 208 209
3 242 246 244
3 244 240 242
3 246 242 101
3 244 246 248
3 240 245 249
3 245 240 248
3 240 244 248
3 2 144 143
3 4 145 144
3 1 2 143
3 2 4 144
3 196 195 194
3 196 194 190
3 186 185 193
3 49 48 50
3 33 39 172
3 172 174 33
3 1 172 39
3 33 42 39
3 142 166 174
3 199 33 174
3 166 199 174
3 174 172 142
3 33 199 180
3 1 142 172
3 42 41 46
3 42 46 39
3 41 1 46
3 4 1 0
3 39 46 1
3 1 4 142
3 181 199 166
3 166 200 181
3 0 3 4
3 4 51 162
3 199 181 180
3 1 31 0
3 41 67 31
3 31 1 41
3 0 31 30
3 30 0 31
3 31 0 67
3 0 30 3
3 30 29 23
3 23 3 30
3 194 193 195
3 75 76 79
3 208 211 215
3 151 222 221
3 87 221 86
3 151 87 8
3 151 221 87
3 39 169 168
3 168 172 39
3 98 95 97
3 54 48 53
3 48 52 53
3 52 61 53
3 66 65 48
3 47 48 65
3 48 47 52
3 52 182 61
3 61 48 52
3 182 52 179
3 52 47 179
3 136 125 131
3 125 136 135
3 135 127 125
3 136 125 131
3 165 142 174
3 205 150 196
3 196 195 205
3 205 260 150
3 259 150 260
3 279 278 283
3 278 283 279
3 280 278 279
3 199 176 177
3 174 199 165
3 164 165 199
3 174 176 199
3 142 174 176
3 142 172 174
3 278 279 280
3 279 278 283
3 166 163 164
3 164 200 166
3 190 148 191
3 190 196 147
3 147 148 190
3 217 216 218
3 193 204 210
3 204 216 210
3 217 210 216
3 81 80 82
3 80 81 74
3 81 19 82
3 93 88 90
3 90 98 93
3 56 48 55
3 48 56 50
3 48 66 54
3 66 48 50
3 48 54 55
3 199 200 162
3 191 200 181
3 199 181 200
3 180 189 181
3 181 199 180
3 189 191 181
3 200 51 162
3 51 191 149
3 190 191 189
3 148 191 190
3 191 148 149
3 51 200 191
3 91 89 88
3 90 88 89
3 89 91 92
3 90 92 89
3 271 267 264
3 268 264 267
3 13 26 11
3 26 13 16
3 180 184 185
3 180 185 186
3 185 184 183
3 184 198 179
3 179 183 184
3 184 180 198
3 187 186 188
3 189 187 188
3 186 180 198
3 189 198 180
3 189 180 187
3 180 186 187
3 189 188 190
3 194 190 188
3 178 197 198
3 198 197 47
3 47 179 198
3 43 33 173
3 173 45 43
3 63 54 53
3 70 69 73
3 61 69 62
3 70 69 73
3 69 61 73
3 70 62 69
3 244 241 242
3 242 254 244
3 240 254 241
3 241 244 240
3 254 242 241
3 103 244 101
3 252 103 101
3 252 101 251
3 244 242 254
3 254 101 244
3 101 252 103
3 103 244 101
3 251 254 252
3 252 101 251
3 101 254 251
3 110 111 112
3 111 114 112
3 111 263 109
3 109 114 111
3 288 275 285
3 275 262 261
3 261 285 275
3 285 261 262
3 279 285 262
3 262 280 278
3 278 279 262
3 261 279 285
3 285 288 261
3 279 282 285
3 284 281 171
3 279 278 282
3 285 282 281
3 282 171 281
3 282 281 287
3 281 284 285
3 288 281 285
3 281 288 287
3 288 171 170
3 284 281 171
3 171 288 284
3 288 285 284
3 115 271 111
3 111 114 115
3 109 114 111
3 114 109 119
3 115 117 272
3 272 271 115
3 117 119 118
3 118 272 117
3 119 117 114
3 117 115 114
3 112 116 269
3 269 110 112
3 265 269 266
3 269 116 266
3 265 110 269
3 132 130 36
3 132 140 133
3 133 130 132
3 218 152 223
3 98 93 90
3 90 94 98
3 20 90 93
3 98 94 93
3 230 259 94
3 259 230 260
3 230 160 260
3 6 19 90
3 19 20 90
3 90 19 6
3 19 20 6
3 7 8 151
3 7 151 152
3 218 223 160
3 6 82 19
3 6 98 259
3 98 20 7
3 98 19 20
3 19 98 6
3 221 151 222
3 222 218 221
3 152 151 160
3 160 218 152
3 7 82 8
3 80 8 81
3 82 81 8
3 151 152 222
3 152 216 222
3 152 218 217
3 217 216 152
3 210 195 193
3 259 205 260
3 205 260 259
3 195 218 260
3 218 223 260
3 260 205 195
3 217 195 210
3 218 195 217
3 20 98 259
3 160 223 152
3 223 7 152
3 160 7 223
3 259 218 7
3 218 259 217
3 217 152 218
3 7 218 152
3 160 233 7
3 259 6 20
3 6 82 19
3 6 19 20
3 82 7 19
3 98 93 94
3 259 71 260
3 98 259 93
3 98 94 90
3 260 71 150
3 260 150 205
3 217 205 195
3 195 210 217
3 150 147 205
3 147 195 205
3 5 195 147
3 260 205 217
3 71 5 72
3 72 98 71
3 71 51 5
3 148 147 5
3 147 98 150
3 51 149 148
3 51 148 5
3 147 150 5
3 68 59 72
3 90 59 72
3 59 90 58
3 90 72 71
3 64 71 72
3 64 59 63
3 72 90 59
3 59 64 72
3 64 63 71
3 7 19 20
3 19 88 20
3 93 20 88
3 93 20 98
3 232 230 233
3 232 235 229
3 233 235 232
3 20 259 7
3 260 217 7
3 7 259 260
3 217 223 232
3 260 223 217
3 223 230 232
3 160 235 20
3 235 93 20
3 20 259 160
3 259 260 223
3 223 160 259
3 160 223 230
3 235 230 233
3 230 223 232
3 235 160 230
3 98 236 93
3 237 228 236
3 236 235 93
3 227 229 235
3 229 93 235
3 233 93 229
3 232 233 229
3 227 232 229
3 227 235 236
3 227 231 237
3 231 238 237
3 236 238 231
3 228 236 231
3 237 236 98
3 236 238 228
3 228 98 236
3 236 237 238
3 98 238 237
3 237 234 98
3 234 237 238
3 71 74 63
3 82 71 6
3 82 81 74
3 6 90 82
3 82 74 71
3 78 86 87
3 80 78 87
3 86 8 87
3 81 82 74
3 82 90 63
3 74 82 63
3 74 80 81
3 81 80 8
3 8 82 81
3 8 90 82
3 80 87 8
3 53 74 63
3 53 63 54
3 74 78 80
3 62 74 53
3 74 62 70
3 74 70 78
3 6 82 98
3 93 90 98
3 20 93 98
3 72 6 98
3 68 5 63
3 150 72 5
3 72 63 5
3 71 6 72
3 150 71 72
3 63 72 98
3 68 193 5
3 6 71 259
3 82 7 20
3 20 98 82
3 260 7 259
3 7 82 259
3 260 218 7
3 20 7 93
3 260 259 71
3 150 205 260
3 150 260 71
3 260 205 218
3 150 195 205
3 195 193 217
3 195 218 205
3 195 150 193
3 217 218 195
3 150 5 193
3 259 82 6
3 93 92 89
3 89 63 93
3 99 90 92
3 93 91 92
3 92 91 95
3 95 99 92
3 95 97 99
3 92 90 89
3 90 68 63
3 63 89 90
3 90 98 68
3 97 96 98
3 97 98 99
3 96 68 98
3 97 68 96
3 98 90 99
3 233 232 230
3 144 142 145
3 144 143 142
3 142 146 145
3 1 0 2
3 2 4 1
3 2 0 3
3 3 4 2
3 209 203 206
3 202 206 203
3 209 204 203
3 73 77 78
3 73 75 77
3 70 78 53
3 70 73 78
3 156 159 157
3 215 211 289
3 131 127 125
3 125 135 126
3 131 125 126
3 124 131 126
3 131 127 125
3 135 124 125
3 131 125 124
3 125 127 135
3 277 129 123
3 127 130 129
3 127 129 135
3 130 123 129
3 129 277 135
3 136 125 126
3 126 128 136
3 125 124 126
3 128 126 124
3 124 125 139
3 126 124 128
3 124 126 139
3 33 140 32
3 38 138 140
3 140 33 38
3 138 141 140
3 32 140 132
3 132 130 36
3 140 141 133
3 140 133 132
3 133 130 132
3 141 130 133
3 130 141 138
3 226 238 225
3 238 226 228
3 64 59 57
3 57 56 64
3 58 57 59
3 58 56 57
3 289 100 253
3 253 252 289
3 100 83 102
3 102 253 100
3 253 102 252
3 251 83 254
3 251 289 252
3 102 83 103
3 103 252 102
3 103 251 252
3 83 251 103
3 251 254 289
3 284 132 36
3 36 171 284
3 36 132 32
3 32 171 36
3 249 240 239
3 239 245 249
3 240 243 239
3 245 250 257
3 250 239 243
3 243 257 250
3 245 239 250
3 192 60 183
3 192 73 60
3 73 201 60
3 206 202 201
3 73 206 201
3 186 184 185
3 202 60 201
3 201 203 202
3 183 184 60
3 60 202 183
3 184 183 185
3 186 185 193
3 185 204 193
3 203 183 202
3 185 186 183
3 183 203 185
3 203 204 185
3 30 27 29
3 25 29 27
3 30 24 27
3 58 68 5
3 68 51 5
3 68 50 51
3 25 24 51
3 25 51 29
3 25 27 24
3 50 68 58
3 49 50 51
3 51 29 49
3 51 4 29
3 30 4 3
3 3 0 30
3 4 0 3
3 30 29 4
3 0 14 162
3 46 67 41
3 46 11 67
3 31 14 23
3 23 0 30
3 11 162 14
3 31 11 14
3 31 30 29
3 29 0 31
3 30 0 29
3 31 23 30
3 11 31 67
3 23 14 0
3 41 67 31
3 31 0 41
3 46 48 67
3 67 41 46
3 49 67 48
3 67 29 31
3 0 29 162
3 49 50 29
3 49 29 67
3 50 162 29
3 49 48 50
3 29 0 31
3 45 197 65
3 47 65 197
3 163 166 200
3 200 162 163
3 111 114 113
3 114 115 116
3 116 113 114
3 177 176 175
3 175 169 177
3 174 175 176
3 176 177 174
3 175 174 172
3 168 175 172
3 168 169 175
3 142 0 143
3 143 174 142
3 0 39 1
3 1 143 0
3 143 1 172
3 172 168 174
3 174 143 172
3 168 172 39
3 172 1 39
3 45 43 33
3 65 66 43
3 45 47 65
3 65 43 45
3 47 66 65
3 45 33 47
3 221 220 86
3 85 86 220
3 84 103 83
3 83 103 252
3 252 219 83
3 103 220 252
3 103 85 220
3 289 252 219
3 86 79 85
3 85 103 86
3 79 103 84
3 84 85 79
3 103 85 84
3 84 103 252
3 252 220 84
3 103 219 252
3 84 289 103
3 220 219 215
3 219 103 289
3 289 215 219
3 220 252 219
3 54 55 56
3 55 57 56
3 54 63 55
3 57 63 64
3 57 55 63
3 282 281 285
3 285 276 282
3 281 282 284
3 284 285 281
3 285 284 276
3 282 171 284
3 276 36 123
3 123 282 276
3 36 284 171
3 36 130 123
3 36 276 284
3 11 26 10
3 227 235 231
3 227 231 230
3 232 227 230
3 224 226 231
3 224 231 235
3 224 229 228
3 232 229 235
3 232 235 227
3 229 224 235
3 232 230 229
3 226 224 228
3 155 159 156
3 155 157 154
3 154 155 157
3 157 27 158
3 158 154 157
3 154 155 153
3 103 84 83
3 83 104 103
3 84 104 83
3 104 79 76
3 104 84 79
3 112 110 111
3 110 265 263
3 263 111 110
3 110 112 265
3 155 153 154
3 157 27 155
3 155 153 157
3 161 153 155
3 155 27 161
3 161 27 162
3 155 153 161
3 161 27 155
3 162 27 161
3 142 146 4
3 165 166 164
3 146 27 4
3 162 27 146
3 162 200 27
3 163 166 200
3 200 162 163
3 163 164 166
3 164 142 165
3 163 164 162
3 157 154 153
3 153 27 157
3 154 159 155
3 155 153 154
3 159 161 155
3 154 157 159
3 153 155 161
3 27 162 142
3 161 162 153
3 162 27 153
3 165 142 164
3 146 142 27
3 142 165 27
3 142 163 164
3 163 162 161
3 161 159 163
3 161 162 27
3 162 163 146
3 161 27 159
3 27 162 146
3 163 159 164
3 163 142 146

